P3
123 20
255
151 205 255 152 206 255 153 207 255 154 208 255 154 208 255 154 209 255 154 209 255 154 209 255 154 209 255 154 209 255 154 209 255 154 209 255 154 209 255 154 209 255 154 209 255 153 209 255 153 209 255 153 209 255 153 209 255 153 209 255 153 210 255 153 210 255 153 209 255 152 209 255 153 209 255 152 209 255 152 209 255 152 209 255 152 209 255 152 210 255 152 209 255 152 210 255 152 210 255 152 210 255 151 210 255 152 210 255 151 210 255 151 210 255 151 210 255 151 210 255 151 210 255 151 210 255 151 211 255 151 211 255 151 211 255 151 211 255 151 211 255 151 211 255 151 211 255 151 212 255 152 212 255 152 212 255 152 212 255 152 212 255 152 212 255 152 212 255 152 212 255 153 213 255 153 213 255 153 213 255 153 213 255 153 213 255 153 213 255 153 213 255 154 214 255 153 214 255 154 214 255 154 214 255 154 214 255 154 214 255 154 215 255 155 215 255 155 215 255 155 215 255 156 215 255 156 215 255 156 215 255 156 216 255 157 216 255 157 216 255 157 216 255 157 216 255 158 216 255 158 216 255 158 216 255 159 217 255 159 217 255 159 217 255 160 217 255 160 217 255 160 217 255 160 217 255 160 217 255 160 217 255 160 217 255 161 218 255 161 218 255 161 218 255 162 218 255 162 218 255 162 218 255 162 218 255 162 218 255 162 218 255 162 218 255 162 218 255 162 218 255 162 218 255 162 218 255 162 218 255 162 218 255 162 218 255 162 218 255 162 218 255 162 218 255 161 218 255 161 218 255 161 217 255 161 216 254 160 216 254 159 216 254 157 215 255 156 212 253 
158 212 255 158 213 255 158 213 255 158 213 255 159 213 255 159 213 255 159 213 255 159 213 255 159 213 255 159 213 255 159 213 255 159 213 255 159 213 255 159 213 255 158 213 255 158 212 255 158 213 255 158 213 255 159 213 255 158 213 255 159 213 255 159 213 255 158 213 255 158 213 255 158 213 255 158 213 255 158 213 255 158 213 255 158 213 255 158 213 255 158 213 255 158 213 255 158 213 255 158 213 255 157 213 255 157 213 255 157 213 255 157 213 255 157 214 255 157 214 255 157 214 255 157 214 255 157 214 255 157 214 255 157 214 255 157 214 255 157 214 255 157 215 255 157 215 255 157 215 255 158 215 255 157 215 255 158 215 255 158 216 255 158 216 255 158 216 255 158 216 255 159 216 255 159 216 255 159 216 255 160 217 255 160 217 255 160 217 255 160 217 255 160 217 255 160 217 255 160 217 255 160 217 255 161 217 255 161 217 255 161 218 255 161 218 255 162 218 255 162 218 255 162 218 255 163 218 255 163 219 255 163 219 255 163 219 255 164 219 255 164 219 255 164 219 255 164 219 255 165 219 255 165 220 255 165 220 255 166 220 255 166 220 255 166 220 255 166 220 255 166 220 255 167 220 255 167 221 255 167 221 255 167 221 255 167 221 255 167 221 255 168 221 255 168 222 255 168 222 255 168 222 255 168 222 255 168 222 255 168 222 255 169 222 255 169 222 255 169 222 255 169 222 255 169 222 254 168 221 254 169 222 254 168 222 254 169 221 253 168 221 253 168 221 254 168 221 254 168 221 253 168 222 254 169 224 255 168 224 255 167 221 255 168 220 255 166 222 255 
165 217 255 164 217 255 164 217 255 164 217 255 164 217 255 164 217 255 164 217 255 164 217 255 164 217 255 164 217 255 163 217 255 163 217 255 163 217 255 164 217 255 163 217 255 163 217 255 163 217 255 163 217 255 163 217 255 163 217 255 163 217 255 163 217 255 163 217 255 163 217 255 163 217 255 163 217 255 163 217 255 163 217 255 163 217 255 163 217 255 163 217 255 163 217 255 163 217 255 163 217 255 163 217 255 163 217 255 163 217 255 163 217 255 163 217 255 163 217 255 163 218 255 163 218 255 163 218 255 163 218 255 163 218 255 163 218 255 163 218 255 164 218 255 164 218 255 164 219 255 164 219 255 164 219 255 164 219 255 164 219 255 164 219 255 165 219 255 165 220 255 165 220 255 166 220 255 166 220 255 166 220 255 166 220 255 166 220 255 166 221 255 167 221 255 167 221 255 167 221 255 167 221 255 167 221 255 167 221 255 168 221 255 168 221 255 168 222 255 168 222 255 168 222 255 169 222 255 169 222 255 169 223 255 169 223 255 170 223 255 170 223 255 170 223 255 170 224 255 171 224 255 171 224 255 172 224 255 172 224 255 172 224 255 172 225 255 172 225 255 172 225 255 172 225 255 172 225 255 173 225 255 173 225 255 173 225 255 174 226 255 174 225 254 174 225 254 174 226 254 174 225 253 174 225 252 174 226 254 175 226 253 175 226 254 175 226 253 175 225 252 175 226 253 176 228 255 176 230 255 176 228 255 176 230 255 175 232 255 175 231 255 175 229 255 174 229 255 175 230 255 175 228 255 175 193 202 170 168 144 174 174 159 182 170 141 172 171 153 
171 221 255 171 221 255 171 221 255 171 221 255 171 221 255 171 221 255 171 221 255 171 220 255 170 220 255 170 220 255 170 220 255 170 220 255 170 220 255 170 220 255 169 221 255 169 221 255 169 221 255 169 221 255 169 221 255 169 221 255 169 221 255 169 221 255 169 221 255 169 221 255 169 221 255 168 221 255 168 221 255 168 221 255 168 221 255 168 221 255 168 221 255 167 221 255 167 221 255 167 221 255 167 221 255 167 222 255 167 221 255 167 222 255 167 222 255 167 222 255 167 222 255 168 222 255 168 222 255 168 222 255 168 222 255 168 222 255 168 223 255 168 223 255 169 223 255 169 223 255 169 223 255 169 223 255 169 223 255 170 223 255 170 223 255 170 224 255 170 224 255 170 224 255 171 224 255 171 224 255 171 225 255 171 225 255 171 225 255 172 225 255 172 225 255 172 225 255 172 225 255 172 225 255 172 226 255 173 226 255 173 226 255 173 226 255 174 226 255 174 227 255 174 227 255 175 227 255 175 227 255 175 227 255 175 227 255 176 228 255 176 228 255 177 228 255 177 228 255 177 228 255 178 228 255 178 229 255 178 228 255 178 228 255 178 229 255 179 229 255 179 229 255 179 229 255 180 229 253 180 228 252 180 228 252 180 229 254 180 229 254 180 231 255 181 232 255 181 232 255 181 233 255 181 236 255 183 235 255 182 234 255 182 232 255 182 235 255 183 238 255 183 235 255 181 225 248 180 214 229 181 228 248 183 208 221 185 194 186 184 208 214 183 221 235 184 219 231 184 205 211 187 175 149 177 157 122 179 150 98 189 150 90 184 140 68 189 144 64 
177 225 255 177 225 255 177 225 255 177 226 255 177 225 255 177 225 255 177 225 255 176 225 255 176 225 255 176 225 255 176 225 255 176 225 255 176 225 255 176 225 255 176 225 255 176 225 255 176 225 255 176 225 255 176 225 255 176 225 255 176 225 255 176 225 255 176 225 255 176 225 255 176 225 255 175 225 255 175 225 255 175 225 255 175 225 255 175 225 255 175 225 255 174 226 255 174 226 255 174 226 255 174 226 255 174 226 255 174 226 255 174 226 255 174 226 255 174 226 255 174 226 255 174 227 255 174 227 255 174 227 255 174 227 255 175 227 255 175 227 255 175 227 255 175 227 255 175 227 255 175 228 255 176 228 255 176 228 255 176 228 255 176 228 255 177 228 255 177 228 255 177 229 255 177 229 255 177 229 255 177 229 255 178 229 255 178 229 254 178 229 254 178 229 255 179 230 255 179 230 255 179 229 254 179 229 254 180 230 255 180 230 254 180 230 254 181 230 255 181 230 254 181 230 254 181 230 254 181 230 253 182 231 253 182 231 253 183 231 253 183 231 254 183 232 254 183 231 253 183 231 252 184 232 253 184 231 253 184 233 254 184 233 254 184 231 252 184 232 253 185 232 252 185 233 253 185 237 255 185 240 255 186 242 255 187 236 255 187 238 255 190 231 246 187 228 243 186 227 243 189 212 217 193 178 146 186 166 133 182 167 137 191 161 112 189 175 133 184 181 150 189 166 118 186 152 86 188 148 79 189 152 83 185 148 77 188 137 52 184 138 65 181 141 66 189 148 64 185 137 54 192 139 55 176 133 54 160 127 56 170 130 58 176 130 53 186 139 56 
183 230 255 183 230 255 183 230 255 183 230 255 183 230 255 183 230 255 182 230 255 182 230 255 182 230 255 182 230 255 181 230 255 181 230 255 181 230 255 181 230 255 181 230 255 181 230 255 181 230 255 181 230 255 181 230 255 181 230 255 181 230 255 181 230 255 181 230 255 181 230 255 181 230 255 181 230 255 181 230 255 181 230 255 181 230 255 181 230 255 181 230 255 181 230 255 181 231 255 181 231 255 181 231 255 181 231 255 181 231 255 181 231 255 181 231 255 181 231 255 181 231 255 181 231 255 181 231 255 182 231 255 182 231 255 182 231 255 182 232 255 182 232 255 182 232 255 182 232 255 183 232 255 183 232 254 183 231 253 183 231 253 184 231 252 184 231 252 184 231 252 184 233 253 184 233 254 184 232 253 184 233 253 185 233 253 186 235 255 187 236 255 186 234 254 185 233 253 185 233 253 185 236 255 186 238 255 186 235 255 187 238 255 187 238 255 187 235 255 186 236 255 186 237 255 186 237 255 188 241 255 186 240 255 187 241 255 189 241 255 189 239 255 189 239 255 190 242 255 193 245 255 190 241 255 190 244 255 189 238 255 189 239 255 194 246 255 192 243 255 190 243 255 190 243 255 195 209 201 195 186 154 192 189 159 190 161 114 183 157 109 172 133 79 160 123 69 176 135 72 182 142 93 183 122 55 179 119 46 155 110 54 156 120 64 178 127 48 178 125 42 176 125 41 169 122 44 167 126 47 160 121 42 156 114 45 159 120 54 159 119 46 162 124 45 164 123 46 160 114 46 147 109 46 157 120 47 152 117 43 132 97 39 131 96 41 141 107 45 
190 235 255 190 235 255 189 235 255 189 235 255 189 234 255 189 234 255 189 234 255 189 234 255 189 234 255 189 234 255 189 234 255 189 234 255 189 234 255 188 234 255 188 234 255 189 234 255 188 234 255 188 234 255 188 234 255 188 234 255 188 234 255 188 235 255 188 235 255 188 235 255 188 234 255 188 235 255 188 234 254 188 235 254 188 235 255 188 235 255 188 235 255 187 235 254 187 235 254 187 235 255 187 235 255 187 235 255 187 235 255 187 235 255 187 235 255 187 236 255 187 236 255 188 236 255 188 236 255 187 236 255 187 235 254 187 235 254 187 235 253 188 235 252 188 235 252 188 235 252 189 236 254 189 239 255 190 243 255 190 244 255 189 245 255 189 245 255 189 245 255 189 241 255 190 241 255 190 244 255 190 242 255 191 243 255 187 236 251 183 232 249 188 241 255 190 245 255 194 245 255 196 232 243 189 226 238 192 238 254 188 224 236 187 223 236 191 239 255 192 237 252 195 234 245 198 235 243 184 212 214 184 188 167 175 174 149 187 218 223 191 227 236 194 234 242 178 187 161 163 178 156 189 223 222 186 202 188 170 157 109 126 126 102 158 188 187 184 201 183 188 177 134 192 179 140 185 143 78 186 133 65 187 130 54 176 124 53 186 125 45 172 117 47 166 112 44 169 118 48 169 115 47 188 134 60 188 131 61 159 113 54 160 122 74 178 129 64 193 145 60 176 131 54 175 131 53 173 131 51 158 117 47 164 115 47 175 123 49 154 113 44 159 120 43 136 103 39 114 82 36 116 90 37 150 113 42 125 91 37 117 88 37 132 103 41 137 107 43 
196 239 255 196 239 255 196 239 255 196 239 255 196 239 255 195 239 255 195 239 255 195 239 255 195 239 255 195 239 255 195 239 255 195 239 255 195 239 255 195 239 255 195 239 255 195 239 255 195 239 255 195 239 255 195 239 255 195 239 254 195 238 253 195 237 252 195 238 252 195 239 254 195 239 255 195 239 255 194 240 255 195 241 255 195 239 254 195 239 254 195 240 255 193 240 255 194 241 255 193 238 253 192 237 252 192 237 252 192 238 253 192 238 252 192 238 252 192 238 253 191 237 252 192 238 252 193 238 252 194 239 253 196 243 255 198 245 255 198 247 255 197 248 255 196 248 255 195 247 255 195 245 255 189 229 245 187 210 218 185 197 197 183 164 150 186 161 147 199 170 160 199 157 141 191 158 147 191 163 148 190 151 126 180 144 122 174 129 96 166 122 89 179 142 113 187 154 125 193 151 115 186 123 75 188 133 72 181 147 90 179 138 77 181 140 74 182 155 102 193 157 98 183 140 77 173 135 75 169 122 56 176 120 49 136 93 40 166 121 59 167 133 68 164 135 73 144 110 47 121 97 35 164 133 59 184 138 53 162 125 48 157 122 46 154 121 46 142 113 43 166 122 40 168 128 41 155 125 47 146 118 53 158 122 54 148 114 48 139 103 46 174 127 51 185 128 52 182 123 53 160 113 48 142 102 42 184 124 53 183 129 55 188 137 51 181 131 50 175 135 51 166 127 50 167 127 51 159 124 48 154 122 46 157 120 43 170 130 47 165 126 46 158 119 43 140 108 40 151 119 42 157 120 44 103 78 35 116 83 38 130 97 39 121 96 35 120 96 35 
204 242 254 203 242 254 203 242 254 203 242 254 204 242 255 203 242 254 203 242 254 203 242 254 203 242 254 202 242 254 202 242 254 202 242 254 202 242 254 202 242 254 202 242 254 202 242 254 202 243 254 202 242 253 202 242 253 202 244 255 204 249 255 202 251 255 200 249 255 201 246 255 203 244 255 204 247 255 205 242 250 202 240 246 200 246 255 200 245 255 201 243 252 206 243 250 203 241 250 208 253 255 209 255 255 211 255 255 209 252 255 211 255 255 212 255 255 213 255 255 214 255 255 209 255 255 209 255 255 204 250 255 196 235 244 189 228 235 185 213 212 189 201 188 192 193 179 195 177 152 189 155 118 185 137 92 188 123 72 190 118 69 191 113 63 189 112 65 171 98 55 172 105 60 175 112 66 164 105 57 160 105 57 168 109 61 170 109 61 167 106 61 149 90 47 134 79 37 138 82 37 143 95 43 157 113 47 143 103 41 158 116 46 147 109 43 133 96 35 136 98 36 133 97 38 132 99 38 121 91 40 102 74 40 120 92 46 140 118 46 137 113 43 124 104 39 117 101 45 107 93 43 86 77 36 128 105 46 122 102 42 119 96 41 105 84 37 100 84 38 92 78 35 137 115 47 180 137 51 153 112 43 168 121 49 168 120 49 115 83 37 103 75 33 106 75 31 95 64 28 110 75 33 150 98 42 153 103 43 163 111 44 162 116 48 165 124 50 162 122 49 170 123 48 125 93 38 131 105 41 138 113 43 109 82 35 96 75 34 122 94 38 132 103 40 139 109 39 129 107 37 118 95 34 120 90 35 91 67 29 81 58 28 82 61 29 75 60 25 
212 247 255 212 247 255 213 248 255 212 248 255 212 247 255 213 248 255 214 250 255 213 249 255 212 249 255 212 249 255 213 250 255 212 249 255 212 248 255 211 248 255 212 249 255 211 247 255 212 248 255 214 252 255 210 252 255 210 244 248 194 215 209 190 172 139 221 182 133 207 161 107 187 143 89 169 135 92 170 125 77 181 129 79 180 141 99 188 147 100 162 125 81 156 118 73 161 127 81 152 151 133 166 156 128 157 174 164 178 210 211 157 186 179 154 185 186 154 194 203 127 154 148 157 170 154 162 170 152 147 149 124 132 114 69 137 115 61 167 125 55 176 119 52 172 112 54 170 110 52 174 109 50 171 105 51 161 100 52 153 94 48 161 97 49 163 102 52 141 89 45 133 88 40 138 93 42 137 92 46 150 101 54 156 104 58 128 85 49 99 74 41 89 69 38 92 73 42 91 82 48 92 79 47 91 75 45 91 74 46 79 68 43 72 65 43 79 72 46 88 75 45 75 65 40 67 57 34 73 64 35 97 81 40 119 96 42 108 91 37 93 78 32 114 93 35 152 126 44 139 111 40 107 85 33 103 84 31 119 99 33 115 89 32 110 89 35 127 106 41 123 101 39 164 119 46 187 133 49 174 127 46 165 122 45 136 100 40 131 91 38 107 74 34 85 64 29 90 70 31 101 75 34 149 109 44 150 102 40 122 84 36 123 84 37 131 96 40 161 110 42 156 105 39 141 99 38 142 101 39 134 98 38 95 67 30 73 51 25 87 70 30 75 68 30 75 62 29 74 61 28 70 57 27 90 69 30 84 75 29 73 67 26 63 55 25 61 51 25 
223 246 252 224 248 251 219 243 245 221 245 249 221 247 254 217 242 247 213 235 237 213 237 242 218 240 243 215 237 238 210 233 235 215 238 240 215 242 246 217 242 243 215 240 242 217 246 251 213 245 251 204 228 222 211 184 144 206 142 76 194 124 53 198 120 41 191 114 41 198 120 49 186 114 53 165 102 49 167 106 51 164 102 51 167 97 48 167 102 50 145 92 51 144 91 50 145 93 47 133 81 42 124 73 36 103 65 33 95 70 43 85 63 33 71 56 33 62 50 33 103 70 32 158 100 43 149 92 35 154 102 33 150 106 36 153 109 35 171 118 45 174 114 53 160 109 56 158 112 62 153 112 68 150 118 81 134 113 90 114 104 99 106 103 110 118 118 124 118 126 135 113 124 138 89 112 138 95 116 143 126 129 146 121 124 141 96 109 134 96 108 127 110 116 124 112 115 116 99 103 108 89 92 100 89 88 97 83 84 95 74 80 94 59 73 91 54 68 89 54 67 89 56 71 93 52 68 92 55 70 89 76 83 89 74 82 94 71 82 96 69 80 95 80 88 94 126 122 94 120 116 86 91 90 77 102 99 76 99 97 70 108 103 65 110 97 60 116 95 52 124 96 46 124 93 42 141 112 46 111 85 33 94 69 28 98 79 31 117 91 38 97 78 37 72 65 35 89 77 38 75 67 36 54 47 26 62 52 27 61 46 25 63 46 24 70 50 25 85 62 30 69 57 29 83 67 32 95 69 32 109 83 38 91 74 36 70 63 33 76 72 32 67 63 30 59 59 29 67 64 31 66 64 33 59 60 31 47 49 25 42 44 23 48 47 25 53 55 27 
120 107 80 124 112 77 122 105 70 113 101 70 143 123 82 127 111 71 88 81 54 118 99 65 144 117 65 120 101 54 110 90 52 106 86 53 102 94 58 88 81 50 93 80 48 123 103 62 145 116 64 148 102 39 175 106 26 203 123 35 191 120 37 181 115 39 155 99 38 141 89 38 143 89 39 141 88 42 131 84 42 106 67 38 113 70 42 123 78 47 125 82 48 128 86 51 105 73 43 97 67 42 118 81 51 144 95 58 146 94 56 168 108 66 175 116 69 180 120 70 176 117 70 175 119 73 172 126 85 163 131 98 163 141 115 156 146 129 156 158 149 149 162 167 134 159 178 121 157 187 113 155 194 103 151 196 93 143 193 89 139 187 89 135 180 96 133 169 109 135 155 105 130 153 112 133 156 153 164 171 148 155 162 130 134 135 112 115 112 96 99 95 74 77 75 54 57 64 24 37 55 7 30 53 6 31 54 6 32 56 6 32 57 30 52 65 51 69 73 41 60 70 12 32 54 32 56 68 56 56 51 9 11 23 12 17 27 13 23 43 15 27 47 15 25 43 13 20 32 17 19 21 21 24 24 27 31 31 27 33 37 32 37 40 43 44 47 56 54 56 66 61 60 73 72 65 77 81 66 90 86 63 79 76 57 91 79 52 82 77 46 58 54 30 35 36 20 50 39 15 78 50 19 60 47 21 58 48 26 51 43 24 47 39 22 46 44 24 62 63 34 86 84 41 98 86 37 95 82 35 77 71 32 46 44 23 42 39 22 30 27 17 52 46 26 59 54 30 41 42 23 46 45 25 45 42 22 50 43 22 48 41 21 57 53 25 71 61 27 
104 82 58 110 85 59 111 85 59 103 80 56 107 83 54 93 75 47 74 64 41 87 73 36 84 73 31 76 62 30 77 61 30 68 59 27 61 55 26 66 57 33 113 96 59 144 118 77 190 149 95 193 157 112 197 171 127 199 175 131 207 181 135 212 187 140 202 181 140 196 178 143 197 178 145 200 180 147 196 177 148 192 174 149 203 182 153 208 185 153 203 180 151 194 174 148 197 177 151 215 191 161 222 195 164 230 200 169 231 203 173 225 201 175 223 201 178 224 203 182 215 198 183 211 198 189 204 202 203 195 203 215 186 201 221 174 196 225 162 188 222 152 180 216 147 172 208 147 170 204 147 166 196 149 164 190 151 162 184 159 166 183 160 164 177 154 156 166 145 139 139 140 133 130 142 131 121 156 139 117 142 125 102 129 116 96 122 116 109 114 114 115 106 109 114 100 108 123 96 110 132 93 114 141 90 113 143 88 112 144 87 111 142 104 127 149 112 135 154 113 134 152 89 106 130 95 114 133 104 121 141 74 96 129 74 95 125 75 96 125 75 96 123 77 97 124 81 98 121 83 98 117 85 96 110 81 91 104 80 89 102 79 88 101 82 92 105 98 104 113 93 100 112 96 103 115 107 112 125 116 122 138 124 137 161 117 138 168 115 140 176 113 131 159 101 115 131 92 98 106 94 96 96 87 77 61 59 45 21 56 43 19 70 50 25 59 44 23 76 55 26 70 47 24 58 41 18 75 58 23 62 44 22 50 37 19 34 31 14 31 30 14 63 47 23 73 52 25 39 36 18 46 37 18 43 36 18 44 38 19 48 44 22 47 46 21 51 49 22 
67 77 85 68 79 86 57 69 80 61 74 86 64 76 88 61 72 83 61 71 81 60 70 81 60 69 79 64 72 80 57 66 76 79 79 79 96 102 101 125 139 143 147 152 154 184 187 182 185 188 180 156 157 144 151 147 131 183 170 150 205 195 173 217 204 177 235 225 200 230 222 198 227 217 194 222 216 195 219 212 190 224 206 174 230 208 174 200 176 143 188 167 141 200 176 143 236 208 165 255 232 188 255 226 188 243 218 186 226 204 178 206 188 167 182 169 155 161 152 145 145 140 138 130 128 131 118 118 125 112 115 126 106 114 131 101 114 138 104 122 150 109 130 163 114 139 174 116 144 182 110 139 180 101 131 174 104 132 172 114 141 179 109 133 165 131 146 170 155 162 176 161 163 171 162 162 168 160 159 162 162 159 159 163 158 157 162 159 161 160 159 163 159 159 163 157 158 164 155 156 164 153 155 163 151 154 165 149 153 165 147 152 165 141 148 165 136 144 164 145 151 164 146 151 156 128 134 149 121 131 150 117 130 152 113 132 160 112 135 168 116 137 169 115 137 168 113 135 168 113 135 167 113 135 166 114 135 166 114 136 166 115 137 167 117 138 168 121 140 167 130 142 160 133 142 157 137 145 158 135 145 163 127 141 165 114 130 156 104 123 152 102 124 155 108 130 163 110 132 166 99 122 156 92 104 122 71 68 73 66 55 48 59 56 35 82 71 40 75 64 37 101 81 42 97 78 40 90 74 38 100 87 41 131 107 49 115 102 51 104 93 48 91 85 45 92 82 44 89 78 42 87 80 45 83 82 47 84 83 46 80 78 44 85 79 41 72 65 36 
76 77 83 81 82 88 90 90 94 88 88 93 95 92 94 108 101 99 109 102 101 106 100 100 104 99 99 101 96 97 154 139 125 110 100 86 56 53 55 96 91 86 149 140 125 200 191 170 208 207 194 195 195 189 205 201 191 228 223 215 242 240 233 249 246 238 255 255 252 252 251 226 248 240 195 251 237 186 253 231 177 254 226 171 253 220 165 255 219 161 250 212 158 235 203 158 220 192 155 177 156 128 128 113 95 84 76 66 50 46 42 30 28 27 21 21 22 14 14 16 6 7 8 5 6 6 12 12 13 8 8 8 9 8 7 21 18 17 20 17 14 24 21 18 35 33 31 59 57 56 94 92 90 124 126 130 113 124 140 105 117 136 101 112 127 107 117 133 115 122 136 117 122 134 117 123 135 118 124 135 121 125 136 126 128 136 118 123 134 116 122 133 116 121 133 114 120 132 113 119 132 113 119 132 112 118 131 111 117 130 111 117 130 111 117 129 112 117 129 109 115 129 106 114 129 109 116 130 112 117 129 114 119 129 108 113 125 102 110 125 105 112 125 106 112 125 103 110 124 103 110 124 103 109 124 102 109 123 103 110 124 110 115 126 127 125 128 149 138 129 163 148 131 165 150 139 124 115 112 72 69 70 47 44 45 38 37 38 33 32 33 29 30 32 38 39 41 58 61 64 108 110 115 110 113 125 106 113 127 111 116 125 124 113 92 125 101 54 122 103 57 135 110 58 149 126 62 142 120 58 135 118 57 128 106 48 190 169 122 144 111 76 89 73 44 119 94 55 87 72 45 66 58 43 75 70 50 92 83 55 94 81 49 105 87 45 110 88 47 
101 85 73 102 85 72 105 87 75 107 90 79 105 89 79 106 90 79 109 93 82 105 90 79 103 89 79 109 90 80 174 149 120 104 91 66 114 94 69 243 230 185 255 255 236 254 247 217 233 217 190 228 211 189 220 207 191 215 202 187 221 207 188 227 213 192 226 213 189 242 230 190 255 242 183 254 226 165 254 220 156 251 212 149 247 207 145 213 183 138 186 164 136 158 140 118 73 64 53 15 15 14 3 3 5 1 2 3 8 9 10 17 17 19 31 30 32 33 31 32 29 27 27 19 18 17 38 35 34 32 29 29 23 24 25 45 42 42 23 23 24 23 22 23 28 22 18 11 8 5 4 2 0 40 31 22 132 122 104 117 123 133 99 105 118 104 110 122 108 117 131 107 115 128 106 114 127 106 113 126 109 114 126 110 115 126 107 113 126 107 113 126 106 113 126 106 113 126 106 113 126 107 113 126 106 113 127 107 113 126 107 113 127 108 114 127 108 114 127 110 116 127 112 116 127 111 115 128 111 116 128 114 117 129 108 112 125 103 111 127 107 113 128 108 113 128 108 114 128 110 115 129 112 117 130 116 120 132 123 125 134 145 139 137 164 150 138 181 160 138 176 155 136 76 67 65 13 11 11 15 14 14 21 18 18 31 27 25 30 28 27 33 31 31 26 24 23 36 24 15 46 43 35 115 113 116 116 107 105 116 105 101 139 115 95 174 128 87 171 126 86 168 121 84 159 114 80 132 99 75 118 92 73 128 96 71 149 111 82 150 107 76 140 100 71 143 106 73 133 99 70 123 89 64 121 88 64 121 90 63 129 94 65 125 90 63 121 87 62 
107 90 77 105 89 77 98 85 76 99 85 75 101 87 78 110 96 87 126 105 91 123 100 86 118 103 91 120 104 93 115 105 102 120 111 104 112 98 79 153 129 103 224 208 184 246 238 222 234 216 184 195 168 121 144 121 87 131 108 77 129 104 71 130 105 72 136 108 71 154 119 75 200 172 126 255 221 161 241 199 145 231 194 144 210 180 139 184 163 138 155 139 118 16 17 15 0 0 0 41 30 23 33 27 22 14 15 18 38 34 34 35 33 33 32 30 30 41 39 41 40 38 39 32 32 34 34 35 39 37 38 43 39 40 45 38 36 37 37 35 36 44 41 42 71 59 52 35 28 24 2 6 10 0 0 0 44 47 50 113 123 137 92 102 118 92 98 110 96 100 110 94 97 106 97 99 108 100 102 110 101 103 111 101 104 112 102 104 112 102 105 113 101 104 112 101 103 111 102 104 112 103 104 111 104 104 111 103 103 110 102 102 109 102 101 107 101 100 105 100 99 103 98 97 102 95 95 100 93 92 98 91 90 95 88 89 94 86 88 95 85 87 94 87 87 93 88 88 93 87 87 92 86 85 91 85 85 89 91 88 88 95 89 85 96 88 84 98 91 86 71 63 59 12 10 6 83 55 33 35 27 26 28 29 33 34 32 32 25 26 30 25 26 29 36 33 32 44 35 31 32 40 52 56 65 78 66 69 76 72 74 79 78 78 84 72 76 87 70 75 86 71 77 87 69 75 86 70 76 86 71 76 86 68 74 85 63 70 81 64 71 81 65 71 81 64 70 82 64 70 81 66 72 81 65 70 81 65 71 81 65 71 81 67 72 82 67 72 81 
108 89 72 101 85 71 97 82 70 96 80 68 91 77 66 89 76 66 98 82 71 108 89 76 114 95 79 105 89 76 111 92 75 106 87 71 112 92 75 105 83 64 108 81 60 131 103 77 152 124 94 162 135 102 166 136 100 164 135 99 165 135 97 163 133 94 160 130 91 151 117 76 137 105 71 144 113 78 134 101 69 135 104 72 123 94 67 127 97 70 94 71 49 62 40 21 55 38 24 102 67 38 110 74 41 40 29 20 41 34 30 20 19 18 22 23 24 46 45 47 35 26 19 37 34 35 34 35 40 22 25 31 28 27 29 28 26 27 24 21 21 46 37 31 49 35 25 65 43 25 80 51 28 65 42 24 80 57 40 90 69 53 76 58 44 57 43 32 44 33 25 40 32 27 34 30 26 25 23 22 19 19 20 16 17 18 15 15 17 15 16 17 14 15 16 14 15 15 13 14 15 12 13 14 11 12 13 9 10 11 10 11 12 10 11 11 11 11 11 9 10 10 10 11 10 12 11 10 12 11 10 11 10 9 13 12 10 16 13 11 15 13 11 18 15 12 18 15 12 20 16 13 23 19 15 26 21 15 26 21 16 26 21 15 28 22 17 32 26 19 40 31 23 74 55 38 121 82 49 112 76 47 92 66 46 79 59 43 66 51 38 70 54 40 78 61 47 76 63 51 89 73 60 92 75 62 103 82 67 107 86 71 100 84 74 100 87 77 108 94 83 107 93 81 113 97 84 118 100 85 117 99 84 120 101 85 124 103 86 125 103 86 123 103 86 127 106 88 131 109 90 132 110 90 135 111 90 137 112 90 142 115 92 144 115 91 143 116 90 
92 78 65 88 74 61 81 69 60 86 73 61 87 73 62 82 70 60 78 68 60 85 73 63 89 75 64 88 74 64 99 83 71 105 86 71 103 84 67 98 80 66 98 80 66 101 80 63 97 75 57 96 73 55 101 76 56 97 71 51 96 70 50 96 70 49 91 66 46 94 69 50 98 72 50 84 61 42 77 57 40 80 58 39 77 55 37 68 49 34 82 59 41 92 67 47 97 70 47 94 67 46 104 74 50 110 78 51 86 62 42 72 54 38 64 50 39 57 46 36 56 46 38 55 46 40 72 58 49 58 47 39 56 46 39 56 47 40 58 48 40 68 54 43 84 65 50 94 72 54 97 74 57 102 78 59 104 78 56 99 74 53 100 77 59 100 78 60 97 77 61 97 76 58 91 72 56 90 73 60 86 71 59 91 74 61 97 80 65 93 76 62 94 76 61 99 82 68 105 86 70 107 86 69 112 92 74 116 96 79 118 95 76 116 94 77 120 98 81 130 104 83 131 103 81 124 98 78 134 107 83 135 108 87 135 108 86 139 111 87 139 110 85 147 117 91 148 117 91 151 119 94 156 124 96 156 122 94 155 121 93 162 125 94 155 121 93 158 124 96 167 131 102 168 130 97 162 123 91 158 123 95 159 123 94 156 120 90 146 114 88 148 114 87 146 114 87 148 115 88 154 117 86 155 117 86 156 118 87 158 118 87 161 122 91 158 121 90 163 124 91 154 118 87 157 120 88 156 118 86 150 114 85 148 115 87 160 122 90 161 121 89 154 117 88 154 118 88 160 122 90 156 119 88 158 120 89 152 117 87 152 117 88 148 115 86 149 116 87 
80 70 62 98 85 76 93 83 74 88 79 74 88 77 69 99 84 73 99 85 75 89 79 74 102 88 81 119 101 87 107 93 84 111 97 90 113 99 93 126 107 95 133 112 97 125 107 96 122 105 94 119 101 89 114 96 86 129 113 104 132 114 104 132 112 98 134 115 103 123 104 92 116 99 88 137 117 104 135 115 100 126 107 94 128 108 93 116 99 89 124 106 93 123 104 90 118 100 89 116 98 88 110 92 80 121 101 88 126 107 94 114 96 85 131 109 95 141 116 98 127 105 89 120 101 90 134 108 93 132 107 91 131 109 94 144 117 97 131 107 91 121 101 89 119 102 91 123 104 90 124 104 92 131 109 93 144 116 95 138 113 93 133 112 98 142 118 101 143 119 102 136 113 95 146 118 97 160 127 103 158 124 100 152 123 100 158 126 101 151 120 98 143 117 97 145 117 96 148 118 96 148 119 98 152 122 100 159 126 103 155 123 100 156 125 102 153 125 103 158 126 102 158 125 101 152 122 99 148 120 98 140 116 98 144 118 97 147 119 97 145 119 98 154 124 99 150 120 96 142 114 92 145 116 94 148 119 96 146 119 96 148 119 96 146 116 93 139 112 90 135 109 89 135 109 89 137 111 90 136 109 87 135 108 87 130 106 86 128 104 85 130 105 86 130 104 85 131 106 86 130 106 86 130 106 87 129 105 85 124 101 84 125 103 86 130 106 87 134 108 87 126 103 84 130 107 88 133 109 88 131 107 87 129 105 85 133 108 87 134 108 87 134 108 85 133 106 84 135 106 82 127 101 79 134 105 80 132 102 77 124 97 75 122 97 74 126 100 75 
