P3
# Created by IrfanView
#
123 24
255
255 255 255 255 255 255 255 255 255 255 255 255 255 255 255 255 255 255 255 255 255 255 255 255 255 255 255 255 255 255 255 255 255 255 255 255 255 255 255 255 255 255 255 255 255 251 251 251 230 230 230 192 192 192 146 146 145 127 127 126 113 113 112 98 98 98 87 87 87 78 78 78 69 69 69 62 62 62 58 58 58 60 60 59 58 58 57 45 45 44 37 37 37 33 33 33 27 27 27 22 22 21 19 19 19 16 16 15 12 12 12 8 8 8 6 6 6 7 7 7 8 8 8 8 8 8 7 7 7 6 6 6 5 5 5 4 4 4 3 3 3 3 3 3 3 3 3 5 5 5 20 20 19 25 25 25 21 21 21 20 20 20 21 21 20 20 20 20 18 18 19 17 17 17 20 20 20 23 23 23 25 25 25 28 28 28 32 32 32 35 35 35 42 42 42 52 52 52 64 64 63 77 77 76 93 93 93 114 114 114 142 142 142 184 184 183 212 212 212 225 225 225 243 243 243 255 255 255 255 255 255 255 255 255 255 255 255 255 255 255 255 255 255 255 255 255 255 255 255 255 255 255 255 255 255 255 255 255 255 255 255 255 255 255 255 255 255 255 255 255 255 255 255 255 255 255 255 255 255 255 255 255 255 255 255 255 255 255 255 255 255 255 255 255 255 255 255 255 255 255 255 255 255 255 255 255 255 255 255 255 255 255 255 255 255 255 255 255 255 255 255 255 255 255 255 255 255 255 255 255 255 255 255 255 255 255 255 255 255 255 255 255 255 255 255 255 255 255 255 255 255 255 255 255 255 255 255 255 255 255 255 255 255 255 255 255 255 255 255 
255 255 255 255 255 255 255 255 255 255 255 255 255 255 255 255 255 255 255 255 255 255 255 255 255 255 255 255 255 255 255 255 255 255 255 255 255 255 255 255 255 255 255 255 255 252 252 252 225 225 226 150 150 150 46 46 47 26 26 25 43 43 42 89 89 88 104 104 104 103 103 104 103 103 103 107 107 107 116 116 116 96 96 94 59 59 56 18 18 17 2 2 2 6 6 6 7 7 7 6 6 6 6 6 6 6 6 6 7 7 7 8 8 8 9 9 9 9 9 9 10 10 10 10 10 10 10 10 10 11 11 11 12 12 12 8 8 8 3 3 3 1 1 1 0 0 0 14 14 13 91 91 90 125 125 124 110 110 109 105 105 103 102 102 101 101 101 100 98 98 98 95 95 95 92 92 92 89 89 88 84 84 83 79 79 78 74 74 72 68 68 67 67 67 66 68 68 67 68 68 67 64 64 63 54 54 53 34 34 33 16 16 15 26 26 25 63 63 63 122 122 121 169 169 168 200 200 198 208 208 207 229 229 228 255 255 255 255 255 255 255 255 255 255 255 255 255 255 255 255 255 255 255 255 255 255 255 255 255 255 255 255 255 255 255 255 255 255 255 255 255 255 255 255 255 255 255 255 255 255 255 255 255 255 255 255 255 255 255 255 255 255 255 255 255 255 255 255 255 255 255 255 255 255 255 255 255 255 255 255 255 255 255 255 255 255 255 255 255 255 255 255 255 255 255 255 255 255 255 255 255 255 255 255 255 255 255 255 255 255 255 255 255 255 255 255 255 255 255 255 255 255 255 255 255 255 255 255 255 255 255 255 255 255 255 255 255 255 255 
255 255 255 255 255 255 255 255 255 255 255 255 255 255 255 255 255 255 255 255 255 255 255 255 255 255 255 255 255 255 255 255 255 255 255 255 255 255 255 254 254 254 225 225 225 188 188 188 165 165 165 146 146 146 136 136 134 160 160 158 201 201 199 246 246 245 255 255 255 255 255 255 255 255 255 245 245 244 198 198 196 112 112 111 33 33 33 10 10 10 6 6 7 13 13 13 14 14 14 13 13 13 13 13 13 13 13 13 13 13 13 13 13 13 13 13 13 13 13 13 13 13 13 13 13 13 13 13 13 14 14 14 14 14 14 10 10 10 5 5 5 1 1 1 0 0 0 15 15 15 101 101 100 155 155 153 165 165 162 162 162 160 156 156 154 157 157 155 157 157 155 158 158 156 158 158 156 159 159 157 160 160 158 161 161 159 162 162 160 163 163 161 164 164 162 166 166 164 166 166 164 164 164 161 156 156 155 141 141 140 120 120 118 93 93 92 68 68 67 51 51 50 49 49 48 72 72 70 129 129 127 162 162 161 176 176 175 186 186 185 210 210 210 245 245 245 254 254 254 255 255 255 255 255 255 255 255 255 255 255 255 255 255 255 255 255 255 255 255 255 255 255 255 255 255 255 255 255 255 255 255 255 255 255 255 255 255 255 255 255 255 255 255 255 255 255 255 255 255 255 255 255 255 255 255 255 255 255 255 255 255 255 255 255 255 255 255 255 255 255 255 255 255 255 255 255 255 255 255 255 255 255 255 255 255 255 255 255 255 255 255 255 255 255 255 255 255 255 255 255 255 255 255 255 255 255 255 255 255 255 255 255 255 255 255 255 255 255 255 
255 255 255 255 255 255 255 255 255 255 255 255 255 255 255 255 255 255 255 255 255 255 255 255 255 255 255 255 255 255 252 252 252 244 244 244 214 214 214 159 159 158 133 133 131 134 134 132 161 161 155 196 196 190 233 233 230 251 251 248 255 255 252 255 255 247 255 255 250 254 254 251 235 235 231 168 168 163 52 52 50 12 12 11 1 1 1 7 7 8 12 12 12 12 12 12 12 12 12 12 12 12 12 12 12 12 12 12 12 12 12 12 12 12 12 12 12 12 12 12 12 12 12 12 12 12 12 12 12 13 13 13 14 14 14 12 12 12 7 7 7 1 1 1 0 0 0 9 9 9 57 57 56 115 115 114 166 166 164 166 166 164 154 154 152 154 154 152 154 154 152 154 154 152 154 154 152 154 154 152 154 154 152 154 154 152 154 154 152 154 154 152 154 154 152 154 154 152 154 154 152 155 155 153 157 157 155 161 161 159 165 165 163 165 165 163 157 157 154 136 136 134 91 91 90 53 53 52 46 46 45 59 59 58 87 87 85 130 130 128 154 154 152 153 153 151 175 175 173 208 208 207 234 234 233 248 248 248 255 255 255 255 255 255 255 255 255 255 255 255 255 255 255 255 255 255 255 255 255 255 255 255 255 255 255 255 255 255 255 255 255 255 255 255 255 255 255 255 255 255 255 255 255 255 255 255 255 255 255 255 255 255 255 255 255 255 255 255 255 255 255 255 255 255 255 255 255 255 255 255 255 255 255 255 255 255 255 255 255 255 255 255 255 255 255 255 255 255 255 255 255 255 255 255 255 255 255 255 255 255 255 255 255 255 255 255 255 255 255 
255 255 255 255 255 255 255 255 255 255 255 255 255 255 255 255 255 255 255 255 255 255 255 255 244 244 244 221 221 221 187 187 186 143 143 143 123 123 122 139 139 137 179 179 173 222 222 214 244 244 239 253 253 249 255 255 246 255 255 244 255 255 243 255 255 248 250 250 248 228 228 223 117 117 115 34 34 34 12 12 13 16 16 17 27 27 27 29 29 29 29 29 29 29 29 29 29 29 29 29 29 29 29 29 29 29 29 29 29 29 29 29 29 29 29 29 29 29 29 29 29 29 29 29 29 29 29 29 29 29 29 29 30 30 30 29 29 29 20 20 20 4 4 4 0 0 0 2 2 2 15 15 14 77 77 76 170 170 168 172 172 170 153 153 151 152 152 150 153 153 151 153 153 151 153 153 151 153 153 151 153 153 151 153 153 151 153 153 151 153 153 151 153 153 151 153 153 151 153 153 151 153 153 151 153 153 151 153 153 151 153 153 151 154 154 152 157 157 155 162 162 160 165 165 163 159 159 157 139 139 137 97 97 95 48 48 47 26 26 26 42 42 41 106 106 104 139 139 137 151 151 149 149 149 146 171 171 169 214 214 214 233 233 233 246 246 246 255 255 255 255 255 255 255 255 255 255 255 255 255 255 255 255 255 255 255 255 255 255 255 255 255 255 255 255 255 255 255 255 255 255 255 255 255 255 255 255 255 255 255 255 255 255 255 255 255 255 255 255 255 255 255 255 255 255 255 255 255 255 255 255 255 255 255 255 255 255 255 255 255 255 255 255 255 255 255 255 255 255 255 255 255 255 255 255 255 255 255 255 255 255 255 255 255 255 255 255 255 255 
255 255 255 255 255 255 255 255 255 255 255 255 255 255 255 255 255 255 232 232 232 197 197 198 157 157 158 131 131 131 125 125 123 153 153 149 193 193 188 235 235 226 252 252 244 255 255 249 255 255 245 255 255 241 255 255 241 255 255 242 255 255 245 255 255 248 203 203 196 116 116 113 48 48 48 22 22 23 40 40 41 47 47 47 48 48 48 48 48 48 48 48 48 48 48 48 48 48 48 48 48 47 48 48 47 48 48 47 48 48 47 48 48 47 48 48 47 47 47 47 47 47 47 47 47 47 47 47 47 48 48 48 49 49 49 52 52 52 40 40 40 8 8 8 0 0 0 0 0 0 0 0 0 60 60 59 173 173 171 179 179 177 158 158 156 157 157 155 157 157 154 157 157 155 157 157 154 157 157 154 157 157 154 157 157 154 157 157 154 157 157 154 157 157 154 156 156 154 156 156 154 156 156 154 156 156 154 156 156 154 156 156 154 156 156 154 156 156 154 156 156 154 157 157 155 160 160 158 165 165 163 171 171 169 167 167 165 128 128 127 72 72 72 15 15 15 38 38 38 87 87 86 123 123 121 142 142 139 148 148 145 162 162 160 181 181 180 201 201 201 229 229 229 255 255 255 255 255 255 255 255 255 255 255 255 255 255 255 255 255 255 255 255 255 255 255 255 255 255 255 255 255 255 255 255 255 255 255 255 255 255 255 255 255 255 255 255 255 255 255 255 255 255 255 255 255 255 255 255 255 255 255 255 255 255 255 255 255 255 255 255 255 255 255 255 255 255 255 255 255 255 255 255 255 255 255 255 255 255 255 255 255 255 255 255 255 255 255 255 
255 255 255 255 255 255 255 255 255 255 255 255 238 238 238 197 197 196 142 142 141 110 110 108 137 137 132 172 172 167 207 207 205 239 239 235 255 255 250 255 255 247 255 255 243 255 255 241 255 255 240 255 255 242 254 254 243 243 243 232 235 235 224 240 240 231 149 149 143 23 23 24 21 21 23 39 39 41 43 43 45 44 44 46 44 44 46 45 45 46 45 45 47 45 45 47 46 46 47 46 46 48 46 46 48 47 47 48 47 47 48 47 47 49 47 47 49 48 48 49 48 48 50 48 48 50 49 49 50 49 49 50 50 50 52 59 59 61 48 48 50 11 11 11 1 1 1 1 1 1 1 1 1 38 38 38 109 109 111 132 132 132 134 134 134 131 131 130 130 130 129 130 130 130 130 130 130 131 131 130 131 131 131 131 131 131 131 131 131 132 132 131 132 132 132 132 132 132 132 132 132 133 133 133 133 133 133 133 133 133 133 133 133 134 134 133 134 134 134 135 135 134 135 135 134 135 135 135 135 135 135 136 136 136 143 143 142 171 171 169 138 138 137 27 27 27 0 0 0 1 1 1 19 19 19 46 46 45 72 72 71 102 102 101 119 119 118 113 113 113 122 122 122 149 149 149 194 194 195 232 232 233 250 250 251 254 254 254 254 254 254 254 254 254 254 254 254 254 254 254 254 254 254 254 254 254 254 254 254 254 254 254 254 254 255 255 255 255 255 255 255 255 255 255 255 255 255 255 255 255 255 255 255 255 255 255 255 255 255 255 255 255 255 255 255 255 255 255 255 255 255 255 255 255 255 255 255 255 255 255 255 255 255 255 255 255 255 255 255 
255 255 255 255 255 255 255 255 255 242 242 237 233 233 228 229 229 227 220 220 219 220 220 218 236 236 232 249 249 243 255 255 248 255 255 245 254 254 241 254 254 239 254 254 239 254 254 239 254 254 239 255 255 241 254 254 243 235 235 224 222 222 211 233 233 221 221 221 213 198 198 196 199 199 193 201 201 192 196 196 188 193 193 186 191 191 184 189 189 182 188 188 180 187 187 179 185 185 177 182 182 175 180 180 174 178 178 172 176 176 170 175 175 168 173 173 167 171 171 165 169 169 164 167 167 162 166 166 160 163 163 158 162 162 157 166 166 161 164 164 159 154 154 147 142 142 135 133 133 126 134 134 128 141 141 136 153 153 148 163 163 158 167 167 161 162 162 156 158 158 153 155 155 150 152 152 147 150 150 146 150 150 146 150 150 146 149 149 145 147 147 143 144 144 140 140 140 137 137 137 134 136 136 132 136 136 133 135 135 132 133 133 130 131 131 129 129 129 127 127 127 124 123 123 121 121 121 118 121 121 119 124 124 122 129 129 127 138 138 136 123 123 120 79 79 75 59 59 56 52 52 49 50 50 48 46 46 43 42 42 39 65 65 63 89 89 86 95 95 93 90 90 88 86 86 83 104 104 101 143 143 138 194 194 188 206 206 200 203 203 198 204 204 198 204 204 199 204 204 199 205 205 201 205 205 202 205 205 203 209 209 208 218 218 218 232 232 233 242 242 243 247 247 246 248 248 247 248 248 247 248 248 248 250 250 250 253 253 253 255 255 255 255 255 255 255 255 255 255 255 255 255 255 255 255 255 255 255 255 255 255 255 255 255 255 255 255 255 255 
255 255 255 226 226 225 195 195 191 221 221 217 245 245 241 255 255 248 255 255 246 254 254 242 253 253 241 252 252 240 252 252 238 252 252 238 252 252 238 252 252 238 252 252 238 252 252 238 252 252 238 252 252 238 254 254 239 253 253 241 243 243 230 210 210 197 214 214 203 240 240 230 248 248 239 249 249 242 248 248 243 247 247 243 247 247 243 246 246 243 246 246 243 246 246 242 246 246 242 245 245 242 245 245 242 245 245 241 245 245 241 245 245 241 244 244 240 244 244 241 244 244 240 244 244 240 243 243 240 243 243 239 243 243 239 243 243 239 243 243 240 244 244 240 238 238 230 232 232 221 238 238 232 242 242 238 243 243 239 244 244 240 243 243 239 243 243 239 242 242 238 242 242 238 241 241 238 241 241 237 241 241 237 241 241 237 242 242 238 243 243 239 244 244 240 245 245 241 246 246 242 246 246 243 246 246 244 246 246 244 246 246 244 246 246 243 245 245 243 245 245 243 244 244 242 244 244 242 244 244 242 244 244 244 237 237 236 154 154 151 102 102 96 112 112 105 107 107 101 119 119 112 188 188 177 226 226 213 227 227 215 235 235 229 241 241 240 241 241 240 242 242 239 242 242 239 240 240 238 242 242 240 248 248 245 249 249 244 249 249 242 249 249 241 249 249 241 249 249 241 249 249 241 249 249 241 249 249 241 250 250 240 249 249 235 236 236 224 222 222 211 209 209 199 205 205 197 205 205 199 204 204 202 213 213 213 227 227 226 234 234 232 237 237 235 238 238 237 246 246 246 255 255 255 255 255 255 255 255 255 255 255 255 255 255 255 255 255 255 
255 255 255 148 148 148 22 22 22 90 90 85 180 180 175 243 243 241 255 255 249 249 249 237 249 249 236 249 249 237 249 249 237 249 249 237 249 249 237 249 249 237 249 249 237 249 249 237 249 249 237 249 249 237 249 249 237 253 253 241 248 248 237 229 229 217 233 233 221 247 247 237 240 240 229 233 233 221 232 232 221 232 232 221 232 232 221 232 232 221 232 232 221 232 232 221 232 232 221 232 232 221 233 233 221 233 233 221 233 233 221 233 233 220 233 233 220 233 233 221 233 233 221 233 233 220 233 233 221 233 233 221 233 233 221 233 233 221 234 234 222 235 235 224 229 229 219 222 222 212 219 219 209 221 221 210 226 226 213 226 226 214 226 226 213 226 226 213 226 226 213 225 225 213 227 227 215 231 231 219 236 236 223 236 236 224 236 236 223 237 237 224 238 238 225 238 238 226 239 239 226 238 238 227 237 237 228 237 237 228 237 237 228 237 237 228 238 238 228 238 238 228 238 238 228 238 238 228 238 238 229 239 239 234 238 238 232 200 200 192 177 177 168 185 185 176 182 182 173 185 185 175 214 214 202 224 224 211 217 217 205 224 224 217 234 234 229 238 238 230 239 239 229 239 239 228 238 238 229 239 239 229 239 239 228 239 239 228 239 239 228 239 239 228 239 239 228 240 240 228 240 240 228 240 240 229 240 240 229 240 240 230 240 240 230 240 240 231 240 240 232 240 240 234 243 243 237 248 248 241 253 253 246 249 249 239 236 236 226 221 221 214 213 213 209 216 216 214 230 230 227 244 244 240 243 243 239 247 247 245 255 255 255 255 255 255 255 255 255 
255 255 255 148 148 148 18 18 18 71 71 68 161 161 158 240 240 239 254 254 249 246 246 234 245 245 234 246 246 234 246 246 234 246 246 234 246 246 234 246 246 234 246 246 234 246 246 234 246 246 234 245 245 234 246 246 234 247 247 235 247 247 235 244 244 233 233 233 222 224 224 214 241 241 230 252 252 241 250 250 239 249 249 238 249 249 238 249 249 237 249 249 238 249 249 238 249 249 238 249 249 238 249 249 238 249 249 238 249 249 238 249 249 238 249 249 238 249 249 237 249 249 238 249 249 238 249 249 237 249 249 237 249 249 237 249 249 237 249 249 237 249 249 238 252 252 242 249 249 240 227 227 218 220 220 210 227 227 217 224 224 214 220 220 210 220 220 211 219 219 209 219 219 209 229 229 220 240 240 230 246 246 236 247 247 236 244 244 233 242 242 231 240 240 230 239 239 228 237 237 226 235 235 224 234 234 224 234 234 223 234 234 223 234 234 223 234 234 223 234 234 223 234 234 223 234 234 223 234 234 224 236 236 225 239 239 227 242 242 231 246 246 235 248 248 237 248 248 237 247 247 235 245 245 233 242 242 231 237 237 226 219 219 209 213 213 203 233 233 222 239 239 227 235 235 224 235 235 224 235 235 224 236 236 224 236 236 224 236 236 224 235 235 224 235 235 224 236 236 224 236 236 224 236 236 224 236 236 225 236 236 225 236 236 225 236 236 225 237 237 225 237 237 225 236 236 224 235 235 223 233 233 222 230 230 223 230 230 224 230 230 225 234 234 228 240 240 234 233 233 223 199 199 186 115 115 109 123 123 121 209 209 209 244 244 244 255 255 255 
245 245 245 137 137 137 26 26 25 147 147 140 239 239 232 252 252 244 250 250 241 244 244 233 243 243 232 244 244 233 243 243 233 244 244 232 244 244 233 245 245 234 246 246 235 247 247 237 248 248 238 249 249 238 249 249 239 249 249 239 250 250 240 253 253 242 242 242 232 228 228 218 233 233 223 241 241 229 245 245 233 245 245 234 245 245 234 244 244 233 243 243 233 243 243 233 243 243 232 243 243 233 243 243 233 243 243 233 243 243 233 243 243 233 243 243 233 243 243 233 243 243 233 243 243 233 243 243 233 243 243 233 243 243 233 243 243 233 243 243 232 243 243 232 248 248 237 245 245 234 222 222 212 222 222 212 245 245 233 246 246 234 241 241 230 242 242 231 241 241 230 241 241 230 243 243 232 245 245 234 245 245 233 245 245 233 244 244 233 245 245 234 245 245 234 245 245 235 246 246 235 246 246 235 246 246 235 246 246 235 246 246 235 246 246 235 246 246 235 246 246 235 246 246 235 246 246 235 246 246 235 246 246 235 246 246 235 246 246 235 245 245 235 245 245 234 245 245 234 245 245 234 245 245 235 249 249 238 250 250 240 228 228 218 219 219 209 244 244 233 251 251 240 246 246 235 246 246 235 246 246 235 247 247 235 248 248 237 249 249 239 250 250 240 251 251 241 251 251 241 251 251 241 251 251 241 251 251 241 251 251 241 250 250 240 249 249 239 248 248 238 247 247 236 245 245 234 243 243 232 241 241 230 239 239 228 239 239 228 239 239 227 243 243 233 247 247 243 225 225 218 162 162 154 38 38 35 68 68 68 221 221 221 251 251 251 255 255 255 
186 186 185 138 138 136 99 99 97 197 197 194 255 255 252 246 246 237 242 242 231 240 240 230 240 240 230 240 240 230 242 242 232 246 246 237 252 252 243 255 255 246 243 243 237 222 222 221 208 208 207 200 200 199 197 197 196 197 197 196 197 197 196 199 199 199 206 206 206 218 218 216 228 228 221 236 236 227 242 242 235 241 241 233 240 240 230 242 242 232 242 242 232 241 241 231 240 240 230 240 240 230 240 240 230 240 240 230 240 240 230 240 240 230 240 240 230 240 240 230 240 240 230 240 240 230 240 240 230 240 240 230 240 240 230 240 240 230 240 240 230 240 240 230 245 245 234 242 242 232 217 217 208 218 218 209 244 244 233 245 245 235 241 241 231 241 241 231 241 241 231 241 241 231 241 241 231 240 240 230 240 240 230 240 240 230 240 240 230 240 240 230 240 240 230 240 240 230 240 240 230 240 240 230 240 240 230 240 240 230 240 240 230 240 240 230 240 240 230 240 240 230 240 240 230 240 240 230 240 240 230 240 240 230 240 240 230 240 240 230 240 240 230 240 240 230 240 240 230 240 240 230 240 240 230 243 243 233 245 245 234 223 223 213 214 214 205 239 239 228 245 245 235 241 241 231 243 243 233 248 248 240 255 255 247 248 248 242 234 234 230 218 218 216 205 205 205 198 198 197 197 197 196 197 197 196 197 197 196 202 202 201 211 211 210 224 224 223 240 240 236 255 255 247 253 253 245 247 247 239 243 243 234 242 242 231 241 241 231 241 241 231 244 244 234 251 251 241 249 249 241 201 201 195 51 51 50 55 55 55 191 191 191 241 241 241 255 255 255 
208 208 201 225 225 220 247 247 242 247 247 241 243 243 235 238 238 231 237 237 229 238 238 230 240 240 232 247 247 240 251 251 246 231 231 228 198 198 194 154 154 149 108 108 103 60 60 58 31 31 32 18 18 20 18 18 18 18 18 18 18 18 18 19 19 20 31 31 32 56 56 55 99 99 95 140 140 136 176 176 175 215 215 213 242 242 237 239 239 231 237 237 228 240 240 232 239 239 231 238 238 230 238 238 230 237 237 230 237 237 230 237 237 230 237 237 230 237 237 230 237 237 230 237 237 230 237 237 230 237 237 230 237 237 230 237 237 230 237 237 230 237 237 230 242 242 234 239 239 231 214 214 208 215 215 208 240 240 232 241 241 233 237 237 230 237 237 230 237 237 230 237 237 230 237 237 230 237 237 230 237 237 230 237 237 230 237 237 230 237 237 230 237 237 230 237 237 230 237 237 230 237 237 230 237 237 230 237 237 230 237 237 230 237 237 230 237 237 230 237 237 230 237 237 230 237 237 230 237 237 230 237 237 230 237 237 230 237 237 230 237 237 230 237 237 230 237 237 230 237 237 230 237 237 229 240 240 232 242 242 234 220 220 213 211 211 204 236 236 228 247 247 239 248 248 241 253 253 247 227 227 224 169 169 169 125 125 123 87 87 83 52 52 51 28 28 29 17 17 18 17 17 17 18 18 18 16 16 16 24 24 24 40 40 40 66 66 64 103 103 100 146 146 142 189 189 188 228 228 225 247 247 242 249 249 242 241 241 233 238 238 230 238 238 230 240 240 232 252 252 249 235 235 234 131 131 129 62 62 60 58 58 59 163 163 163 244 244 244 
215 215 208 225 225 219 239 239 232 237 237 229 234 234 227 234 234 227 235 235 228 239 239 233 249 249 246 228 228 225 174 174 172 101 101 98 43 43 41 19 19 19 27 27 27 44 44 45 59 59 60 70 70 70 74 74 74 77 77 77 76 76 76 70 70 70 61 61 61 49 49 50 33 33 34 22 22 22 26 26 26 73 73 72 142 142 141 215 215 212 241 241 237 229 229 223 233 233 226 237 237 230 235 235 228 234 234 227 234 234 227 234 234 227 234 234 227 234 234 227 234 234 227 234 234 227 234 234 227 234 234 227 234 234 227 234 234 227 234 234 227 234 234 227 238 238 231 236 236 229 212 212 205 213 213 206 237 237 230 238 238 231 234 234 227 234 234 227 234 234 227 234 234 227 234 234 227 234 234 227 234 234 227 234 234 227 234 234 227 234 234 227 234 234 227 234 234 227 234 234 227 234 234 227 234 234 227 234 234 227 234 234 227 234 234 227 234 234 227 234 234 227 234 234 227 234 234 227 234 234 227 234 234 227 234 234 227 234 234 227 234 234 227 234 234 227 234 234 227 234 234 227 234 234 227 237 237 230 239 239 232 217 217 211 210 210 204 239 239 233 253 253 250 239 239 234 149 149 145 69 69 66 18 18 18 16 16 16 35 35 35 51 51 51 62 62 63 70 70 70 75 75 75 76 76 76 74 74 74 67 67 67 58 58 58 45 45 45 28 28 28 11 11 11 33 33 32 86 86 83 167 167 164 222 222 219 247 247 243 242 242 236 234 234 227 234 234 227 239 239 233 245 245 238 245 245 238 209 209 204 160 160 157 190 190 187 222 222 220 
215 215 210 227 227 221 241 241 236 240 240 234 237 237 231 237 237 231 244 244 238 246 246 240 229 229 224 146 146 143 36 36 35 20 20 20 39 39 39 66 66 66 87 87 87 92 92 92 63 63 63 36 36 36 27 27 27 76 76 76 100 100 100 43 43 43 52 52 52 97 97 97 90 90 90 71 71 72 52 52 53 21 21 22 25 25 25 117 117 115 187 187 185 223 223 218 234 234 228 234 234 228 233 233 227 232 232 226 232 232 226 232 232 225 232 232 225 232 232 225 232 232 225 232 232 225 232 232 225 232 232 225 232 232 225 232 232 225 232 232 225 232 232 225 236 236 229 234 234 227 210 210 203 211 211 204 234 234 228 236 236 229 232 232 225 232 232 225 232 232 225 232 232 225 232 232 225 232 232 225 232 232 225 232 232 225 232 232 225 232 232 225 232 232 225 232 232 225 232 232 225 232 232 225 232 232 225 232 232 225 232 232 225 232 232 225 232 232 225 232 232 225 232 232 225 232 232 225 232 232 225 232 232 225 232 232 225 232 232 225 232 232 225 232 232 225 232 232 225 232 232 226 233 233 227 233 233 227 229 229 223 216 216 210 218 218 214 248 248 246 204 204 204 117 117 115 36 36 36 14 14 15 55 55 55 77 77 77 85 85 85 82 82 82 56 56 56 30 30 30 82 82 82 99 99 99 39 39 39 42 42 42 76 76 76 90 90 90 88 88 88 71 71 71 40 40 40 18 18 18 24 24 23 116 116 116 238 238 236 249 249 244 238 238 231 233 233 226 232 232 225 233 233 226 236 236 230 241 241 235 245 245 239 229 229 224 216 216 213 
177 177 174 185 185 183 197 197 197 202 202 202 207 207 207 213 213 212 222 222 221 206 206 204 111 111 109 45 45 44 24 24 25 58 58 58 81 81 81 68 68 68 69 69 69 68 68 68 53 53 53 30 30 30 12 12 12 52 52 52 74 74 74 29 29 29 48 48 48 94 94 94 65 65 65 54 54 54 84 84 84 69 69 69 38 38 38 13 13 13 92 92 91 230 230 228 237 237 234 222 222 218 236 236 232 240 240 235 238 238 233 237 237 233 237 237 233 237 237 233 237 237 233 237 237 233 237 237 233 237 237 233 237 237 233 237 237 233 237 237 233 237 237 233 241 241 236 239 239 234 215 215 210 216 216 211 239 239 234 241 241 236 237 237 233 237 237 233 237 237 233 237 237 233 237 237 233 237 237 233 237 237 233 237 237 233 237 237 233 237 237 233 237 237 233 237 237 233 237 237 233 237 237 233 237 237 233 237 237 233 237 237 233 237 237 233 237 237 233 237 237 233 237 237 233 237 237 233 237 237 233 237 237 233 237 237 233 237 237 233 237 237 233 237 237 233 237 237 232 238 238 233 241 241 236 230 230 226 213 213 210 227 227 223 245 245 242 250 250 249 146 146 146 18 18 18 33 33 33 68 68 68 84 84 84 55 55 55 39 39 39 91 91 91 73 73 73 15 15 15 59 59 59 76 76 76 19 19 19 50 50 50 98 98 98 50 50 50 39 39 39 79 79 79 82 82 82 59 59 59 13 13 13 56 56 55 155 155 152 223 223 219 250 250 246 240 240 235 237 237 232 237 237 232 237 237 232 240 240 234 241 241 235 226 226 221 214 214 210 
55 55 54 32 32 32 6 6 6 14 14 14 27 27 27 39 39 38 59 59 58 62 62 61 29 29 28 28 28 28 58 58 58 87 87 87 91 91 91 62 62 62 46 46 46 38 38 38 58 58 58 57 57 57 36 36 36 31 31 31 38 38 38 52 52 52 44 44 44 28 28 28 46 46 46 67 67 67 90 90 90 92 92 92 71 71 71 21 21 21 61 61 60 165 165 162 195 195 192 205 205 202 219 219 217 222 222 220 220 220 216 219 219 216 219 219 216 219 219 216 219 219 216 219 219 216 219 219 216 219 219 216 219 219 216 219 219 216 219 219 216 219 219 216 222 222 219 219 219 217 199 199 197 200 200 198 220 220 218 222 222 219 219 219 216 219 219 216 219 219 216 219 219 216 219 219 216 219 219 216 219 219 216 219 219 216 219 219 216 219 219 216 219 219 216 219 219 216 219 219 216 219 219 216 219 219 216 219 219 216 219 219 216 219 219 216 219 219 216 219 219 216 219 219 216 219 219 216 219 219 216 219 219 216 219 219 216 219 219 216 219 219 216 219 219 216 219 219 216 220 220 217 223 223 220 212 212 210 195 195 193 212 212 211 218 218 216 184 184 181 100 100 98 22 22 22 60 60 60 90 90 90 80 80 80 64 64 64 51 51 51 51 51 51 44 44 44 32 32 32 33 33 33 34 34 34 32 32 32 36 36 36 42 42 42 46 46 46 56 56 56 70 70 70 87 87 87 83 83 83 42 42 42 42 42 42 86 86 86 176 176 176 228 228 227 222 222 219 219 219 216 220 220 216 220 220 216 218 218 215 213 213 209 196 196 193 185 185 182 
78 78 78 46 46 46 4 4 4 0 0 0 0 0 0 0 0 0 0 0 0 3 3 3 22 22 23 51 51 51 78 78 78 77 77 77 67 67 67 57 57 57 46 46 46 37 37 37 31 31 31 30 30 30 32 32 32 31 31 31 30 30 30 29 29 29 32 32 32 39 39 39 51 51 51 55 55 55 49 49 49 71 71 71 84 84 84 48 48 48 32 32 32 39 39 39 51 51 51 60 60 59 63 63 63 64 64 63 63 63 62 63 63 62 63 63 62 63 63 62 63 63 62 63 63 62 63 63 62 63 63 62 63 63 62 63 63 62 63 63 62 63 63 62 64 64 63 63 63 62 58 58 57 58 58 57 63 63 63 64 64 63 63 63 62 63 63 62 63 63 62 63 63 62 63 63 62 63 63 62 63 63 62 63 63 62 63 63 62 63 63 62 63 63 62 63 63 62 63 63 62 63 63 62 63 63 62 63 63 62 63 63 62 63 63 62 63 63 62 63 63 62 63 63 62 63 63 62 63 63 62 63 63 62 63 63 62 63 63 62 63 63 62 63 63 62 63 63 62 63 63 62 64 64 63 61 61 60 56 56 56 63 63 62 63 63 62 46 46 45 37 37 37 45 45 45 82 82 82 89 89 89 55 55 55 52 52 52 50 50 50 39 39 39 31 31 31 28 28 28 31 31 31 33 33 33 28 28 28 30 30 30 36 36 36 46 46 46 52 52 52 50 50 50 81 81 81 96 96 96 65 65 65 37 37 37 25 25 25 52 52 51 70 70 69 64 64 63 63 63 62 63 63 62 63 63 62 60 60 59 59 59 58 127 127 126 178 178 177 
208 208 208 184 184 184 143 143 143 104 104 104 64 64 64 26 26 26 7 7 7 1 1 1 19 19 19 46 46 46 73 73 73 72 72 72 61 61 61 47 47 47 52 52 52 58 58 58 43 43 43 32 32 32 29 29 29 28 28 28 30 30 30 32 32 32 42 42 42 57 57 57 75 75 75 74 74 74 55 55 55 71 71 71 84 84 84 52 52 52 25 25 25 10 10 10 0 0 0 0 0 0 0 0 0 0 0 0 0 0 0 0 0 0 0 0 0 0 0 0 0 0 0 0 0 0 0 0 0 0 0 0 0 0 0 0 0 0 0 0 0 0 0 0 0 0 0 0 0 0 0 0 0 0 0 0 0 0 0 0 0 0 0 0 0 0 0 0 0 0 0 0 0 0 0 0 0 0 0 0 0 0 0 0 0 0 0 0 0 0 0 0 0 0 0 0 0 0 0 0 0 0 0 0 0 0 0 0 0 0 0 0 0 0 0 0 0 0 0 0 0 0 0 0 0 0 0 0 0 0 0 0 0 0 0 0 0 0 0 0 0 0 0 0 0 0 0 0 0 0 0 0 0 0 0 0 0 0 0 0 0 0 0 0 0 0 0 4 4 4 22 22 22 48 48 48 85 85 85 81 81 81 36 36 36 54 54 54 75 75 75 49 49 49 30 30 30 24 24 24 33 33 33 37 37 37 27 27 27 27 27 27 40 40 40 76 76 76 79 79 79 49 49 49 76 76 76 96 96 96 66 66 66 35 35 35 12 12 12 0 0 0 0 0 0 0 0 0 0 0 0 4 4 4 8 8 8 12 12 12 24 24 24 150 150 150 244 244 244 
255 255 255 254 254 254 251 251 251 246 246 246 241 241 241 225 225 225 137 137 137 56 56 56 52 52 52 52 52 52 59 59 59 82 82 82 83 83 83 50 50 50 23 23 23 13 13 13 37 37 37 45 45 45 33 33 33 33 33 33 37 37 37 43 43 43 36 36 36 23 23 23 17 17 17 34 34 34 82 82 82 80 80 80 60 60 60 56 56 56 51 51 51 42 42 42 32 32 32 26 26 26 27 27 27 28 28 28 29 29 29 29 29 29 29 29 29 29 29 29 30 30 30 31 31 31 32 32 32 32 32 32 32 32 32 33 33 33 34 34 34 35 35 35 35 35 35 35 35 35 36 36 36 36 36 36 37 37 37 37 37 37 37 37 37 37 37 37 38 38 38 38 38 38 38 38 38 39 39 39 40 40 40 41 41 41 41 41 41 41 41 41 41 41 41 42 42 42 43 43 43 43 43 43 43 43 43 44 44 44 45 45 45 45 45 45 45 45 45 45 45 45 46 46 46 46 46 46 46 46 46 46 46 46 46 46 46 46 46 46 46 46 46 46 46 46 46 46 46 46 46 46 46 46 46 47 47 47 47 47 47 46 46 46 46 46 46 48 48 48 54 54 54 60 60 60 61 61 61 74 74 74 92 92 92 52 52 52 14 14 14 36 36 36 39 39 39 26 26 26 40 40 40 45 45 45 28 28 28 35 35 35 44 44 44 21 21 21 25 25 25 59 59 59 70 70 70 69 69 69 61 61 61 55 55 55 50 50 50 48 48 48 49 49 49 55 55 55 98 98 98 148 148 148 175 175 175 203 203 203 231 231 231 247 247 247 255 255 255 
255 255 255 255 255 255 255 255 255 255 255 255 255 255 255 255 255 255 254 254 254 250 250 250 238 238 238 214 214 214 178 178 178 100 100 100 49 49 49 55 55 55 62 62 62 65 65 65 59 59 59 43 43 43 25 25 25 30 30 30 36 36 36 28 28 28 53 53 53 85 85 85 62 62 62 45 45 45 54 54 54 86 86 86 139 139 139 211 211 211 234 234 234 214 214 214 194 194 194 182 182 182 184 184 184 186 186 186 187 187 187 189 189 189 189 189 189 189 189 189 191 191 191 193 193 193 195 195 195 196 196 196 196 196 196 197 197 197 200 200 200 202 202 202 203 203 203 202 202 202 204 204 204 205 205 205 206 206 206 206 206 206 207 207 207 208 208 208 209 209 209 210 210 210 210 210 210 211 211 211 213 213 213 216 216 216 217 217 217 216 216 216 217 217 217 219 219 219 221 221 221 222 222 222 222 222 222 223 223 223 225 225 225 226 226 226 227 227 227 227 227 227 228 228 228 228 228 228 228 228 228 228 228 228 228 228 228 228 228 228 229 229 229 229 229 229 229 229 229 229 229 229 230 230 230 230 230 230 230 230 230 229 229 229 229 229 229 230 230 230 235 235 235 222 222 222 137 137 137 77 77 77 65 65 65 51 51 51 55 55 55 98 98 98 71 71 71 10 10 10 59 59 59 78 78 78 15 15 15 50 50 50 106 106 106 65 65 65 48 48 48 68 68 68 64 64 64 91 91 91 184 184 184 227 227 227 232 232 232 232 232 232 237 237 237 250 250 250 253 253 253 254 254 254 255 255 255 255 255 255 255 255 255 255 255 255 255 255 255 
255 255 255 255 255 255 255 255 255 255 255 255 255 255 255 255 255 255 255 255 255 255 255 255 255 255 255 255 255 255 254 254 254 207 207 207 148 148 148 77 77 77 67 67 67 79 79 79 56 56 56 51 51 51 68 68 68 77 77 77 75 75 75 58 58 58 64 64 64 79 79 79 58 58 58 65 65 65 119 119 119 190 190 190 246 246 246 255 255 255 255 255 255 255 255 255 255 255 255 255 255 255 255 255 255 255 255 255 255 255 255 255 255 255 255 255 255 255 255 255 255 255 255 255 255 255 255 255 255 255 255 255 255 255 255 255 255 255 255 255 255 255 255 255 255 255 255 255 255 255 255 255 255 255 255 255 255 255 255 255 255 255 255 255 255 255 255 255 255 255 255 255 255 255 255 255 255 255 255 255 255 255 255 255 255 255 255 255 255 255 255 255 255 255 255 255 255 255 255 255 255 255 255 255 255 255 255 255 255 255 255 255 255 255 255 255 255 255 255 255 255 255 255 255 255 255 255 255 255 255 255 255 255 255 255 255 255 255 255 255 255 255 255 255 255 255 255 255 255 255 255 255 255 255 255 255 255 255 255 255 255 255 255 255 255 255 255 255 255 255 255 255 255 253 253 253 236 236 236 191 191 191 116 116 116 77 77 77 62 62 62 61 61 61 57 57 57 56 56 56 97 97 97 108 108 108 65 65 65 58 58 58 67 67 67 62 62 62 64 64 64 83 83 83 146 146 146 210 210 210 245 245 245 255 255 255 255 255 255 255 255 255 255 255 255 255 255 255 255 255 255 255 255 255 255 255 255 255 255 255 255 255 255 255 255 255 255 255 255 
255 255 255 255 255 255 255 255 255 255 255 255 255 255 255 255 255 255 255 255 255 255 255 255 255 255 255 255 255 255 255 255 255 255 255 255 249 249 249 212 212 212 172 172 172 136 136 136 110 110 110 93 93 93 82 82 82 77 77 77 79 79 79 87 87 87 101 101 101 123 123 123 156 156 156 196 196 196 238 238 238 253 253 253 255 255 255 255 255 255 255 255 255 255 255 255 255 255 255 255 255 255 255 255 255 255 255 255 255 255 255 255 255 255 255 255 255 255 255 255 255 255 255 255 255 255 255 255 255 255 255 255 255 255 255 255 255 255 255 255 255 255 255 255 255 255 255 255 255 255 255 255 255 255 255 255 255 255 255 255 255 255 255 255 255 255 255 255 255 255 255 255 255 255 255 255 255 255 255 255 255 255 255 255 255 255 255 255 255 255 255 255 255 255 255 255 255 255 255 255 255 255 255 255 255 255 255 255 255 255 255 255 255 255 255 255 255 255 255 255 255 255 255 255 255 255 255 255 255 255 255 255 255 255 255 255 255 255 255 255 255 255 255 255 255 255 255 255 255 255 255 255 255 255 255 255 255 255 255 255 255 255 255 255 255 255 255 255 255 255 255 255 255 255 255 255 255 255 255 251 251 251 234 234 234 198 198 198 158 158 158 125 125 125 101 101 101 85 85 85 79 79 79 77 77 77 80 80 80 91 91 91 110 110 110 138 138 138 174 174 174 215 215 215 242 242 242 255 255 255 255 255 255 255 255 255 255 255 255 255 255 255 255 255 255 255 255 255 255 255 255 255 255 255 255 255 255 255 255 255 255 255 255 255 255 255 255 255 255 
