P3
# Created by IrfanView
#
179 15
255
27 66 104 32 80 125 31 77 121 31 78 121 31 78 121 31 78 121 31 78 121 31 78 121 31 78 121 31 78 121 31 78 121 31 78 121 31 78 121 32 78 120 34 82 126 36 87 134 37 87 135 35 86 133 34 84 132 30 80 128 33 84 131 34 84 132 34 84 132 34 84 131 33 83 131 33 83 130 33 83 130 33 83 130 33 83 130 33 83 130 34 84 130 30 80 127 29 79 126 30 80 127 30 80 127 30 81 128 31 81 129 32 82 130 33 83 131 34 84 132 35 86 133 35 85 133 31 80 126 30 77 122 31 78 121 33 78 121 32 78 121 31 78 121 31 78 121 31 78 121 31 78 121 31 78 121 31 78 121 31 78 121 31 78 121 31 78 121 31 78 121 31 78 121 31 78 121 31 78 121 31 78 121 31 78 121 31 78 121 31 78 121 31 78 121 31 78 121 31 78 121 31 78 121 31 78 121 31 78 121 31 78 121 31 78 121 31 78 121 31 78 121 31 78 121 31 78 121 31 78 121 31 78 121 31 78 121 31 78 121 31 78 121 31 78 121 31 78 121 31 78 121 31 78 121 31 78 121 31 78 121 31 78 121 31 78 121 31 78 121 31 78 121 31 78 121 31 78 121 31 78 121 31 78 121 31 78 121 31 78 121 31 78 121 31 78 121 31 78 121 31 78 121 31 78 121 31 78 121 31 78 121 31 78 121 31 78 121 31 78 121 31 78 121 31 78 121 31 78 121 31 78 121 31 78 121 31 78 121 31 78 121 31 78 121 31 78 121 31 78 121 31 78 121 31 78 121 31 78 121 31 78 121 31 78 121 31 78 121 31 78 121 31 78 121 31 78 121 31 78 121 31 78 121 31 78 121 31 78 121 31 78 121 31 78 121 31 78 121 31 78 121 31 78 121 31 78 121 31 78 121 31 78 121 31 78 121 31 78 121 31 78 121 31 78 121 31 78 121 31 78 121 31 78 121 31 78 121 31 78 121 31 78 121 31 78 121 31 78 121 31 78 121 31 78 121 31 78 121 31 78 121 31 78 121 31 78 121 31 78 121 31 78 121 31 78 121 31 78 121 31 78 121 31 78 121 31 78 121 31 78 121 31 78 121 31 78 121 31 78 121 31 78 121 31 78 121 31 78 121 31 78 121 31 78 121 31 78 121 31 78 121 31 78 121 31 78 121 31 77 121 32 80 125 27 66 104 
30 74 116 36 90 141 35 87 136 35 88 137 35 88 137 35 88 137 35 88 137 35 88 137 35 88 137 35 88 137 35 88 136 37 88 136 36 89 138 34 90 142 23 70 113 11 45 77 7 39 69 11 39 67 16 44 70 33 59 82 19 43 65 16 40 62 16 39 61 16 37 57 15 35 54 15 34 53 14 33 51 15 34 51 15 34 51 13 32 50 13 32 49 27 46 63 31 50 68 29 48 65 27 47 65 26 46 65 25 47 67 23 46 68 20 44 66 17 44 69 15 44 71 17 50 81 36 77 115 41 90 135 36 91 141 30 86 139 29 85 137 34 87 137 37 89 137 36 88 136 35 88 136 35 88 137 35 88 137 35 88 137 35 88 137 35 88 137 35 88 137 35 88 137 35 88 137 35 88 137 35 88 137 35 88 137 35 88 137 35 88 137 35 88 137 35 88 137 35 88 137 35 88 137 35 88 137 35 88 137 35 88 137 35 88 137 35 88 137 35 88 137 35 88 137 35 88 137 35 88 137 35 88 137 35 88 137 35 88 137 35 88 137 35 88 137 35 88 137 35 88 137 35 88 137 35 88 137 35 88 137 35 88 137 35 88 137 35 88 137 35 88 137 35 88 137 35 88 137 35 88 137 35 88 137 35 88 137 35 88 137 35 88 137 35 88 137 35 88 137 35 88 137 35 88 137 35 88 137 35 88 137 35 88 137 35 88 137 35 88 137 35 88 137 35 88 137 35 88 137 35 88 137 35 88 137 35 88 137 35 88 137 35 88 137 35 88 137 35 88 137 35 88 137 35 88 137 35 88 137 35 88 137 35 88 137 35 88 137 35 88 137 35 88 137 35 88 137 35 88 137 35 88 137 35 88 137 35 88 137 35 88 137 35 88 137 35 88 137 35 88 137 35 88 137 35 88 137 35 88 137 35 88 137 35 88 137 35 88 137 35 88 137 35 88 137 35 88 137 35 88 137 35 88 137 35 88 137 35 88 137 35 88 137 35 88 137 35 88 137 35 88 137 35 88 137 35 88 137 35 88 137 35 88 137 35 88 137 35 88 137 35 88 137 35 88 137 35 88 137 35 88 137 35 88 137 35 88 137 35 88 137 35 88 137 35 88 137 35 88 137 35 88 137 35 88 137 35 88 137 35 88 137 35 88 137 35 88 137 35 88 137 35 88 137 35 88 137 35 87 136 36 90 141 30 74 116 
30 76 119 37 92 144 36 89 139 36 90 140 36 90 140 36 90 140 36 90 140 36 90 140 36 90 139 37 90 140 36 91 143 31 89 143 30 84 135 44 85 124 75 90 102 108 104 97 162 158 147 201 197 185 205 201 190 103 99 89 5 1 0 8 4 0 8 4 1 8 5 1 9 5 1 9 5 2 9 5 2 9 5 2 9 5 2 2 0 0 0 0 0 66 62 58 150 146 141 137 133 128 138 134 129 137 133 128 135 131 126 132 128 123 128 124 119 122 118 113 114 110 104 97 94 89 79 77 74 65 68 70 67 78 89 69 94 116 62 101 137 42 92 140 27 85 138 28 85 139 34 89 140 37 90 139 36 89 138 36 89 139 36 90 140 36 90 140 36 90 140 36 90 140 36 90 140 36 90 140 36 90 140 36 90 140 36 90 140 36 90 140 36 90 140 36 90 140 36 90 140 36 90 140 36 90 140 36 90 140 36 90 140 36 90 140 36 90 140 36 90 140 36 90 140 36 90 140 36 90 140 36 90 140 36 90 140 36 90 140 36 90 140 36 90 140 36 90 140 36 90 140 36 90 140 36 90 140 36 90 140 36 90 140 36 90 140 36 90 140 36 90 140 36 90 140 36 90 140 36 90 140 36 90 140 36 90 140 36 90 140 36 90 140 36 90 140 36 90 140 36 90 140 36 90 140 36 90 140 36 90 140 36 90 140 36 90 140 36 90 140 36 90 140 36 90 140 36 90 140 36 90 140 36 90 140 36 90 140 36 90 140 36 90 140 36 90 140 36 90 140 36 90 140 36 90 140 36 90 140 36 90 140 36 90 140 36 90 140 36 90 140 36 90 140 36 90 140 36 90 140 36 90 140 36 90 140 36 90 140 36 90 140 36 90 140 36 90 140 36 90 140 36 90 140 36 90 140 36 90 140 36 90 140 36 90 140 36 90 140 36 90 140 36 90 140 36 90 140 36 90 140 36 90 140 36 90 140 36 90 140 36 90 140 36 90 140 36 90 140 36 90 140 36 90 140 36 90 140 36 90 140 36 90 140 36 90 140 36 90 140 36 90 140 36 90 140 36 90 140 36 90 140 36 90 140 36 90 140 36 90 140 36 90 140 36 90 140 36 90 140 36 90 140 36 90 140 36 90 140 36 90 140 36 90 140 36 90 140 36 90 140 36 90 140 36 90 140 36 89 139 37 92 144 30 76 119 
32 79 123 38 95 149 37 92 144 37 93 145 37 93 145 37 93 145 37 93 144 39 94 145 35 93 148 30 90 145 35 84 131 63 92 120 112 121 128 173 170 163 228 226 214 255 255 253 255 255 255 237 238 229 99 100 96 16 16 18 25 26 27 26 27 27 25 26 27 25 26 27 26 26 27 26 26 27 26 26 27 25 26 27 27 28 29 12 13 13 1 2 3 22 22 23 156 157 155 161 162 160 160 160 159 160 161 160 161 162 160 162 162 161 162 163 162 164 165 163 165 166 165 167 168 166 162 162 160 142 142 139 110 108 104 82 78 73 73 71 68 95 100 103 99 117 133 77 112 144 47 98 145 36 95 150 38 98 153 40 97 150 39 95 147 40 96 147 40 96 147 40 96 147 41 96 147 41 95 146 40 95 146 40 94 145 39 94 145 38 93 145 37 93 145 37 93 145 37 93 145 37 93 145 37 93 145 37 93 145 37 93 145 37 93 145 37 93 145 37 93 145 37 93 145 37 93 145 37 93 145 37 93 145 37 93 145 37 93 145 37 93 145 37 93 145 37 93 145 37 93 145 37 93 145 37 93 145 37 93 145 37 93 145 37 93 145 37 93 145 37 93 145 37 93 145 37 93 145 37 93 145 37 93 145 37 93 145 37 93 145 37 93 145 37 93 145 37 93 145 37 93 145 37 93 145 37 93 145 37 93 145 37 93 145 37 93 145 37 93 145 37 93 145 37 93 145 37 93 145 37 93 145 37 93 145 37 93 145 37 93 145 37 93 145 37 93 145 37 93 145 37 93 145 37 93 145 37 93 145 37 93 145 37 93 145 37 93 145 37 93 145 37 93 145 37 93 145 37 93 145 37 93 145 37 93 145 37 93 145 37 93 145 37 93 145 37 93 145 37 93 145 37 93 145 37 93 145 37 93 145 37 93 145 37 93 145 37 93 145 37 93 145 37 93 145 37 93 145 37 93 145 37 93 145 37 93 145 37 93 145 37 93 145 37 93 145 37 93 145 37 93 145 37 93 145 37 93 145 37 93 145 37 93 145 37 93 145 37 93 145 37 93 145 37 93 145 37 93 145 37 93 145 37 93 145 37 93 145 37 93 145 37 93 145 37 93 145 37 93 145 37 93 145 37 93 145 37 93 145 37 93 145 37 93 145 37 93 145 37 93 145 37 93 145 37 93 145 37 92 144 38 95 149 32 79 123 
32 82 127 39 99 154 38 96 149 38 96 150 38 96 150 38 96 149 39 98 152 29 91 149 44 92 136 75 96 116 140 141 138 200 196 185 241 239 226 255 255 247 255 255 247 243 243 229 217 217 207 95 95 91 38 38 39 60 60 59 57 57 57 55 55 56 55 55 55 55 55 55 54 54 54 53 53 54 53 53 54 52 52 52 56 56 57 28 28 28 0 0 0 0 0 0 91 91 90 142 142 140 132 132 131 134 134 133 134 134 133 134 134 132 133 133 132 132 132 131 132 132 131 131 131 130 132 132 131 136 137 136 141 141 141 137 138 138 107 107 107 7 6 5 32 28 25 74 70 66 93 96 98 68 85 101 33 70 105 24 77 127 27 86 141 25 84 139 24 83 139 23 83 140 22 83 141 22 84 143 23 86 144 26 89 147 31 92 149 35 95 151 39 98 152 41 98 151 38 95 148 38 96 149 38 96 150 38 96 150 38 96 150 38 96 150 38 96 150 38 96 150 38 96 150 38 96 150 38 96 150 38 96 150 38 96 150 38 96 150 38 96 150 38 96 150 38 96 150 38 96 150 38 96 150 38 96 150 38 96 150 38 96 150 38 96 150 38 96 150 38 96 150 38 96 150 38 96 150 38 96 150 38 96 150 38 96 150 38 96 150 38 96 150 38 96 150 38 96 150 38 96 150 38 96 150 38 96 150 38 96 150 38 96 150 38 96 150 38 96 150 38 96 150 38 96 150 38 96 150 38 96 150 38 96 150 38 96 150 38 96 150 38 96 150 38 96 150 38 96 150 38 96 150 38 96 150 38 96 150 38 96 150 38 96 150 38 96 150 38 96 150 38 96 150 38 96 150 38 96 150 38 96 150 38 96 150 38 96 150 38 96 150 38 96 150 38 96 150 38 96 150 38 96 150 38 96 150 38 96 150 38 96 150 38 96 150 38 96 150 38 96 150 38 96 150 38 96 150 38 96 150 38 96 150 38 96 150 38 96 150 38 96 150 38 96 150 38 96 150 38 96 150 38 96 150 38 96 150 38 96 150 38 96 150 38 96 150 38 96 150 38 96 150 38 96 150 38 96 150 38 96 150 38 96 150 38 96 150 38 96 150 38 96 150 38 96 150 38 96 150 38 96 150 38 96 150 38 96 150 38 96 150 38 96 150 38 96 150 38 96 150 38 96 150 38 96 150 38 96 149 39 99 154 32 82 127 
34 84 132 41 102 159 39 99 154 39 99 155 40 99 154 41 101 157 34 91 144 118 144 163 229 230 221 245 241 225 255 255 240 255 255 247 255 255 242 251 251 236 250 250 238 241 241 229 197 197 186 177 177 168 203 203 194 197 197 187 200 200 190 199 199 189 197 197 187 198 198 188 195 195 185 194 194 184 194 194 185 192 192 182 193 193 183 194 194 184 178 178 168 161 161 153 197 197 188 202 202 191 202 202 192 202 202 192 197 197 187 195 195 185 195 195 186 190 190 181 190 190 181 189 189 180 187 187 178 186 186 177 185 185 176 185 185 177 126 126 121 81 82 78 78 78 75 99 100 95 147 146 137 182 179 168 180 176 163 184 188 182 188 199 199 182 193 193 175 188 191 165 181 186 153 172 181 137 161 176 118 147 169 94 130 160 72 115 154 50 102 149 34 93 147 30 93 151 40 104 164 40 101 157 39 99 154 39 99 155 39 99 155 39 99 155 39 99 155 39 99 155 39 99 155 39 99 155 39 99 155 39 99 155 39 99 155 39 99 155 39 99 155 39 99 155 39 99 155 39 99 155 39 99 155 39 99 155 39 99 155 39 99 155 39 99 155 39 99 155 39 99 155 39 99 155 39 99 155 39 99 155 39 99 155 39 99 155 39 99 155 39 99 155 39 99 155 39 99 155 39 99 155 39 99 155 39 99 155 39 99 155 39 99 155 39 99 155 39 99 155 39 99 155 39 99 155 39 99 155 39 99 155 39 99 155 39 99 155 39 99 155 39 99 155 39 99 155 39 99 155 39 99 155 39 99 155 39 99 155 39 99 155 39 99 155 39 99 155 39 99 155 39 99 155 39 99 155 39 99 155 39 99 155 39 99 155 39 99 155 39 99 155 39 99 155 39 99 155 39 99 155 39 99 155 39 99 155 39 99 155 39 99 155 39 99 155 39 99 155 39 99 155 39 99 155 39 99 155 39 99 155 39 99 155 39 99 155 39 99 155 39 99 155 39 99 155 39 99 155 39 99 155 39 99 155 39 99 155 39 99 155 39 99 155 39 99 155 39 99 155 39 99 155 39 99 155 39 99 155 39 99 155 39 99 155 39 99 155 39 99 155 39 99 155 39 99 155 39 99 155 39 99 155 39 99 155 39 99 155 39 99 155 39 99 155 39 99 155 39 99 155 39 99 155 39 99 155 39 99 154 41 102 159 34 84 132 
35 87 136 42 105 164 40 102 159 41 102 160 40 101 157 46 112 172 14 59 102 62 55 46 255 255 249 249 250 238 247 247 236 244 244 232 244 244 232 249 249 237 252 252 240 255 255 247 246 246 234 208 208 198 244 244 232 240 240 228 238 238 227 238 238 227 239 239 227 239 239 227 239 239 227 239 239 227 239 239 227 239 239 227 238 238 227 239 239 227 238 238 227 196 196 187 203 203 193 192 192 182 193 193 183 201 201 190 237 237 225 236 236 224 236 236 224 237 237 225 237 237 225 237 237 225 237 237 225 237 237 225 237 237 225 236 236 224 196 196 186 192 192 183 198 198 189 213 213 202 200 200 190 241 241 232 237 238 226 236 235 222 237 235 220 242 240 225 246 243 228 248 245 229 248 244 227 245 241 224 240 235 219 234 230 214 227 224 210 209 210 200 182 189 187 133 150 161 45 75 103 38 95 147 42 104 162 40 102 159 41 102 160 41 102 160 41 102 160 41 102 160 41 102 160 41 102 160 41 102 160 41 102 160 41 102 160 41 102 160 41 102 160 41 102 160 41 102 160 41 102 160 41 102 160 41 102 160 41 102 160 41 102 160 41 102 160 41 102 160 41 102 160 41 102 160 41 102 160 41 102 160 41 102 160 41 102 160 41 102 160 41 102 160 41 102 160 41 102 160 41 102 160 41 102 160 41 102 160 41 102 160 41 102 160 41 102 160 41 102 160 41 102 160 41 102 160 41 102 160 41 102 160 41 102 160 41 102 160 41 102 160 41 102 160 41 102 160 41 102 160 41 102 160 41 102 160 41 102 160 41 102 160 41 102 160 41 102 160 41 102 160 41 102 160 41 102 160 41 102 160 41 102 160 41 102 160 41 102 160 41 102 160 41 102 160 41 102 160 41 102 160 41 102 160 41 102 160 41 102 160 41 102 160 41 102 160 41 102 160 41 102 160 41 102 160 41 102 160 41 102 160 41 102 160 41 102 160 41 102 160 41 102 160 41 102 160 41 102 160 41 102 160 41 102 160 41 102 160 41 102 160 41 102 160 41 102 160 41 102 160 41 102 160 41 102 160 41 102 160 41 102 160 41 102 160 41 102 160 41 102 160 41 102 160 41 102 160 41 102 160 41 102 160 41 102 160 41 102 160 41 102 160 41 102 160 41 102 160 41 102 160 41 102 160 41 102 160 40 102 159 42 105 164 35 87 136 
35 90 140 43 109 169 42 105 163 42 106 164 42 105 163 43 111 172 28 57 82 141 138 129 249 250 242 239 239 229 240 240 230 252 252 241 255 255 245 239 239 229 221 221 212 213 213 204 220 220 211 215 215 206 217 217 208 246 246 235 246 246 235 245 245 235 244 244 233 244 244 233 244 244 233 244 244 233 244 244 233 244 244 233 244 244 233 242 242 231 250 250 239 204 204 195 222 222 213 241 241 230 236 236 226 238 238 228 243 243 233 243 243 233 243 243 233 243 243 232 243 243 232 243 243 232 242 242 232 242 242 232 242 242 232 242 242 232 251 251 240 252 252 241 251 251 240 245 245 235 194 194 185 239 239 229 241 241 231 254 254 244 247 247 237 228 229 220 215 216 207 210 211 202 216 217 208 229 230 221 245 246 237 250 250 241 238 238 228 237 237 226 254 252 240 201 197 185 0 0 0 24 80 132 45 112 173 41 104 162 42 106 164 42 106 164 42 106 164 42 106 164 42 106 164 42 106 164 42 106 164 42 106 164 42 106 164 42 106 164 42 106 164 42 106 164 42 106 164 42 106 164 42 106 164 42 106 164 42 106 164 42 106 164 42 106 164 42 106 164 42 106 164 42 106 164 42 106 164 42 106 164 42 106 164 42 106 164 42 106 164 42 106 164 42 106 164 42 106 164 42 106 164 42 106 164 42 106 164 42 106 164 42 106 164 42 106 164 42 106 164 42 106 164 42 106 164 42 106 164 42 106 164 42 106 164 42 106 164 42 106 164 42 106 164 42 106 164 42 106 164 42 106 164 42 106 164 42 106 164 42 106 164 42 106 164 42 106 164 42 106 164 42 106 164 42 106 164 42 106 164 42 106 164 42 106 164 42 106 164 42 106 164 42 106 164 42 106 164 42 106 164 42 106 164 42 106 164 42 106 164 42 106 164 42 106 164 42 106 164 42 106 164 42 106 164 42 106 164 42 106 164 42 106 164 42 106 164 42 106 164 42 106 164 42 106 164 42 106 164 42 106 164 42 106 164 42 106 164 42 106 164 42 106 164 42 106 164 42 106 164 42 106 164 42 106 164 42 106 164 42 106 164 42 106 164 42 106 164 42 106 164 42 106 164 42 106 164 42 106 164 42 106 164 42 106 164 42 106 164 42 106 164 42 106 164 42 106 164 42 106 164 42 106 164 42 106 164 42 105 163 43 109 169 35 90 140 
37 92 144 44 112 174 43 108 168 44 109 169 41 109 173 51 103 151 213 211 201 253 253 244 235 235 227 236 236 228 248 248 239 192 192 185 108 108 105 69 69 68 58 58 57 54 54 53 55 55 54 65 65 64 79 79 77 119 119 115 197 197 191 227 227 219 235 235 227 233 233 225 233 233 225 233 233 225 233 233 225 233 233 225 233 233 225 232 232 224 240 240 231 201 201 194 213 213 206 240 240 232 234 234 226 235 235 227 233 233 225 233 233 225 233 233 225 233 233 225 233 233 225 233 233 225 233 233 225 233 233 225 233 233 225 233 233 225 232 232 224 232 232 224 232 232 224 232 232 224 188 188 181 239 239 231 236 236 228 149 149 144 85 85 82 64 64 63 58 58 58 54 54 54 60 60 59 68 68 67 91 91 89 157 157 152 238 238 230 239 239 231 232 232 225 237 239 232 134 133 127 57 78 96 44 109 169 43 109 170 43 109 169 43 109 169 43 109 169 43 109 169 43 109 169 43 109 169 43 109 169 43 109 169 43 109 169 43 109 169 43 109 169 43 109 169 43 109 169 43 109 169 43 109 169 43 109 169 43 109 169 43 109 169 43 109 169 43 109 169 43 109 169 43 109 169 43 109 169 43 109 169 43 109 169 43 109 169 43 109 169 43 109 169 43 109 169 43 109 169 43 109 169 43 109 169 43 109 169 43 109 169 43 109 169 43 109 169 43 109 169 43 109 169 43 109 169 43 109 169 43 109 169 43 109 169 43 109 169 43 109 169 43 109 169 43 109 169 43 109 169 43 109 169 43 109 169 43 109 169 43 109 169 43 109 169 43 109 169 43 109 169 43 109 169 43 109 169 43 109 169 43 109 169 43 109 169 43 109 169 43 109 169 43 109 169 43 109 169 43 109 169 43 109 169 43 109 169 43 109 169 43 109 169 43 109 169 43 109 169 43 109 169 43 109 169 43 109 169 43 109 169 43 109 169 43 109 169 43 109 169 43 109 169 43 109 169 43 109 169 43 109 169 43 109 169 43 109 169 43 109 169 43 109 169 43 109 169 43 109 169 43 109 169 43 109 169 43 109 169 43 109 169 43 109 169 43 109 169 43 109 169 43 109 169 43 109 169 43 109 169 43 109 169 43 109 169 43 109 169 43 109 169 43 109 169 43 109 169 43 109 169 43 109 169 43 109 169 43 108 168 44 112 174 37 92 144 
38 95 148 46 115 179 44 111 173 45 112 173 43 113 178 52 104 151 212 210 204 234 234 229 233 234 229 242 242 236 129 129 126 29 29 30 49 49 50 54 54 54 38 38 38 44 44 44 37 37 37 46 46 46 51 51 52 44 44 45 49 49 49 164 164 160 224 224 219 248 248 242 244 244 238 245 245 239 245 245 239 245 245 239 245 245 239 244 244 238 252 252 246 210 210 204 224 224 219 250 250 244 244 244 238 245 245 239 245 245 239 245 245 239 245 245 239 245 245 239 245 245 239 245 245 239 245 245 239 245 245 239 245 245 239 245 245 239 245 245 239 245 245 239 247 247 241 237 237 231 203 203 198 239 239 233 77 77 76 32 32 33 53 53 54 50 50 50 33 33 33 44 44 44 37 37 37 50 50 51 53 53 54 27 27 27 84 84 82 239 239 233 247 247 241 244 244 239 255 255 255 250 243 230 72 114 152 38 110 176 46 113 173 45 112 174 45 112 174 45 112 174 45 112 174 45 112 174 45 112 174 45 112 174 45 112 174 45 112 174 45 112 174 45 112 174 45 112 174 45 112 174 45 112 174 45 112 174 45 112 174 45 112 174 45 112 174 45 112 174 45 112 174 45 112 174 45 112 174 45 112 174 45 112 174 45 112 174 45 112 174 45 112 174 45 112 174 45 112 174 45 112 174 45 112 174 45 112 174 45 112 174 45 112 174 45 112 174 45 112 174 45 112 174 45 112 174 45 112 174 45 112 174 45 112 174 45 112 174 45 112 174 45 112 174 45 112 174 45 112 174 45 112 174 45 112 174 45 112 174 45 112 174 45 112 174 45 112 174 45 112 174 45 112 174 45 112 174 45 112 174 45 112 174 45 112 174 45 112 174 45 112 174 45 112 174 45 112 174 45 112 174 45 112 174 45 112 174 45 112 174 45 112 174 45 112 174 45 112 174 45 112 174 45 112 174 45 112 174 45 112 174 45 112 174 45 112 174 45 112 174 45 112 174 45 112 174 45 112 174 45 112 174 45 112 174 45 112 174 45 112 174 45 112 174 45 112 174 45 112 174 45 112 174 45 112 174 45 112 174 45 112 174 45 112 174 45 112 174 45 112 174 45 112 174 45 112 174 45 112 174 45 112 174 45 112 174 45 112 174 45 112 174 45 112 174 45 112 174 45 112 174 45 112 174 45 112 174 44 111 173 46 115 179 38 95 148 
36 97 154 44 118 186 42 114 180 42 114 179 44 119 188 34 94 149 16 16 15 28 25 23 36 35 33 50 49 48 27 27 27 70 70 70 51 51 50 20 20 20 27 27 27 27 27 27 28 28 28 27 27 27 24 24 24 70 70 70 47 47 47 54 53 53 132 132 130 160 160 157 159 159 156 159 159 157 159 159 157 159 159 157 159 159 157 158 158 156 163 163 160 133 133 131 150 150 147 161 161 159 159 159 156 159 159 156 159 159 156 159 159 156 159 159 156 159 159 156 159 159 156 159 159 156 159 159 156 159 159 156 159 159 156 159 159 156 159 159 156 158 158 156 161 161 158 148 148 146 141 141 139 110 109 108 31 31 31 77 77 77 30 30 30 23 23 23 27 27 27 27 27 27 29 29 29 22 22 22 38 38 38 79 79 78 27 27 27 119 119 117 165 164 161 153 153 150 150 150 147 157 154 149 65 112 154 37 114 184 44 115 180 42 115 181 42 115 181 42 115 181 42 115 181 42 115 181 42 115 181 42 115 181 42 115 181 42 115 181 42 115 181 42 115 181 42 115 181 42 115 181 42 115 181 42 115 181 42 115 181 42 115 181 42 115 181 42 115 181 42 115 181 42 115 181 42 115 181 42 115 181 42 115 181 42 115 181 42 115 181 42 115 181 42 115 181 42 115 181 42 115 181 42 115 181 42 115 181 42 115 181 42 115 181 42 115 181 42 115 181 42 115 181 42 115 181 42 115 181 42 115 181 42 115 181 42 115 181 42 115 181 42 115 181 42 115 181 42 115 181 42 115 181 42 115 181 42 115 181 42 115 181 42 115 181 42 115 181 42 115 181 42 115 181 42 115 181 42 115 181 42 115 181 42 115 181 42 115 181 42 115 181 42 115 181 42 115 181 42 115 181 42 115 181 42 115 181 42 115 181 42 115 181 42 115 181 42 115 181 42 115 181 42 115 181 42 115 181 42 115 181 42 115 181 42 115 181 42 115 181 42 115 181 42 115 181 42 115 181 42 115 181 42 115 181 42 115 181 42 115 181 42 115 181 42 115 181 42 115 181 42 115 181 42 115 181 42 115 181 42 115 181 42 115 181 42 115 181 42 115 181 42 115 181 42 115 181 42 115 181 42 115 181 42 115 181 42 115 181 42 115 181 42 115 181 42 115 181 42 115 181 42 115 181 42 115 181 42 114 180 44 118 186 36 97 154 
62 103 141 75 125 170 72 121 165 73 121 166 73 122 166 72 120 164 50 77 101 38 57 74 21 30 39 6 7 7 38 39 39 72 72 72 32 32 32 17 17 17 32 32 32 31 31 31 33 33 33 32 32 32 15 15 15 52 52 52 66 66 66 21 21 22 0 0 0 0 0 0 0 0 0 0 0 0 0 0 0 0 0 0 0 0 0 0 0 0 0 0 0 0 0 0 0 0 0 0 0 0 0 0 0 0 0 0 0 0 0 0 0 0 0 0 0 0 0 0 0 0 0 0 0 0 0 0 0 0 0 0 0 0 0 0 0 0 0 0 0 0 0 0 0 0 0 0 0 0 0 0 0 0 0 0 55 56 56 65 65 65 18 18 18 25 25 25 32 32 32 32 32 32 34 34 34 24 24 24 21 21 21 71 71 71 46 46 47 1 2 2 0 0 0 1 4 8 5 10 15 27 46 63 72 121 167 73 121 166 73 121 166 73 121 166 73 121 166 73 121 166 73 121 166 73 121 166 73 121 166 73 121 166 73 121 166 73 121 166 73 121 166 73 121 166 73 121 166 73 121 166 73 121 166 73 121 166 73 121 166 73 121 166 73 121 166 73 121 166 73 121 166 73 121 166 73 121 166 73 121 166 73 121 166 73 121 166 73 121 166 73 121 166 73 121 166 73 121 166 73 121 166 73 121 166 73 121 166 73 121 166 73 121 166 73 121 166 73 121 166 73 121 166 73 121 166 73 121 166 73 121 166 73 121 166 73 121 166 73 121 166 73 121 166 73 121 166 73 121 166 73 121 166 73 121 166 73 121 166 73 121 166 73 121 166 73 121 166 73 121 166 73 121 166 73 121 166 73 121 166 73 121 166 73 121 166 73 121 166 73 121 166 73 121 166 73 121 166 73 121 166 73 121 166 73 121 166 73 121 166 73 121 166 73 121 166 73 121 166 73 121 166 73 121 166 73 121 166 73 121 166 73 121 166 73 121 166 73 121 166 73 121 166 73 121 166 73 121 166 73 121 166 73 121 166 73 121 166 73 121 166 73 121 166 73 121 166 73 121 166 73 121 166 73 121 166 73 121 166 73 121 166 73 121 166 73 121 166 73 121 166 73 121 166 73 121 166 73 121 166 73 121 166 73 121 166 73 121 166 73 121 166 73 121 166 73 121 166 73 121 166 73 121 166 73 121 166 72 121 165 75 125 170 62 103 141 
99 102 104 120 123 126 116 119 122 116 120 123 116 120 122 117 120 123 121 128 135 122 131 138 120 127 133 108 111 113 102 104 105 79 79 79 68 67 67 49 49 49 29 29 29 41 41 41 23 23 23 40 40 40 49 49 50 73 73 73 87 88 89 103 104 106 80 80 81 81 81 81 81 81 81 81 81 81 81 81 81 81 81 81 82 82 82 83 83 84 83 83 83 82 83 83 82 83 83 83 83 83 83 83 83 85 86 86 86 87 87 86 87 87 86 87 87 86 87 87 86 86 87 87 88 88 89 90 91 89 90 90 89 90 91 89 90 91 89 90 91 89 90 90 91 92 92 91 92 93 90 91 92 99 100 102 94 95 96 74 74 74 58 58 58 40 40 40 28 28 28 34 34 34 28 28 28 43 43 43 62 62 62 76 76 76 98 99 101 106 108 109 106 108 110 114 118 122 117 123 128 121 127 133 117 121 124 116 119 122 117 120 123 116 120 123 116 120 123 116 120 123 116 120 123 116 120 123 116 120 123 116 120 123 116 120 123 116 120 123 116 120 123 116 120 123 116 120 123 116 120 123 116 120 123 116 120 123 116 120 123 116 120 123 116 120 123 116 120 123 116 120 123 116 120 123 116 120 123 116 120 123 116 120 123 116 120 123 116 120 123 116 120 123 116 120 123 116 120 123 116 120 123 116 120 123 116 120 123 116 120 123 116 120 123 116 120 123 116 120 123 116 120 123 116 120 123 116 120 123 116 120 123 116 120 123 116 120 123 116 120 123 116 120 123 116 120 123 116 120 123 116 120 123 116 120 123 116 120 123 116 120 123 116 120 123 116 120 123 116 120 123 116 120 123 116 120 123 116 120 123 116 120 123 116 120 123 116 120 123 116 120 123 116 120 123 116 120 123 116 120 123 116 120 123 116 120 123 116 120 123 116 120 123 116 120 123 116 120 123 116 120 123 116 120 123 116 120 123 116 120 123 116 120 123 116 120 123 116 120 123 116 120 123 116 120 123 116 120 123 116 120 123 116 120 123 116 120 123 116 120 123 116 120 123 116 120 123 116 120 123 116 120 123 116 120 123 116 120 123 116 120 123 116 120 123 116 120 123 116 120 123 116 120 123 116 120 123 116 120 123 116 120 123 116 120 123 116 120 123 116 120 123 116 120 123 116 120 123 116 120 123 116 120 123 116 120 123 116 119 122 120 123 126 99 102 104 
62 62 61 75 75 74 73 72 72 73 73 72 73 73 72 73 72 72 72 71 70 72 71 69 73 71 70 75 75 75 77 77 76 75 75 75 64 64 64 63 63 63 60 60 60 60 60 60 58 58 58 61 61 61 64 64 64 67 67 67 77 77 77 77 76 76 80 80 80 80 80 80 80 80 80 80 80 80 80 80 80 80 80 80 80 80 80 80 80 80 80 80 80 80 80 80 80 80 80 80 80 80 80 80 80 80 80 80 80 80 80 80 80 80 80 80 80 80 80 80 80 80 80 80 79 79 79 79 79 79 79 79 79 79 79 79 79 79 79 79 79 79 79 79 79 79 79 79 79 79 79 79 79 77 77 77 77 77 77 70 70 70 63 63 63 62 62 62 59 59 59 59 59 59 58 58 58 64 64 64 64 64 64 72 72 72 77 77 77 76 76 76 76 76 76 75 74 73 74 73 72 73 72 70 73 72 72 73 73 72 73 73 72 73 73 72 73 73 72 73 73 72 73 73 72 73 73 72 73 73 72 73 73 72 73 73 72 73 73 72 73 73 72 73 73 72 73 73 72 73 73 72 73 73 72 73 73 72 73 73 72 73 73 72 73 73 72 73 73 72 73 73 72 73 73 72 73 73 72 73 73 72 73 73 72 73 73 72 73 73 72 73 73 72 73 73 72 73 73 72 73 73 72 73 73 72 73 73 72 73 73 72 73 73 72 73 73 72 73 73 72 73 73 72 73 73 72 73 73 72 73 73 72 73 73 72 73 73 72 73 73 72 73 73 72 73 73 72 73 73 72 73 73 72 73 73 72 73 73 72 73 73 72 73 73 72 73 73 72 73 73 72 73 73 72 73 73 72 73 73 72 73 73 72 73 73 72 73 73 72 73 73 72 73 73 72 73 73 72 73 73 72 73 73 72 73 73 72 73 73 72 73 73 72 73 73 72 73 73 72 73 73 72 73 73 72 73 73 72 73 73 72 73 73 72 73 73 72 73 73 72 73 73 72 73 73 72 73 73 72 73 73 72 73 73 72 73 73 72 73 73 72 73 73 72 73 73 72 73 73 72 73 73 72 73 73 72 73 73 72 73 73 72 73 73 72 73 73 72 73 73 72 73 73 72 73 73 72 73 73 72 73 73 72 73 73 72 73 73 72 73 73 72 73 73 72 73 73 72 73 73 72 73 73 72 73 73 72 73 72 72 75 75 74 62 62 61 
19 19 20 23 23 24 22 22 23 22 23 23 22 23 23 22 23 23 22 23 23 22 23 23 22 23 23 22 22 22 22 22 22 22 22 22 24 24 24 23 23 23 23 23 23 23 23 23 23 23 23 23 23 23 24 24 24 24 24 24 22 22 22 22 22 22 21 21 21 21 21 21 21 21 21 21 21 21 21 21 21 21 21 21 21 21 21 21 21 21 21 21 21 21 21 21 21 21 21 21 21 21 21 21 21 21 21 21 21 21 21 21 21 21 21 21 21 21 21 21 21 21 21 21 21 21 21 21 21 21 21 21 21 21 21 21 21 21 21 21 21 21 21 21 21 21 21 21 21 21 21 21 21 21 21 22 21 22 22 23 23 23 24 24 24 23 23 23 23 23 23 23 23 23 23 23 23 23 23 23 24 24 24 23 23 23 21 22 22 22 22 22 22 22 22 22 22 22 22 22 23 22 23 23 22 23 23 22 23 23 22 23 23 22 23 23 22 23 23 22 23 23 22 23 23 22 23 23 22 23 23 22 23 23 22 23 23 22 23 23 22 23 23 22 23 23 22 23 23 22 23 23 22 23 23 22 23 23 22 23 23 22 23 23 22 23 23 22 23 23 22 23 23 22 23 23 22 23 23 22 23 23 22 23 23 22 23 23 22 23 23 22 23 23 22 23 23 22 23 23 22 23 23 22 23 23 22 23 23 22 23 23 22 23 23 22 23 23 22 23 23 22 23 23 22 23 23 22 23 23 22 23 23 22 23 23 22 23 23 22 23 23 22 23 23 22 23 23 22 23 23 22 23 23 22 23 23 22 23 23 22 23 23 22 23 23 22 23 23 22 23 23 22 23 23 22 23 23 22 23 23 22 23 23 22 23 23 22 23 23 22 23 23 22 23 23 22 23 23 22 23 23 22 23 23 22 23 23 22 23 23 22 23 23 22 23 23 22 23 23 22 23 23 22 23 23 22 23 23 22 23 23 22 23 23 22 23 23 22 23 23 22 23 23 22 23 23 22 23 23 22 23 23 22 23 23 22 23 23 22 23 23 22 23 23 22 23 23 22 23 23 22 23 23 22 23 23 22 23 23 22 23 23 22 23 23 22 23 23 22 23 23 22 23 23 22 23 23 22 23 23 22 23 23 22 23 23 22 23 23 22 23 23 22 23 23 22 23 23 22 23 23 22 23 23 22 23 23 22 22 23 23 23 24 19 19 20 
