P3
# Created by IrfanView
#
91 8
255
237 202 226 238 202 225 238 204 225 238 203 225 239 204 226 246 210 232 218 184 203 178 149 165 162 136 152 167 140 158 211 179 198 252 218 240 241 210 229 244 213 231 245 214 232 243 213 230 244 214 230 249 219 235 250 220 236 247 218 233 243 214 229 244 216 231 246 218 233 246 218 233 246 218 233 246 218 233 246 219 233 245 217 232 246 216 232 247 217 233 248 218 234 246 218 233 246 219 234 247 220 235 247 220 235 247 220 235 246 219 234 245 218 232 248 220 235 250 223 238 248 221 236 245 218 232 246 219 234 247 220 235 247 220 235 247 220 235 247 220 235 247 220 235 247 220 235 247 220 235 247 220 235 247 220 235 247 220 235 245 217 232 247 219 234 254 225 240 253 225 239 250 222 237 245 218 232 244 217 231 246 218 233 246 218 233 245 217 232 244 216 230 245 217 232 246 218 232 246 216 231 245 214 230 245 214 229 249 218 233 255 225 241 255 226 245 253 224 244 250 219 237 244 213 229 244 213 231 244 214 232 242 211 229 244 214 234 248 219 239 219 184 204 196 153 174 198 155 177 226 188 210 251 216 238 239 206 227 240 207 228 240 207 228 240 207 228 239 206 227 239 205 226 
237 203 226 238 204 226 236 203 224 240 207 228 245 214 236 146 136 149 23 12 15 66 47 48 78 57 57 105 80 78 53 34 38 157 127 141 253 221 240 241 211 229 242 212 230 251 220 239 252 221 240 229 201 219 229 198 217 241 212 231 255 227 245 248 220 237 244 216 231 246 218 233 246 218 233 245 216 232 247 217 233 254 227 240 251 230 240 246 227 237 244 223 235 250 225 238 250 223 238 246 219 234 247 220 235 246 219 234 249 223 239 255 231 248 245 218 235 237 207 221 244 216 232 255 229 247 249 222 237 246 219 234 248 221 236 247 221 235 247 220 235 247 221 235 248 221 236 247 220 235 247 220 235 247 220 235 246 218 233 255 227 243 246 218 234 218 192 209 222 194 212 236 205 223 252 222 240 251 222 238 245 216 232 245 217 232 249 221 237 255 229 246 250 222 239 249 219 236 253 222 240 255 225 244 255 224 243 236 208 227 202 171 187 198 159 166 211 174 180 232 200 214 251 222 242 247 216 234 244 212 230 244 216 234 237 195 214 164 95 109 107 37 48 109 31 34 121 46 46 78 30 34 140 105 124 247 215 238 237 204 225 240 207 228 240 208 229 240 207 228 240 207 227 
237 204 225 236 203 224 245 212 233 224 193 216 195 161 163 111 87 82 138 113 107 204 168 158 224 184 173 247 208 196 192 152 142 59 35 35 210 180 197 248 218 236 245 216 234 203 176 191 108 84 91 110 82 80 132 101 99 120 88 91 138 106 114 228 197 214 249 221 239 245 216 231 245 216 232 250 230 241 238 229 234 194 191 196 164 158 164 141 131 139 132 116 126 156 133 148 219 193 207 250 223 238 245 218 233 249 223 239 235 203 214 183 141 141 170 129 122 185 142 133 175 131 123 191 149 148 238 211 225 252 226 242 246 220 234 246 223 237 246 222 236 246 222 236 247 221 236 247 220 235 247 220 235 245 217 232 250 221 238 187 158 169 95 70 75 69 51 53 71 55 60 42 31 38 92 73 78 216 185 200 250 220 238 248 219 237 232 203 217 159 124 128 116 81 84 115 80 83 122 88 87 149 120 125 202 164 170 114 74 68 91 49 39 117 63 38 142 86 56 148 95 71 192 149 145 243 212 229 245 216 234 242 210 226 169 75 73 163 59 49 196 98 86 174 75 63 177 91 81 123 54 47 99 41 38 202 154 167 249 219 242 238 205 225 241 208 229 241 209 230 240 208 229 
236 203 224 244 211 232 239 206 227 92 77 87 77 57 55 220 170 153 255 236 225 243 201 191 233 194 183 249 205 196 186 142 135 41 25 26 191 163 177 255 228 246 225 196 212 76 55 59 116 84 74 236 196 181 240 204 194 217 174 161 88 52 44 91 54 52 235 204 218 247 219 235 245 223 236 202 193 192 124 110 121 141 115 134 195 160 178 176 141 163 183 147 164 165 131 148 161 129 155 239 212 228 250 224 239 238 211 225 129 76 61 164 97 70 237 193 175 237 199 188 243 202 189 175 122 103 152 101 84 230 199 211 250 224 240 247 220 235 247 221 236 247 222 236 247 221 236 247 221 235 244 217 232 253 227 244 191 160 169 81 49 40 197 157 145 234 197 184 200 152 138 128 88 77 29 17 12 69 48 48 233 203 221 232 203 218 131 90 79 170 120 104 188 141 125 174 119 99 116 76 57 76 50 36 102 64 44 164 99 68 210 143 116 191 138 116 183 131 111 176 114 88 127 71 41 175 131 123 248 221 241 243 214 231 201 148 152 205 146 136 234 180 169 222 178 172 245 200 192 219 148 134 173 104 90 73 26 23 199 161 177 254 227 249 240 212 232 239 210 230 241 209 230 
240 208 231 232 199 221 105 85 95 29 19 21 105 74 66 234 183 161 236 193 177 245 200 192 225 166 160 175 131 121 67 51 50 25 12 13 181 153 166 255 229 247 228 199 215 94 69 71 122 84 75 232 185 174 244 206 198 233 186 178 237 187 177 110 68 58 148 118 124 255 233 250 240 219 231 198 166 178 214 161 156 243 200 184 249 218 215 216 174 169 229 192 187 212 163 155 183 141 149 241 216 233 253 228 244 221 189 198 133 75 49 234 186 154 247 204 192 231 196 187 238 195 186 237 182 174 198 140 122 166 126 123 255 231 249 245 218 232 246 222 236 247 222 236 247 222 236 247 221 236 244 217 232 255 228 245 117 87 89 108 71 61 255 209 197 232 182 170 230 188 178 241 180 164 125 82 71 34 16 11 176 151 166 183 150 154 157 113 96 244 200 189 233 188 177 229 184 175 184 133 116 94 62 46 82 52 35 139 95 82 247 197 186 243 184 177 254 205 199 225 160 142 140 82 55 135 83 60 224 189 203 250 224 243 250 226 242 239 200 201 232 167 163 241 186 181 230 178 162 204 147 131 169 135 132 140 118 124 153 110 117 181 126 135 235 202 221 241 213 233 239 209 229 
235 201 225 182 159 174 200 196 202 217 211 218 231 211 215 242 221 220 216 172 163 96 74 70 20 10 9 23 14 15 31 23 25 41 22 21 178 151 163 252 225 243 251 226 246 205 180 195 74 40 35 137 93 79 223 177 164 229 165 163 196 140 132 99 70 64 88 57 56 235 205 220 253 229 244 220 191 215 160 129 157 215 169 165 249 206 185 254 211 202 237 168 165 213 153 145 250 220 225 247 227 240 246 223 237 243 217 230 153 101 84 156 118 101 196 150 130 248 199 179 228 177 165 229 166 158 133 91 78 152 114 110 255 228 246 244 218 232 246 223 236 246 224 237 246 224 237 246 222 236 246 219 234 246 217 234 86 61 66 39 25 22 189 148 139 231 166 160 224 166 151 188 131 111 66 45 42 17 9 8 147 120 131 186 154 157 137 95 75 233 176 169 241 180 176 241 194 177 137 87 64 75 42 21 67 40 30 70 40 30 110 76 67 157 103 94 192 136 121 180 124 102 155 91 58 127 68 35 154 100 94 237 206 225 244 216 232 241 215 232 244 212 227 235 200 206 207 178 173 231 221 225 238 228 237 243 234 243 209 193 204 110 57 56 177 120 136 242 213 233 239 211 230 
234 216 231 242 239 245 255 253 255 240 233 243 233 226 239 234 231 244 236 232 244 209 206 215 143 134 141 69 53 56 65 43 40 116 88 90 241 213 231 245 218 231 242 206 213 210 170 174 195 167 169 142 124 126 107 71 61 171 130 113 117 92 84 71 47 44 59 28 21 123 88 90 252 229 244 231 203 220 171 140 167 160 127 153 203 149 139 191 135 112 105 73 74 91 68 88 224 194 215 249 225 238 244 221 234 250 230 245 215 176 183 166 102 72 184 152 114 236 194 172 235 182 159 176 124 107 46 24 18 163 117 115 246 219 235 246 221 235 246 224 237 246 224 237 246 224 237 245 224 236 245 221 234 245 221 237 169 141 155 62 42 45 11 7 9 139 105 95 228 174 149 164 119 102 35 27 26 68 52 50 108 78 83 157 128 136 81 48 30 40 30 29 137 106 94 156 115 99 125 96 83 118 94 85 153 129 137 163 115 107 80 38 15 109 65 44 178 125 109 194 135 108 176 124 96 194 176 179 218 200 207 227 211 226 235 215 232 238 214 228 234 219 225 237 227 229 239 233 235 244 240 244 238 232 237 229 220 226 235 229 234 219 209 214 207 177 191 241 212 233 241 212 232 
250 251 254 249 250 252 241 238 244 244 241 248 246 244 249 242 237 245 239 235 245 242 236 248 253 246 255 173 159 170 50 27 24 55 31 34 137 105 111 233 181 174 216 163 154 238 211 206 246 228 228 255 255 255 210 201 209 119 91 87 123 92 83 73 48 44 95 69 62 173 136 123 239 212 214 244 238 245 227 215 222 180 155 176 160 131 164 171 128 137 168 130 130 129 98 125 144 105 140 214 182 204 238 215 227 247 226 240 239 211 216 242 207 187 251 224 212 243 218 208 231 200 189 195 162 160 196 162 175 238 211 225 245 222 235 246 224 237 246 224 237 247 225 238 246 224 237 246 224 237 246 225 238 243 216 225 246 207 205 201 155 148 94 64 59 186 148 135 250 209 191 217 190 180 209 177 164 250 215 204 232 191 175 144 104 100 45 27 21 37 21 14 119 96 90 221 205 210 226 213 219 225 210 216 222 205 212 188 161 164 151 97 71 133 79 61 206 165 159 153 94 62 210 192 193 245 245 255 240 237 248 234 228 241 229 219 233 222 205 214 213 196 196 246 242 246 238 232 233 237 230 231 244 238 242 232 225 230 229 221 227 235 229 233 224 217 221 235 218 230 238 210 229 
