P3
# Created by IrfanView
#
93 16
255
29 72 112 31 78 122 31 77 120 31 77 121 31 77 121 31 77 121 31 77 121 31 77 121 31 77 121 31 77 121 31 77 121 31 77 121 31 77 121 31 77 121 31 77 121 31 77 121 31 77 121 31 77 121 31 77 121 31 77 121 31 77 121 31 77 121 31 77 121 31 77 121 31 77 121 31 77 121 31 77 121 31 77 121 31 77 121 31 77 121 31 77 121 31 77 121 31 77 121 31 77 121 31 77 121 31 77 121 31 77 121 31 77 121 31 77 121 31 77 121 31 77 121 31 77 121 31 77 121 31 77 121 31 77 121 31 77 121 31 77 121 31 77 121 31 77 121 31 77 120 33 81 125 37 87 133 37 86 133 33 83 131 34 84 131 34 84 131 34 84 131 34 84 131 34 84 131 32 82 129 32 82 129 33 83 130 34 84 131 36 86 133 34 84 130 31 77 121 32 78 120 31 77 120 31 77 121 31 77 121 31 77 121 31 77 121 31 77 121 31 77 121 31 77 121 31 77 121 31 77 121 31 77 121 31 77 121 31 77 121 31 77 121 31 77 121 31 77 121 31 77 121 31 77 121 31 77 121 31 77 121 31 77 121 31 77 121 31 77 121 31 77 120 31 78 122 29 72 112 
33 81 127 36 89 138 35 87 136 35 88 136 35 88 136 35 88 136 35 88 136 35 88 136 35 88 136 35 88 136 35 88 136 35 88 136 35 88 136 35 88 136 35 88 136 35 88 136 35 88 136 35 88 136 35 88 136 35 88 136 35 88 136 35 88 136 35 88 136 35 88 136 35 88 136 35 88 136 35 88 136 35 88 136 35 88 136 35 88 136 35 88 136 35 88 136 35 88 136 35 88 136 35 88 136 35 88 136 35 88 136 35 88 136 35 88 136 35 88 136 35 88 136 35 88 136 35 88 136 35 88 136 35 88 136 35 88 136 35 88 136 35 88 137 35 87 135 37 90 140 27 75 119 8 44 79 8 41 72 21 51 78 19 46 72 17 43 67 16 40 63 16 40 62 16 39 61 22 45 67 22 45 67 19 44 68 17 45 71 13 44 73 20 58 94 38 89 136 30 86 139 35 87 136 36 88 136 35 87 136 35 88 136 35 88 136 35 88 136 35 88 136 35 88 136 35 88 136 35 88 136 35 88 136 35 88 136 35 88 136 35 88 136 35 88 136 35 88 136 35 88 136 35 88 136 35 88 136 35 88 136 35 88 136 35 88 136 35 88 136 35 87 136 36 89 138 33 81 127 
33 83 129 36 90 141 35 89 139 36 89 139 36 89 139 36 89 139 36 89 139 36 89 139 36 89 139 36 89 139 36 89 139 36 89 139 36 89 139 36 89 139 36 89 139 36 89 139 36 89 139 36 89 139 36 89 139 36 89 139 36 89 139 36 89 139 36 89 139 36 89 139 36 89 139 36 89 139 36 89 139 36 89 139 36 89 139 36 89 139 36 89 139 36 89 139 36 89 139 36 89 139 36 89 139 36 89 139 36 89 139 36 89 139 36 89 139 36 89 139 36 89 139 36 89 139 36 89 139 36 89 139 36 89 139 36 89 139 35 89 139 36 89 138 36 90 140 32 89 143 48 68 88 113 107 96 183 180 166 48 44 38 0 0 0 9 5 2 8 4 0 10 6 2 0 0 0 79 77 73 134 130 124 121 117 111 117 113 107 105 101 96 78 75 71 62 67 72 66 96 123 36 90 140 29 86 138 38 90 139 36 89 139 36 89 139 36 89 139 36 89 139 36 89 139 36 89 139 36 89 139 36 89 139 36 89 139 36 89 139 36 89 139 36 89 139 36 89 139 36 89 139 36 89 139 36 89 139 36 89 139 36 89 139 36 89 139 36 89 139 35 89 139 36 90 141 33 83 129 
34 86 133 37 93 146 37 92 143 37 92 144 37 92 144 37 92 144 37 92 144 37 92 144 37 92 144 37 92 144 37 92 144 37 92 144 37 92 144 37 92 144 37 92 144 37 92 144 37 92 144 37 92 144 37 92 144 37 92 144 37 92 144 37 92 144 37 92 144 37 92 144 37 92 144 37 92 144 37 92 144 37 92 144 37 92 144 37 92 144 37 92 144 37 92 144 37 92 144 37 92 144 37 92 144 37 92 144 37 92 144 37 92 144 37 92 144 37 92 144 37 92 144 37 92 144 37 92 144 37 92 144 37 92 144 37 92 144 38 92 143 39 96 150 33 87 139 83 101 117 195 193 181 255 255 255 172 172 168 14 15 15 23 24 25 22 23 23 21 22 23 25 25 26 0 0 0 75 76 75 172 173 171 159 159 158 162 163 161 164 165 163 166 167 165 128 127 123 73 69 64 93 102 109 65 106 144 30 90 145 40 96 147 40 94 144 39 94 145 39 93 144 38 92 144 37 92 144 37 92 144 37 92 144 37 92 144 37 92 144 37 92 144 37 92 144 37 92 144 37 92 144 37 92 144 37 92 144 37 92 144 37 92 144 37 92 144 37 92 144 37 92 143 37 93 146 34 86 133 
35 88 138 38 97 151 38 95 148 38 95 148 38 95 148 38 95 148 38 95 148 38 95 148 38 95 148 38 95 148 38 95 148 38 95 148 38 95 148 38 95 148 38 95 148 38 95 148 38 95 148 38 95 148 38 95 148 38 95 148 38 95 148 38 95 148 38 95 148 38 95 148 38 95 148 38 95 148 38 95 148 38 95 148 38 95 148 38 95 148 38 95 148 38 95 148 38 95 148 38 95 148 38 95 148 38 95 148 38 95 148 38 95 148 38 95 148 38 95 148 38 95 148 38 95 148 38 95 148 38 95 148 38 95 148 39 96 148 34 94 150 22 75 125 99 109 117 217 213 199 255 255 252 226 226 213 48 48 48 31 31 32 38 38 39 37 37 38 37 37 38 41 41 42 5 5 6 33 33 33 146 146 145 140 140 139 141 141 140 142 142 140 141 141 140 151 151 151 139 140 140 46 43 41 80 78 75 75 100 123 22 79 133 24 86 144 25 87 145 29 90 147 35 94 150 40 98 151 41 97 149 38 95 148 38 95 148 38 95 148 38 95 148 38 95 148 38 95 148 38 95 148 38 95 148 38 95 148 38 95 148 38 95 148 38 95 148 38 95 148 38 95 148 38 97 151 35 88 138 
36 91 142 40 100 155 39 98 153 39 98 153 39 98 153 39 98 153 39 98 153 39 98 153 39 98 153 39 98 153 39 98 153 39 98 153 39 98 153 39 98 153 39 98 153 39 98 153 39 98 153 39 98 153 39 98 153 39 98 153 39 98 153 39 98 153 39 98 153 39 98 153 39 98 153 39 98 153 39 98 153 39 98 153 39 98 153 39 98 153 39 98 153 39 98 153 39 98 153 39 98 153 39 98 153 39 98 153 39 98 153 39 98 153 39 98 153 39 98 153 39 98 153 39 98 153 39 98 153 39 98 153 40 99 153 36 96 152 56 111 160 174 183 181 237 233 217 255 255 247 255 255 241 198 198 188 143 143 137 152 152 145 147 147 141 144 144 138 141 141 135 142 142 137 119 119 113 114 114 109 171 171 165 167 167 161 160 160 154 156 156 151 152 152 147 148 148 143 155 155 150 80 81 79 43 44 41 121 117 108 114 125 130 114 145 167 101 134 160 79 119 154 52 102 146 29 89 144 26 90 149 36 98 154 40 99 153 39 98 153 39 98 153 39 98 153 39 98 153 39 98 153 39 98 153 39 98 153 39 98 153 39 98 153 39 98 153 39 98 153 39 98 153 40 100 155 36 91 142 
37 94 146 41 103 160 40 101 157 40 101 158 40 101 158 40 101 158 40 101 158 40 101 158 40 101 158 40 101 158 40 101 158 40 101 158 40 101 158 40 101 158 40 101 158 40 101 158 40 101 158 40 101 158 40 101 158 40 101 158 40 101 158 40 101 158 40 101 158 40 101 158 40 101 158 40 101 158 40 101 158 40 101 158 40 101 158 40 101 158 40 101 158 40 101 158 40 101 158 40 101 158 40 101 158 40 101 158 40 101 158 40 101 158 40 101 158 40 101 158 40 101 158 40 101 158 40 101 158 40 101 158 41 101 157 36 101 162 61 89 113 240 235 223 255 255 248 245 245 232 251 251 238 225 225 213 226 226 214 240 240 227 237 237 224 237 237 225 237 237 224 238 238 225 235 235 223 216 216 205 210 210 198 218 218 206 236 236 223 234 234 221 233 233 220 237 237 224 218 218 206 136 136 129 163 163 154 224 225 213 247 245 229 245 240 222 243 239 221 237 234 218 222 222 209 182 191 190 113 141 162 52 104 152 38 100 157 41 102 158 40 101 158 40 101 158 40 101 158 40 101 158 40 101 158 40 101 158 40 101 158 40 101 158 40 101 158 40 101 158 40 101 157 41 103 160 37 94 146 
38 97 150 42 106 164 41 104 162 41 104 162 41 104 162 41 104 162 41 104 162 41 104 162 41 104 162 41 104 162 41 104 162 41 104 162 41 104 162 41 104 162 41 104 162 41 104 162 41 104 162 41 104 162 41 104 162 41 104 162 41 104 162 41 104 162 41 104 162 41 104 162 41 104 162 41 104 162 41 104 162 41 104 162 41 104 162 41 104 162 41 104 162 41 104 162 41 104 162 41 104 162 41 104 162 41 104 162 41 104 162 41 104 162 41 104 162 41 104 162 41 104 162 41 104 162 41 104 162 41 104 162 42 104 161 39 107 170 24 50 73 217 213 199 248 249 238 249 249 239 255 255 250 250 250 243 232 232 222 244 244 233 241 241 230 241 241 230 241 241 230 240 240 229 240 240 229 205 205 196 200 200 192 216 216 207 240 240 230 237 237 226 237 237 226 236 236 225 237 237 227 248 248 237 233 233 223 212 212 202 233 234 223 240 241 231 244 245 234 244 245 234 239 238 227 236 234 221 242 235 217 67 76 82 32 95 153 44 107 164 41 104 162 41 104 162 41 104 162 41 104 162 41 104 162 41 104 162 41 104 162 41 104 162 41 104 162 41 104 162 41 104 162 42 106 164 38 97 150 
39 99 155 43 109 169 42 107 166 42 107 167 42 107 167 42 107 167 42 107 167 42 107 167 42 107 167 42 107 167 42 107 167 42 107 167 42 107 167 42 107 167 42 107 167 42 107 167 42 107 167 42 107 167 42 107 167 42 107 167 42 107 167 42 107 167 42 107 167 42 107 167 42 107 167 42 107 167 42 107 167 42 107 167 42 107 167 42 107 167 42 107 167 42 107 167 42 107 167 42 107 167 42 107 167 42 107 167 42 107 167 42 107 167 42 107 167 42 107 167 42 107 167 42 107 167 42 107 167 43 107 167 43 109 169 38 101 158 148 157 159 244 243 231 248 248 239 209 209 201 133 133 128 130 130 125 169 169 162 228 228 219 242 242 232 240 240 230 240 240 231 240 240 231 241 241 232 219 219 210 247 247 237 246 246 236 241 241 231 242 242 232 242 242 232 242 242 232 241 241 232 241 241 231 234 234 225 221 221 212 252 252 242 181 181 174 132 132 127 142 142 136 209 209 201 247 248 239 249 248 238 78 84 88 21 83 140 47 113 173 42 107 166 42 107 167 42 107 167 42 107 167 42 107 167 42 107 167 42 107 167 42 107 167 42 107 167 42 107 167 42 107 166 43 109 169 39 99 155 
40 102 159 44 112 174 43 110 171 44 110 171 44 110 171 44 110 171 44 110 171 44 110 171 44 110 171 44 110 171 44 110 171 44 110 171 44 110 171 44 110 171 44 110 171 44 110 171 44 110 171 44 110 171 44 110 171 44 110 171 44 110 171 44 110 171 44 110 171 44 110 171 44 110 171 44 110 171 44 110 171 44 110 171 44 110 171 44 110 171 44 110 171 44 110 171 44 110 171 44 110 171 44 110 171 44 110 171 44 110 171 44 110 171 44 110 171 44 110 171 44 110 171 44 110 171 44 110 171 44 110 171 41 109 173 54 111 164 232 233 230 255 255 249 188 188 182 44 44 44 41 41 42 42 42 43 40 40 40 126 126 123 227 227 220 231 231 224 231 231 224 231 231 224 233 233 226 210 210 203 228 228 221 231 231 224 231 231 224 231 231 224 231 231 224 231 231 224 231 231 224 233 233 226 221 221 214 223 223 216 135 135 132 31 31 32 43 43 44 41 41 42 41 41 41 178 178 172 245 245 239 212 208 198 74 115 151 38 109 174 45 111 171 44 110 171 44 110 171 44 110 171 44 110 171 44 110 171 44 110 171 44 110 171 44 110 171 44 110 171 43 110 171 44 112 174 40 102 159 
41 105 163 45 115 178 45 113 175 45 113 176 45 113 176 45 113 176 45 113 176 45 113 176 45 113 176 45 113 176 45 113 176 45 113 176 45 113 176 45 113 176 45 113 176 45 113 176 45 113 176 45 113 176 45 113 176 45 113 176 45 113 176 45 113 176 45 113 176 45 113 176 45 113 176 45 113 176 45 113 176 45 113 176 45 113 176 45 113 176 45 113 176 45 113 176 45 113 176 45 113 176 45 113 176 45 113 176 45 113 176 45 113 176 45 113 176 45 113 176 45 113 176 45 113 176 45 113 176 45 113 175 44 114 178 46 108 164 154 156 156 199 198 193 71 71 71 50 50 50 39 39 38 28 28 28 49 49 49 52 52 52 187 187 183 251 251 246 245 245 240 245 245 240 247 247 241 221 221 217 245 245 240 246 246 241 246 246 241 246 246 241 246 246 241 246 246 241 246 246 240 247 247 242 241 241 236 201 201 197 55 55 55 52 52 52 29 29 29 37 37 36 47 47 47 85 85 84 248 250 245 255 255 250 134 163 188 29 103 170 48 115 177 45 113 176 45 113 176 45 113 176 45 113 176 45 113 176 45 113 176 45 113 176 45 113 176 45 113 176 45 113 175 45 115 178 41 105 163 
41 107 168 45 117 183 44 115 180 44 116 181 44 116 181 44 116 181 44 116 181 44 116 181 44 116 181 44 116 181 44 116 181 44 116 181 44 116 181 44 116 181 44 116 181 44 116 181 44 116 181 44 116 181 44 116 181 44 116 181 44 116 181 44 116 181 44 116 181 44 116 181 44 116 181 44 116 181 44 116 181 44 116 181 44 116 181 44 116 181 44 116 181 44 116 181 44 116 181 44 116 181 44 116 181 44 116 181 44 116 181 44 116 181 44 116 181 44 116 181 44 116 181 44 116 181 44 116 181 44 115 180 45 117 183 42 110 173 5 12 19 0 0 0 42 42 42 44 44 44 24 24 24 32 32 32 27 27 27 53 53 53 63 63 62 95 95 94 93 93 91 93 93 92 93 93 91 83 83 82 93 93 91 92 92 91 92 92 91 92 92 91 92 92 91 92 92 90 92 92 90 92 92 91 91 91 89 66 66 65 54 54 54 26 26 26 30 30 30 27 27 27 38 38 38 54 54 54 81 82 81 90 84 78 65 104 139 41 117 187 45 115 179 44 116 181 44 116 181 44 116 181 44 116 181 44 116 181 44 116 181 44 116 181 44 116 181 44 116 181 44 115 180 45 117 183 41 107 168 
80 114 146 88 125 160 86 123 157 86 123 157 86 123 157 86 123 157 86 123 157 86 123 157 86 123 157 86 123 157 86 123 157 86 123 157 86 123 157 86 123 157 86 123 157 86 123 157 86 123 157 86 123 157 86 123 157 86 123 157 86 123 157 86 123 157 86 123 157 86 123 157 86 123 157 86 123 157 86 123 157 86 123 157 86 123 157 86 123 157 86 123 157 86 123 157 86 123 157 86 123 157 86 123 157 86 123 157 86 123 157 86 123 157 86 123 157 86 123 157 86 123 157 86 123 157 86 123 157 86 123 157 86 123 157 87 124 159 81 110 136 47 57 66 50 50 50 45 45 45 24 24 24 29 29 29 25 25 25 61 61 62 14 15 15 0 0 0 1 1 1 0 0 0 0 0 0 0 0 0 0 0 0 0 0 0 0 0 0 0 0 0 0 0 0 0 0 0 0 0 0 0 0 0 0 0 0 8 8 9 59 59 60 28 28 28 27 27 27 24 24 24 42 42 42 48 48 49 3 5 7 23 30 37 74 108 139 89 127 162 86 123 156 86 123 157 86 123 157 86 123 157 86 123 157 86 123 157 86 123 157 86 123 157 86 123 157 86 123 157 86 123 157 88 125 160 80 114 146 
107 107 107 117 117 117 115 115 115 115 115 115 115 115 115 115 115 115 115 115 115 115 115 115 115 115 115 115 115 115 115 115 115 115 115 115 115 115 115 115 115 115 115 115 115 115 115 115 115 115 115 115 115 115 115 115 115 115 115 115 115 115 115 115 115 115 115 115 115 115 115 115 115 115 115 115 115 115 115 115 115 115 115 115 115 115 115 115 115 115 115 115 115 115 115 115 115 115 115 115 115 115 115 115 115 115 115 115 115 115 115 115 115 115 115 115 115 115 115 115 115 115 115 115 115 115 115 115 115 115 115 115 115 115 115 115 115 115 117 120 121 120 123 126 104 105 106 68 68 68 41 41 41 34 34 34 53 53 52 89 90 90 103 104 105 95 95 95 97 97 97 97 97 97 98 99 99 98 98 99 98 99 99 100 101 101 101 102 102 101 102 102 102 103 103 104 105 105 104 104 105 104 105 105 104 105 106 108 110 110 91 92 93 56 56 56 34 34 34 38 38 38 66 66 66 102 103 104 119 121 122 123 126 130 118 118 119 115 115 114 115 115 115 115 115 115 115 115 115 115 115 115 115 115 115 115 115 115 115 115 115 115 115 115 115 115 115 115 115 115 115 115 115 117 117 117 107 107 107 
62 62 62 68 68 68 67 67 67 67 67 67 67 67 67 67 67 67 67 67 67 67 67 67 67 67 67 67 67 67 67 67 67 67 67 67 67 67 67 67 67 67 67 67 67 67 67 67 67 67 67 67 67 67 67 67 67 67 67 67 67 67 67 67 67 67 67 67 67 67 67 67 67 67 67 67 67 67 67 67 67 67 67 67 67 67 67 67 67 67 67 67 67 67 67 67 67 67 67 67 67 67 67 67 67 67 67 67 67 67 67 67 67 67 67 67 67 67 67 67 67 67 67 67 67 67 67 67 67 67 67 67 67 67 67 67 67 67 67 66 66 66 66 65 70 70 70 64 64 64 59 59 59 59 59 59 61 61 61 69 68 68 71 71 71 72 72 72 72 72 72 72 72 72 72 72 72 72 72 72 72 72 72 71 71 71 71 71 71 71 71 71 71 71 71 71 71 71 71 71 71 71 71 70 71 70 70 70 70 70 69 69 69 61 61 61 60 60 60 59 59 59 64 64 64 70 70 70 68 67 67 67 66 65 67 67 67 67 67 67 67 67 67 67 67 67 67 67 67 67 67 67 67 67 67 67 67 67 67 67 67 67 67 67 67 67 67 67 67 67 67 67 67 68 68 68 62 62 62 
20 20 20 21 21 22 21 21 21 21 21 21 21 21 21 21 21 21 21 21 21 21 21 21 21 21 21 21 21 21 21 21 21 21 21 21 21 21 21 21 21 21 21 21 21 21 21 21 21 21 21 21 21 21 21 21 21 21 21 21 21 21 21 21 21 21 21 21 21 21 21 21 21 21 21 21 21 21 21 21 21 21 21 21 21 21 21 21 21 21 21 21 21 21 21 21 21 21 21 21 21 21 21 21 21 21 21 21 21 21 21 21 21 21 21 21 21 21 21 21 21 21 21 21 21 21 21 21 21 21 21 21 21 21 21 21 21 21 21 21 21 21 21 21 21 21 21 22 22 22 21 21 21 21 21 21 22 22 22 21 21 21 20 20 20 20 20 20 20 20 20 20 20 20 20 20 20 20 20 20 20 20 20 20 20 20 20 20 20 20 20 20 20 20 20 20 20 20 20 20 20 20 20 20 20 20 20 20 20 21 21 21 21 22 22 22 21 21 21 21 21 21 22 22 22 21 21 21 21 21 21 21 21 21 21 21 21 21 21 21 21 21 21 21 21 21 21 21 21 21 21 21 21 21 21 21 21 21 21 21 21 21 21 21 21 21 21 21 21 21 21 21 21 21 21 22 20 20 20 
