P3
# Created by IrfanView
96 40
255
0 0 0 0 0 0 0 0 0 0 0 0 0 0 0 
0 0 0 0 0 0 0 0 0 0 0 0 0 0 0 
0 0 0 0 0 0 0 0 0 0 0 0 0 0 0 
0 0 0 0 0 0 0 0 0 0 0 0 0 0 0 
0 0 0 0 0 0 0 0 0 0 0 0 0 0 0 
0 0 0 0 0 0 0 0 0 0 0 0 0 0 0 
0 0 0 0 0 0 0 0 0 0 0 0 0 0 0 
0 0 0 0 0 0 0 0 0 0 0 0 0 0 0 
0 0 0 0 0 0 0 0 0 0 0 0 0 0 0 
0 0 0 0 0 0 0 0 0 0 0 0 0 0 0 
0 0 0 0 0 0 0 0 0 0 0 0 0 0 0 
0 0 0 0 0 0 0 0 0 0 0 0 0 0 0 
0 0 0 0 0 0 0 0 0 0 0 0 0 0 0 
0 0 0 0 0 0 0 0 0 0 0 0 0 0 0 
0 0 0 0 0 0 0 0 0 0 0 0 0 0 0 
0 0 0 0 0 0 0 0 0 0 0 0 0 0 0 
0 0 0 0 0 0 0 0 0 0 0 0 0 0 0 
0 0 0 0 0 0 0 0 0 0 0 0 0 0 0 
0 0 0 0 0 0 0 0 0 0 0 0 0 0 0 
0 0 0 0 0 0 0 0 0 0 0 0 0 0 0 
0 0 0 0 0 0 0 0 0 0 0 0 0 0 0 
0 0 0 0 0 0 0 0 0 0 0 0 0 0 0 
0 0 0 0 0 0 0 0 0 0 0 0 0 0 0 
0 0 0 0 0 0 0 0 0 0 0 0 0 0 0 
0 0 0 0 0 0 0 0 0 0 0 0 0 0 0 
0 0 0 0 0 0 0 0 0 0 0 0 0 0 0 
0 0 0 0 0 0 0 0 0 0 0 0 0 0 0 
0 0 0 0 0 0 0 0 0 0 0 0 0 0 0 
0 0 0 0 0 0 0 0 0 0 0 0 0 0 0 
0 0 0 0 0 0 0 0 0 0 0 0 0 0 0 
0 0 0 0 0 0 0 0 0 0 0 0 0 0 0 
0 0 0 0 0 0 0 0 0 0 0 0 0 0 0 
0 0 0 0 0 0 0 0 0 0 0 0 0 0 0 
0 0 0 0 0 0 0 0 0 0 0 0 0 0 0 
0 0 0 0 0 0 0 0 0 0 0 0 0 0 0 
0 0 0 0 0 0 0 0 0 0 0 0 0 0 0 
0 0 0 0 0 0 0 0 0 0 0 0 0 0 0 
0 0 0 0 0 0 0 0 0 0 0 0 0 0 0 
0 0 0 0 0 0 0 0 0 0 0 0 0 0 0 
0 0 0 0 0 0 0 0 0 0 0 0 0 0 0 
0 0 0 0 0 0 0 0 0 0 0 0 0 0 0 
0 0 0 0 0 0 0 0 0 0 0 0 0 0 0 
0 0 0 0 0 0 0 0 0 0 0 0 0 0 0 
0 0 0 0 0 0 0 0 0 0 0 0 0 0 0 
0 0 0 0 0 0 0 0 0 0 0 0 0 0 0 
0 0 0 0 0 0 0 0 0 0 0 0 0 0 0 
0 0 0 0 0 0 0 0 0 0 0 0 0 0 0 
0 0 0 0 0 0 0 0 0 0 0 0 0 0 0 
0 0 0 0 0 0 0 0 0 0 0 0 0 0 0 
0 0 0 0 0 0 0 0 0 0 0 0 0 0 0 
0 0 0 0 0 0 0 0 0 0 0 0 0 0 0 
0 0 0 0 0 0 0 0 0 0 0 0 0 0 0 
0 0 0 0 0 0 0 0 0 0 0 0 0 0 0 
0 0 0 0 0 0 0 0 0 0 0 0 0 0 0 
0 0 0 0 0 0 0 0 0 0 0 0 0 0 0 
0 0 0 0 0 0 0 0 0 0 0 0 0 0 0 
0 0 0 0 0 0 0 0 0 0 0 0 0 0 0 
0 0 0 0 0 0 0 0 0 0 0 0 0 0 0 
0 0 0 0 0 0 0 0 0 0 0 0 0 0 0 
0 0 0 0 0 0 0 0 0 0 0 0 0 0 0 
0 0 0 0 0 0 0 0 0 0 0 0 2 2 2 
8 8 8 6 6 6 8 8 6 8 8 8 6 6 4 
8 8 8 6 6 6 8 8 8 4 4 4 11 11 10 
1 1 2 7 7 7 9 9 9 5 5 5 0 0 0 
7 7 7 8 8 8 6 6 6 6 6 4 6 6 5 
7 7 5 6 6 4 1 1 0 0 0 0 0 0 0 
0 0 0 0 0 0 0 0 0 0 0 0 3 3 3 
0 0 0 5 5 5 3 3 3 8 8 8 8 8 8 
8 8 8 7 7 7 1 1 1 0 0 0 0 0 0 
0 0 0 0 0 0 0 0 0 0 0 0 0 0 0 
0 0 0 0 0 0 0 0 0 0 0 0 0 0 0 
0 0 0 0 0 0 0 0 0 0 0 0 0 0 0 
0 0 0 0 0 0 0 0 0 0 0 0 0 0 0 
0 0 0 0 0 0 0 0 0 0 0 0 0 0 0 
0 0 0 0 0 0 0 0 0 0 0 0 0 0 0 
0 0 0 0 0 0 0 0 0 0 0 0 0 0 0 
0 0 0 0 0 0 0 0 0 0 0 0 0 0 0 
0 0 0 0 0 0 0 0 0 0 0 0 0 0 0 
0 0 0 0 0 0 0 0 0 0 0 0 0 0 0 
0 0 0 0 0 0 0 0 0 0 0 0 1 1 1 
0 0 0 0 0 0 0 0 0 0 0 0 0 0 0 
0 0 0 0 0 0 0 0 0 0 0 0 0 0 0 
0 0 0 0 0 0 0 0 0 0 0 0 1 1 1 
1 1 1 1 1 1 2 2 2 2 2 2 3 3 3 
2 2 3 0 0 0 0 0 0 1 1 2 51 51 52 
32 32 32 27 27 27 24 24 23 18 18 18 10 10 10 
0 0 0 0 0 0 0 0 0 0 0 0 0 0 0 
0 0 0 0 0 0 0 0 0 0 0 0 70 70 69 
12 12 13 0 0 0 0 0 0 0 0 0 0 0 0 
0 0 0 0 0 0 0 0 0 0 0 0 0 0 0 
0 0 0 0 0 0 0 0 0 0 0 0 0 0 0 
0 0 0 0 0 0 0 0 0 0 0 0 0 0 0 
0 0 0 0 0 0 0 0 0 0 0 0 0 0 0 
0 0 0 0 0 0 0 0 0 0 0 0 0 0 0 
0 0 0 0 0 0 0 0 0 0 0 0 0 0 0 
0 0 0 0 0 0 0 0 0 0 0 0 0 0 0 
0 0 0 0 0 0 0 0 0 0 0 0 0 0 0 
0 0 0 0 0 0 0 0 0 0 0 0 0 0 0 
0 0 0 0 0 0 0 0 0 0 0 0 0 0 0 
0 0 0 21 21 21 0 0 0 51 51 46 171 171 161 
211 211 198 254 254 239 255 255 255 255 255 255 25 25 25 
15 15 15 16 16 16 16 16 16 16 16 16 16 16 16 
15 15 15 15 15 15 15 15 15 15 15 15 15 15 15 
16 16 16 13 13 13 0 0 0 0 0 0 0 0 0 
167 167 165 138 138 137 137 137 136 138 138 137 139 139 138 
141 141 140 143 143 142 145 145 144 147 147 146 146 146 145 
131 131 130 107 107 106 75 75 74 32 32 33 0 0 0 
65 65 64 170 170 169 144 144 143 46 46 44 0 0 0 
0 0 0 0 0 0 0 0 0 0 0 0 0 0 0 
0 0 0 0 0 0 0 0 0 0 0 0 0 0 0 
0 0 0 0 0 0 0 0 0 0 0 0 0 0 0 
0 0 0 0 0 0 0 0 0 0 0 0 0 0 0 
0 0 0 0 0 0 0 0 0 0 0 0 0 0 0 
0 0 0 0 0 0 0 0 0 0 0 0 0 0 0 
0 0 0 0 0 0 0 0 0 0 0 0 0 0 0 
0 0 0 0 0 0 0 0 0 0 0 0 0 0 0 
0 0 0 0 0 0 0 0 0 0 0 0 0 0 0 
0 0 0 0 0 0 0 0 0 0 0 0 0 0 0 
0 0 0 95 95 95 138 138 139 174 174 167 255 255 255 
255 255 255 255 255 255 255 255 255 255 255 255 26 26 28 
0 0 0 11 11 11 13 13 13 13 13 13 13 13 13 
13 13 13 13 13 13 13 13 13 13 13 13 13 13 13 
13 13 13 13 13 13 13 13 13 0 0 0 0 0 0 
0 0 0 177 177 176 163 163 160 157 157 155 157 157 155 
157 157 155 157 157 155 157 157 155 157 157 155 157 157 155 
158 158 156 161 161 159 166 166 163 172 172 169 180 180 178 
175 175 174 46 46 45 0 0 0 91 91 90 211 211 210 
175 175 172 44 44 41 0 0 0 0 0 0 0 0 0 
0 0 0 0 0 0 0 0 0 0 0 0 0 0 0 
0 0 0 0 0 0 0 0 0 0 0 0 0 0 0 
0 0 0 0 0 0 0 0 0 0 0 0 0 0 0 
0 0 0 0 0 0 0 0 0 0 0 0 0 0 0 
0 0 0 0 0 0 0 0 0 0 0 0 0 0 0 
0 0 0 0 0 0 0 0 0 0 0 0 0 0 0 
0 0 0 0 0 0 0 0 0 0 0 0 0 0 0 
0 0 0 0 0 0 0 0 0 0 0 0 0 0 0 
0 0 0 0 0 0 0 0 0 0 0 0 0 0 0 
2 2 3 153 153 151 151 151 151 203 203 194 255 255 255 
255 255 248 255 255 240 255 255 248 255 255 255 109 109 106 
0 0 0 7 7 7 12 12 12 12 12 12 12 12 12 
12 12 12 12 12 12 12 12 12 12 12 12 12 12 12 
12 12 12 12 12 12 12 12 12 14 14 14 0 0 0 
0 0 0 0 0 0 130 130 129 166 166 164 153 153 151 
153 153 151 153 153 151 153 153 151 153 153 151 153 153 151 
153 153 151 153 153 151 153 153 151 153 153 151 153 153 151 
154 154 152 162 162 160 179 179 176 140 140 140 0 0 0 
0 0 0 140 140 139 212 212 209 151 151 151 18 18 17 
0 0 0 0 0 0 0 0 0 0 0 0 0 0 0 
0 0 0 0 0 0 0 0 0 0 0 0 0 0 0 
0 0 0 0 0 0 0 0 0 0 0 0 0 0 0 
0 0 0 0 0 0 0 0 0 0 0 0 0 0 0 
0 0 0 0 0 0 0 0 0 0 0 0 0 0 0 
0 0 0 0 0 0 0 0 0 0 0 0 0 0 0 
0 0 0 0 0 0 0 0 0 0 0 0 0 0 0 
0 0 0 0 0 0 0 0 0 0 0 0 0 0 0 
0 0 0 0 0 0 0 0 0 0 0 0 0 0 0 
50 50 49 172 172 171 141 141 140 223 223 210 255 255 255 
255 255 245 255 255 240 255 255 243 255 255 255 200 200 195 
0 0 0 2 2 2 13 13 13 13 13 13 13 13 13 
13 13 13 13 13 13 13 13 13 13 13 13 13 13 13 
13 13 13 13 13 13 13 13 13 13 13 13 18 18 18 
0 0 0 0 0 0 0 0 0 83 83 82 174 174 172 
153 153 151 153 153 151 153 153 151 153 153 151 153 153 151 
153 153 151 153 153 151 153 153 151 153 153 151 153 153 151 
153 153 151 153 153 151 153 153 151 156 156 153 168 168 166 
181 181 179 58 58 57 0 0 0 40 40 41 191 191 188 
201 201 198 112 112 110 0 0 0 0 0 0 0 0 0 
0 0 0 0 0 0 0 0 0 0 0 0 0 0 0 
0 0 0 0 0 0 0 0 0 0 0 0 0 0 0 
0 0 0 0 0 0 0 0 0 0 0 0 0 0 0 
0 0 0 0 0 0 0 0 0 0 0 0 0 0 0 
0 0 0 0 0 0 0 0 0 0 0 0 0 0 0 
0 0 0 0 0 0 0 0 0 0 0 0 0 0 0 
0 0 0 0 0 0 0 0 0 0 0 0 0 0 0 
0 0 0 0 0 0 0 0 0 0 0 0 0 0 0 
101 101 101 174 174 173 139 139 137 244 244 229 255 255 255 
255 255 243 255 255 240 255 255 242 255 255 255 248 248 237 
30 30 32 7 7 8 27 27 27 28 28 28 28 28 28 
28 28 28 28 28 28 28 28 28 28 28 28 28 28 28 
28 28 28 28 28 28 28 28 28 28 28 28 28 28 28 
34 34 34 0 0 0 0 0 0 0 0 0 35 35 34 
183 183 181 153 153 151 153 153 151 153 153 151 153 153 151 
153 153 151 153 153 151 153 153 151 153 153 151 153 153 151 
153 153 151 153 153 151 153 153 151 153 153 151 153 153 151 
153 153 151 161 161 159 179 179 177 135 135 135 0 0 0 
0 0 0 137 137 135 201 201 198 181 181 179 51 51 50 
0 0 0 0 0 0 0 0 0 0 0 0 0 0 0 
0 0 0 0 0 0 0 0 0 0 0 0 0 0 0 
0 0 0 0 0 0 0 0 0 0 0 0 0 0 0 
0 0 0 0 0 0 0 0 0 0 0 0 0 0 0 
0 0 0 0 0 0 0 0 0 0 0 0 0 0 0 
0 0 0 0 0 0 0 0 0 0 0 0 0 0 0 
0 0 0 0 0 0 0 0 0 0 0 0 0 0 0 
0 0 0 0 0 0 0 0 0 0 0 0 0 0 0 
144 144 142 163 163 163 147 147 144 255 255 247 255 255 252 
255 255 242 255 255 240 255 255 241 255 255 247 246 246 233 
143 143 139 6 6 7 36 36 36 40 40 40 40 40 40 
40 40 40 40 40 40 40 40 40 40 40 40 40 40 40 
40 40 40 40 40 40 40 40 40 40 40 40 40 40 40 
40 40 40 48 48 48 5 5 5 0 0 0 0 0 0 
0 0 0 192 192 190 154 154 152 153 153 151 153 153 151 
153 153 151 153 153 151 153 153 151 153 153 151 153 153 151 
153 153 151 153 153 151 153 153 151 153 153 151 153 153 151 
153 153 151 153 153 151 153 153 151 156 156 154 170 170 168 
180 180 177 38 38 39 0 0 0 62 62 61 195 195 193 
196 196 193 139 139 136 0 0 0 0 0 0 0 0 0 
0 0 0 0 0 0 0 0 0 0 0 0 0 0 0 
0 0 0 0 0 0 0 0 0 0 0 0 0 0 0 
0 0 0 0 0 0 0 0 0 0 0 0 0 0 0 
0 0 0 0 0 0 0 0 0 0 0 0 0 0 0 
0 0 0 0 0 0 0 0 0 0 0 0 0 0 0 
0 0 0 0 0 0 0 0 0 0 0 0 0 0 0 
0 0 0 0 0 0 0 0 0 0 0 0 11 11 12 
164 164 162 147 147 148 169 169 161 255 255 255 255 255 249 
255 255 241 255 255 240 255 255 240 255 255 244 246 246 230 
249 249 241 11 11 14 40 40 41 51 51 51 51 51 51 
51 51 51 51 51 51 51 51 51 51 51 51 51 51 51 
51 51 51 51 51 51 51 51 51 51 51 51 51 51 51 
51 51 51 51 51 51 61 61 61 14 14 14 0 0 0 
0 0 0 0 0 0 183 183 181 159 159 157 155 155 153 
155 155 153 155 155 153 155 155 153 155 155 153 155 155 153 
155 155 153 155 155 153 155 155 153 155 155 153 155 155 153 
155 155 153 155 155 153 155 155 153 155 155 153 155 155 153 
155 155 153 165 165 163 199 199 196 35 35 35 0 0 0 
7 7 8 169 169 167 193 193 191 185 185 183 69 69 67 
0 0 0 0 0 0 0 0 0 0 0 0 0 0 0 
0 0 0 0 0 0 0 0 0 0 0 0 0 0 0 
0 0 0 0 0 0 0 0 0 0 0 0 0 0 0 
0 0 0 0 0 0 0 0 0 0 0 0 0 0 0 
0 0 0 0 0 0 0 0 0 0 0 0 0 0 0 
0 0 0 0 0 0 0 0 0 0 0 0 0 0 0 
0 0 0 0 0 0 0 0 0 0 0 0 0 0 0 
93 93 95 91 91 93 205 205 192 255 255 255 255 255 247 
255 255 240 255 255 240 255 255 240 255 255 243 254 254 238 
229 229 218 142 142 137 21 21 23 55 55 55 58 58 59 
60 60 60 61 61 61 61 61 62 62 62 62 63 63 63 
64 64 64 65 65 65 65 65 66 66 66 66 66 66 66 
66 66 66 66 66 66 65 65 65 75 75 75 29 29 29 
0 0 0 0 0 0 0 0 0 135 135 132 164 164 162 
155 155 152 154 154 152 154 154 152 154 154 152 154 154 151 
154 154 151 154 154 151 153 153 151 153 153 151 153 153 151 
153 153 151 153 153 151 153 153 151 153 153 151 153 153 151 
153 153 151 153 153 151 153 153 151 176 176 174 68 68 66 
0 0 0 0 0 0 0 0 0 114 114 113 168 168 165 
175 175 172 129 129 126 7 7 6 0 0 0 0 0 0 
0 0 0 0 0 0 0 0 0 0 0 0 0 0 0 
0 0 0 0 0 0 0 0 0 0 0 0 0 0 0 
0 0 0 0 0 0 0 0 0 0 0 0 0 0 0 
0 0 0 0 0 0 0 0 0 0 0 0 0 0 0 
0 0 0 0 0 0 0 0 0 0 0 0 0 0 0 
0 0 0 0 0 0 0 0 0 0 0 0 61 61 57 
248 248 234 232 232 218 255 255 255 255 255 255 255 255 245 
255 255 240 255 255 240 255 255 240 255 255 240 255 255 245 
211 211 198 255 255 255 182 182 173 91 91 89 70 70 71 
62 62 62 56 56 56 51 51 53 48 48 50 45 45 47 
38 38 40 35 35 37 28 28 30 24 24 27 24 24 26 
27 27 29 26 26 30 27 27 31 30 30 33 38 38 42 
0 0 0 0 0 0 0 0 0 0 0 0 0 0 4 
67 67 71 63 63 65 66 66 70 69 69 71 70 70 72 
72 72 74 73 73 75 73 73 75 76 76 79 78 78 80 
79 79 80 79 79 81 79 79 81 80 80 82 81 81 83 
83 83 84 83 83 85 84 84 85 84 84 86 99 99 100 
41 41 42 0 0 0 0 0 0 0 0 0 0 0 0 
9 9 12 58 58 59 53 53 57 48 48 50 0 0 0 
0 0 0 0 0 0 0 0 0 0 0 0 0 0 0 
0 0 0 0 0 0 0 0 0 0 0 0 0 0 0 
0 0 0 0 0 0 0 0 0 0 0 0 0 0 0 
0 0 0 0 0 0 0 0 0 0 0 0 0 0 0 
0 0 0 0 0 0 0 0 0 0 0 0 0 0 0 
0 0 0 0 0 0 0 0 0 0 0 0 23 23 22 
255 255 255 255 255 255 255 255 248 255 255 243 254 254 239 
254 254 239 254 254 239 254 254 239 254 254 239 254 254 239 
255 255 243 227 227 212 243 243 232 231 231 218 255 255 255 
255 255 255 255 255 255 255 255 255 255 255 255 255 255 255 
255 255 255 255 255 255 255 255 255 255 255 255 255 255 255 
255 255 255 255 255 255 255 255 255 255 255 255 255 255 255 
255 255 255 255 255 255 255 255 255 255 255 252 255 255 255 
255 255 255 255 255 250 250 250 236 243 243 230 235 235 222 
226 226 213 225 225 213 227 227 214 218 218 205 212 212 200 
204 204 192 197 197 187 196 196 186 198 198 188 193 193 183 
185 185 174 176 176 168 173 173 163 173 173 164 182 182 173 
196 196 188 198 198 188 174 174 164 166 166 159 149 149 143 
134 134 126 165 165 156 164 164 155 180 180 170 203 203 191 
244 244 232 255 255 255 255 255 255 254 254 242 232 232 220 
200 200 189 160 160 151 110 110 105 54 54 51 0 0 0 
0 0 0 0 0 0 0 0 0 0 0 0 0 0 0 
0 0 0 0 0 0 0 0 0 0 0 0 0 0 0 
0 0 0 0 0 0 0 0 0 0 0 0 0 0 0 
0 0 0 0 0 0 0 0 0 0 0 0 0 0 0 
255 255 255 255 255 255 253 253 238 252 252 238 252 252 238 
252 252 238 252 252 238 252 252 238 252 252 238 252 252 238 
252 252 238 253 253 239 255 255 242 239 239 224 174 174 164 
240 240 226 255 255 245 255 255 245 255 255 245 255 255 245 
255 255 245 255 255 245 255 255 245 255 255 245 255 255 245 
255 255 245 255 255 245 255 255 246 255 255 246 255 255 247 
255 255 247 255 255 246 255 255 244 255 255 250 212 212 201 
255 255 249 255 255 243 255 255 244 255 255 245 255 255 246 
255 255 247 255 255 248 255 255 249 255 255 249 255 255 250 
255 255 252 255 255 253 255 255 254 255 255 254 255 255 254 
255 255 255 255 255 255 255 255 255 255 255 255 255 255 255 
255 255 255 118 118 112 98 98 95 107 107 103 93 93 90 
255 255 245 223 223 210 255 255 255 255 255 255 255 255 255 
255 255 255 255 255 251 255 255 248 255 255 248 255 255 250 
255 255 255 255 255 255 255 255 255 255 255 255 255 255 255 
255 255 255 255 255 252 189 189 179 91 91 85 0 0 0 
0 0 0 0 0 0 0 0 0 0 0 0 0 0 0 
0 0 0 0 0 0 0 0 0 0 0 0 0 0 0 
0 0 0 0 0 0 0 0 0 0 0 0 0 0 0 
25 25 23 147 147 140 255 255 255 251 251 238 250 250 237 
250 250 237 250 250 237 250 250 237 250 250 237 250 250 237 
250 250 237 250 250 237 250 250 237 251 251 238 255 255 248 
214 214 204 244 244 230 210 210 198 212 212 198 211 211 200 
211 211 200 211 211 200 211 211 200 211 211 200 211 211 200 
211 211 200 211 211 200 215 215 202 217 217 205 221 221 207 
223 223 209 226 226 213 236 236 222 243 243 228 255 255 244 
220 220 207 255 255 255 255 255 251 255 255 253 255 255 254 
255 255 254 255 255 252 255 255 249 255 255 247 255 255 247 
255 255 247 255 255 247 255 255 247 255 255 247 255 255 247 
255 255 247 255 255 247 255 255 247 255 255 247 255 255 247 
255 255 248 255 255 255 99 99 95 79 79 75 84 84 80 
64 64 61 232 232 218 205 205 193 255 255 253 255 255 248 
255 255 246 255 255 246 255 255 246 255 255 246 255 255 246 
255 255 244 255 255 243 255 255 241 254 254 240 253 253 239 
254 254 240 255 255 244 255 255 252 255 255 255 255 255 255 
255 255 255 254 254 241 126 126 119 0 0 0 0 0 0 
0 0 0 0 0 0 0 0 0 0 0 0 0 0 0 
0 0 0 0 0 0 0 0 0 0 0 0 0 0 0 
0 0 0 0 0 0 0 0 0 255 255 255 250 250 238 
248 248 236 248 248 236 248 248 236 248 248 236 248 248 236 
248 248 236 248 248 236 248 248 236 248 248 236 248 248 236 
255 255 242 209 209 198 255 255 246 254 254 242 255 255 243 
255 255 243 255 255 242 255 255 242 255 255 242 255 255 242 
255 255 242 255 255 242 255 255 242 253 253 240 251 251 238 
247 247 237 245 245 233 241 241 229 232 232 221 224 224 214 
220 220 210 186 186 177 203 203 194 198 198 189 173 173 164 
174 174 165 174 174 166 176 176 166 215 215 203 209 209 198 
208 208 196 208 208 198 208 208 198 208 208 198 208 208 198 
210 210 198 210 210 198 210 210 198 210 210 198 210 210 198 
210 210 198 210 210 199 223 223 209 237 237 222 250 250 236 
252 252 238 242 242 229 233 233 220 217 217 204 184 184 174 
218 218 204 213 213 200 213 213 200 213 213 200 213 213 200 
217 217 202 226 226 211 237 237 222 249 249 234 255 255 245 
255 255 247 255 255 247 255 255 247 255 255 247 255 255 246 
255 255 247 255 255 251 255 255 255 255 255 255 255 255 255 
224 224 212 69 69 66 0 0 0 0 0 0 0 0 0 
0 0 0 0 0 0 0 0 0 0 0 0 0 0 0 
0 0 0 0 0 0 0 0 0 0 0 0 255 255 255 
248 248 237 245 245 235 245 245 235 245 245 235 245 245 235 
245 245 235 245 245 235 245 245 235 245 245 235 245 245 235 
245 245 235 250 250 239 217 217 208 241 241 230 248 248 238 
245 245 235 245 245 235 245 245 235 245 245 235 245 245 235 
245 245 235 245 245 235 245 245 235 245 245 235 246 246 235 
246 246 235 246 246 236 247 247 236 248 248 237 249 249 238 
250 250 239 253 253 242 255 255 246 218 218 209 212 212 203 
219 219 210 220 220 211 220 220 211 209 209 200 236 236 225 
254 254 243 252 252 242 252 252 242 252 252 241 252 252 241 
252 252 241 252 252 241 252 252 241 252 252 241 252 252 241 
252 252 241 252 252 241 252 252 241 252 252 241 252 252 241 
252 252 241 252 252 241 252 252 241 252 252 242 255 255 248 
212 212 203 255 255 248 252 252 241 252 252 241 252 252 241 
251 251 241 249 249 239 242 242 231 230 230 220 219 219 209 
207 207 197 205 205 195 205 205 197 207 207 197 207 207 197 
208 208 199 210 210 198 210 210 200 211 211 200 214 214 203 
225 225 209 255 255 255 255 255 255 103 103 98 0 0 0 
0 0 0 0 0 0 0 0 0 0 0 0 0 0 0 
0 0 0 0 0 0 0 0 0 0 0 0 0 0 0 
255 255 255 246 246 235 245 245 234 245 245 234 245 245 234 
245 245 234 245 245 234 245 245 234 245 245 234 245 245 234 
245 245 234 245 245 234 247 247 236 251 251 240 203 203 195 
251 251 239 246 246 235 245 245 234 245 245 234 245 245 234 
245 245 234 245 245 234 245 245 234 245 245 234 245 245 234 
245 245 234 245 245 234 245 245 234 245 245 234 245 245 234 
245 245 234 245 245 234 245 245 234 252 252 241 208 208 198 
255 255 246 253 253 241 252 252 241 253 253 241 251 251 240 
249 249 238 246 246 235 245 245 234 245 245 234 245 245 234 
245 245 234 245 245 234 245 245 234 245 245 234 245 245 234 
245 245 234 245 245 234 245 245 234 245 245 234 245 245 234 
245 245 234 245 245 234 245 245 234 245 245 234 245 245 234 
252 252 241 205 205 195 252 252 241 245 245 234 245 245 234 
245 245 234 245 245 234 245 245 234 247 247 236 248 248 237 
250 250 239 251 251 240 252 252 241 252 252 241 252 252 241 
252 252 241 251 251 241 251 251 240 251 251 240 251 251 240 
250 250 240 250 250 240 255 255 248 4 4 4 0 0 0 
0 0 0 0 0 0 0 0 0 0 0 0 0 0 0 
0 0 0 0 0 0 0 0 0 0 0 0 0 0 0 
111 111 107 255 255 255 243 243 231 243 243 231 243 243 231 
243 243 231 243 243 231 243 243 231 243 243 231 243 243 231 
243 243 231 243 243 231 243 243 231 243 243 231 247 247 235 
223 223 213 230 230 218 247 247 236 244 244 233 243 243 231 
243 243 231 243 243 231 243 243 231 243 243 231 243 243 231 
243 243 231 243 243 231 243 243 231 243 243 231 243 243 231 
243 243 231 243 243 231 243 243 231 243 243 231 250 250 238 
203 203 193 250 250 238 243 243 231 243 243 231 243 243 231 
243 243 231 243 243 231 243 243 231 243 243 231 243 243 231 
243 243 231 243 243 231 243 243 231 243 243 231 243 243 231 
243 243 231 243 243 231 243 243 231 243 243 231 243 243 231 
243 243 231 243 243 231 243 243 231 243 243 231 243 243 231 
243 243 231 250 250 238 203 203 193 250 250 238 243 243 231 
243 243 231 243 243 231 243 243 231 243 243 231 243 243 231 
243 243 231 243 243 231 243 243 231 243 243 231 243 243 231 
243 243 231 243 243 231 243 243 231 243 243 231 243 243 231 
243 243 231 243 243 231 244 244 233 255 255 255 25 25 23 
0 0 0 1 1 1 0 0 0 0 0 0 0 0 0 
0 0 0 0 0 0 0 0 0 0 0 0 0 0 0 
0 0 0 255 255 255 254 254 243 241 241 231 241 241 231 
241 241 231 241 241 231 241 241 231 244 244 234 255 255 244 
255 255 255 255 255 255 255 255 255 255 255 255 255 255 255 
255 255 255 255 255 255 226 226 217 219 219 210 245 245 235 
243 243 233 241 241 231 241 241 231 241 241 231 241 241 231 
241 241 231 241 241 231 241 241 231 241 241 231 241 241 231 
241 241 231 241 241 231 241 241 231 241 241 231 241 241 231 
248 248 238 201 201 192 248 248 238 241 241 231 241 241 231 
241 241 231 241 241 231 241 241 231 241 241 231 241 241 231 
241 241 231 241 241 231 241 241 231 241 241 231 241 241 231 
241 241 231 241 241 231 241 241 231 241 241 231 241 241 231 
241 241 231 241 241 231 241 241 231 241 241 231 241 241 231 
241 241 231 241 241 231 248 248 238 201 201 192 248 248 238 
241 241 231 241 241 231 241 241 231 246 246 235 255 255 247 
255 255 255 255 255 255 255 255 255 255 255 255 255 255 255 
255 255 255 255 255 255 253 253 242 243 243 233 241 241 231 
241 241 231 241 241 231 241 241 231 241 241 231 255 255 255 
87 87 84 0 0 0 4 4 4 0 0 0 0 0 0 
0 0 0 0 0 0 0 0 0 0 0 0 0 0 0 
141 141 137 255 255 255 255 255 250 240 240 231 239 239 230 
239 239 230 239 239 230 239 239 230 250 250 241 255 255 255 
241 241 232 116 116 113 33 33 33 0 0 0 0 0 0 
0 0 0 46 46 46 131 131 126 255 255 245 255 255 253 
213 213 204 242 242 233 241 241 232 239 239 230 239 239 230 
239 239 230 239 239 230 239 239 230 239 239 230 239 239 230 
239 239 230 239 239 230 239 239 230 239 239 230 239 239 230 
239 239 230 246 246 237 198 198 191 246 246 237 239 239 230 
239 239 230 239 239 230 239 239 230 239 239 230 239 239 230 
239 239 230 239 239 230 239 239 230 239 239 230 239 239 230 
239 239 230 239 239 230 239 239 230 239 239 230 239 239 230 
239 239 230 239 239 230 239 239 230 239 239 230 239 239 230 
239 239 230 239 239 230 239 239 230 246 246 237 198 198 191 
246 246 237 239 239 230 240 240 231 255 255 245 255 255 255 
213 213 205 102 102 99 32 32 34 0 0 0 0 0 0 
12 12 13 63 63 61 142 142 137 255 255 246 255 255 255 
250 250 241 239 239 230 239 239 230 239 239 230 239 239 230 
255 255 248 221 221 213 0 0 0 0 0 0 0 0 0 
0 0 0 0 0 0 0 0 0 0 0 0 0 0 0 
0 0 0 237 237 230 255 255 250 237 237 229 237 237 229 
237 237 229 237 237 229 237 237 229 252 252 243 255 255 255 
110 110 107 0 0 0 4 4 5 12 12 13 26 26 26 
31 31 31 25 25 25 10 10 11 1 1 3 0 0 0 
121 121 117 255 255 255 213 213 206 240 240 232 239 239 231 
237 237 229 237 237 229 237 237 229 237 237 229 237 237 229 
237 237 229 237 237 229 237 237 229 237 237 229 237 237 229 
237 237 229 237 237 229 244 244 236 198 198 190 244 244 236 
237 237 229 237 237 229 237 237 229 237 237 229 237 237 229 
237 237 229 237 237 229 237 237 229 237 237 229 237 237 229 
237 237 229 237 237 229 237 237 229 237 237 229 237 237 229 
237 237 229 237 237 229 237 237 229 237 237 229 237 237 229 
237 237 229 237 237 229 237 237 229 237 237 229 244 244 236 
198 198 190 244 244 236 238 238 230 255 255 248 255 255 248 
62 62 60 0 0 0 6 6 7 12 12 13 27 27 28 
30 30 30 21 21 22 8 8 9 0 0 1 0 0 0 
116 116 113 255 255 255 252 252 243 237 237 229 237 237 229 
237 237 229 242 242 233 255 255 255 84 84 82 0 0 0 
0 0 0 0 0 0 0 0 0 0 0 0 0 0 0 
0 0 0 0 0 0 230 230 225 249 249 242 235 235 228 
235 235 228 235 235 228 235 235 228 247 247 239 255 255 255 
61 61 59 0 0 2 22 22 22 50 50 50 72 72 72 
78 78 78 79 79 79 77 77 77 74 74 74 50 50 50 
20 20 21 0 0 0 70 70 68 255 255 255 209 209 202 
239 239 232 236 236 229 235 235 228 235 235 228 235 235 228 
235 235 228 235 235 228 235 235 228 235 235 228 235 235 228 
235 235 228 235 235 228 235 235 228 242 242 235 196 196 191 
242 242 235 235 235 228 235 235 228 235 235 228 235 235 228 
235 235 228 235 235 228 235 235 228 235 235 228 235 235 228 
235 235 228 235 235 228 235 235 228 235 235 228 235 235 228 
235 235 228 235 235 228 235 235 228 235 235 228 235 235 228 
235 235 228 235 235 228 235 235 228 235 235 228 235 235 228 
242 242 235 196 196 191 242 242 235 249 249 241 255 255 254 
22 22 23 6 6 7 27 27 27 55 55 55 76 76 76 
78 78 78 79 79 79 76 76 76 69 69 69 45 45 46 
20 20 21 0 0 2 60 60 57 255 255 255 245 245 238 
235 235 228 235 235 228 235 235 228 247 247 240 255 255 255 
231 231 225 120 120 116 0 0 0 0 0 0 0 0 0 
0 0 0 0 0 0 0 0 0 221 221 217 248 248 242 
232 232 227 232 232 227 232 232 227 237 237 231 255 255 255 
100 100 98 1 1 2 32 32 32 73 73 73 88 88 88 
105 105 105 91 91 91 123 123 123 92 92 92 103 103 103 
88 88 88 73 73 73 35 35 35 0 0 0 121 121 116 
255 255 252 212 212 206 236 236 230 232 232 227 232 232 227 
232 232 227 232 232 227 232 232 227 232 232 227 232 232 227 
232 232 227 232 232 227 232 232 227 232 232 227 239 239 233 
194 194 190 239 239 233 232 232 227 232 232 227 232 232 227 
232 232 227 232 232 227 232 232 227 232 232 227 232 232 227 
232 232 227 232 232 227 232 232 227 232 232 227 232 232 227 
232 232 227 232 232 227 232 232 227 232 232 227 232 232 227 
232 232 227 232 232 227 232 232 227 232 232 227 232 232 227 
232 232 227 239 239 233 194 194 190 243 243 237 255 255 255 
79 79 76 2 2 3 42 42 42 78 78 78 92 92 92 
106 106 106 84 84 84 123 123 123 95 95 95 98 98 98 
84 84 84 65 65 65 28 28 28 0 0 2 117 117 113 
255 255 255 234 234 228 232 232 227 232 232 227 232 232 227 
237 237 231 255 255 251 228 228 224 0 0 0 0 0 0 
0 0 0 0 0 0 0 0 0 0 0 0 202 202 198 
251 251 244 232 232 226 232 232 226 232 232 226 249 249 243 
218 218 212 0 0 0 28 28 28 78 78 78 89 89 89 
115 115 115 0 0 0 0 0 0 147 147 147 0 0 0 
0 0 0 132 132 132 89 89 89 79 79 79 28 28 28 
0 0 0 248 248 241 207 207 202 238 238 232 233 233 226 
232 232 226 232 232 226 232 232 226 232 232 226 232 232 226 
232 232 226 232 232 226 232 232 226 232 232 226 232 232 226 
239 239 232 193 193 189 239 239 232 232 232 226 232 232 226 
232 232 226 232 232 226 232 232 226 232 232 226 232 232 226 
232 232 226 232 232 226 232 232 226 232 232 226 232 232 226 
232 232 226 232 232 226 232 232 226 232 232 226 232 232 226 
232 232 226 232 232 226 232 232 226 232 232 226 232 232 226 
232 232 226 232 232 226 239 239 233 193 193 189 253 253 246 
231 231 226 0 0 0 37 37 37 84 84 84 85 85 85 
99 99 99 0 0 0 0 0 0 138 138 138 0 0 0 
14 14 14 138 138 138 88 88 88 71 71 71 21 21 21 
0 0 0 255 255 252 242 242 235 232 232 226 232 232 226 
232 232 226 232 232 226 240 240 233 255 255 255 0 0 0 
0 0 0 0 0 0 0 0 0 0 0 0 0 0 0 
212 212 206 255 255 255 255 255 255 255 255 255 255 255 255 
255 255 255 84 84 82 6 6 7 69 69 69 98 98 98 
48 48 48 103 103 103 49 49 49 0 0 0 135 135 135 
0 0 0 90 90 90 69 69 69 53 53 53 98 98 98 
71 71 71 2 2 3 114 114 110 237 237 231 223 223 218 
233 233 228 230 230 225 230 230 225 230 230 225 230 230 225 
230 230 225 230 230 225 230 230 225 230 230 225 230 230 225 
230 230 225 237 237 231 191 191 188 237 237 231 230 230 225 
230 230 225 230 230 225 230 230 225 230 230 225 230 230 225 
230 230 225 230 230 225 230 230 225 230 230 225 230 230 225 
230 230 225 230 230 225 230 230 225 230 230 225 230 230 225 
230 230 225 230 230 225 230 230 225 230 230 225 230 230 225 
230 230 225 230 230 225 231 231 226 231 231 226 197 197 192 
255 255 255 116 116 112 2 2 3 77 77 77 103 103 103 
16 16 16 167 167 167 0 0 0 0 0 0 128 128 128 
0 0 0 161 161 161 3 3 3 85 85 85 91 91 91 
56 56 56 0 0 0 157 157 153 252 252 246 230 230 225 
230 230 225 230 230 225 230 230 225 232 232 227 255 255 255 
0 0 0 0 0 0 0 0 0 0 0 0 0 0 0 
0 0 0 0 0 0 4 4 4 30 30 30 65 65 63 
96 96 95 150 150 146 13 13 13 33 33 34 80 80 80 
73 73 73 0 0 0 0 0 0 110 110 110 29 29 29 
42 42 42 27 27 27 83 83 83 0 0 0 0 0 0 
79 79 79 80 80 80 31 31 31 10 10 11 255 255 255 
200 200 196 240 240 236 234 234 230 234 234 230 234 234 230 
234 234 230 234 234 230 234 234 230 234 234 230 234 234 230 
234 234 230 234 234 230 241 241 237 196 196 193 241 241 237 
234 234 230 234 234 230 234 234 230 234 234 230 234 234 230 
234 234 230 234 234 230 234 234 230 234 234 230 234 234 230 
234 234 230 234 234 230 234 234 230 234 234 230 234 234 230 
234 234 230 234 234 230 234 234 230 234 234 230 234 234 230 
234 234 230 234 234 230 234 234 230 238 238 234 211 211 207 
227 227 224 255 255 255 32 32 31 37 37 37 83 83 83 
51 51 51 0 0 0 0 0 0 100 100 100 35 35 35 
42 42 42 21 21 21 67 67 67 0 0 0 0 0 0 
94 94 94 76 76 76 10 10 10 88 88 87 255 255 255 
234 234 230 234 234 230 234 234 230 234 234 230 235 235 231 
255 255 255 0 0 0 0 0 0 0 0 0 0 0 0 
0 0 0 0 0 0 0 0 0 0 0 0 0 0 0 
0 0 0 0 0 0 0 0 0 30 30 30 53 53 53 
91 91 91 137 137 137 134 134 134 20 20 20 39 39 39 
37 37 37 21 21 21 38 38 38 41 41 41 22 22 22 
140 140 140 132 132 132 92 92 92 54 54 54 0 0 1 
250 250 248 222 222 219 255 255 255 255 255 252 255 255 252 
255 255 252 255 255 252 255 255 252 255 255 252 255 255 252 
255 255 252 255 255 252 255 255 252 255 255 255 221 221 217 
255 255 255 255 255 252 255 255 252 255 255 252 255 255 252 
255 255 252 255 255 252 255 255 252 255 255 252 255 255 252 
255 255 252 255 255 252 255 255 252 255 255 252 255 255 252 
255 255 252 255 255 252 255 255 252 255 255 252 255 255 252 
255 255 252 255 255 252 255 255 252 255 255 252 255 255 255 
224 224 221 255 255 253 255 255 255 0 0 0 62 62 62 
94 94 94 154 154 154 108 108 108 18 18 18 39 39 39 
31 31 31 26 26 26 39 39 39 35 35 35 40 40 40 
152 152 152 121 121 121 85 85 85 34 34 34 63 63 62 
255 255 255 255 255 252 255 255 252 255 255 252 255 255 252 
255 255 253 255 255 255 0 0 0 0 0 0 0 0 0 
0 0 0 0 0 0 0 0 0 0 0 0 0 0 0 
0 0 0 0 0 0 0 0 0 6 6 6 38 38 38 
62 62 62 100 100 100 0 0 0 0 0 0 61 61 61 
31 31 31 24 24 24 36 36 36 12 12 12 40 40 40 
62 62 62 0 0 0 0 0 0 100 100 100 69 69 69 
19 19 19 0 0 0 0 0 0 0 0 0 0 0 0 
0 0 0 0 0 0 0 0 0 0 0 0 0 0 0 
0 0 0 0 0 0 0 0 0 0 0 0 0 0 0 
0 0 0 0 0 0 0 0 0 0 0 0 0 0 0 
0 0 0 0 0 0 0 0 0 0 0 0 0 0 0 
0 0 0 0 0 0 0 0 0 0 0 0 0 0 0 
0 0 0 0 0 0 0 0 0 0 0 0 0 0 0 
0 0 0 0 0 0 0 0 0 0 0 0 0 0 0 
0 0 0 0 0 0 0 0 0 0 0 0 14 14 14 
77 77 77 101 101 101 0 0 0 16 16 16 54 54 54 
19 19 19 35 35 35 35 35 35 16 16 16 40 40 40 
55 55 55 0 0 0 33 33 33 93 93 93 49 49 49 
0 0 0 0 0 0 0 0 0 0 0 0 0 0 0 
0 0 0 0 0 0 0 0 0 0 0 0 0 0 0 
0 0 0 0 0 0 0 0 0 0 0 0 0 0 0 
0 0 0 0 0 0 0 0 0 0 0 0 7 7 7 
37 37 37 64 64 64 101 101 101 0 0 0 0 0 0 
19 19 19 37 37 37 36 36 36 44 44 44 34 34 34 
38 38 38 23 23 23 0 0 0 0 0 0 101 101 101 
69 69 69 36 36 36 3 3 3 0 0 0 0 0 0 
0 0 0 0 0 0 0 0 0 0 0 0 0 0 0 
0 0 0 0 0 0 0 0 0 0 0 0 0 0 0 
0 0 0 0 0 0 0 0 0 0 0 0 0 0 0 
0 0 0 0 0 0 0 0 0 0 0 0 0 0 0 
0 0 0 0 0 0 0 0 0 0 0 0 0 0 0 
0 0 0 0 0 0 0 0 0 0 0 0 0 0 0 
0 0 0 0 0 0 0 0 0 0 0 0 0 0 0 
0 0 0 0 0 0 0 0 0 0 0 0 0 0 0 
35 35 35 77 77 77 100 100 100 0 0 0 0 0 0 
37 37 37 34 34 34 42 42 42 43 43 43 34 34 34 
37 37 37 5 5 5 0 0 0 32 32 32 93 93 93 
54 54 54 26 26 26 0 0 0 0 0 0 0 0 0 
0 0 0 0 0 0 0 0 0 0 0 0 0 0 0 
0 0 0 0 0 0 0 0 0 0 0 0 0 0 0 
0 0 0 0 0 0 0 0 0 0 0 0 2 2 2 
4 4 4 39 39 39 54 54 54 94 94 94 121 121 121 
164 164 164 75 75 75 42 42 42 11 11 11 40 40 40 
9 9 9 41 41 41 89 89 89 161 161 161 113 113 113 
95 95 95 57 57 57 40 40 40 8 8 8 0 0 0 
0 0 0 0 0 0 0 0 0 0 0 0 0 0 0 
0 0 0 0 0 0 0 0 0 0 0 0 0 0 0 
0 0 0 0 0 0 0 0 0 0 0 0 0 0 0 
0 0 0 0 0 0 0 0 0 0 0 0 0 0 0 
0 0 0 0 0 0 0 0 0 0 0 0 0 0 0 
0 0 0 0 0 0 0 0 0 0 0 0 0 0 0 
0 0 0 0 0 0 0 0 0 0 0 0 0 0 0 
0 0 0 0 0 0 0 0 0 0 0 0 0 0 0 
1 1 1 36 36 36 69 69 69 97 97 97 141 141 141 
164 164 164 45 45 45 34 34 34 15 15 15 26 26 26 
23 23 23 38 38 38 119 119 119 156 156 156 106 106 106 
88 88 88 47 47 47 22 22 22 0 0 0 0 0 0 
0 0 0 0 0 0 0 0 0 0 0 0 0 0 0 
0 0 0 0 0 0 0 0 0 0 0 0 0 0 0 
0 0 0 0 0 0 0 0 0 0 0 0 0 0 0 
16 16 16 40 40 40 48 48 48 47 47 47 85 85 85 
66 66 66 0 0 0 0 0 0 46 46 46 35 35 35 
44 44 44 33 33 33 51 51 51 0 0 0 0 0 0 
69 69 69 86 86 86 50 50 50 49 49 49 11 11 11 
0 0 0 0 0 0 0 0 0 0 0 0 0 0 0 
0 0 0 0 0 0 0 0 0 0 0 0 0 0 0 
0 0 0 0 0 0 0 0 0 0 0 0 0 0 0 
0 0 0 0 0 0 0 0 0 0 0 0 0 0 0 
0 0 0 0 0 0 0 0 0 0 0 0 0 0 0 
0 0 0 0 0 0 0 0 0 0 0 0 0 0 0 
0 0 0 0 0 0 0 0 0 0 0 0 0 0 0 
0 0 0 0 0 0 0 0 0 0 0 0 0 0 0 
0 0 0 6 6 6 48 48 48 55 55 55 86 86 86 
39 39 39 0 0 0 0 0 0 53 53 53 39 39 39 
43 43 43 33 33 33 33 33 33 0 0 0 0 0 0 
92 92 92 82 82 82 41 41 41 43 43 43 33 33 33 
38 38 38 18 18 18 0 0 0 0 0 0 0 0 0 
0 0 0 0 0 0 0 0 0 0 0 0 0 0 0 
0 0 0 0 0 0 0 0 0 0 0 0 0 0 0 
0 0 0 0 0 0 0 0 0 0 0 0 0 0 0 
80 80 80 102 102 102 27 27 27 56 56 56 103 103 103 
0 0 0 99 99 99 0 0 0 145 145 145 9 9 9 
36 36 36 102 102 102 82 82 82 0 0 0 1 1 1 
0 0 0 0 0 0 0 0 0 0 0 0 0 0 0 
0 0 0 0 0 0 0 0 0 0 0 0 0 0 0 
0 0 0 0 0 0 0 0 0 0 0 0 0 0 0 
0 0 0 0 0 0 0 0 0 0 0 0 0 0 0 
0 0 0 0 0 0 0 0 0 0 0 0 0 0 0 
0 0 0 0 0 0 0 0 0 0 0 0 0 0 0 
0 0 0 0 0 0 1 1 1 1 1 1 1 1 1 
1 1 1 3 3 3 3 3 3 3 3 3 4 4 4 
4 4 4 3 3 3 1 1 1 0 0 0 5 5 5 
87 87 87 104 104 104 0 0 0 136 136 136 23 23 23 
17 17 17 74 74 74 0 0 0 187 187 187 0 0 0 
75 75 75 96 96 96 63 63 63 0 0 0 1 1 1 
3 3 3 2 2 2 0 0 0 0 0 0 0 0 0 
0 0 0 0 0 0 0 0 0 0 0 0 0 0 0 
0 0 0 0 0 0 0 0 0 0 0 0 0 0 0 
0 0 0 0 0 0 0 0 0 0 0 0 0 0 0 
0 0 0 30 30 30 88 88 88 92 92 92 155 155 155 
0 0 0 0 0 0 143 143 143 0 0 0 0 0 0 
152 152 152 96 96 96 88 88 88 36 36 36 0 0 0 
0 0 0 0 0 0 0 0 0 0 0 0 0 0 0 
0 0 0 0 0 0 0 0 0 0 0 0 0 0 0 
0 0 0 0 0 0 0 0 0 0 0 0 0 0 0 
0 0 0 0 0 0 0 0 0 0 0 0 0 0 0 
0 0 0 0 0 0 0 0 0 0 0 0 0 0 0 
0 0 0 0 0 0 0 0 0 0 0 0 0 0 0 
0 0 0 0 0 0 0 0 0 0 0 0 0 0 0 
0 0 0 0 0 0 0 0 0 0 0 0 0 0 0 
0 0 0 0 0 0 0 0 0 0 0 0 0 0 0 
0 0 0 51 51 51 91 91 91 89 89 89 131 131 131 
0 0 0 11 11 11 96 96 96 0 0 0 26 26 26 
129 129 129 96 96 96 86 86 86 10 10 10 0 0 0 
0 0 0 0 0 0 0 0 0 0 0 0 0 0 0 
0 0 0 0 0 0 0 0 0 0 0 0 0 0 0 
0 0 0 0 0 0 0 0 0 0 0 0 0 0 0 
0 0 0 0 0 0 0 0 0 0 0 0 0 0 0 
0 0 0 0 0 0 0 0 0 43 43 43 82 82 82 
93 93 93 97 97 97 57 57 57 140 140 140 58 58 58 
98 98 98 92 92 92 81 81 81 48 48 48 0 0 0 
0 0 0 0 0 0 0 0 0 0 0 0 0 0 0 
0 0 0 0 0 0 0 0 0 0 0 0 0 0 0 
0 0 0 0 0 0 0 0 0 0 0 0 0 0 0 
0 0 0 0 0 0 0 0 0 0 0 0 0 0 0 
0 0 0 0 0 0 0 0 0 0 0 0 0 0 0 
0 0 0 0 0 0 0 0 0 0 0 0 0 0 0 
0 0 0 0 0 0 0 0 0 0 0 0 0 0 0 
0 0 0 0 0 0 0 0 0 0 0 0 0 0 0 
0 0 0 0 0 0 0 0 0 0 0 0 0 0 0 
0 0 0 0 0 0 0 0 0 58 58 58 84 84 84 
95 95 95 87 87 87 76 76 76 120 120 120 65 65 65 
100 100 100 90 90 90 81 81 81 23 23 23 0 0 0 
0 0 0 0 0 0 0 0 0 0 0 0 0 0 0 
0 0 0 0 0 0 0 0 0 0 0 0 0 0 0 
0 0 0 0 0 0 0 0 0 0 0 0 0 0 0 
0 0 0 0 0 0 0 0 0 0 0 0 0 0 0 
0 0 0 0 0 0 0 0 0 0 0 0 0 0 0 
19 19 19 74 74 74 88 88 88 88 88 88 90 90 90 
88 88 88 88 88 88 76 76 76 22 22 22 0 0 0 
0 0 0 0 0 0 0 0 0 0 0 0 0 0 0 
0 0 0 0 0 0 0 0 0 0 0 0 0 0 0 
0 0 0 0 0 0 0 0 0 0 0 0 0 0 0 
0 0 0 0 0 0 0 0 0 0 0 0 0 0 0 
0 0 0 0 0 0 0 0 0 0 0 0 0 0 0 
0 0 0 0 0 0 0 0 0 0 0 0 0 0 0 
0 0 0 0 0 0 0 0 0 0 0 0 0 0 0 
0 0 0 0 0 0 0 0 0 0 0 0 0 0 0 
0 0 0 0 0 0 0 0 0 0 0 0 0 0 0 
0 0 0 0 0 0 0 0 0 0 0 0 0 0 0 
31 31 31 80 80 80 88 88 88 88 88 88 90 90 90 
88 88 88 87 87 87 65 65 65 7 7 7 0 0 0 
0 0 0 0 0 0 0 0 0 0 0 0 0 0 0 
0 0 0 0 0 0 0 0 0 0 0 0 0 0 0 
0 0 0 0 0 0 0 0 0 0 0 0 0 0 0 
0 0 0 0 0 0 0 0 0 0 0 0 0 0 0 
0 0 0 0 0 0 0 0 0 0 0 0 0 0 0 
0 0 0 0 0 0 0 0 0 8 8 8 29 29 29 
37 37 37 29 29 29 9 9 9 0 0 0 0 0 0 
0 0 0 0 0 0 0 0 0 0 0 0 0 0 0 
0 0 0 0 0 0 0 0 0 0 0 0 0 0 0 
0 0 0 0 0 0 0 0 0 0 0 0 0 0 0 
0 0 0 0 0 0 0 0 0 0 0 0 0 0 0 
0 0 0 0 0 0 0 0 0 0 0 0 0 0 0 
0 0 0 0 0 0 0 0 0 0 0 0 0 0 0 
0 0 0 0 0 0 0 0 0 0 0 0 0 0 0 
0 0 0 0 0 0 0 0 0 0 0 0 0 0 0 
0 0 0 0 0 0 0 0 0 0 0 0 0 0 0 
0 0 0 0 0 0 0 0 0 0 0 0 0 0 0 
0 0 0 0 0 0 0 0 0 14 14 14 31 31 31 
35 35 35 26 26 26 2 2 2 0 0 0 0 0 0 
0 0 0 0 0 0 0 0 0 0 0 0 0 0 0 
0 0 0 0 0 0 0 0 0 0 0 0 0 0 0 
0 0 0 0 0 0 0 0 0 0 0 0 0 0 0 
0 0 0 0 0 0 0 0 0 0 0 0 0 0 0 
0 0 0 0 0 0 0 0 0 0 0 0 0 0 0 
0 0 0 0 0 0 0 0 0 0 0 0 0 0 0 
0 0 0 0 0 0 0 0 0 0 0 0 0 0 0 
0 0 0 0 0 0 0 0 0 0 0 0 0 0 0 
0 0 0 0 0 0 0 0 0 0 0 0 0 0 0 
0 0 0 0 0 0 0 0 0 0 0 0 0 0 0 
0 0 0 0 0 0 0 0 0 0 0 0 0 0 0 
0 0 0 0 0 0 0 0 0 0 0 0 0 0 0 
0 0 0 0 0 0 0 0 0 0 0 0 0 0 0 
0 0 0 0 0 0 0 0 0 0 0 0 0 0 0 
0 0 0 0 0 0 0 0 0 0 0 0 0 0 0 
0 0 0 0 0 0 0 0 0 0 0 0 0 0 0 
0 0 0 0 0 0 0 0 0 0 0 0 0 0 0 
0 0 0 0 0 0 0 0 0 0 0 0 0 0 0 
0 0 0 0 0 0 0 0 0 0 0 0 0 0 0 
0 0 0 0 0 0 0 0 0 0 0 0 0 0 0 
0 0 0 0 0 0 0 0 0 0 0 0 0 0 0 
0 0 0 0 0 0 0 0 0 0 0 0 0 0 0 
