P3
# Created by IrfanView
#
93 16
255
29 72 112 31 78 122 31 77 120 31 77 121 31 77 121 31 77 121 31 77 121 31 77 121 31 77 121 31 77 121 31 77 121 31 77 121 31 77 121 31 77 121 31 77 121 31 77 121 31 77 121 31 77 121 31 77 121 31 77 121 31 77 121 31 77 121 31 77 121 31 77 121 31 77 121 31 77 120 32 79 123 37 86 132 37 87 134 34 84 131 34 84 131 34 84 131 34 84 131 34 84 131 34 84 131 32 83 130 32 82 129 33 83 130 34 84 131 35 85 132 35 85 132 31 78 122 32 77 120 31 77 120 31 77 121 31 77 121 31 77 121 31 77 121 31 77 121 31 77 121 31 77 121 31 77 121 31 77 121 31 77 121 31 77 121 31 77 121 31 77 121 31 77 121 31 77 121 31 77 121 31 77 121 31 77 121 31 77 121 31 77 121 31 77 121 31 77 121 31 77 121 31 77 121 31 77 121 31 77 121 31 77 121 31 77 121 31 77 121 31 77 121 31 77 121 31 77 121 31 77 121 31 77 121 31 77 121 31 77 121 31 77 121 31 77 121 31 77 121 31 77 121 31 77 121 31 77 121 31 77 121 31 77 121 31 77 121 31 77 121 31 77 120 31 78 122 29 72 112 
33 81 127 36 89 138 35 87 136 35 88 136 35 88 136 35 88 136 35 88 136 35 88 136 35 88 136 35 88 136 35 88 136 35 88 136 35 88 136 35 88 136 35 88 136 35 88 136 35 88 136 35 88 136 35 88 136 35 88 136 35 88 136 35 88 136 35 88 136 35 88 137 35 87 136 37 90 139 31 81 128 12 49 84 6 39 72 20 50 78 19 47 74 18 43 68 16 41 63 17 40 62 15 39 61 21 44 66 22 46 68 19 44 67 18 45 71 14 44 73 16 52 86 37 85 130 31 88 140 33 86 136 37 88 136 35 87 136 35 88 136 35 88 136 35 88 136 35 88 136 35 88 136 35 88 136 35 88 136 35 88 136 35 88 136 35 88 136 35 88 136 35 88 136 35 88 136 35 88 136 35 88 136 35 88 136 35 88 136 35 88 136 35 88 136 35 88 136 35 88 136 35 88 136 35 88 136 35 88 136 35 88 136 35 88 136 35 88 136 35 88 136 35 88 136 35 88 136 35 88 136 35 88 136 35 88 136 35 88 136 35 88 136 35 88 136 35 88 136 35 88 136 35 88 136 35 88 136 35 88 136 35 88 136 35 88 136 35 88 136 35 87 136 36 89 138 33 81 127 
33 83 129 36 90 141 35 89 139 36 89 139 36 89 139 36 89 139 36 89 139 36 89 139 36 89 139 36 89 139 36 89 139 36 89 139 36 89 139 36 89 139 36 89 139 36 89 139 36 89 139 36 89 139 36 89 139 36 89 139 36 89 139 36 89 139 36 89 139 36 89 138 37 90 139 31 90 145 42 73 102 94 89 80 182 179 164 76 72 65 0 0 0 10 6 2 8 4 0 11 6 2 0 0 0 54 52 49 135 131 125 121 117 112 118 114 109 108 104 99 84 81 76 62 65 66 67 91 113 43 94 140 27 84 138 37 90 139 36 89 138 35 89 139 36 89 139 36 89 139 36 89 139 36 89 139 36 89 139 36 89 139 36 89 139 36 89 139 36 89 139 36 89 139 36 89 139 36 89 139 36 89 139 36 89 139 36 89 139 36 89 139 36 89 139 36 89 139 36 89 139 36 89 139 36 89 139 36 89 139 36 89 139 36 89 139 36 89 139 36 89 139 36 89 139 36 89 139 36 89 139 36 89 139 36 89 139 36 89 139 36 89 139 36 89 139 36 89 139 36 89 139 36 89 139 36 89 139 36 89 139 36 89 139 36 89 139 36 89 139 35 89 139 36 90 141 33 83 129 
34 86 133 37 93 146 37 92 143 37 92 144 37 92 144 37 92 144 37 92 144 37 92 144 37 92 144 37 92 144 37 92 144 37 92 144 37 92 144 37 92 144 37 92 144 37 92 144 37 92 144 37 92 144 37 92 144 37 92 144 37 92 144 37 92 144 37 92 143 40 96 148 32 90 144 65 92 117 172 171 161 255 255 255 210 210 206 29 30 29 20 21 22 23 23 24 21 22 23 25 25 26 3 4 5 44 45 45 168 168 167 160 160 159 162 163 161 163 164 163 167 168 166 141 140 137 79 75 70 88 92 94 77 111 143 31 90 144 38 95 148 40 94 145 39 94 145 39 93 144 38 92 144 37 92 144 37 92 144 37 92 144 37 92 144 37 92 144 37 92 144 37 92 144 37 92 144 37 92 144 37 92 144 37 92 144 37 92 144 37 92 144 37 92 144 37 92 144 37 92 144 37 92 144 37 92 144 37 92 144 37 92 144 37 92 144 37 92 144 37 92 144 37 92 144 37 92 144 37 92 144 37 92 144 37 92 144 37 92 144 37 92 144 37 92 144 37 92 144 37 92 144 37 92 144 37 92 144 37 92 144 37 92 144 37 92 144 37 92 144 37 92 143 37 93 146 34 86 133 
35 88 138 38 97 151 38 95 148 38 95 148 38 95 148 38 95 148 38 95 148 38 95 148 38 95 148 38 95 148 38 95 148 38 95 148 38 95 148 38 95 148 38 95 148 38 95 148 38 95 148 38 95 148 38 95 148 38 95 148 38 95 148 38 95 148 37 96 150 21 78 133 75 93 110 198 194 180 255 255 247 244 245 232 81 81 78 24 24 26 40 40 41 37 37 38 37 37 38 41 41 42 17 17 17 11 11 11 134 134 133 142 142 141 141 141 140 142 142 141 141 141 140 148 148 147 149 151 150 61 60 58 65 61 57 88 105 121 27 79 129 23 85 144 25 87 144 28 90 147 34 94 150 40 98 151 41 98 150 39 95 148 38 95 148 38 95 148 38 95 148 38 95 148 38 95 148 38 95 148 38 95 148 38 95 148 38 95 148 38 95 148 38 95 148 38 95 148 38 95 148 38 95 148 38 95 148 38 95 148 38 95 148 38 95 148 38 95 148 38 95 148 38 95 148 38 95 148 38 95 148 38 95 148 38 95 148 38 95 148 38 95 148 38 95 148 38 95 148 38 95 148 38 95 148 38 95 148 38 95 148 38 95 148 38 95 148 38 95 148 38 95 148 38 97 151 35 88 138 
36 91 142 40 100 155 39 98 153 39 98 153 39 98 153 39 98 153 39 98 153 39 98 153 39 98 153 39 98 153 39 98 153 39 98 153 39 98 153 39 98 153 39 98 153 39 98 153 39 98 153 39 98 153 39 98 153 39 98 153 39 99 153 38 98 153 42 101 156 151 169 178 229 224 207 255 255 246 255 255 241 214 214 202 149 149 142 151 151 144 148 148 142 145 145 139 141 141 136 142 142 136 127 127 122 106 106 100 164 164 158 170 170 164 161 161 155 157 157 151 153 153 148 148 148 143 156 156 150 103 103 100 34 35 34 111 107 99 118 124 124 112 141 163 103 136 161 81 120 153 54 102 145 31 88 142 25 89 148 35 97 155 40 99 154 39 98 153 39 98 153 39 98 153 39 98 153 39 98 153 39 98 153 39 98 153 39 98 153 39 98 153 39 98 153 39 98 153 39 98 153 39 98 153 39 98 153 39 98 153 39 98 153 39 98 153 39 98 153 39 98 153 39 98 153 39 98 153 39 98 153 39 98 153 39 98 153 39 98 153 39 98 153 39 98 153 39 98 153 39 98 153 39 98 153 39 98 153 39 98 153 39 98 153 39 98 153 39 98 153 39 98 153 40 100 155 36 91 142 
37 94 146 41 103 160 40 101 157 40 101 158 40 101 158 40 101 158 40 101 158 40 101 158 40 101 158 40 101 158 40 101 158 40 101 158 40 101 158 40 101 158 40 101 158 40 101 158 40 101 158 40 101 158 40 101 158 40 101 158 41 101 156 40 105 165 39 80 117 209 205 194 255 255 255 245 245 232 250 250 237 231 231 219 219 219 207 241 241 228 236 236 224 237 237 225 237 237 224 237 237 224 239 239 226 218 218 207 212 212 200 214 214 202 235 235 222 234 234 221 233 233 220 235 235 222 231 231 218 147 147 139 151 151 144 213 214 203 247 246 231 245 241 223 243 239 222 238 235 218 224 223 209 188 195 190 120 144 160 55 103 147 38 99 156 41 102 158 40 101 158 40 101 158 40 101 158 40 101 158 40 101 158 40 101 158 40 101 158 40 101 158 40 101 158 40 101 158 40 101 158 40 101 158 40 101 158 40 101 158 40 101 158 40 101 158 40 101 158 40 101 158 40 101 158 40 101 158 40 101 158 40 101 158 40 101 158 40 101 158 40 101 158 40 101 158 40 101 158 40 101 158 40 101 158 40 101 158 40 101 158 40 101 158 40 101 158 40 101 158 40 101 157 41 103 160 37 94 146 
38 97 150 42 106 164 41 104 162 41 104 162 41 104 162 41 104 162 41 104 162 41 104 162 41 104 162 41 104 162 41 104 162 41 104 162 41 104 162 41 104 162 41 104 162 41 104 162 41 104 162 41 104 162 41 104 162 41 104 162 41 103 160 45 113 175 11 50 86 179 175 163 255 255 245 245 245 235 255 255 249 254 254 248 232 232 223 243 243 232 242 242 231 241 241 230 241 241 230 239 239 229 242 242 232 212 212 202 199 199 191 210 210 201 239 239 228 237 237 227 237 237 226 236 236 226 236 236 225 246 246 234 241 241 230 210 210 201 231 231 221 238 239 229 244 245 235 244 245 234 241 241 230 233 232 219 252 247 230 97 98 94 24 80 133 46 110 169 41 104 161 41 104 162 41 104 162 41 104 162 41 104 162 41 104 162 41 104 162 41 104 162 41 104 162 41 104 162 41 104 162 41 104 162 41 104 162 41 104 162 41 104 162 41 104 162 41 104 162 41 104 162 41 104 162 41 104 162 41 104 162 41 104 162 41 104 162 41 104 162 41 104 162 41 104 162 41 104 162 41 104 162 41 104 162 41 104 162 41 104 162 41 104 162 41 104 162 41 104 162 41 104 162 42 106 164 38 97 150 
39 99 155 43 109 169 42 107 166 42 107 167 42 107 167 42 107 167 42 107 167 42 107 167 42 107 167 42 107 167 42 107 167 42 107 167 42 107 167 42 107 167 42 107 167 42 107 167 42 107 167 42 107 167 42 107 167 42 107 167 44 108 167 35 102 165 116 135 149 239 235 222 247 247 238 225 225 216 143 143 137 126 126 121 157 157 151 219 219 210 242 242 232 240 240 230 240 240 231 240 240 230 244 244 234 220 220 212 241 241 231 249 249 239 241 241 231 241 241 232 242 242 232 242 242 232 242 242 232 240 240 230 239 239 230 216 216 208 252 252 242 199 199 191 136 136 131 136 136 131 192 192 185 245 246 237 255 255 248 123 123 118 12 65 114 48 116 178 42 106 165 42 107 167 42 107 167 42 107 167 42 107 167 42 107 167 42 107 167 42 107 167 42 107 167 42 107 167 42 107 167 42 107 167 42 107 167 42 107 167 42 107 167 42 107 167 42 107 167 42 107 167 42 107 167 42 107 167 42 107 167 42 107 167 42 107 167 42 107 167 42 107 167 42 107 167 42 107 167 42 107 167 42 107 167 42 107 167 42 107 167 42 107 167 42 107 167 42 107 167 42 107 166 43 109 169 39 99 155 
40 102 159 44 112 174 43 110 171 44 110 171 44 110 171 44 110 171 44 110 171 44 110 171 44 110 171 44 110 171 44 110 171 44 110 171 44 110 171 44 110 171 44 110 171 44 110 171 44 110 171 44 110 171 44 110 171 44 110 171 45 112 173 35 101 162 201 210 216 255 255 250 215 215 209 62 62 61 37 37 38 44 44 44 39 39 39 98 98 96 217 217 211 232 232 225 231 231 224 230 230 224 234 234 227 213 213 207 222 222 216 232 232 225 231 231 224 231 231 224 231 231 224 231 231 224 231 231 224 231 231 224 226 226 220 220 220 213 169 169 164 36 36 36 42 42 43 43 43 43 34 34 34 145 145 140 243 244 238 227 223 211 101 129 152 35 106 172 45 111 171 44 110 171 44 110 171 44 110 171 44 110 171 44 110 171 44 110 171 44 110 171 44 110 171 44 110 171 44 110 171 44 110 171 44 110 171 44 110 171 44 110 171 44 110 171 44 110 171 44 110 171 44 110 171 44 110 171 44 110 171 44 110 171 44 110 171 44 110 171 44 110 171 44 110 171 44 110 171 44 110 171 44 110 171 44 110 171 44 110 171 44 110 171 44 110 171 44 110 171 43 110 171 44 112 174 40 102 159 
41 105 163 45 115 178 45 113 175 45 113 176 45 113 176 45 113 176 45 113 176 45 113 176 45 113 176 45 113 176 45 113 176 45 113 176 45 113 176 45 113 176 45 113 176 45 113 176 45 113 176 45 113 176 45 113 176 45 113 176 46 115 177 38 107 171 129 141 149 205 203 196 99 100 99 40 40 41 43 43 43 29 29 29 47 47 47 45 45 45 154 154 151 250 250 245 245 245 240 245 245 240 249 249 244 224 224 219 239 239 234 247 247 242 246 246 241 246 246 241 246 246 241 246 246 241 246 246 241 247 247 241 242 242 237 222 222 217 76 76 76 49 49 49 33 33 33 31 31 31 52 52 52 57 57 57 228 229 225 255 255 255 175 191 203 30 102 167 48 116 178 45 113 176 45 113 176 45 113 176 45 113 176 45 113 176 45 113 176 45 113 176 45 113 176 45 113 176 45 113 176 45 113 176 45 113 176 45 113 176 45 113 176 45 113 176 45 113 176 45 113 176 45 113 176 45 113 176 45 113 176 45 113 176 45 113 176 45 113 176 45 113 176 45 113 176 45 113 176 45 113 176 45 113 176 45 113 176 45 113 176 45 113 176 45 113 176 45 113 176 45 113 175 45 115 178 41 105 163 
41 107 168 45 117 183 44 115 180 44 116 181 44 116 181 44 116 181 44 116 181 44 116 181 44 116 181 44 116 181 44 116 181 44 116 181 44 116 181 44 116 181 44 116 181 44 116 181 44 116 181 44 116 181 44 116 181 44 115 181 44 115 179 46 120 188 11 30 48 0 0 0 29 30 30 46 46 46 22 22 22 34 34 34 24 24 24 50 50 50 58 58 57 92 92 91 93 93 92 93 93 91 94 94 92 84 84 83 91 91 90 93 93 91 92 92 91 92 92 91 92 92 91 92 92 90 92 92 90 92 92 91 92 92 90 73 73 71 55 55 55 32 33 33 25 25 25 30 30 30 32 32 32 53 53 53 74 75 74 92 86 80 72 98 120 42 117 185 45 115 180 44 116 181 44 116 181 44 116 181 44 116 181 44 116 181 44 116 181 44 116 181 44 116 181 44 116 181 44 116 181 44 116 181 44 116 181 44 116 181 44 116 181 44 116 181 44 116 181 44 116 181 44 116 181 44 116 181 44 116 181 44 116 181 44 116 181 44 116 181 44 116 181 44 116 181 44 116 181 44 116 181 44 116 181 44 116 181 44 116 181 44 116 181 44 116 181 44 116 181 44 115 180 45 117 183 41 107 168 
80 114 146 88 125 160 86 123 157 86 123 157 86 123 157 86 123 157 86 123 157 86 123 157 86 123 157 86 123 157 86 123 157 86 123 157 86 123 157 86 123 157 86 123 157 86 123 157 86 123 157 86 123 157 86 123 157 86 123 157 86 123 157 87 124 159 84 116 145 54 68 81 45 45 46 46 46 46 22 22 22 31 31 31 22 22 22 58 58 58 26 27 28 0 0 0 1 1 1 0 0 0 0 0 0 0 0 0 0 0 0 0 0 0 0 0 0 0 0 0 0 0 0 0 0 0 0 0 0 0 0 0 0 0 0 1 1 1 54 54 55 36 36 36 24 24 24 27 27 27 33 33 33 56 57 57 7 9 10 16 20 24 64 93 119 90 129 164 85 122 156 86 123 157 86 123 157 86 123 157 86 123 157 86 123 157 86 123 157 86 123 157 86 123 157 86 123 157 86 123 157 86 123 157 86 123 157 86 123 157 86 123 157 86 123 157 86 123 157 86 123 157 86 123 157 86 123 157 86 123 157 86 123 157 86 123 157 86 123 157 86 123 157 86 123 157 86 123 157 86 123 157 86 123 157 86 123 157 86 123 157 86 123 157 86 123 157 86 123 157 86 123 157 88 125 160 80 114 146 
107 107 107 117 117 117 115 115 115 115 115 115 115 115 115 115 115 115 115 115 115 115 115 115 115 115 115 115 115 115 115 115 115 115 115 115 115 115 115 115 115 115 115 115 115 115 115 115 115 115 115 115 115 115 115 115 115 115 115 115 115 115 115 115 115 114 117 118 119 120 123 126 110 112 113 74 74 74 42 42 42 33 33 33 48 48 48 82 82 82 104 105 106 96 96 96 97 97 97 97 97 97 98 99 99 98 99 99 98 98 99 100 100 101 101 102 102 101 102 102 102 102 103 104 104 105 104 104 105 104 104 105 104 105 106 108 109 109 98 99 100 62 62 62 37 37 37 35 35 35 59 59 59 95 96 97 118 119 121 122 126 129 119 121 122 115 114 114 115 115 115 115 115 115 115 115 115 115 115 115 115 115 115 115 115 115 115 115 115 115 115 115 115 115 115 115 115 115 115 115 115 115 115 115 115 115 115 115 115 115 115 115 115 115 115 115 115 115 115 115 115 115 115 115 115 115 115 115 115 115 115 115 115 115 115 115 115 115 115 115 115 115 115 115 115 115 115 115 115 115 115 115 115 115 115 115 115 115 115 115 115 115 115 115 115 115 115 115 115 115 115 115 115 117 117 117 107 107 107 
62 62 62 68 68 68 67 67 67 67 67 67 67 67 67 67 67 67 67 67 67 67 67 67 67 67 67 67 67 67 67 67 67 67 67 67 67 67 67 67 67 67 67 67 67 67 67 67 67 67 67 67 67 67 67 67 67 67 67 67 67 67 67 67 67 67 67 67 66 66 65 65 69 69 69 67 67 67 59 59 59 59 59 59 60 60 60 67 67 67 71 71 71 72 72 72 72 72 72 72 72 72 72 72 72 72 72 72 72 72 72 72 71 71 71 71 71 71 71 71 71 71 71 71 71 71 71 71 71 71 71 71 71 70 70 70 70 70 70 70 70 62 62 62 59 59 59 59 59 59 62 62 62 70 69 69 68 68 67 67 66 65 67 67 66 67 67 68 67 67 67 67 67 67 67 67 67 67 67 67 67 67 67 67 67 67 67 67 67 67 67 67 67 67 67 67 67 67 67 67 67 67 67 67 67 67 67 67 67 67 67 67 67 67 67 67 67 67 67 67 67 67 67 67 67 67 67 67 67 67 67 67 67 67 67 67 67 67 67 67 67 67 67 67 67 67 67 67 67 67 67 67 67 67 67 67 67 67 67 67 67 67 67 67 67 67 67 67 67 67 67 67 67 68 68 68 62 62 62 
20 20 20 21 21 22 21 21 21 21 21 21 21 21 21 21 21 21 21 21 21 21 21 21 21 21 21 21 21 21 21 21 21 21 21 21 21 21 21 21 21 21 21 21 21 21 21 21 21 21 21 21 21 21 21 21 21 21 21 21 21 21 21 21 21 21 21 21 21 21 21 21 21 21 21 21 21 21 22 22 22 21 21 21 22 22 22 21 21 21 20 20 20 20 20 20 20 20 20 20 20 20 20 20 20 20 20 20 20 20 20 20 20 20 20 20 20 20 20 20 20 20 20 20 20 20 20 20 20 20 20 20 20 20 20 20 20 21 21 21 21 22 22 22 21 21 21 21 21 21 22 22 22 21 21 21 21 21 21 21 21 21 21 21 21 21 21 21 21 21 21 21 21 21 21 21 21 21 21 21 21 21 21 21 21 21 21 21 21 21 21 21 21 21 21 21 21 21 21 21 21 21 21 21 21 21 21 21 21 21 21 21 21 21 21 21 21 21 21 21 21 21 21 21 21 21 21 21 21 21 21 21 21 21 21 21 21 21 21 21 21 21 21 21 21 21 21 21 21 21 21 21 21 21 21 21 21 21 21 21 21 21 21 21 21 21 21 21 21 21 21 21 21 21 21 22 20 20 20 
