P3
# Created by IrfanView
#
93 16
255
29 72 112 31 78 122 31 77 120 31 77 121 31 77 121 31 77 121 31 77 121 31 77 121 31 77 121 31 77 121 31 77 121 31 77 121 31 77 121 31 77 121 31 77 121 31 77 121 31 77 121 31 77 121 31 77 121 31 77 121 31 77 121 31 77 121 31 77 121 31 77 121 31 77 121 31 77 121 31 77 121 31 77 121 31 77 121 31 77 121 31 77 121 31 77 121 31 77 121 31 77 121 31 77 121 31 77 121 31 77 121 31 77 121 31 77 121 31 77 121 31 77 121 31 77 121 31 77 121 31 77 121 31 77 121 31 77 121 31 77 121 31 77 121 31 77 121 31 77 121 31 77 121 31 77 121 31 77 121 31 77 121 31 77 121 31 77 121 31 77 121 31 77 120 33 81 125 37 87 134 36 86 133 33 83 131 34 84 131 34 84 131 34 84 131 34 84 131 34 84 131 32 82 129 32 82 129 33 83 130 34 84 131 36 86 133 35 84 130 30 77 121 32 78 120 31 77 120 31 77 121 31 77 121 31 77 121 31 77 121 31 77 121 31 77 121 31 77 121 31 77 121 31 77 121 31 77 121 31 77 121 31 77 121 31 77 121 31 77 121 31 77 120 31 78 122 29 72 112 
33 81 127 36 89 138 35 87 136 35 88 136 35 88 136 35 88 136 35 88 136 35 88 136 35 88 136 35 88 136 35 88 136 35 88 136 35 88 136 35 88 136 35 88 136 35 88 136 35 88 136 35 88 136 35 88 136 35 88 136 35 88 136 35 88 136 35 88 136 35 88 136 35 88 136 35 88 136 35 88 136 35 88 136 35 88 136 35 88 136 35 88 136 35 88 136 35 88 136 35 88 136 35 88 136 35 88 136 35 88 136 35 88 136 35 88 136 35 88 136 35 88 136 35 88 136 35 88 136 35 88 136 35 88 136 35 88 136 35 88 136 35 88 136 35 88 136 35 88 136 35 88 136 35 88 136 35 88 136 35 88 136 35 88 136 35 88 137 35 87 135 37 90 140 27 74 119 8 44 78 8 41 73 21 51 78 18 46 72 17 43 67 16 40 62 16 40 62 16 39 61 22 45 67 21 45 67 19 44 68 17 45 71 13 44 73 19 57 93 39 90 137 30 86 139 34 87 136 36 88 136 35 87 136 35 88 136 35 88 136 35 88 136 35 88 136 35 88 136 35 88 136 35 88 136 35 88 136 35 88 136 35 88 136 35 88 136 35 88 136 35 87 136 36 89 138 33 81 127 
33 83 129 36 90 141 35 89 139 36 89 139 36 89 139 36 89 139 36 89 139 36 89 139 36 89 139 36 89 139 36 89 139 36 89 139 36 89 139 36 89 139 36 89 139 36 89 139 36 89 139 36 89 139 36 89 139 36 89 139 36 89 139 36 89 139 36 89 139 36 89 139 36 89 139 36 89 139 36 89 139 36 89 139 36 89 139 36 89 139 36 89 139 36 89 139 36 89 139 36 89 139 36 89 139 36 89 139 36 89 139 36 89 139 36 89 139 36 89 139 36 89 139 36 89 139 36 89 139 36 89 139 36 89 139 36 89 139 36 89 139 36 89 139 36 89 139 36 89 139 36 89 139 36 89 139 36 89 139 36 89 139 35 89 139 36 89 138 36 90 140 30 88 142 48 70 90 119 113 102 181 178 164 43 39 34 0 0 0 9 5 2 8 4 0 10 6 2 0 0 0 84 81 77 134 130 124 121 117 111 116 112 107 105 101 96 74 71 67 56 62 66 69 97 123 39 92 141 28 85 138 38 90 139 36 89 139 36 89 139 36 89 139 36 89 139 36 89 139 36 89 139 36 89 139 36 89 139 36 89 139 36 89 139 36 89 139 36 89 139 35 89 139 36 90 141 33 83 129 
34 86 133 37 93 146 37 92 143 37 92 144 37 92 144 37 92 144 37 92 144 37 92 144 37 92 144 37 92 144 37 92 144 37 92 144 37 92 144 37 92 144 37 92 144 37 92 144 37 92 144 37 92 144 37 92 144 37 92 144 37 92 144 37 92 144 37 92 144 37 92 144 37 92 144 37 92 144 37 92 144 37 92 144 37 92 144 37 92 144 37 92 144 37 92 144 37 92 144 37 92 144 37 92 144 37 92 144 37 92 144 37 92 144 37 92 144 37 92 144 37 92 144 37 92 144 37 92 144 37 92 144 37 92 144 37 92 144 37 92 144 37 92 144 37 92 144 37 92 144 37 92 144 37 92 144 37 92 144 37 92 144 38 92 143 39 96 149 32 87 139 83 102 119 201 198 187 255 255 255 165 165 160 12 13 13 24 25 25 22 23 23 21 22 23 24 25 26 0 0 0 80 81 81 172 173 171 159 159 158 162 163 161 164 165 163 167 167 166 124 123 120 66 62 57 93 100 106 70 110 146 30 90 145 39 95 147 40 94 145 39 94 145 39 93 144 38 92 144 37 92 144 37 92 144 37 92 144 37 92 144 37 92 144 37 92 144 37 92 144 37 92 143 37 93 146 34 86 133 
35 88 138 38 97 151 38 95 148 38 95 148 38 95 148 38 95 148 38 95 148 38 95 148 38 95 148 38 95 148 38 95 148 38 95 148 38 95 148 38 95 148 38 95 148 38 95 148 38 95 148 38 95 148 38 95 148 38 95 148 38 95 148 38 95 148 38 95 148 38 95 148 38 95 148 38 95 148 38 95 148 38 95 148 38 95 148 38 95 148 38 95 148 38 95 148 38 95 148 38 95 148 38 95 148 38 95 148 38 95 148 38 95 148 38 95 148 38 95 148 38 95 148 38 95 148 38 95 148 38 95 148 38 95 148 38 95 148 38 95 148 38 95 148 38 95 148 38 95 148 38 95 148 38 95 148 38 95 148 39 96 148 35 94 150 23 77 128 101 112 120 220 216 201 255 255 252 221 221 209 44 44 44 32 32 33 38 38 39 37 37 38 37 37 38 41 41 42 4 4 4 37 37 37 147 147 146 139 139 138 142 142 140 142 142 140 141 141 140 152 152 152 137 138 138 37 35 33 76 74 70 80 103 125 23 80 133 23 86 144 26 87 145 29 90 147 35 94 150 40 98 151 41 97 149 38 95 148 38 95 148 38 95 148 38 95 148 38 95 148 38 95 148 38 97 151 35 88 138 
36 91 142 40 100 155 39 98 153 39 98 153 39 98 153 39 98 153 39 98 153 39 98 153 39 98 153 39 98 153 39 98 153 39 98 153 39 98 153 39 98 153 39 98 153 39 98 153 39 98 153 39 98 153 39 98 153 39 98 153 39 98 153 39 98 153 39 98 153 39 98 153 39 98 153 39 98 153 39 98 153 39 98 153 39 98 153 39 98 153 39 98 153 39 98 153 39 98 153 39 98 153 39 98 153 39 98 153 39 98 153 39 98 153 39 98 153 39 98 153 39 98 153 39 98 153 39 98 153 39 98 153 39 98 153 39 98 153 39 98 153 39 98 153 39 98 153 39 98 153 39 98 153 39 98 153 40 99 153 37 97 152 50 107 158 168 179 180 240 236 219 255 255 247 255 255 240 195 195 185 143 143 137 152 152 145 147 147 141 144 144 138 141 141 135 142 142 137 119 119 113 115 115 109 172 172 166 166 166 160 160 160 154 156 156 150 152 152 147 148 148 142 156 156 151 80 80 78 42 42 40 120 115 106 117 128 132 113 144 167 101 134 160 78 119 153 51 101 146 29 88 144 26 90 150 37 98 154 39 99 153 39 98 153 39 98 153 39 98 153 39 98 153 40 100 155 36 91 142 
37 94 146 41 103 160 40 101 157 40 101 158 40 101 158 40 101 158 40 101 158 40 101 158 40 101 158 40 101 158 40 101 158 40 101 158 40 101 158 40 101 158 40 101 158 40 101 158 40 101 158 40 101 158 40 101 158 40 101 158 40 101 158 40 101 158 40 101 158 40 101 158 40 101 158 40 101 158 40 101 158 40 101 158 40 101 158 40 101 158 40 101 158 40 101 158 40 101 158 40 101 158 40 101 158 40 101 158 40 101 158 40 101 158 40 101 158 40 101 158 40 101 158 40 101 158 40 101 158 40 101 158 40 101 158 40 101 158 40 101 158 40 101 158 40 101 158 40 101 158 40 101 158 40 101 158 41 101 157 36 101 162 59 90 116 242 237 225 255 255 247 245 245 232 251 251 238 223 223 212 227 227 215 240 240 227 237 237 224 237 237 225 237 237 224 238 238 225 236 236 224 217 217 205 210 210 198 219 219 207 236 236 223 234 234 221 233 233 220 237 237 223 223 223 210 140 140 132 166 166 158 225 226 214 247 245 229 245 240 223 243 239 221 237 234 217 221 221 209 180 190 189 110 139 161 51 104 152 38 100 157 41 102 158 40 101 158 40 101 158 40 101 157 41 103 160 37 94 146 
38 97 150 42 106 164 41 104 162 41 104 162 41 104 162 41 104 162 41 104 162 41 104 162 41 104 162 41 104 162 41 104 162 41 104 162 41 104 162 41 104 162 41 104 162 41 104 162 41 104 162 41 104 162 41 104 162 41 104 162 41 104 162 41 104 162 41 104 162 41 104 162 41 104 162 41 104 162 41 104 162 41 104 162 41 104 162 41 104 162 41 104 162 41 104 162 41 104 162 41 104 162 41 104 162 41 104 162 41 104 162 41 104 162 41 104 162 41 104 162 41 104 162 41 104 162 41 104 162 41 104 162 41 104 162 41 104 162 41 104 162 41 104 162 41 104 162 41 104 162 41 104 162 41 104 162 42 104 161 39 107 169 30 58 83 222 218 204 247 248 237 249 249 238 255 255 250 249 249 242 233 233 223 245 245 234 241 241 230 241 241 230 241 241 230 240 240 229 239 239 228 208 208 198 201 201 192 217 217 208 240 240 230 237 237 226 237 237 226 236 236 225 237 237 226 248 248 236 232 232 221 213 213 203 233 234 224 240 241 231 244 245 235 244 245 234 238 238 227 236 235 222 239 232 214 61 73 81 33 97 156 43 106 164 41 104 162 41 104 162 41 104 162 42 106 164 38 97 150 
39 99 155 43 109 169 42 107 166 42 107 167 42 107 167 42 107 167 42 107 167 42 107 167 42 107 167 42 107 167 42 107 167 42 107 167 42 107 167 42 107 167 42 107 167 42 107 167 42 107 167 42 107 167 42 107 167 42 107 167 42 107 167 42 107 167 42 107 167 42 107 167 42 107 167 42 107 167 42 107 167 42 107 167 42 107 167 42 107 167 42 107 167 42 107 167 42 107 167 42 107 167 42 107 167 42 107 167 42 107 167 42 107 167 42 107 167 42 107 167 42 107 167 42 107 167 42 107 167 42 107 167 42 107 167 42 107 167 42 107 167 42 107 167 42 107 167 42 107 167 42 107 167 42 107 167 44 109 169 35 99 158 146 158 163 246 244 232 247 247 238 214 214 205 135 135 130 129 129 124 164 164 157 228 228 219 242 242 233 240 240 230 240 240 231 240 240 231 241 241 231 218 218 210 248 248 238 245 245 236 241 241 231 242 242 232 242 242 232 242 242 232 242 242 232 241 241 232 233 233 224 223 223 214 251 251 242 180 180 173 131 131 127 143 143 137 211 211 203 248 248 240 247 246 236 71 79 84 23 86 145 47 112 172 42 107 166 42 107 167 42 107 166 43 109 169 39 99 155 
40 102 159 44 112 174 43 110 171 44 110 171 44 110 171 44 110 171 44 110 171 44 110 171 44 110 171 44 110 171 44 110 171 44 110 171 44 110 171 44 110 171 44 110 171 44 110 171 44 110 171 44 110 171 44 110 171 44 110 171 44 110 171 44 110 171 44 110 171 44 110 171 44 110 171 44 110 171 44 110 171 44 110 171 44 110 171 44 110 171 44 110 171 44 110 171 44 110 171 44 110 171 44 110 171 44 110 171 44 110 171 44 110 171 44 110 171 44 110 171 44 110 171 44 110 171 44 110 171 44 110 171 44 110 171 44 110 171 44 110 171 44 110 171 44 110 171 44 110 171 44 110 171 44 110 171 42 110 173 47 108 163 222 226 225 255 255 249 196 196 190 50 50 49 41 41 41 43 43 44 38 38 39 117 117 114 227 227 221 232 232 225 231 231 224 231 231 224 232 232 225 208 208 202 228 228 221 231 231 224 231 231 224 231 231 224 231 231 224 231 231 224 231 231 224 233 233 226 220 220 214 223 223 217 134 134 131 31 31 32 44 44 44 41 41 42 42 42 42 182 182 177 245 246 239 209 205 195 70 113 151 38 109 174 45 111 171 44 110 171 43 110 171 44 112 174 40 102 159 
41 105 163 45 115 178 45 113 175 45 113 176 45 113 176 45 113 176 45 113 176 45 113 176 45 113 176 45 113 176 45 113 176 45 113 176 45 113 176 45 113 176 45 113 176 45 113 176 45 113 176 45 113 176 45 113 176 45 113 176 45 113 176 45 113 176 45 113 176 45 113 176 45 113 176 45 113 176 45 113 176 45 113 176 45 113 176 45 113 176 45 113 176 45 113 176 45 113 176 45 113 176 45 113 176 45 113 176 45 113 176 45 113 176 45 113 176 45 113 176 45 113 176 45 113 176 45 113 176 45 113 176 45 113 176 45 113 176 45 113 176 45 113 176 45 113 176 45 113 176 45 113 176 45 113 175 45 115 179 42 106 164 147 152 153 203 202 197 81 81 80 48 48 48 38 38 38 30 30 29 52 52 52 46 46 46 180 180 176 253 253 248 244 244 239 246 246 240 246 246 241 221 221 217 245 245 240 246 246 241 246 246 241 246 246 241 246 246 241 246 246 241 245 246 240 247 247 242 241 241 236 200 200 195 55 55 55 51 51 51 30 30 29 39 39 39 46 46 46 89 89 88 250 252 247 255 255 249 127 158 185 30 104 171 48 115 177 45 113 176 45 113 175 45 115 178 41 105 163 
41 107 168 45 117 183 44 115 180 44 116 181 44 116 181 44 116 181 44 116 181 44 116 181 44 116 181 44 116 181 44 116 181 44 116 181 44 116 181 44 116 181 44 116 181 44 116 181 44 116 181 44 116 181 44 116 181 44 116 181 44 116 181 44 116 181 44 116 181 44 116 181 44 116 181 44 116 181 44 116 181 44 116 181 44 116 181 44 116 181 44 116 181 44 116 181 44 116 181 44 116 181 44 116 181 44 116 181 44 116 181 44 116 181 44 116 181 44 116 181 44 116 181 44 116 181 44 116 181 44 116 181 44 116 181 44 116 181 44 116 181 44 116 181 44 116 181 44 116 181 44 116 181 44 115 180 45 117 183 42 110 173 5 12 19 0 0 0 43 43 44 42 42 42 23 23 23 32 32 32 28 28 28 53 52 52 59 59 58 96 96 94 92 92 91 93 93 92 93 92 91 83 83 82 93 93 91 92 92 91 92 92 91 92 92 91 92 92 91 92 92 90 92 92 90 92 92 91 91 91 89 66 66 65 54 54 54 26 26 26 31 31 31 26 26 26 39 39 39 56 56 55 83 83 83 89 84 78 63 104 142 41 117 187 45 115 179 44 116 181 44 115 180 45 117 183 41 107 168 
80 114 146 88 125 160 86 123 157 86 123 157 86 123 157 86 123 157 86 123 157 86 123 157 86 123 157 86 123 157 86 123 157 86 123 157 86 123 157 86 123 157 86 123 157 86 123 157 86 123 157 86 123 157 86 123 157 86 123 157 86 123 157 86 123 157 86 123 157 86 123 157 86 123 157 86 123 157 86 123 157 86 123 157 86 123 157 86 123 157 86 123 157 86 123 157 86 123 157 86 123 157 86 123 157 86 123 157 86 123 157 86 123 157 86 123 157 86 123 157 86 123 157 86 123 157 86 123 157 86 123 157 86 123 157 86 123 157 86 123 157 86 123 157 86 123 157 86 123 157 86 123 157 86 123 157 86 123 157 87 124 159 80 109 135 45 55 63 51 51 51 43 43 43 23 23 23 30 30 30 27 27 27 61 62 62 15 15 16 0 0 0 1 1 1 0 0 0 0 0 0 0 0 0 0 0 0 0 0 0 0 0 0 0 0 0 0 0 0 0 0 0 0 0 0 0 0 0 0 0 0 9 10 10 60 60 60 27 27 27 29 29 29 23 23 23 43 43 43 48 49 49 4 6 8 23 31 38 75 109 141 89 126 161 86 123 156 86 123 157 86 123 157 88 125 160 80 114 146 
107 107 107 117 117 117 115 115 115 115 115 115 115 115 115 115 115 115 115 115 115 115 115 115 115 115 115 115 115 115 115 115 115 115 115 115 115 115 115 115 115 115 115 115 115 115 115 115 115 115 115 115 115 115 115 115 115 115 115 115 115 115 115 115 115 115 115 115 115 115 115 115 115 115 115 115 115 115 115 115 115 115 115 115 115 115 115 115 115 115 115 115 115 115 115 115 115 115 115 115 115 115 115 115 115 115 115 115 115 115 115 115 115 115 115 115 115 115 115 115 115 115 115 115 115 115 115 115 115 115 115 115 115 115 115 115 115 115 115 115 115 115 115 115 115 115 115 115 115 115 115 115 115 115 115 115 115 115 115 115 115 115 117 120 122 120 123 126 103 104 105 67 67 67 40 40 40 32 32 32 54 54 54 90 91 92 103 104 105 95 95 95 97 97 97 97 97 98 98 99 99 98 98 99 98 99 99 101 101 101 101 102 102 101 102 102 102 103 103 104 105 105 104 104 105 104 105 105 104 105 106 109 110 111 90 91 91 55 55 55 33 33 33 38 38 38 67 67 67 103 104 105 119 121 123 123 126 130 117 118 118 115 115 114 115 115 115 115 115 115 115 115 115 117 117 117 107 107 107 
62 62 62 68 68 68 67 67 67 67 67 67 67 67 67 67 67 67 67 67 67 67 67 67 67 67 67 67 67 67 67 67 67 67 67 67 67 67 67 67 67 67 67 67 67 67 67 67 67 67 67 67 67 67 67 67 67 67 67 67 67 67 67 67 67 67 67 67 67 67 67 67 67 67 67 67 67 67 67 67 67 67 67 67 67 67 67 67 67 67 67 67 67 67 67 67 67 67 67 67 67 67 67 67 67 67 67 67 67 67 67 67 67 67 67 67 67 67 67 67 67 67 67 67 67 67 67 67 67 67 67 67 67 67 67 67 67 67 67 67 67 67 67 67 67 67 67 67 67 67 67 67 67 67 67 67 67 67 67 67 67 67 67 66 66 67 66 65 70 70 70 64 64 64 59 59 59 59 59 59 61 61 61 69 69 68 71 71 71 72 72 72 72 72 72 72 72 72 72 72 72 72 72 72 72 72 72 71 71 71 71 71 71 71 71 71 71 71 71 71 71 71 71 71 71 71 71 70 71 70 70 70 70 70 69 69 69 61 61 61 59 59 59 59 59 59 64 64 64 70 70 70 68 67 67 67 66 65 67 67 67 67 67 67 67 67 67 67 67 67 67 67 67 68 68 68 62 62 62 
20 20 20 21 21 22 21 21 21 21 21 21 21 21 21 21 21 21 21 21 21 21 21 21 21 21 21 21 21 21 21 21 21 21 21 21 21 21 21 21 21 21 21 21 21 21 21 21 21 21 21 21 21 21 21 21 21 21 21 21 21 21 21 21 21 21 21 21 21 21 21 21 21 21 21 21 21 21 21 21 21 21 21 21 21 21 21 21 21 21 21 21 21 21 21 21 21 21 21 21 21 21 21 21 21 21 21 21 21 21 21 21 21 21 21 21 21 21 21 21 21 21 21 21 21 21 21 21 21 21 21 21 21 21 21 21 21 21 21 21 21 21 21 21 21 21 21 21 21 21 21 21 21 21 21 21 21 21 21 21 21 21 21 21 21 21 21 21 21 21 21 22 22 22 21 21 21 21 21 21 22 22 22 21 21 21 20 20 20 20 20 20 20 20 20 20 20 20 20 20 20 20 20 20 20 20 20 20 20 20 20 20 20 20 20 20 20 20 20 20 20 20 20 20 20 20 20 20 20 20 20 20 20 21 21 21 21 22 22 22 21 21 21 21 21 21 22 22 22 21 21 21 21 21 21 21 21 21 21 21 21 21 21 21 21 21 21 21 21 21 21 21 21 21 21 22 20 20 20 
