P3
# Created by IrfanView
62 35
255
255 255 255 255 255 255 255 255 255 255 255 255 255 255 255 
255 255 255 255 255 255 255 255 255 255 255 255 255 255 255 
255 255 255 255 255 255 255 255 255 255 255 255 255 255 255 
255 255 255 255 255 255 255 255 255 255 255 255 255 255 255 
255 255 255 255 255 255 255 255 255 255 255 255 255 255 255 
255 255 255 255 255 255 255 255 255 255 255 255 255 255 255 
255 255 255 255 255 255 255 255 255 255 255 255 255 255 255 
255 255 255 255 255 255 255 255 255 255 255 255 255 255 255 
255 255 255 255 255 255 255 255 255 255 255 255 255 255 255 
255 255 255 255 255 255 255 255 255 255 255 255 255 255 255 
255 255 255 255 255 255 255 255 255 255 255 255 255 255 255 
255 255 255 255 255 255 255 255 255 255 255 255 255 255 255 
255 255 255 255 255 255 255 255 255 255 255 255 255 255 255 
255 255 255 255 255 255 255 255 255 255 255 255 255 255 255 
255 255 255 255 255 255 255 255 255 255 255 255 255 255 255 
255 255 255 255 255 255 255 255 255 255 255 255 255 255 255 
255 255 255 255 255 255 255 255 255 255 255 255 255 255 255 
255 255 255 255 255 255 255 255 255 255 255 255 255 255 255 
255 255 255 255 255 255 255 255 255 255 255 255 255 255 255 
255 255 255 255 255 255 255 255 255 255 255 255 255 255 255 
255 255 255 255 255 255 255 255 255 255 255 255 255 255 255 
255 255 255 255 255 255 255 255 255 255 255 255 255 255 255 
255 255 255 255 255 255 255 255 255 255 255 255 255 255 255 
255 255 255 255 255 255 255 255 255 255 255 255 255 255 255 
255 255 255 255 255 255 255 255 255 255 255 255 255 255 255 
255 255 255 255 255 255 255 255 255 255 255 255 255 255 255 
255 255 255 255 255 255 255 255 255 255 255 255 255 255 255 
255 255 255 255 255 255 255 255 255 255 255 255 255 255 255 
255 255 255 255 255 255 255 255 255 255 255 255 255 255 255 
255 255 255 255 255 255 255 255 255 255 255 255 255 255 255 
240 240 240 209 209 209 191 191 190 182 181 180 174 173 172 
164 163 163 157 155 155 147 146 146 142 141 140 133 132 132 
129 129 128 130 129 129 126 126 126 132 132 132 144 144 144 
178 178 178 202 202 202 221 220 220 222 221 221 226 225 226 
241 241 241 255 255 255 255 255 255 255 255 255 255 255 255 
255 255 255 255 255 255 255 255 255 255 255 255 255 255 255 
255 255 255 255 255 255 255 255 255 255 255 255 255 255 255 
255 255 255 255 255 255 255 255 255 255 255 255 255 255 255 
255 255 255 255 255 255 255 255 255 255 255 255 255 255 255 
255 255 255 255 255 255 255 255 255 255 255 255 255 255 255 
255 255 255 255 255 255 255 255 255 255 255 255 255 255 255 
255 255 255 255 255 255 250 250 250 176 175 175 146 145 145 
137 137 138 157 156 156 188 190 188 207 209 210 209 212 213 
198 201 202 181 183 187 170 176 177 158 164 165 138 140 144 
126 128 133 112 114 118 104 105 108 97 99 102 89 90 93 
97 96 98 96 95 95 99 98 98 83 83 83 93 93 92 
97 99 98 97 98 99 90 88 88 79 78 78 88 87 87 
128 127 127 152 152 152 214 214 214 255 255 255 255 255 255 
255 255 255 255 255 255 255 255 255 255 255 255 255 255 255 
255 255 255 255 255 255 255 255 255 255 255 255 255 255 255 
255 255 255 255 255 255 255 255 255 255 255 255 255 255 255 
255 255 255 255 255 255 255 255 255 255 255 255 255 255 255 
255 255 255 255 255 255 255 255 255 255 255 255 255 255 255 
255 255 255 255 255 255 255 255 255 187 186 186 195 196 197 
253 255 255 239 246 243 222 229 226 213 219 218 186 193 192 
143 148 151 122 127 132 105 111 114 115 122 125 114 122 120 
102 111 106 83 92 91 74 83 82 69 78 75 61 69 69 
51 59 60 39 40 46 43 42 41 67 68 67 125 134 133 
150 160 160 149 160 158 151 162 160 155 167 163 99 98 99 
154 161 161 155 160 160 141 144 142 140 142 142 127 126 126 
130 130 130 255 255 255 255 255 255 255 255 255 255 255 255 
255 255 255 255 255 255 255 255 255 255 255 255 255 255 255 
255 255 255 255 255 255 255 255 255 255 255 255 255 255 255 
255 255 255 255 255 255 255 255 255 255 255 255 255 255 255 
255 255 255 255 255 255 255 255 255 255 255 255 255 255 255 
255 255 255 255 255 255 255 255 255 255 255 255 160 161 159 
226 231 230 214 222 219 199 204 203 204 208 207 209 213 212 
217 221 220 132 139 139 106 117 114 86 95 94 87 95 92 
74 85 80 76 85 82 80 90 86 51 59 55 48 56 53 
46 54 50 46 55 53 41 53 48 35 31 34 27 25 25 
113 122 120 120 130 126 112 121 117 114 124 120 116 125 122 
121 132 128 71 72 71 86 87 87 117 124 125 126 132 134 
140 146 148 138 144 143 255 255 255 234 234 234 255 255 255 
255 255 255 255 255 255 255 255 255 255 255 255 255 255 255 
255 255 255 255 255 255 255 255 255 255 255 255 255 255 255 
255 255 255 255 255 255 255 255 255 255 255 255 255 255 255 
255 255 255 255 255 255 255 255 255 255 255 255 255 255 255 
255 255 255 255 255 255 255 255 255 255 255 255 243 242 243 
160 159 160 224 229 228 191 198 196 198 203 202 206 210 209 
194 198 197 196 200 199 178 183 182 82 92 89 77 86 83 
77 85 81 118 125 121 58 67 63 42 51 49 39 46 44 
38 43 41 38 43 42 36 41 39 39 45 42 27 28 32 
18 16 16 29 30 29 103 114 110 69 79 76 72 81 78 
70 79 76 103 109 107 101 110 106 60 65 64 38 37 38 
74 79 80 76 80 81 82 86 87 72 81 80 124 124 124 
255 255 255 255 255 255 255 255 255 255 255 255 255 255 255 
255 255 255 255 255 255 255 255 255 255 255 255 255 255 255 
255 255 255 255 255 255 255 255 255 255 255 255 255 255 255 
255 255 255 255 255 255 255 255 255 255 255 255 255 255 255 
255 255 255 255 255 255 255 255 255 255 255 255 255 255 255 
235 234 234 161 165 163 208 215 213 178 185 182 200 204 203 
199 203 202 191 195 194 190 193 192 205 208 207 110 117 115 
79 89 85 55 65 62 91 98 96 128 133 132 27 35 33 
36 42 40 34 40 38 31 37 35 31 37 35 30 37 34 
33 39 37 21 19 23 4 2 2 59 63 62 72 78 76 
45 53 52 48 56 54 45 53 50 67 74 72 82 89 87 
52 63 59 23 20 20 41 43 44 46 49 52 50 53 55 
49 52 53 0 0 0 208 208 208 255 255 255 255 255 255 
255 255 255 255 255 255 255 255 255 255 255 255 255 255 255 
255 255 255 255 255 255 255 255 255 255 255 255 255 255 255 
255 255 255 255 255 255 255 255 255 255 255 255 255 255 255 
255 255 255 255 255 255 255 255 255 255 255 255 255 255 255 
255 255 255 233 231 232 159 160 160 200 205 204 171 180 177 
206 209 208 202 205 205 198 201 201 197 200 199 151 157 155 
147 155 153 62 72 69 59 69 66 35 45 42 120 124 124 
125 131 129 43 49 47 29 35 33 26 32 30 24 30 28 
24 30 28 25 34 31 21 20 24 15 13 14 13 11 11 
66 74 71 53 60 56 40 47 45 42 48 47 41 48 46 
51 58 56 69 77 74 64 73 71 20 19 19 29 28 29 
40 40 43 41 41 44 44 44 47 10 11 12 19 19 19 
255 255 255 255 255 255 255 255 255 255 255 255 255 255 255 
255 255 255 255 255 255 255 255 255 255 255 255 255 255 255 
255 255 255 255 255 255 255 255 255 255 255 255 255 255 255 
255 255 255 255 255 255 255 255 255 255 255 255 255 255 255 
255 255 255 255 255 255 236 234 234 150 155 155 199 208 204 
170 178 175 203 208 206 193 199 196 180 187 184 178 184 181 
100 112 107 124 133 131 100 109 105 54 63 58 51 61 57 
52 59 56 100 104 102 55 61 58 26 33 30 29 35 33 
28 35 32 24 31 28 26 33 29 28 34 33 16 14 20 
7 7 6 23 21 22 44 53 51 44 51 49 45 53 51 
46 51 49 47 52 50 44 53 50 49 56 53 76 85 81 
26 29 28 24 23 25 27 29 31 28 29 31 29 30 32 
27 30 31 0 0 0 131 131 131 252 252 252 251 251 251 
255 255 255 255 255 255 255 255 255 255 255 255 255 255 255 
255 255 255 255 255 255 255 255 255 255 255 255 255 255 255 
255 255 255 255 255 255 255 255 255 255 255 255 255 255 255 
255 255 255 255 255 255 255 255 255 233 232 232 108 114 116 
154 163 163 124 133 133 97 105 106 74 83 84 57 66 67 
45 55 56 41 50 49 33 40 41 24 31 32 15 21 24 
15 20 23 14 19 22 7 12 13 0 5 6 1 4 6 
6 9 11 8 11 13 8 12 13 6 10 13 11 13 15 
0 0 0 0 0 0 0 0 0 10 10 10 22 30 28 
27 36 33 23 32 30 22 29 27 19 28 26 14 23 20 
5 13 10 35 43 41 0 0 0 0 0 0 0 0 0 
0 0 0 0 0 0 0 0 0 0 0 0 20 20 20 
237 237 237 229 229 230 255 255 255 255 255 255 255 255 255 
255 255 255 255 255 255 255 255 255 255 255 255 255 255 255 
255 255 255 255 255 255 255 255 255 255 255 255 255 255 255 
255 255 255 255 255 255 255 255 255 255 255 255 255 255 255 
211 210 212 234 235 236 232 232 234 221 222 223 214 216 213 
208 207 206 193 193 191 172 169 170 150 150 146 139 137 137 
135 133 131 132 132 129 129 128 126 124 122 121 120 119 117 
114 113 112 106 105 105 101 100 100 92 91 91 87 84 86 
82 80 83 79 77 79 75 73 77 62 62 61 62 62 62 
62 61 61 83 83 83 106 107 106 119 121 120 133 132 131 
136 136 136 153 153 153 170 168 168 185 184 184 195 194 194 
205 205 205 219 218 218 237 237 236 253 253 252 255 255 255 
255 255 255 255 255 255 225 225 226 213 213 212 235 235 235 
255 255 255 255 255 255 255 255 255 255 255 255 255 255 255 
255 255 255 255 255 255 255 255 255 255 255 255 255 255 255 
255 255 255 254 254 254 247 247 247 235 235 235 226 226 226 
235 235 235 255 255 255 139 139 139 53 53 51 29 29 28 
25 25 24 20 20 17 7 7 4 0 0 0 96 96 95 
225 225 224 222 222 221 223 223 221 225 225 224 224 223 224 
226 226 224 226 226 225 231 231 229 240 240 238 249 249 247 
255 255 254 255 255 255 255 255 255 255 255 255 255 255 255 
255 255 255 255 255 255 252 252 252 255 255 255 195 194 195 
119 119 119 209 208 208 249 249 249 238 238 238 234 234 234 
229 229 229 227 227 227 224 224 221 217 217 216 217 217 215 
211 211 212 209 209 208 205 205 206 203 203 202 215 215 214 
205 205 204 212 212 213 254 254 254 255 255 255 255 255 255 
255 255 255 255 255 255 255 255 255 255 255 255 255 255 255 
255 255 255 254 254 254 240 240 240 230 230 230 225 225 225 
224 224 224 229 229 229 238 238 238 1 1 1 0 0 0 
10 10 7 17 17 14 12 12 9 0 0 0 88 88 87 
237 237 237 250 250 250 236 236 236 229 229 230 231 231 231 
232 232 232 235 235 236 241 241 242 248 248 248 247 247 248 
239 239 240 230 230 230 225 225 225 223 223 224 224 224 224 
224 224 224 225 225 225 228 228 228 230 230 230 224 224 224 
173 175 170 60 60 56 107 107 106 221 221 222 232 232 233 
223 223 222 219 219 219 215 215 215 212 212 213 210 210 207 
205 205 204 206 206 203 205 205 204 207 207 204 207 207 204 
209 209 208 212 212 209 215 215 214 217 217 218 234 234 234 
255 255 255 255 255 255 255 255 255 255 255 255 255 255 255 
255 255 255 255 255 255 255 255 255 255 255 255 255 255 255 
255 255 255 255 255 255 255 255 255 255 255 255 255 255 255 
172 172 172 192 192 193 187 187 188 185 185 186 206 206 206 
255 255 255 255 255 255 255 255 255 255 255 255 255 255 255 
255 255 255 255 255 255 255 255 255 255 255 255 255 255 255 
244 244 244 238 238 238 232 232 232 230 230 230 213 213 213 
193 193 193 196 196 196 198 198 198 197 197 197 193 193 193 
191 191 192 188 188 187 198 197 195 135 135 133 151 151 149 
204 204 201 191 191 189 190 190 187 189 189 187 191 191 188 
184 184 183 166 166 164 180 180 178 190 190 188 189 189 187 
190 190 188 192 192 190 201 201 199 221 221 222 231 231 231 
238 238 238 230 230 230 255 255 255 255 255 255 255 255 255 
255 255 255 255 255 255 255 255 255 255 255 255 60 60 58 
27 26 25 21 19 20 26 26 26 32 32 32 35 35 35 
40 40 40 50 50 50 56 56 56 71 71 70 72 72 71 
80 80 80 79 79 79 76 76 76 74 74 74 77 77 77 
86 86 86 92 92 92 98 98 97 108 108 107 128 128 126 
176 175 174 250 250 250 219 219 219 202 202 202 198 198 198 
190 190 190 204 204 204 228 228 228 232 232 232 234 234 234 
231 231 231 227 227 227 216 216 216 204 204 201 200 200 198 
197 197 195 192 192 190 195 195 193 193 193 191 193 193 191 
193 193 191 192 192 190 194 194 192 195 195 193 191 191 189 
192 192 190 192 192 190 193 193 191 196 196 194 204 205 201 
228 228 229 232 232 232 241 241 241 243 243 243 251 251 251 
255 255 255 255 255 255 255 255 255 255 255 255 255 255 255 
106 106 105 89 94 105 118 125 136 1 1 2 2 2 2 
5 5 5 6 6 6 5 5 5 3 3 2 5 4 7 
62 64 69 22 24 26 0 0 0 1 1 1 0 0 0 
0 0 0 0 0 0 0 0 0 0 0 0 0 0 0 
25 26 34 81 84 96 30 31 37 8 8 7 255 255 255 
232 232 232 222 222 222 214 214 214 229 229 229 239 239 239 
239 239 239 240 240 241 241 241 241 238 238 239 233 233 232 
209 209 207 200 200 198 201 201 199 197 197 195 196 196 194 
194 194 192 194 194 192 193 193 191 193 193 191 192 192 190 
192 192 190 190 190 188 192 192 190 193 193 191 195 195 193 
198 198 196 209 209 206 224 224 223 225 225 226 225 225 222 
228 228 227 255 255 255 255 255 255 255 255 255 255 255 255 
255 255 255 255 255 255 19 18 20 97 100 105 44 43 40 
38 39 38 14 14 13 17 17 17 18 18 18 18 18 18 
16 16 15 30 30 36 189 191 196 48 49 59 14 14 13 
19 19 19 19 19 19 19 19 19 19 19 19 20 20 20 
20 20 20 7 6 5 142 146 153 9 7 5 139 146 156 
0 0 0 235 235 235 216 216 216 207 207 207 212 212 212 
238 238 238 244 244 245 249 249 249 240 240 238 222 222 219 
222 222 219 233 233 230 217 217 214 200 200 198 194 194 192 
190 190 188 191 191 189 190 190 188 189 189 187 189 189 187 
188 188 186 188 188 186 188 188 186 186 186 184 190 190 188 
190 190 188 192 192 190 194 194 192 204 204 202 223 223 221 
213 213 210 52 52 51 44 44 41 247 247 246 255 255 255 
255 255 255 255 255 255 255 255 255 255 255 255 0 0 0 
143 146 156 100 103 105 17 17 16 12 12 12 14 14 14 
13 13 13 12 12 12 9 9 9 0 0 0 0 0 0 
0 0 0 2 2 1 6 6 6 4 4 4 6 6 6 
6 6 6 4 4 4 5 5 5 15 15 15 150 155 164 
0 0 0 125 128 141 0 0 0 245 247 245 209 210 210 
204 204 204 220 220 220 242 242 242 251 251 251 231 231 230 
190 190 187 85 85 84 82 82 81 202 202 202 218 218 216 
197 197 195 193 193 191 194 194 192 196 196 194 193 193 191 
194 194 192 193 193 191 193 193 191 192 192 190 192 192 190 
190 190 188 193 193 191 194 194 192 196 196 194 197 197 195 
203 203 201 229 229 226 38 38 37 14 14 15 0 0 0 
77 77 76 255 255 255 255 255 255 255 255 255 255 255 255 
255 255 255 37 37 36 18 20 21 44 44 48 45 45 44 
53 53 53 55 55 55 50 50 50 49 49 49 45 45 45 
56 55 56 61 61 61 63 63 63 60 60 60 61 61 61 
63 63 63 65 65 65 64 64 64 62 62 62 66 66 66 
50 50 52 69 70 76 129 132 141 31 32 33 76 76 75 
255 255 255 198 199 199 202 201 201 220 220 220 231 231 231 
239 239 240 166 166 163 0 0 0 0 0 0 0 0 0 
0 0 0 229 229 227 198 198 196 198 198 196 204 204 202 
203 203 201 202 202 200 201 201 199 200 200 198 198 198 196 
199 199 197 199 199 197 197 197 195 200 200 198 199 199 197 
201 201 199 204 204 202 217 217 215 195 195 195 0 0 1 
57 57 57 71 71 71 0 0 0 255 255 255 255 255 255 
255 255 255 255 255 255 254 254 254 255 255 255 255 255 255 
250 250 249 240 240 239 236 235 236 233 233 233 224 224 224 
217 217 217 207 207 207 198 198 198 198 197 198 196 195 196 
197 196 196 190 189 189 188 188 188 187 186 186 179 179 179 
179 178 179 182 182 182 183 182 182 164 163 162 178 178 177 
231 229 228 255 255 255 220 223 222 199 199 200 207 208 208 
222 221 222 234 234 234 216 216 213 0 0 0 28 28 28 
70 70 70 69 69 70 0 0 0 122 122 122 220 220 218 
202 202 200 211 211 209 208 208 206 207 207 205 206 206 204 
205 205 203 203 203 201 204 204 202 204 204 202 200 200 198 
206 206 204 206 206 204 207 207 205 212 212 210 235 235 233 
98 98 95 23 23 23 60 60 61 51 51 51 0 0 0 
255 255 255 255 255 255 255 255 255 255 255 255 235 235 235 
216 216 216 215 215 215 220 220 220 225 225 225 226 228 226 
233 235 235 249 249 249 255 255 255 255 255 255 255 255 255 
255 255 255 255 255 255 255 255 255 250 253 251 241 243 242 
240 241 242 238 241 239 241 243 242 242 244 243 245 248 246 
248 249 247 243 244 243 225 228 227 210 212 211 199 201 200 
199 202 200 207 209 208 213 216 214 228 228 227 111 111 108 
0 0 0 42 42 43 76 78 77 48 48 49 22 22 22 
14 14 13 251 251 248 207 207 205 215 215 212 214 214 211 
211 211 209 210 210 208 209 209 207 209 209 207 207 207 205 
210 210 208 204 204 202 210 210 208 209 209 207 209 209 207 
215 215 213 250 250 249 30 30 29 54 54 52 13 13 13 
62 62 58 0 0 0 255 255 255 255 255 255 255 255 255 
255 255 255 237 237 235 215 215 215 212 212 212 213 213 213 
216 216 216 195 195 195 184 184 182 147 147 147 20 19 19 
48 49 48 52 53 54 61 60 60 64 65 66 57 58 58 
176 177 176 165 167 166 193 196 193 202 204 203 202 204 203 
203 205 204 206 208 207 208 209 210 209 211 210 206 208 207 
201 203 202 198 200 199 198 200 199 206 208 207 210 211 211 
241 241 240 2 2 2 23 23 24 44 44 43 41 41 38 
70 70 69 45 45 45 0 0 0 255 255 255 214 214 211 
216 216 217 215 215 216 214 214 211 213 213 210 213 213 211 
212 212 210 212 212 210 215 215 213 212 212 210 224 224 222 
227 227 225 234 234 232 246 246 244 255 255 255 0 0 0 
28 28 28 42 42 42 37 37 37 0 0 0 209 209 209 
255 255 255 255 255 255 255 255 255 235 235 233 214 214 214 
209 209 209 212 212 212 215 215 215 209 209 209 232 232 233 
196 196 196 19 19 19 54 54 54 48 47 48 47 46 46 
45 45 45 17 16 17 237 239 238 209 212 211 191 193 190 
202 204 204 203 205 204 202 204 203 203 205 204 204 206 205 
206 208 207 202 204 203 198 201 200 196 198 197 196 198 197 
202 204 203 212 213 213 210 210 208 0 0 0 17 17 17 
64 64 63 26 26 25 58 58 57 33 33 33 0 0 0 
245 245 242 224 224 222 233 233 234 238 238 239 243 243 243 
249 249 248 253 253 253 255 255 255 255 255 255 255 255 255 
246 246 244 217 217 216 181 181 178 149 149 148 129 129 129 
103 103 104 0 0 0 57 57 57 54 54 54 11 11 9 
0 0 0 255 255 255 255 255 255 255 255 255 255 255 255 
255 255 255 250 250 251 252 252 252 251 251 251 253 253 253 
250 250 250 255 255 255 219 219 219 36 36 36 75 75 75 
72 72 72 81 81 81 75 75 75 29 31 29 252 254 253 
224 226 225 212 214 213 211 213 213 210 212 211 208 211 209 
209 211 210 210 212 211 212 215 213 206 208 207 210 213 212 
212 213 212 212 215 214 216 218 217 234 235 234 142 142 142 
0 0 0 52 52 53 16 16 17 30 30 30 32 32 32 
89 89 88 0 0 0 255 255 255 219 219 216 188 188 186 
156 156 155 126 126 125 94 94 95 61 61 62 26 26 27 
0 0 0 0 0 0 0 0 0 0 0 0 0 0 0 
0 0 0 0 0 0 0 0 0 14 14 14 42 42 42 
63 63 64 39 39 37 46 46 46 255 255 255 255 255 255 
255 255 255 255 255 255 176 176 175 0 0 0 32 32 33 
52 51 52 69 69 69 77 77 77 97 97 97 103 103 103 
37 37 37 53 53 53 57 57 57 59 59 59 62 62 62 
40 40 40 188 187 186 181 182 179 190 191 188 195 198 197 
200 201 201 203 204 205 206 207 206 209 210 209 209 210 210 
206 207 207 201 203 201 193 192 193 179 180 181 167 168 166 
177 176 175 60 60 58 12 11 12 53 54 51 42 42 40 
51 51 51 33 33 33 11 11 12 0 0 0 0 0 0 
0 0 0 0 0 0 0 0 0 0 0 0 0 0 0 
0 0 0 6 6 6 44 44 44 50 50 51 43 43 43 
35 35 35 40 40 40 34 34 34 20 20 20 14 14 14 
20 20 20 59 59 57 58 58 58 6 6 6 62 62 62 
255 255 255 255 255 255 255 255 255 255 255 255 255 255 255 
6 6 5 25 25 21 7 9 6 3 3 1 0 0 0 
0 0 0 0 0 0 0 0 0 0 0 0 0 0 0 
0 0 0 0 0 0 0 0 0 0 0 0 0 0 0 
0 0 0 0 0 0 0 0 0 0 0 0 0 0 0 
0 0 0 0 0 0 0 0 0 0 0 0 0 0 0 
0 0 0 0 0 0 0 0 0 0 0 0 23 23 24 
0 0 0 24 23 24 57 57 58 71 71 71 45 45 44 
11 11 11 16 16 16 27 27 27 45 45 45 37 37 37 
37 37 37 39 39 39 39 39 39 20 20 20 0 0 0 
0 0 0 30 30 30 108 108 108 159 159 159 51 51 51 
23 23 23 29 29 29 28 28 28 56 56 56 27 27 27 
28 28 25 133 133 133 255 255 255 255 255 255 255 255 255 
255 255 255 255 255 255 195 195 195 63 63 63 82 82 80 
81 81 81 69 69 70 55 55 55 40 40 40 29 29 29 
14 14 14 0 0 0 0 0 0 0 0 0 0 0 0 
0 0 0 0 0 0 0 0 0 0 0 0 20 20 20 
20 20 19 22 22 20 20 20 21 44 44 42 13 14 13 
24 24 24 27 27 27 33 33 33 33 33 33 44 44 44 
13 13 13 27 27 27 98 98 96 43 43 43 42 42 42 
24 24 24 57 57 57 7 7 7 41 41 41 55 55 55 
84 84 84 121 121 121 163 163 163 202 202 202 241 241 241 
255 255 255 255 255 255 255 255 255 255 255 255 255 255 255 
255 255 255 169 169 169 11 11 11 43 43 43 39 39 39 
66 66 66 65 65 64 36 36 35 236 236 236 255 255 255 
255 255 255 255 255 255 255 255 255 255 255 255 255 255 255 
10 10 11 17 17 17 19 19 19 28 28 28 38 38 38 
18 18 18 47 47 47 29 29 29 133 133 133 206 206 206 
182 182 182 168 168 168 151 151 151 132 132 132 121 121 121 
115 115 115 109 109 109 92 92 92 88 88 88 71 71 72 
50 50 50 68 68 68 50 50 50 19 19 19 13 13 13 
23 23 23 24 24 24 27 27 27 24 24 24 5 5 5 
61 61 62 49 49 50 68 68 67 33 33 33 140 140 140 
143 143 143 142 142 142 137 137 137 133 133 133 127 127 127 
122 122 122 117 117 117 113 113 113 113 113 113 113 113 113 
115 115 115 121 121 121 139 139 139 157 157 157 0 0 0 
0 0 0 0 0 0 0 0 0 6 6 6 36 36 36 
243 243 243 255 255 255 255 255 255 255 255 255 255 255 255 
255 255 255 255 255 255 153 153 153 16 16 16 37 37 37 
40 40 40 31 31 31 7 7 7 0 0 0 0 0 0 
255 255 255 255 255 255 255 255 255 255 255 255 255 255 255 
255 255 255 255 255 255 255 255 255 248 248 248 230 230 230 
214 214 214 195 195 195 179 179 179 172 172 172 90 90 90 
44 44 44 36 36 36 38 38 38 32 32 32 38 38 38 
36 36 36 32 32 32 46 46 45 27 27 24 53 53 52 
52 52 52 102 102 102 88 88 88 89 89 89 87 87 87 
88 88 88 90 90 90 92 92 92 92 92 92 93 93 93 
94 94 94 98 98 98 101 101 101 105 105 105 109 109 109 
137 137 137 161 161 161 148 148 148 156 156 156 167 167 167 
209 209 209 255 255 255 255 255 255 255 255 255 255 255 255 
255 255 255 255 255 255 255 255 255 255 255 255 255 255 255 
116 116 116 0 0 0 0 0 0 3 3 3 1 1 1 
0 0 0 163 163 163 213 213 213 167 167 167 148 148 148 
128 128 128 114 114 114 108 108 108 102 102 102 98 98 98 
93 93 93 91 91 91 91 91 91 88 88 88 89 89 89 
93 93 93 101 101 101 108 108 108 113 113 113 89 89 89 
26 26 26 49 49 49 44 44 44 49 49 49 79 79 79 
102 102 101 35 35 33 94 94 94 107 107 107 106 106 106 
107 107 107 112 112 112 117 117 117 122 122 122 130 130 130 
146 146 146 171 171 171 193 193 193 215 215 215 235 235 235 
253 253 253 255 255 255 255 255 255 255 255 255 255 255 255 
255 255 255 255 255 255 255 255 255 255 255 255 255 255 255 
255 255 255 255 255 255 255 255 255 255 255 255 229 229 229 
192 192 192 188 188 188 189 189 189 145 145 145 85 85 85 
69 69 69 68 68 68 92 92 92 96 96 96 84 84 84 
80 80 80 84 84 84 86 86 86 87 87 87 89 89 89 
88 88 88 90 90 90 88 88 88 89 89 89 88 88 88 
90 90 90 89 89 89 90 90 90 89 89 89 89 89 89 
93 93 93 104 104 104 29 29 29 0 0 0 4 4 4 
3 3 3 13 13 13 12 12 12 31 31 31 137 137 137 
135 135 135 153 153 153 179 179 179 195 195 195 221 221 221 
239 239 239 255 255 255 255 255 255 255 255 255 255 255 255 
255 255 255 255 255 255 255 255 255 254 254 254 254 254 254 
253 253 253 255 255 255 255 255 255 254 254 254 255 255 255 
255 255 255 255 255 255 255 255 255 255 255 255 255 255 255 
255 255 255 255 255 255 242 242 242 232 232 232 228 228 228 
227 227 227 224 224 224 217 217 217 208 208 208 194 194 194 
179 179 179 169 169 169 160 160 160 152 152 152 143 143 143 
136 136 136 129 129 129 123 123 123 120 120 120 118 118 118 
116 116 116 113 113 113 112 112 112 111 111 111 112 112 112 
110 110 110 108 108 108 107 107 107 109 109 109 115 115 115 
74 74 74 59 59 59 71 71 71 96 96 96 152 152 152 
241 241 241 254 254 254 255 255 255 255 255 255 255 255 255 
255 255 255 255 255 255 255 255 255 255 255 255 255 255 255 
254 254 254 255 255 255 254 254 254 255 255 255 255 255 255 
255 255 255 255 255 255 255 255 255 255 255 255 255 255 255 
255 255 255 255 255 255 255 255 255 255 255 255 255 255 255 
255 255 255 255 255 255 255 255 255 255 255 255 255 255 255 
255 255 255 255 255 255 255 255 255 255 255 255 255 255 255 
255 255 255 255 255 255 255 255 255 255 255 255 255 255 255 
255 255 255 255 255 255 255 255 255 255 255 255 255 255 255 
255 255 255 255 255 255 255 255 255 255 255 255 255 255 255 
253 253 253 254 254 254 254 254 254 255 255 255 255 255 255 
255 255 255 255 255 255 255 255 255 255 255 255 255 255 255 
255 255 255 255 255 255 255 255 255 255 255 255 254 254 254 
254 254 254 255 255 255 255 255 255 255 255 255 255 255 255 
255 255 255 255 255 255 255 255 255 255 255 255 255 255 255 
255 255 255 255 255 255 255 255 255 255 255 255 255 255 255 
255 255 255 255 255 255 255 255 255 255 255 255 255 255 255 
255 255 255 255 255 255 255 255 255 255 255 255 255 255 255 
255 255 255 255 255 255 255 255 255 255 255 255 255 255 255 
254 254 254 255 255 255 254 254 254 254 254 254 254 254 254 
254 254 254 254 254 254 253 253 253 253 253 253 253 253 253 
253 253 253 253 253 253 253 253 253 253 253 253 253 253 253 
253 253 253 253 253 253 253 253 253 253 253 253 253 253 253 
253 253 253 253 253 253 253 253 253 253 253 253 253 253 253 
253 253 253 253 253 253 254 254 254 254 254 254 254 254 254 
255 255 255 255 255 255 255 255 255 255 255 255 255 255 255 
255 255 255 255 255 255 255 255 255 255 255 255 255 255 255 
255 255 255 255 255 255 255 255 255 255 255 255 255 255 255 
255 255 255 255 255 255 255 255 255 255 255 255 255 255 255 
255 255 255 255 255 255 255 255 255 255 255 255 255 255 255 
