P3
# Created by IrfanView
#
93 16
255
29 72 112 31 78 122 31 77 120 31 77 121 31 77 121 31 77 121 31 77 120 33 80 125 37 87 134 36 86 133 33 83 131 34 84 131 34 84 131 34 84 131 34 84 131 34 84 131 32 82 129 32 82 129 33 83 130 34 84 131 36 86 133 34 84 130 31 77 121 32 78 120 31 77 120 31 77 121 31 77 121 31 77 121 31 77 121 31 77 121 31 77 121 31 77 121 31 77 121 31 77 121 31 77 121 31 77 121 31 77 121 31 77 121 31 77 121 31 77 121 31 77 121 31 77 121 31 77 121 31 77 121 31 77 121 31 77 121 31 77 121 31 77 121 31 77 121 31 77 121 31 77 121 31 77 121 31 77 121 31 77 121 31 77 121 31 77 121 31 77 121 31 77 121 31 77 121 31 77 121 31 77 121 31 77 121 31 77 121 31 77 121 31 77 121 31 77 121 31 77 121 31 77 121 31 77 121 31 77 121 31 77 121 31 77 121 31 77 121 31 77 121 31 77 121 31 77 121 31 77 121 31 77 121 31 77 121 31 77 121 31 77 121 31 77 121 31 77 121 31 77 121 31 77 121 31 77 121 31 77 121 31 77 121 31 77 121 31 77 121 31 77 120 31 78 122 29 72 112 
33 81 127 36 89 138 35 87 136 35 88 136 35 88 137 35 87 135 37 90 140 27 75 120 8 44 79 8 41 73 21 51 78 19 46 73 17 43 67 16 40 63 16 40 62 16 39 61 22 45 67 21 45 67 19 44 68 17 45 71 13 44 73 20 58 94 38 89 137 30 86 139 34 87 136 36 88 136 35 87 136 35 88 136 35 88 136 35 88 136 35 88 136 35 88 136 35 88 136 35 88 136 35 88 136 35 88 136 35 88 136 35 88 136 35 88 136 35 88 136 35 88 136 35 88 136 35 88 136 35 88 136 35 88 136 35 88 136 35 88 136 35 88 136 35 88 136 35 88 136 35 88 136 35 88 136 35 88 136 35 88 136 35 88 136 35 88 136 35 88 136 35 88 136 35 88 136 35 88 136 35 88 136 35 88 136 35 88 136 35 88 136 35 88 136 35 88 136 35 88 136 35 88 136 35 88 136 35 88 136 35 88 136 35 88 136 35 88 136 35 88 136 35 88 136 35 88 136 35 88 136 35 88 136 35 88 136 35 88 136 35 88 136 35 88 136 35 88 136 35 88 136 35 88 136 35 88 136 35 88 136 35 88 136 35 88 136 35 88 136 35 87 136 36 89 138 33 81 127 
33 83 129 36 90 141 35 89 139 36 89 139 36 89 138 36 90 140 30 88 143 47 70 91 117 111 100 182 179 164 46 42 36 0 0 0 9 5 2 8 4 0 10 6 2 0 0 0 81 78 75 134 130 124 121 117 111 117 112 107 105 101 96 77 74 70 61 67 71 67 96 123 37 91 140 28 85 138 38 90 139 36 89 139 36 89 139 36 89 139 36 89 139 36 89 139 36 89 139 36 89 139 36 89 139 36 89 139 36 89 139 36 89 139 36 89 139 36 89 139 36 89 139 36 89 139 36 89 139 36 89 139 36 89 139 36 89 139 36 89 139 36 89 139 36 89 139 36 89 139 36 89 139 36 89 139 36 89 139 36 89 139 36 89 139 36 89 139 36 89 139 36 89 139 36 89 139 36 89 139 36 89 139 36 89 139 36 89 139 36 89 139 36 89 139 36 89 139 36 89 139 36 89 139 36 89 139 36 89 139 36 89 139 36 89 139 36 89 139 36 89 139 36 89 139 36 89 139 36 89 139 36 89 139 36 89 139 36 89 139 36 89 139 36 89 139 36 89 139 36 89 139 36 89 139 36 89 139 36 89 139 36 89 139 36 89 139 36 89 139 35 89 139 36 90 141 33 83 129 
34 86 133 37 93 146 37 92 144 38 92 143 39 96 149 32 87 140 81 101 119 198 196 185 255 255 255 169 169 165 13 14 14 24 24 25 22 23 23 21 22 23 25 25 26 0 0 0 77 78 78 172 173 171 159 159 158 162 163 161 164 165 163 166 167 165 127 125 122 71 67 62 93 101 108 68 108 146 30 90 145 39 95 147 40 94 145 39 94 145 39 93 144 38 92 144 37 92 144 37 92 144 37 92 144 37 92 144 37 92 144 37 92 144 37 92 144 37 92 144 37 92 144 37 92 144 37 92 144 37 92 144 37 92 144 37 92 144 37 92 144 37 92 144 37 92 144 37 92 144 37 92 144 37 92 144 37 92 144 37 92 144 37 92 144 37 92 144 37 92 144 37 92 144 37 92 144 37 92 144 37 92 144 37 92 144 37 92 144 37 92 144 37 92 144 37 92 144 37 92 144 37 92 144 37 92 144 37 92 144 37 92 144 37 92 144 37 92 144 37 92 144 37 92 144 37 92 144 37 92 144 37 92 144 37 92 144 37 92 144 37 92 144 37 92 144 37 92 144 37 92 144 37 92 144 37 92 144 37 92 144 37 92 144 37 92 144 37 92 144 37 92 143 37 93 146 34 86 133 
35 88 138 38 96 150 39 95 148 35 95 150 23 77 128 99 110 119 218 214 199 255 255 252 223 224 211 46 46 47 31 31 33 38 38 39 37 37 38 37 37 38 41 41 42 5 5 5 35 35 35 146 146 145 140 140 139 142 142 140 142 142 140 141 141 140 152 152 151 138 139 139 41 39 37 78 75 72 79 103 125 24 80 133 23 86 144 26 87 145 29 90 147 35 94 150 40 98 151 41 97 149 38 95 148 38 95 148 38 95 148 38 95 148 38 95 148 38 95 148 38 95 148 38 95 148 38 95 148 38 95 148 38 95 148 38 95 148 38 95 148 38 95 148 38 95 148 38 95 148 38 95 148 38 95 148 38 95 148 38 95 148 38 95 148 38 95 148 38 95 148 38 95 148 38 95 148 38 95 148 38 95 148 38 95 148 38 95 148 38 95 148 38 95 148 38 95 148 38 95 148 38 95 148 38 95 148 38 95 148 38 95 148 38 95 148 38 95 148 38 95 148 38 95 148 38 95 148 38 95 148 38 95 148 38 95 148 38 95 148 38 95 148 38 95 148 38 95 148 38 95 148 38 95 148 38 95 148 38 95 148 38 95 148 38 95 148 38 95 148 38 95 148 38 97 151 35 88 138 
36 91 142 40 100 155 37 97 152 49 106 158 166 178 179 239 235 218 255 255 247 255 255 241 197 197 187 143 143 137 152 152 145 147 147 141 144 144 138 141 141 135 142 142 137 119 119 114 114 114 108 172 172 165 167 167 160 160 160 154 156 156 150 152 152 147 148 148 142 157 157 152 81 82 79 42 42 40 120 115 106 117 127 131 114 144 167 101 134 160 79 119 153 51 101 146 29 89 144 26 90 150 36 98 154 39 99 153 39 98 153 39 98 153 39 98 153 39 98 153 39 98 153 39 98 153 39 98 153 39 98 153 39 98 153 39 98 153 39 98 153 39 98 153 39 98 153 39 98 153 39 98 153 39 98 153 39 98 153 39 98 153 39 98 153 39 98 153 39 98 153 39 98 153 39 98 153 39 98 153 39 98 153 39 98 153 39 98 153 39 98 153 39 98 153 39 98 153 39 98 153 39 98 153 39 98 153 39 98 153 39 98 153 39 98 153 39 98 153 39 98 153 39 98 153 39 98 153 39 98 153 39 98 153 39 98 153 39 98 153 39 98 153 39 98 153 39 98 153 39 98 153 39 98 153 39 98 153 39 98 153 39 98 153 39 98 153 39 98 153 39 98 153 40 100 155 36 91 142 
37 94 146 42 103 159 36 101 162 56 88 116 239 235 222 255 255 248 245 245 232 251 251 238 224 224 212 226 226 215 240 240 227 237 237 224 237 237 225 237 237 224 238 238 225 237 237 224 215 215 203 209 209 198 219 219 207 236 236 223 234 234 221 233 233 220 236 236 223 224 224 212 141 141 133 165 165 156 224 225 213 247 245 230 245 240 223 243 239 221 237 234 218 221 221 209 181 191 189 111 140 162 51 104 152 38 100 157 41 102 158 40 101 158 40 101 158 40 101 158 40 101 158 40 101 158 40 101 158 40 101 158 40 101 158 40 101 158 40 101 158 40 101 158 40 101 158 40 101 158 40 101 158 40 101 158 40 101 158 40 101 158 40 101 158 40 101 158 40 101 158 40 101 158 40 101 158 40 101 158 40 101 158 40 101 158 40 101 158 40 101 158 40 101 158 40 101 158 40 101 158 40 101 158 40 101 158 40 101 158 40 101 158 40 101 158 40 101 158 40 101 158 40 101 158 40 101 158 40 101 158 40 101 158 40 101 158 40 101 158 40 101 158 40 101 158 40 101 158 40 101 158 40 101 158 40 101 158 40 101 158 40 101 158 40 101 158 40 101 158 40 101 157 41 103 160 37 94 146 
38 97 150 42 105 163 39 107 170 28 57 84 219 215 201 247 248 238 248 248 238 255 255 250 249 249 243 233 233 223 245 245 234 241 241 230 241 241 230 241 241 230 240 240 229 240 240 229 205 205 196 200 200 191 217 217 207 240 240 230 237 237 226 237 237 226 236 236 225 236 236 226 248 248 236 233 233 222 212 212 203 233 234 223 240 241 231 244 245 235 244 245 234 238 238 227 236 234 221 241 234 215 64 75 82 32 96 155 43 106 164 41 104 162 41 104 162 41 104 162 41 104 162 41 104 162 41 104 162 41 104 162 41 104 162 41 104 162 41 104 162 41 104 162 41 104 162 41 104 162 41 104 162 41 104 162 41 104 162 41 104 162 41 104 162 41 104 162 41 104 162 41 104 162 41 104 162 41 104 162 41 104 162 41 104 162 41 104 162 41 104 162 41 104 162 41 104 162 41 104 162 41 104 162 41 104 162 41 104 162 41 104 162 41 104 162 41 104 162 41 104 162 41 104 162 41 104 162 41 104 162 41 104 162 41 104 162 41 104 162 41 104 162 41 104 162 41 104 162 41 104 162 41 104 162 41 104 162 41 104 162 41 104 162 41 104 162 41 104 162 41 104 162 42 106 164 38 97 150 
39 99 155 45 110 171 34 99 159 143 155 162 246 243 231 247 247 238 215 215 207 136 136 131 128 128 123 163 163 156 227 227 218 242 242 233 240 240 230 240 240 231 240 240 231 241 241 232 219 219 210 248 248 238 246 246 236 241 241 231 242 242 232 242 242 232 242 242 232 242 242 232 241 241 232 234 234 225 222 222 213 252 252 242 182 182 174 132 132 127 142 142 136 210 210 202 247 248 240 248 247 237 75 82 86 22 84 142 47 112 172 42 107 166 42 107 167 42 107 167 42 107 167 42 107 167 42 107 167 42 107 167 42 107 167 42 107 167 42 107 167 42 107 167 42 107 167 42 107 167 42 107 167 42 107 167 42 107 167 42 107 167 42 107 167 42 107 167 42 107 167 42 107 167 42 107 167 42 107 167 42 107 167 42 107 167 42 107 167 42 107 167 42 107 167 42 107 167 42 107 167 42 107 167 42 107 167 42 107 167 42 107 167 42 107 167 42 107 167 42 107 167 42 107 167 42 107 167 42 107 167 42 107 167 42 107 167 42 107 167 42 107 167 42 107 167 42 107 167 42 107 167 42 107 167 42 107 167 42 107 167 42 107 167 42 107 167 42 107 167 42 107 166 43 109 169 39 99 155 
41 102 159 43 112 175 45 106 163 219 224 224 255 255 249 198 199 193 51 51 51 40 40 41 44 44 45 38 38 38 114 114 111 227 227 220 232 232 225 231 231 224 231 231 224 233 233 225 208 208 202 228 228 221 231 231 224 231 231 224 231 231 224 231 231 224 231 231 224 231 231 224 233 233 226 221 221 214 223 223 216 138 138 134 31 31 32 43 43 44 41 41 42 41 41 41 179 179 174 245 246 239 211 207 196 73 114 151 38 109 174 45 111 171 44 110 171 44 110 171 44 110 171 44 110 171 44 110 171 44 110 171 44 110 171 44 110 171 44 110 171 44 110 171 44 110 171 44 110 171 44 110 171 44 110 171 44 110 171 44 110 171 44 110 171 44 110 171 44 110 171 44 110 171 44 110 171 44 110 171 44 110 171 44 110 171 44 110 171 44 110 171 44 110 171 44 110 171 44 110 171 44 110 171 44 110 171 44 110 171 44 110 171 44 110 171 44 110 171 44 110 171 44 110 171 44 110 171 44 110 171 44 110 171 44 110 171 44 110 171 44 110 171 44 110 171 44 110 171 44 110 171 44 110 171 44 110 171 44 110 171 44 110 171 44 110 171 44 110 171 43 110 171 44 112 174 40 102 159 
42 105 163 46 116 181 41 105 164 145 150 152 204 203 197 83 84 83 47 47 47 39 39 39 31 31 30 51 51 51 46 46 46 177 177 173 253 253 248 244 244 239 245 246 240 247 247 241 221 221 217 245 245 240 246 246 241 246 246 241 246 246 241 246 246 241 246 246 241 246 246 240 247 247 242 241 241 236 202 202 198 56 56 56 51 51 51 29 29 29 38 38 38 47 47 47 86 86 85 249 250 246 255 255 250 131 161 187 30 103 171 48 115 177 45 113 176 45 113 176 45 113 176 45 113 176 45 113 176 45 113 176 45 113 176 45 113 176 45 113 176 45 113 176 45 113 176 45 113 176 45 113 176 45 113 176 45 113 176 45 113 176 45 113 176 45 113 176 45 113 176 45 113 176 45 113 176 45 113 176 45 113 176 45 113 176 45 113 176 45 113 176 45 113 176 45 113 176 45 113 176 45 113 176 45 113 176 45 113 176 45 113 176 45 113 176 45 113 176 45 113 176 45 113 176 45 113 176 45 113 176 45 113 176 45 113 176 45 113 176 45 113 176 45 113 176 45 113 176 45 113 176 45 113 176 45 113 176 45 113 176 45 113 176 45 113 176 45 113 176 45 113 175 45 115 178 41 105 163 
41 107 167 45 118 185 43 111 174 5 13 21 0 0 0 42 42 43 43 43 43 23 23 23 32 32 32 28 28 28 53 52 52 58 58 58 96 96 94 92 92 91 93 93 92 93 93 91 83 83 82 93 93 91 92 92 91 92 92 91 92 92 91 92 92 91 92 92 90 92 92 90 92 92 91 91 91 89 67 67 66 54 54 54 26 26 26 31 31 31 26 26 26 39 39 39 56 55 55 82 83 82 90 84 78 64 104 140 41 117 187 45 115 179 44 116 181 44 116 181 44 116 181 44 116 181 44 116 181 44 116 181 44 116 181 44 116 181 44 116 181 44 116 181 44 116 181 44 116 181 44 116 181 44 116 181 44 116 181 44 116 181 44 116 181 44 116 181 44 116 181 44 116 181 44 116 181 44 116 181 44 116 181 44 116 181 44 116 181 44 116 181 44 116 181 44 116 181 44 116 181 44 116 181 44 116 181 44 116 181 44 116 181 44 116 181 44 116 181 44 116 181 44 116 181 44 116 181 44 116 181 44 116 181 44 116 181 44 116 181 44 116 181 44 116 181 44 116 181 44 116 181 44 116 181 44 116 181 44 116 181 44 116 181 44 116 181 44 116 181 44 115 180 45 117 183 41 107 168 
80 114 146 87 125 159 87 124 159 81 110 136 46 56 65 50 50 50 44 44 44 23 23 23 30 30 30 26 26 26 61 62 62 16 16 17 0 0 0 1 1 1 0 0 0 0 0 0 0 0 0 0 0 0 0 0 0 0 0 0 0 0 0 0 0 0 0 0 0 0 0 0 0 0 0 0 0 0 8 9 9 59 60 60 27 27 27 28 28 28 24 24 24 42 42 42 49 50 50 4 6 8 22 30 36 74 108 139 89 127 162 86 123 156 86 123 157 86 123 157 86 123 157 86 123 157 86 123 157 86 123 157 86 123 157 86 123 157 86 123 157 86 123 157 86 123 157 86 123 157 86 123 157 86 123 157 86 123 157 86 123 157 86 123 157 86 123 157 86 123 157 86 123 157 86 123 157 86 123 157 86 123 157 86 123 157 86 123 157 86 123 157 86 123 157 86 123 157 86 123 157 86 123 157 86 123 157 86 123 157 86 123 157 86 123 157 86 123 157 86 123 157 86 123 157 86 123 157 86 123 157 86 123 157 86 123 157 86 123 157 86 123 157 86 123 157 86 123 157 86 123 157 86 123 157 86 123 157 86 123 157 86 123 157 86 123 157 86 123 157 86 123 157 88 125 160 80 114 146 
107 107 107 117 117 117 115 114 114 117 119 121 120 123 126 104 105 106 68 68 68 42 42 42 34 34 34 53 53 53 90 90 91 103 104 105 95 95 95 97 97 97 97 97 97 98 99 99 98 98 99 98 99 99 100 101 101 101 102 102 101 102 102 102 103 103 104 105 105 104 104 105 104 105 105 104 105 106 109 110 111 91 92 92 56 56 56 34 34 34 38 38 38 66 66 66 103 104 105 119 121 122 123 126 130 118 118 119 115 115 114 115 115 115 115 115 115 115 115 115 115 115 115 115 115 115 115 115 115 115 115 115 115 115 115 115 115 115 115 115 115 115 115 115 115 115 115 115 115 115 115 115 115 115 115 115 115 115 115 115 115 115 115 115 115 115 115 115 115 115 115 115 115 115 115 115 115 115 115 115 115 115 115 115 115 115 115 115 115 115 115 115 115 115 115 115 115 115 115 115 115 115 115 115 115 115 115 115 115 115 115 115 115 115 115 115 115 115 115 115 115 115 115 115 115 115 115 115 115 115 115 115 115 115 115 115 115 115 115 115 115 115 115 115 115 115 115 115 115 115 115 115 115 115 115 115 115 115 115 115 115 115 115 115 115 115 115 115 115 115 115 115 115 117 117 117 107 107 107 
62 62 62 68 68 68 67 67 67 67 66 66 66 66 65 70 70 70 64 64 64 59 59 59 59 59 59 61 61 61 69 68 68 71 71 71 72 72 72 72 72 72 72 72 72 72 72 72 72 72 72 72 72 72 71 71 71 71 71 71 71 71 71 71 71 71 71 71 71 71 71 71 71 71 70 71 70 70 70 70 70 69 69 69 61 61 61 60 60 60 59 59 59 64 64 64 70 70 70 68 67 67 67 66 65 67 67 67 67 67 67 67 67 67 67 67 67 67 67 67 67 67 67 67 67 67 67 67 67 67 67 67 67 67 67 67 67 67 67 67 67 67 67 67 67 67 67 67 67 67 67 67 67 67 67 67 67 67 67 67 67 67 67 67 67 67 67 67 67 67 67 67 67 67 67 67 67 67 67 67 67 67 67 67 67 67 67 67 67 67 67 67 67 67 67 67 67 67 67 67 67 67 67 67 67 67 67 67 67 67 67 67 67 67 67 67 67 67 67 67 67 67 67 67 67 67 67 67 67 67 67 67 67 67 67 67 67 67 67 67 67 67 67 67 67 67 67 67 67 67 67 67 67 67 67 67 67 67 67 67 67 67 67 67 67 67 67 67 67 67 67 67 67 68 68 68 62 62 62 
20 20 20 21 21 22 21 21 21 21 21 21 21 21 21 21 21 21 22 22 22 21 21 21 21 21 21 22 22 22 21 21 21 20 20 20 20 20 20 20 20 20 20 20 20 20 20 20 20 20 20 20 20 20 20 20 20 20 20 20 20 20 20 20 20 20 20 20 20 20 20 20 20 20 20 20 20 20 20 20 21 21 21 21 22 22 22 21 21 21 21 21 21 22 22 22 21 21 21 21 21 21 21 21 21 21 21 21 21 21 21 21 21 21 21 21 21 21 21 21 21 21 21 21 21 21 21 21 21 21 21 21 21 21 21 21 21 21 21 21 21 21 21 21 21 21 21 21 21 21 21 21 21 21 21 21 21 21 21 21 21 21 21 21 21 21 21 21 21 21 21 21 21 21 21 21 21 21 21 21 21 21 21 21 21 21 21 21 21 21 21 21 21 21 21 21 21 21 21 21 21 21 21 21 21 21 21 21 21 21 21 21 21 21 21 21 21 21 21 21 21 21 21 21 21 21 21 21 21 21 21 21 21 21 21 21 21 21 21 21 21 21 21 21 21 21 21 21 21 21 21 21 21 21 21 21 21 21 21 21 21 21 21 21 21 21 21 21 21 21 21 21 21 21 21 22 20 20 20 
