P3
# Created by IrfanView
76 30
255
255 255 255 255 255 255 255 255 255 255 255 255 255 255 255 
255 255 255 255 255 255 255 255 255 255 255 255 255 255 255 
227 227 227 186 186 185 157 157 156 133 133 133 113 113 113 
94 94 94 78 78 78 66 66 66 51 51 51 44 44 44 
30 30 30 25 25 24 16 16 16 7 7 7 8 8 8 
9 9 8 7 7 6 4 4 4 4 4 4 4 4 4 
4 4 4 4 4 4 5 5 5 8 8 8 9 9 9 
7 7 7 18 18 18 28 28 27 42 42 42 55 55 55 
76 76 75 101 101 100 133 133 133 182 182 182 246 246 246 
255 255 255 255 255 255 255 255 255 255 255 255 255 255 255 
255 255 255 255 255 255 255 255 255 255 255 255 255 255 255 
255 255 255 255 255 255 255 255 255 255 255 255 255 255 255 
255 255 255 255 255 255 255 255 255 255 255 255 255 255 255 
255 255 255 255 255 255 255 255 255 255 255 255 255 255 255 
255 255 255 255 255 255 255 255 255 255 255 255 255 255 255 
255 255 255 255 255 255 255 255 255 255 255 255 255 255 255 
255 255 255 255 255 255 255 255 255 255 255 255 255 255 255 
255 255 255 187 187 187 0 0 0 0 0 0 0 0 0 
0 0 0 0 0 0 22 22 20 48 48 44 0 0 0 
0 0 0 0 0 0 0 0 0 2 2 2 5 5 5 
6 6 6 8 8 8 8 8 8 10 10 10 3 3 3 
0 0 0 0 0 0 103 103 102 78 78 79 71 71 70 
67 67 67 57 57 58 48 48 48 33 33 34 17 17 16 
0 0 0 0 0 0 0 0 0 0 0 0 0 0 0 
64 64 63 134 134 133 248 248 248 255 255 255 255 255 255 
255 255 255 255 255 255 255 255 255 255 255 255 255 255 255 
255 255 255 255 255 255 255 255 255 255 255 255 255 255 255 
255 255 255 255 255 255 255 255 255 255 255 255 255 255 255 
255 255 255 255 255 255 255 255 255 255 255 255 255 255 255 
255 255 255 255 255 255 255 255 255 255 255 255 255 255 255 
255 255 255 255 255 255 255 255 255 255 255 255 255 255 255 
255 255 255 255 255 255 255 255 255 255 255 255 255 255 255 
255 255 255 255 255 255 222 222 223 74 74 77 84 84 80 
255 255 255 255 255 255 255 255 255 255 255 255 87 87 86 
3 3 3 15 15 15 15 15 15 14 14 14 14 14 14 
14 14 14 14 14 14 14 14 14 14 14 14 16 16 16 
6 6 6 0 0 0 0 0 0 162 162 161 157 157 154 
151 151 149 152 152 150 154 154 151 155 155 153 157 157 155 
160 160 158 163 163 161 168 168 166 163 163 160 125 125 124 
35 35 34 0 0 0 115 115 114 117 117 114 145 145 143 
254 254 255 255 255 255 255 255 255 255 255 255 255 255 255 
255 255 255 255 255 255 255 255 255 255 255 255 255 255 255 
255 255 255 255 255 255 255 255 255 255 255 255 255 255 255 
255 255 255 255 255 255 255 255 255 255 255 255 255 255 255 
255 255 255 255 255 255 255 255 255 255 255 255 255 255 255 
255 255 255 255 255 255 255 255 255 255 255 255 255 255 255 
255 255 255 255 255 255 255 255 255 255 255 255 255 255 255 
255 255 255 255 255 255 147 147 147 108 108 108 167 167 161 
255 255 255 255 255 255 255 255 248 255 255 255 137 137 133 
0 0 0 5 5 6 12 12 12 12 12 12 12 12 12 
12 12 12 12 12 12 12 12 12 12 12 12 12 12 12 
14 14 14 6 6 6 0 0 0 0 0 0 128 128 125 
171 171 169 157 157 155 157 157 155 157 157 155 157 157 155 
157 157 155 157 157 155 157 157 155 158 158 156 161 161 159 
169 169 167 181 181 179 133 133 132 0 0 0 24 24 23 
160 160 159 124 124 121 156 156 155 255 255 255 255 255 255 
255 255 255 255 255 255 255 255 255 255 255 255 255 255 255 
255 255 255 255 255 255 255 255 255 255 255 255 255 255 255 
255 255 255 255 255 255 255 255 255 255 255 255 255 255 255 
255 255 255 255 255 255 255 255 255 255 255 255 255 255 255 
255 255 255 255 255 255 255 255 255 255 255 255 255 255 255 
255 255 255 255 255 255 255 255 255 255 255 255 255 255 255 
255 255 255 242 242 243 115 115 113 118 118 117 194 194 183 
255 255 255 255 255 247 255 255 242 255 255 255 221 221 213 
0 0 0 0 0 0 11 11 11 11 11 11 11 11 11 
11 11 11 11 11 11 11 11 11 11 11 11 11 11 11 
11 11 11 13 13 13 9 9 9 0 0 0 0 0 0 
77 77 76 175 175 173 153 153 151 153 153 151 153 153 151 
153 153 151 153 153 151 153 153 151 153 153 151 153 153 151 
153 153 151 153 153 151 156 156 154 169 169 166 178 178 176 
53 53 52 0 0 0 92 92 90 174 174 171 115 115 112 
195 195 194 255 255 255 255 255 255 255 255 255 255 255 255 
255 255 255 255 255 255 255 255 255 255 255 255 255 255 255 
255 255 255 255 255 255 255 255 255 255 255 255 255 255 255 
255 255 255 255 255 255 255 255 255 255 255 255 255 255 255 
255 255 255 255 255 255 255 255 255 255 255 255 255 255 255 
255 255 255 255 255 255 255 255 255 255 255 255 255 255 255 
255 255 255 203 203 202 109 109 108 120 120 122 222 222 210 
255 255 255 255 255 245 255 255 241 255 255 252 255 255 249 
46 46 46 3 3 4 26 26 26 27 27 27 27 27 27 
27 27 27 27 27 27 27 27 27 27 27 27 27 27 27 
27 27 27 27 27 27 29 29 29 24 24 24 0 0 0 
0 0 0 29 29 28 184 184 182 153 153 151 153 153 151 
153 153 151 153 153 151 153 153 151 153 153 151 153 153 151 
153 153 151 153 153 151 153 153 151 153 153 151 153 153 151 
161 161 159 178 178 176 135 135 132 0 0 0 7 7 6 
163 163 161 148 148 145 126 126 123 251 251 252 255 255 255 
255 255 255 255 255 255 255 255 255 255 255 255 255 255 255 
255 255 255 255 255 255 255 255 255 255 255 255 255 255 255 
255 255 255 255 255 255 255 255 255 255 255 255 255 255 255 
255 255 255 255 255 255 255 255 255 255 255 255 255 255 255 
255 255 255 255 255 255 255 255 255 255 255 255 255 255 255 
255 255 255 173 173 174 114 114 113 127 127 127 241 241 225 
255 255 255 255 255 243 255 255 240 255 255 244 255 255 246 
171 171 165 2 2 4 36 36 37 42 42 42 42 42 42 
42 42 42 42 42 42 42 42 42 42 42 42 42 42 42 
42 42 42 42 42 42 42 42 42 43 43 43 43 43 43 
0 0 0 0 0 0 0 0 0 193 193 191 154 154 152 
153 153 151 153 153 151 153 153 151 153 153 151 153 153 151 
153 153 151 153 153 151 153 153 151 153 153 151 153 153 151 
153 153 151 153 153 151 156 156 154 170 170 168 172 172 170 
24 24 25 0 0 0 137 137 135 173 173 171 116 116 113 
194 194 193 255 255 255 255 255 255 255 255 255 255 255 255 
255 255 255 255 255 255 255 255 255 255 255 255 255 255 255 
255 255 255 255 255 255 255 255 255 255 255 255 255 255 255 
255 255 255 255 255 255 255 255 255 255 255 255 255 255 255 
255 255 255 255 255 255 255 255 255 255 255 255 255 255 255 
255 255 255 131 131 131 100 100 100 136 136 133 255 255 244 
255 255 252 255 255 242 255 255 240 255 255 242 255 255 240 
255 255 244 30 30 32 41 41 42 55 55 55 55 55 55 
55 55 55 55 55 55 55 55 55 55 55 55 55 55 55 
55 55 55 55 55 55 55 55 55 55 55 55 56 56 56 
65 65 65 0 0 0 0 0 0 0 0 0 181 181 180 
164 164 162 159 159 157 159 159 157 159 159 157 159 159 157 
159 159 157 159 159 157 159 159 157 159 159 157 159 159 157 
159 159 157 159 159 157 159 159 157 159 159 157 160 160 158 
171 171 169 204 204 201 0 0 0 0 0 0 80 80 79 
182 182 179 143 143 142 137 137 136 255 255 255 255 255 255 
255 255 255 255 255 255 255 255 255 255 255 255 255 255 255 
255 255 255 255 255 255 255 255 255 255 255 255 255 255 255 
255 255 255 255 255 255 255 255 255 255 255 255 255 255 255 
255 255 255 255 255 255 255 255 255 255 255 255 255 255 255 
255 255 255 146 146 144 88 88 85 187 187 176 255 255 255 
255 255 250 255 255 241 255 255 240 255 255 240 255 255 245 
219 219 210 229 229 218 0 0 0 28 28 31 33 33 36 
34 34 37 35 35 38 36 36 39 37 37 40 38 38 40 
39 39 41 39 39 42 40 40 43 41 41 44 42 42 44 
43 43 46 57 57 60 0 0 0 0 0 0 0 0 0 
78 78 81 114 114 115 109 109 110 110 110 111 111 111 112 
112 112 113 112 112 113 113 113 114 114 114 115 115 115 116 
116 116 117 116 116 117 117 117 118 119 119 119 119 119 120 
120 120 121 121 121 121 153 153 153 0 0 0 0 0 0 
0 0 0 0 0 0 108 108 108 100 100 100 70 70 71 
202 202 204 255 255 255 255 255 255 255 255 255 255 255 255 
255 255 255 255 255 255 255 255 255 255 255 255 255 255 255 
255 255 255 255 255 255 255 255 255 255 255 255 255 255 255 
255 255 255 255 255 255 255 255 255 255 255 255 255 255 255 
255 255 255 225 225 216 255 255 255 255 255 255 255 255 255 
255 255 244 254 254 239 254 254 239 254 254 239 254 254 239 
255 255 244 217 217 206 246 246 234 255 255 255 251 251 237 
239 239 227 234 234 222 229 229 217 226 226 214 221 221 209 
215 215 206 210 210 201 207 207 196 202 202 193 197 197 188 
193 193 184 188 188 179 192 192 183 187 187 176 159 159 151 
164 164 155 171 171 162 177 177 168 167 167 158 159 159 152 
152 152 145 151 151 144 151 151 144 146 146 139 136 136 131 
130 130 124 130 130 125 127 127 121 122 122 118 116 116 112 
107 107 103 109 109 105 119 119 116 143 143 140 86 86 81 
64 64 60 46 46 44 34 34 31 61 61 58 79 79 75 
75 75 70 80 80 74 182 182 173 181 181 174 182 182 175 
182 182 176 184 184 180 183 183 182 200 200 202 237 237 241 
255 255 255 255 255 255 255 255 255 255 255 255 255 255 255 
255 255 255 255 255 255 255 255 255 255 255 255 255 255 255 
255 255 255 240 240 234 255 255 255 255 255 245 252 252 238 
252 252 238 252 252 238 252 252 238 252 252 238 252 252 238 
252 252 238 255 255 240 255 255 241 188 188 176 230 230 217 
255 255 250 255 255 255 255 255 255 255 255 255 255 255 255 
255 255 255 255 255 255 255 255 255 255 255 255 255 255 255 
255 255 255 255 255 255 255 255 255 255 255 255 255 255 255 
248 248 235 255 255 255 255 255 255 255 255 255 255 255 255 
255 255 255 255 255 255 255 255 255 255 255 255 255 255 255 
255 255 255 255 255 255 255 255 255 255 255 255 255 255 255 
255 255 255 255 255 255 255 255 255 255 255 255 89 89 85 
107 107 101 102 102 97 239 239 225 251 251 237 255 255 255 
255 255 255 255 255 255 255 255 255 255 255 255 255 255 249 
255 255 248 255 255 248 255 255 247 255 255 246 255 255 237 
219 219 202 185 185 171 183 183 174 183 183 183 228 228 232 
255 255 255 255 255 255 255 255 255 255 255 255 255 255 255 
255 255 255 255 255 255 0 0 0 185 185 174 255 255 255 
250 250 237 250 250 237 250 250 237 250 250 237 250 250 237 
250 250 237 250 250 237 250 250 237 255 255 244 219 219 207 
255 255 247 219 219 207 216 216 205 216 216 205 216 216 205 
216 216 205 216 216 205 218 218 205 218 218 205 218 218 204 
218 218 206 218 218 204 218 218 206 218 218 206 218 218 206 
221 221 210 199 199 187 215 215 203 227 227 213 226 226 212 
226 226 212 227 227 213 227 227 213 228 228 213 231 231 218 
240 240 225 248 248 235 255 255 242 255 255 246 255 255 246 
255 255 246 255 255 246 255 255 246 255 255 248 255 255 253 
140 140 132 153 153 144 141 141 133 223 223 210 218 218 206 
255 255 254 255 255 247 255 255 246 255 255 246 255 255 245 
255 255 245 255 255 245 255 255 245 255 255 245 255 255 246 
255 255 248 255 255 251 255 255 254 255 255 253 255 255 250 
222 222 205 183 183 173 188 188 186 251 251 253 255 255 255 
255 255 255 255 255 255 255 255 255 0 0 0 92 92 89 
255 255 255 248 248 236 248 248 236 248 248 236 248 248 236 
248 248 236 248 248 236 248 248 236 248 248 236 251 251 239 
232 232 219 239 239 227 255 255 243 254 254 242 254 254 242 
254 254 242 254 254 242 254 254 242 254 254 242 254 254 242 
254 254 242 254 254 242 254 254 242 254 254 242 254 254 242 
254 254 242 255 255 243 255 255 247 222 222 213 225 225 214 
224 224 213 225 225 214 220 220 210 231 231 221 248 248 238 
242 242 230 233 233 223 225 225 213 216 216 205 212 212 203 
212 212 203 213 213 203 213 213 203 213 213 203 214 214 204 
223 223 212 232 232 221 240 240 229 238 238 225 232 232 220 
211 211 199 199 199 189 218 218 206 215 215 203 215 215 205 
217 217 205 217 217 205 216 216 205 218 218 205 218 218 205 
218 218 207 220 220 206 220 220 206 221 221 208 236 236 221 
255 255 242 255 255 253 255 255 255 255 255 255 234 234 219 
211 211 204 255 255 255 255 255 255 255 255 255 0 0 0 
143 143 137 255 255 255 244 244 233 244 244 233 244 244 233 
244 244 233 244 244 233 244 244 233 244 244 233 244 244 233 
245 245 234 249 249 239 210 210 201 249 249 238 245 245 234 
244 244 233 244 244 233 244 244 233 244 244 233 244 244 233 
244 244 233 244 244 233 244 244 233 244 244 233 244 244 233 
244 244 233 244 244 233 244 244 233 250 250 239 214 214 205 
230 230 220 216 216 207 217 217 208 215 215 205 239 239 230 
247 247 236 246 246 235 247 247 236 249 249 238 250 250 239 
250 250 239 250 250 239 250 250 239 250 250 239 250 250 239 
250 250 239 250 250 239 250 250 239 250 250 239 250 250 239 
251 251 240 255 255 245 216 216 207 255 255 244 250 250 239 
250 250 239 250 250 239 250 250 239 250 250 239 249 249 239 
249 249 239 249 249 239 249 249 239 249 249 239 249 249 238 
235 235 225 216 216 208 210 210 202 212 212 202 230 230 219 
202 202 190 0 0 0 193 193 194 255 255 255 247 247 247 
0 0 0 250 250 237 255 255 246 244 244 233 244 244 233 
244 244 233 244 244 233 244 244 233 244 244 233 244 244 233 
244 244 233 244 244 233 248 248 236 225 225 214 236 236 224 
248 248 236 245 245 234 244 244 233 244 244 233 244 244 233 
244 244 233 244 244 233 244 244 233 244 244 233 244 244 233 
244 244 233 244 244 233 244 244 233 244 244 233 250 250 239 
212 212 202 254 254 242 250 250 238 250 250 239 249 249 237 
247 247 235 245 245 233 244 244 233 244 244 233 244 244 233 
244 244 233 244 244 233 244 244 233 244 244 233 244 244 233 
244 244 233 244 244 233 244 244 233 244 244 233 244 244 233 
244 244 233 244 244 233 250 250 239 211 211 201 250 250 239 
244 244 233 244 244 233 244 244 233 244 244 233 244 244 233 
244 244 233 244 244 233 244 244 233 244 244 233 244 244 233 
245 245 234 247 247 235 249 249 237 250 250 238 250 250 238 
255 255 255 176 176 168 0 0 0 255 255 255 255 255 255 
172 172 172 36 36 33 255 255 255 244 244 234 240 240 230 
240 240 230 240 240 230 244 244 233 255 255 245 255 255 255 
255 255 255 255 255 255 255 255 255 255 255 255 255 255 255 
232 232 223 231 231 223 244 244 234 242 242 232 240 240 230 
240 240 230 240 240 230 240 240 230 240 240 230 240 240 230 
240 240 230 240 240 230 240 240 230 240 240 230 240 240 230 
247 247 236 207 207 198 247 247 236 240 240 230 240 240 230 
240 240 230 240 240 230 240 240 230 240 240 230 240 240 230 
240 240 230 240 240 230 240 240 230 240 240 230 240 240 230 
240 240 230 240 240 230 240 240 230 240 240 230 240 240 230 
240 240 230 240 240 230 240 240 230 247 247 236 207 207 198 
247 247 236 240 240 230 241 241 231 250 250 239 255 255 253 
255 255 255 255 255 255 255 255 255 255 255 255 255 255 255 
255 255 255 252 252 242 242 242 232 240 240 230 240 240 230 
240 240 230 254 254 243 227 227 218 0 0 0 232 232 232 
255 255 255 204 204 198 255 255 253 252 252 242 239 239 230 
239 239 230 239 239 230 248 248 239 255 255 255 240 240 230 
105 105 102 18 18 20 0 0 0 0 0 0 12 12 14 
86 86 83 210 210 202 255 255 255 227 227 219 243 243 234 
240 240 231 239 239 230 239 239 230 239 239 230 239 239 230 
239 239 230 239 239 230 239 239 230 239 239 230 239 239 230 
239 239 230 245 245 236 205 205 198 245 245 236 239 239 230 
239 239 230 239 239 230 239 239 230 239 239 230 239 239 230 
239 239 230 239 239 230 239 239 230 239 239 230 239 239 230 
239 239 230 239 239 230 239 239 230 239 239 230 239 239 230 
239 239 230 239 239 230 239 239 230 239 239 230 245 245 236 
205 205 198 245 245 236 242 242 233 255 255 250 255 255 255 
158 158 151 56 56 56 1 1 2 0 0 0 0 0 1 
50 50 50 136 136 131 255 255 248 255 255 255 246 246 237 
239 239 230 239 239 230 244 244 235 255 255 255 0 0 0 
90 90 91 255 255 255 216 216 209 243 243 236 235 235 229 
235 235 229 235 235 229 245 245 239 255 255 255 141 141 135 
0 0 0 0 0 0 24 24 25 41 41 41 43 43 43 
31 31 31 5 5 6 0 0 0 74 74 72 255 255 255 
227 227 218 239 239 233 237 237 230 235 235 229 235 235 229 
235 235 229 235 235 229 235 235 229 235 235 229 235 235 229 
235 235 229 235 235 229 241 241 235 203 203 197 241 241 235 
235 235 229 235 235 229 235 235 229 235 235 229 235 235 229 
235 235 229 235 235 229 235 235 229 235 235 229 235 235 229 
235 235 229 235 235 229 235 235 229 235 235 229 235 235 229 
235 235 229 235 235 229 235 235 229 235 235 229 235 235 229 
241 241 235 203 203 197 243 243 237 255 255 251 233 233 225 
15 15 16 0 0 0 12 12 13 35 35 35 43 43 43 
37 37 37 17 17 17 0 0 0 0 0 0 166 166 161 
255 255 255 243 243 236 235 235 229 235 235 229 255 255 252 
210 210 203 0 0 0 223 223 223 214 214 208 239 239 232 
234 234 226 234 234 226 238 238 230 255 255 255 124 124 120 
0 0 0 31 31 31 75 75 76 95 95 95 98 98 98 
98 98 98 92 92 92 84 84 84 48 48 48 0 0 1 
44 44 43 255 255 255 220 220 214 237 237 230 234 234 226 
234 234 226 234 234 226 234 234 226 234 234 226 234 234 226 
234 234 226 234 234 226 234 234 226 240 240 232 202 202 194 
240 240 232 234 234 226 234 234 226 234 234 226 234 234 226 
234 234 226 234 234 226 234 234 226 234 234 226 234 234 226 
234 234 226 234 234 226 234 234 226 234 234 226 234 234 226 
234 234 226 234 234 226 234 234 226 234 234 226 234 234 226 
234 234 227 240 240 232 202 202 196 253 253 245 250 250 243 
0 0 1 11 11 11 59 59 59 89 89 89 95 95 95 
97 97 97 97 97 97 90 90 90 67 67 67 21 21 21 
0 0 0 157 157 153 255 255 253 235 235 227 234 234 226 
238 238 230 255 255 248 255 255 250 221 221 218 213 213 208 
237 237 231 232 232 226 232 232 226 249 249 243 218 218 212 
0 0 0 38 38 38 82 82 82 100 100 100 32 32 32 
0 0 0 119 119 119 5 5 5 97 97 97 88 88 88 
61 61 61 0 0 0 146 146 143 227 227 222 237 237 231 
233 233 227 232 232 226 232 232 226 232 232 226 232 232 226 
232 232 226 232 232 226 232 232 226 232 232 226 238 238 232 
200 200 194 238 238 232 232 232 226 232 232 226 232 232 226 
232 232 226 232 232 226 232 232 226 232 232 226 232 232 226 
232 232 226 232 232 226 232 232 226 232 232 226 232 232 226 
232 232 226 232 232 226 232 232 226 232 232 226 232 232 226 
232 232 226 234 234 228 230 230 224 208 208 204 255 255 255 
95 95 94 4 4 5 74 74 74 97 97 97 64 64 64 
0 0 0 123 123 123 0 0 0 59 59 59 106 106 106 
79 79 79 23 23 24 0 0 0 255 255 255 240 240 234 
232 232 226 232 232 226 232 232 226 236 236 229 216 216 212 
213 213 209 255 255 255 255 255 255 255 255 255 255 255 255 
77 77 75 13 13 14 86 86 86 86 86 86 92 92 92 
33 33 33 0 0 0 96 96 96 0 0 0 136 136 136 
56 56 56 96 96 96 37 37 38 5 5 5 255 255 255 
210 210 205 233 233 228 230 230 225 230 230 225 230 230 225 
230 230 225 230 230 225 230 230 225 230 230 225 230 230 225 
236 236 230 198 198 192 236 236 230 230 230 225 230 230 225 
230 230 225 230 230 225 230 230 225 230 230 225 230 230 225 
230 230 225 230 230 225 230 230 225 230 230 225 230 230 225 
230 230 225 230 230 225 230 230 225 230 230 225 230 230 225 
230 230 225 230 230 225 234 234 229 201 201 198 238 238 232 
255 255 255 0 0 0 56 56 56 103 103 103 32 32 32 
130 130 130 0 0 0 106 106 106 0 0 0 136 136 136 
25 25 25 104 104 104 71 71 71 0 0 0 162 162 157 
250 250 245 230 230 225 230 230 225 230 230 225 235 235 229 
213 213 209 52 52 51 0 0 0 33 33 33 66 66 64 
116 116 114 10 10 9 49 49 49 96 96 96 0 0 0 
0 0 0 84 84 84 34 34 34 39 39 39 67 67 67 
0 0 0 0 0 0 83 83 83 75 75 75 0 0 0 
221 221 217 229 229 225 255 255 253 252 252 248 252 252 248 
252 252 248 252 252 248 252 252 248 252 252 248 252 252 248 
252 252 248 255 255 253 219 219 217 255 255 253 252 252 248 
252 252 248 252 252 248 252 252 248 252 252 248 252 252 248 
252 252 248 252 252 248 252 252 248 252 252 248 252 252 248 
252 252 248 252 252 248 252 252 248 252 252 248 252 252 248 
252 252 248 252 252 248 252 252 248 255 255 253 219 219 217 
255 255 255 209 209 205 0 0 0 85 85 85 48 48 48 
0 0 0 61 61 61 25 25 25 43 43 43 26 26 26 
43 43 43 0 0 0 37 37 37 88 88 88 20 20 20 
98 98 98 255 255 255 252 252 248 252 252 248 252 252 248 
255 255 250 210 210 207 55 55 55 0 0 0 0 0 0 
0 0 0 0 0 0 25 25 25 74 74 74 103 103 103 
126 126 126 80 80 80 40 40 40 32 32 32 25 25 25 
41 41 41 55 55 55 132 132 132 108 108 108 89 89 89 
19 19 19 104 104 103 150 150 148 165 165 163 162 162 160 
162 162 160 162 162 160 162 162 160 162 162 160 162 162 160 
162 162 160 162 162 160 165 165 163 142 142 140 165 165 163 
162 162 160 162 162 160 162 162 160 162 162 160 162 162 160 
162 162 160 162 162 160 162 162 160 162 162 160 162 162 160 
162 162 160 162 162 160 162 162 160 162 162 160 162 162 160 
162 162 160 162 162 160 162 162 160 162 162 160 165 165 163 
142 142 140 173 173 170 105 105 104 27 27 27 98 98 98 
117 117 117 119 119 119 35 35 35 39 39 39 23 23 23 
40 40 40 36 36 36 116 116 116 116 116 116 101 101 101 
44 44 44 48 48 47 179 179 177 162 162 160 162 162 160 
162 162 160 143 143 141 151 151 149 89 89 89 0 0 0 
0 0 0 0 0 0 3 3 3 35 35 35 85 85 85 
49 49 49 0 0 0 4 4 4 24 24 24 32 32 32 
35 35 35 21 21 21 23 23 23 0 0 0 4 4 4 
93 93 93 39 39 39 0 0 0 0 0 0 0 0 0 
0 0 0 0 0 0 0 0 0 0 0 0 0 0 0 
0 0 0 0 0 0 0 0 0 0 0 0 0 0 0 
0 0 0 0 0 0 0 0 0 0 0 0 0 0 0 
0 0 0 0 0 0 0 0 0 0 0 0 0 0 0 
0 0 0 0 0 0 0 0 0 0 0 0 0 0 0 
0 0 0 0 0 0 0 0 0 0 0 0 0 0 0 
0 0 0 0 0 0 0 0 0 0 0 0 48 48 48 
102 102 102 0 0 0 0 0 0 34 34 34 18 18 18 
43 43 43 18 18 18 34 34 34 0 0 0 0 0 0 
105 105 105 58 58 58 4 4 4 0 0 0 0 0 0 
0 0 0 0 0 0 0 0 0 195 195 195 237 237 237 
179 179 179 89 89 89 0 0 0 0 0 0 32 32 32 
80 80 80 68 68 68 64 64 64 90 90 90 41 41 41 
26 26 26 26 26 26 38 38 38 77 77 77 123 123 123 
63 63 63 93 93 93 43 43 43 20 20 20 0 0 0 
0 0 0 0 0 0 0 0 0 0 0 0 0 0 0 
0 0 0 0 0 0 0 0 0 0 0 0 0 0 0 
0 0 0 0 0 0 0 0 0 0 0 0 0 0 0 
0 0 0 0 0 0 0 0 0 0 0 0 0 0 0 
0 0 0 0 0 0 0 0 0 0 0 0 0 0 0 
0 0 0 0 0 0 0 0 0 0 0 0 0 0 0 
0 0 0 0 0 0 0 0 0 0 0 0 20 20 20 
53 53 53 101 101 101 29 29 29 121 121 121 44 44 44 
23 23 23 39 39 39 26 26 26 41 41 41 136 136 136 
60 60 60 105 105 105 59 59 59 21 21 21 0 0 0 
0 0 0 0 0 0 0 0 0 0 0 0 252 252 252 
255 255 255 255 255 255 255 255 255 241 241 241 0 0 0 
0 0 0 36 36 36 108 108 108 33 33 33 0 0 0 
31 31 31 34 34 34 36 36 36 41 41 41 0 0 0 
0 0 0 97 97 97 63 63 63 1 1 1 0 0 0 
0 0 0 0 0 0 0 0 0 0 0 0 0 0 0 
0 0 0 0 0 0 0 0 0 0 0 0 0 0 0 
0 0 0 0 0 0 0 0 0 0 0 0 0 0 0 
0 0 0 0 0 0 0 0 0 0 0 0 0 0 0 
0 0 0 0 0 0 0 0 0 0 0 0 0 0 0 
0 0 0 0 0 0 0 0 0 0 0 0 0 0 0 
0 0 0 0 0 0 0 0 0 0 0 0 0 0 0 
0 0 0 11 11 11 72 72 72 107 107 107 0 0 0 
10 10 10 31 31 31 43 43 43 31 31 31 13 13 13 
0 0 0 54 54 54 80 80 80 17 17 17 0 0 0 
0 0 0 0 0 0 127 127 127 185 185 185 255 255 255 
255 255 255 255 255 255 255 255 255 255 255 255 255 255 255 
255 255 255 219 219 219 134 134 134 54 54 54 54 54 54 
16 16 16 94 94 94 26 26 26 40 40 40 48 48 48 
74 74 74 20 20 20 81 81 81 60 60 60 231 231 231 
187 187 187 135 135 135 140 140 140 144 144 144 147 147 147 
147 147 147 152 152 152 159 159 159 158 158 158 163 163 163 
170 170 170 169 169 169 173 173 173 176 176 176 176 176 176 
179 179 179 182 182 182 182 182 182 189 189 189 194 194 194 
193 193 193 198 198 198 203 203 203 203 203 203 208 208 208 
211 211 211 211 211 211 213 213 213 213 213 213 213 213 213 
214 214 214 214 214 214 214 214 214 216 216 216 216 216 216 
213 213 213 218 218 218 221 221 221 37 37 37 83 83 83 
0 0 0 150 150 150 0 0 0 83 83 83 0 0 0 
152 152 152 0 0 0 88 88 88 38 38 38 195 195 195 
222 222 222 219 219 219 255 255 255 255 255 255 255 255 255 
255 255 255 255 255 255 255 255 255 255 255 255 255 255 255 
255 255 255 255 255 255 255 255 255 255 255 255 55 55 55 
63 63 63 136 136 136 0 0 0 20 20 20 39 39 39 
0 0 0 116 116 116 79 79 79 28 28 28 224 224 224 
255 255 255 255 255 255 255 255 255 255 255 255 255 255 255 
255 255 255 255 255 255 255 255 255 255 255 255 255 255 255 
255 255 255 255 255 255 255 255 255 255 255 255 255 255 255 
255 255 255 255 255 255 255 255 255 255 255 255 255 255 255 
255 255 255 255 255 255 255 255 255 255 255 255 255 255 255 
255 255 255 255 255 255 255 255 255 255 255 255 255 255 255 
255 255 255 255 255 255 255 255 255 255 255 255 255 255 255 
255 255 255 255 255 255 255 255 255 255 255 255 167 167 167 
38 38 38 110 110 110 57 57 57 0 0 0 122 122 122 
0 0 0 67 67 67 99 99 99 50 50 50 116 116 116 
255 255 255 255 255 255 255 255 255 255 255 255 255 255 255 
255 255 255 255 255 255 255 255 255 255 255 255 255 255 255 
255 255 255 255 255 255 255 255 255 255 255 255 255 255 255 
255 255 255 52 52 52 42 42 42 79 79 79 104 104 104 
108 108 108 89 89 89 58 58 58 21 21 21 199 199 199 
255 255 255 255 255 255 255 255 255 255 255 255 255 255 255 
255 255 255 255 255 255 255 255 255 255 255 255 255 255 255 
255 255 255 255 255 255 255 255 255 255 255 255 255 255 255 
255 255 255 255 255 255 255 255 255 255 255 255 255 255 255 
255 255 255 255 255 255 255 255 255 255 255 255 255 255 255 
255 255 255 255 255 255 255 255 255 255 255 255 255 255 255 
255 255 255 255 255 255 255 255 255 255 255 255 255 255 255 
255 255 255 255 255 255 255 255 255 255 255 255 255 255 255 
255 255 255 144 144 144 22 22 22 67 67 67 88 88 88 
121 121 121 89 89 89 72 72 72 27 27 27 104 104 104 
255 255 255 255 255 255 255 255 255 255 255 255 255 255 255 
255 255 255 255 255 255 255 255 255 255 255 255 255 255 255 
255 255 255 255 255 255 255 255 255 255 255 255 255 255 255 
255 255 255 255 255 255 250 250 250 172 172 172 103 103 103 
69 69 69 64 64 64 88 88 88 142 142 142 230 230 230 
255 255 255 255 255 255 255 255 255 255 255 255 255 255 255 
255 255 255 255 255 255 255 255 255 255 255 255 255 255 255 
255 255 255 255 255 255 255 255 255 255 255 255 255 255 255 
255 255 255 255 255 255 255 255 255 255 255 255 255 255 255 
255 255 255 255 255 255 255 255 255 255 255 255 255 255 255 
255 255 255 255 255 255 255 255 255 255 255 255 255 255 255 
255 255 255 255 255 255 255 255 255 255 255 255 255 255 255 
255 255 255 255 255 255 255 255 255 255 255 255 255 255 255 
255 255 255 255 255 255 255 255 255 213 213 213 127 127 127 
79 79 79 63 63 63 75 75 75 117 117 117 197 197 197 
255 255 255 255 255 255 255 255 255 255 255 255 255 255 255 
255 255 255 255 255 255 255 255 255 255 255 255 255 255 255 
