P3
# Created by IrfanView
#
93 16
255
29 72 112 31 78 122 31 77 120 31 77 121 31 77 121 31 77 121 31 77 121 31 77 121 31 77 121 31 77 121 31 77 121 31 77 121 31 77 121 31 77 121 31 77 121 31 77 121 31 77 121 31 77 121 31 77 121 31 77 121 31 77 121 31 77 121 31 77 121 31 77 121 31 77 121 31 77 121 31 77 121 31 77 121 31 77 121 31 77 121 31 77 121 31 77 121 31 77 121 31 77 121 31 77 121 31 77 121 31 77 121 31 77 121 31 77 121 31 77 120 32 78 122 36 85 131 38 87 134 34 84 131 34 84 131 34 84 131 34 84 131 34 84 131 34 84 131 33 83 130 32 82 129 33 83 130 34 84 131 35 85 132 36 85 132 31 79 124 32 77 120 32 77 120 31 77 121 31 77 121 31 77 121 31 77 121 31 77 121 31 77 121 31 77 121 31 77 121 31 77 121 31 77 121 31 77 121 31 77 121 31 77 121 31 77 121 31 77 121 31 77 121 31 77 121 31 77 121 31 77 121 31 77 121 31 77 121 31 77 121 31 77 121 31 77 121 31 77 121 31 77 121 31 77 121 31 77 121 31 77 121 31 77 121 31 77 121 31 77 121 31 77 120 31 78 122 29 72 112 
33 81 127 36 89 138 35 87 136 35 88 136 35 88 136 35 88 136 35 88 136 35 88 136 35 88 136 35 88 136 35 88 136 35 88 136 35 88 136 35 88 136 35 88 136 35 88 136 35 88 136 35 88 136 35 88 136 35 88 136 35 88 136 35 88 136 35 88 136 35 88 136 35 88 136 35 88 136 35 88 136 35 88 136 35 88 136 35 88 136 35 88 136 35 88 136 35 88 136 35 88 136 35 88 136 35 88 136 35 88 136 35 88 136 35 87 136 37 89 138 33 84 132 14 53 89 5 39 71 18 49 77 20 48 75 18 44 68 17 41 63 17 40 62 16 39 61 19 43 65 23 46 68 20 44 67 18 45 71 15 44 72 14 49 82 35 81 125 33 89 141 32 86 136 37 88 136 35 87 136 35 88 136 35 88 136 35 88 136 35 88 136 35 88 136 35 88 136 35 88 136 35 88 136 35 88 136 35 88 136 35 88 136 35 88 136 35 88 136 35 88 136 35 88 136 35 88 136 35 88 136 35 88 136 35 88 136 35 88 136 35 88 136 35 88 136 35 88 136 35 88 136 35 88 136 35 88 136 35 88 136 35 88 136 35 88 136 35 88 136 35 87 136 36 89 138 33 81 127 
33 83 129 36 90 141 35 89 139 36 89 139 36 89 139 36 89 139 36 89 139 36 89 139 36 89 139 36 89 139 36 89 139 36 89 139 36 89 139 36 89 139 36 89 139 36 89 139 36 89 139 36 89 139 36 89 139 36 89 139 36 89 139 36 89 139 36 89 139 36 89 139 36 89 139 36 89 139 36 89 139 36 89 139 36 89 139 36 89 139 36 89 139 36 89 139 36 89 139 36 89 139 36 89 139 36 89 139 36 89 139 35 89 139 37 90 139 32 90 145 40 77 113 81 78 72 178 175 160 104 100 91 0 0 0 10 6 2 8 4 0 10 6 2 0 0 0 37 35 34 133 129 123 122 118 113 119 115 110 110 106 101 88 85 80 63 64 64 67 87 105 49 96 140 26 84 138 36 90 140 36 89 138 35 89 139 36 89 139 36 89 139 36 89 139 36 89 139 36 89 139 36 89 139 36 89 139 36 89 139 36 89 139 36 89 139 36 89 139 36 89 139 36 89 139 36 89 139 36 89 139 36 89 139 36 89 139 36 89 139 36 89 139 36 89 139 36 89 139 36 89 139 36 89 139 36 89 139 36 89 139 36 89 139 36 89 139 36 89 139 35 89 139 36 90 141 33 83 129 
34 86 133 37 93 146 37 92 143 37 92 144 37 92 144 37 92 144 37 92 144 37 92 144 37 92 144 37 92 144 37 92 144 37 92 144 37 92 144 37 92 144 37 92 144 37 92 144 37 92 144 37 92 144 37 92 144 37 92 144 37 92 144 37 92 144 37 92 144 37 92 144 37 92 144 37 92 144 37 92 144 37 92 144 37 92 144 37 92 144 37 92 144 37 92 144 37 92 144 37 92 144 37 92 144 37 92 144 37 92 143 40 95 147 33 92 147 56 88 119 156 156 149 254 254 247 233 234 231 45 46 44 17 18 19 23 24 24 21 22 23 24 25 25 9 10 10 26 27 27 160 161 159 161 162 161 161 162 161 163 164 162 167 168 166 148 148 145 85 81 76 83 85 85 84 114 141 34 91 144 37 94 148 41 95 145 40 94 145 39 93 144 38 93 144 37 92 144 37 92 144 37 92 144 37 92 144 37 92 144 37 92 144 37 92 144 37 92 144 37 92 144 37 92 144 37 92 144 37 92 144 37 92 144 37 92 144 37 92 144 37 92 144 37 92 144 37 92 144 37 92 144 37 92 144 37 92 144 37 92 144 37 92 144 37 92 144 37 92 144 37 92 143 37 93 146 34 86 133 
35 88 138 38 97 151 38 95 148 38 95 148 38 95 148 38 95 148 38 95 148 38 95 148 38 95 148 38 95 148 38 95 148 38 95 148 38 95 148 38 95 148 38 95 148 38 95 148 38 95 148 38 95 148 38 95 148 38 95 148 38 95 148 38 95 148 38 95 148 38 95 148 38 95 148 38 95 148 38 95 148 38 95 148 38 95 148 38 95 148 38 95 148 38 95 148 38 95 148 38 95 148 38 95 148 38 95 148 39 96 150 22 81 138 60 85 108 183 179 167 253 253 241 255 255 245 104 104 100 20 20 22 41 41 41 37 37 38 37 37 38 40 40 41 24 24 25 0 0 0 121 121 121 145 145 144 140 140 139 142 142 141 141 141 140 146 147 145 153 154 154 75 74 73 54 50 45 95 107 118 32 81 127 22 84 143 25 86 144 27 89 146 33 93 149 39 97 151 41 98 150 39 96 148 38 95 148 38 95 148 38 95 148 38 95 148 38 95 148 38 95 148 38 95 148 38 95 148 38 95 148 38 95 148 38 95 148 38 95 148 38 95 148 38 95 148 38 95 148 38 95 148 38 95 148 38 95 148 38 95 148 38 95 148 38 95 148 38 95 148 38 95 148 38 97 151 35 88 138 
36 91 142 40 100 155 39 98 153 39 98 153 39 98 153 39 98 153 39 98 153 39 98 153 39 98 153 39 98 153 39 98 153 39 98 153 39 98 153 39 98 153 39 98 153 39 98 153 39 98 153 39 98 153 39 98 153 39 98 153 39 98 153 39 98 153 39 98 153 39 98 153 39 98 153 39 98 153 39 98 153 39 98 153 39 98 153 39 98 153 39 98 153 39 98 153 39 98 153 39 98 153 39 98 153 40 99 153 36 97 154 134 159 175 223 218 200 254 254 244 255 255 244 228 228 214 151 151 144 150 150 143 149 149 143 145 145 140 142 142 136 141 141 136 132 132 127 103 103 97 157 157 151 172 172 165 161 161 155 158 158 152 154 154 148 149 149 144 155 155 149 119 119 116 33 34 33 101 97 90 121 123 121 113 140 159 108 139 164 87 125 156 61 108 149 35 92 144 25 88 147 33 95 153 40 99 154 39 98 153 39 98 153 39 98 153 39 98 153 39 98 153 39 98 153 39 98 153 39 98 153 39 98 153 39 98 153 39 98 153 39 98 153 39 98 153 39 98 153 39 98 153 39 98 153 39 98 153 39 98 153 39 98 153 39 98 153 39 98 153 39 98 153 40 100 155 36 91 142 
37 94 146 41 103 160 40 101 157 40 101 158 40 101 158 40 101 158 40 101 158 40 101 158 40 101 158 40 101 158 40 101 158 40 101 158 40 101 158 40 101 158 40 101 158 40 101 158 40 101 158 40 101 158 40 101 158 40 101 158 40 101 158 40 101 158 40 101 158 40 101 158 40 101 158 40 101 158 40 101 158 40 101 158 40 101 158 40 101 158 40 101 158 40 101 158 40 101 158 40 101 158 40 101 157 42 106 165 31 80 124 183 182 173 255 255 255 246 246 233 249 249 236 239 239 226 217 217 205 241 241 228 236 236 224 237 237 225 237 237 224 236 236 224 240 240 227 221 221 209 213 213 201 211 211 199 233 233 221 234 234 221 234 234 221 233 233 220 238 238 224 161 161 152 144 144 136 205 205 195 246 245 231 246 241 224 244 240 222 240 236 219 229 227 213 199 205 198 138 159 171 68 113 153 38 99 155 41 102 158 40 101 158 40 101 158 40 101 158 40 101 158 40 101 158 40 101 158 40 101 158 40 101 158 40 101 158 40 101 158 40 101 158 40 101 158 40 101 158 40 101 158 40 101 158 40 101 158 40 101 158 40 101 158 40 101 158 40 101 158 40 101 157 41 103 160 37 94 146 
38 97 150 42 106 164 41 104 162 41 104 162 41 104 162 41 104 162 41 104 162 41 104 162 41 104 162 41 104 162 41 104 162 41 104 162 41 104 162 41 104 162 41 104 162 41 104 162 41 104 162 41 104 162 41 104 162 41 104 162 41 104 162 41 104 162 41 104 162 41 104 162 41 104 162 41 104 162 41 104 162 41 104 162 41 104 162 41 104 162 41 104 162 41 104 162 41 104 162 41 104 162 41 103 160 47 114 175 10 57 101 148 145 136 255 255 248 243 243 232 255 255 248 255 255 250 234 234 225 241 241 230 242 242 231 241 241 230 241 241 230 239 239 229 243 243 232 217 217 207 199 199 190 207 207 198 236 236 226 238 238 227 237 237 226 237 237 226 235 235 225 243 243 232 245 245 234 211 211 202 228 228 218 237 238 228 244 245 235 244 245 234 242 242 231 232 231 218 254 250 234 133 130 119 20 70 116 46 112 172 41 103 161 41 104 162 41 104 162 41 104 162 41 104 162 41 104 162 41 104 162 41 104 162 41 104 162 41 104 162 41 104 162 41 104 162 41 104 162 41 104 162 41 104 162 41 104 162 41 104 162 41 104 162 41 104 162 41 104 162 41 104 162 42 106 164 38 97 150 
39 99 155 43 109 169 42 107 166 42 107 167 42 107 167 42 107 167 42 107 167 42 107 167 42 107 167 42 107 167 42 107 167 42 107 167 42 107 167 42 107 167 42 107 167 42 107 167 42 107 167 42 107 167 42 107 167 42 107 167 42 107 167 42 107 167 42 107 167 42 107 167 42 107 167 42 107 167 42 107 167 42 107 167 42 107 167 42 107 167 42 107 167 42 107 167 42 107 167 42 107 167 44 108 167 35 104 168 95 122 145 231 227 214 246 247 238 234 234 225 151 151 145 125 125 120 151 151 145 211 211 203 242 242 232 240 240 231 240 240 231 240 240 230 244 244 234 223 223 215 235 235 226 250 250 240 241 241 232 241 241 232 242 242 232 242 242 232 242 242 232 240 240 230 242 242 232 216 216 208 249 249 239 212 212 203 140 140 135 133 133 128 181 181 174 243 244 234 255 255 249 153 150 141 9 54 97 48 116 180 42 106 165 42 107 167 42 107 167 42 107 167 42 107 167 42 107 167 42 107 167 42 107 167 42 107 167 42 107 167 42 107 167 42 107 167 42 107 167 42 107 167 42 107 167 42 107 167 42 107 167 42 107 167 42 107 167 42 107 167 42 107 166 43 109 169 39 99 155 
40 102 159 44 112 174 43 110 171 44 110 171 44 110 171 44 110 171 44 110 171 44 110 171 44 110 171 44 110 171 44 110 171 44 110 171 44 110 171 44 110 171 44 110 171 44 110 171 44 110 171 44 110 171 44 110 171 44 110 171 44 110 171 44 110 171 44 110 171 44 110 171 44 110 171 44 110 171 44 110 171 44 110 171 44 110 171 44 110 171 44 110 171 44 110 171 44 110 171 44 110 171 47 113 173 29 99 162 174 191 204 255 255 250 229 229 223 79 79 78 35 35 36 43 43 44 39 39 39 82 82 80 207 207 201 233 233 226 231 231 224 231 231 224 234 234 227 216 216 210 219 219 212 232 232 225 231 231 224 231 231 224 231 231 224 231 231 224 231 231 224 231 231 224 230 230 223 217 217 210 188 188 183 44 44 44 40 40 41 43 43 43 32 32 33 121 121 118 240 241 234 234 230 220 123 141 155 35 105 169 45 111 172 44 110 171 44 110 171 44 110 171 44 110 171 44 110 171 44 110 171 44 110 171 44 110 171 44 110 171 44 110 171 44 110 171 44 110 171 44 110 171 44 110 171 44 110 171 44 110 171 44 110 171 44 110 171 44 110 171 43 110 171 44 112 174 40 102 159 
41 105 163 45 115 178 45 113 175 45 113 176 45 113 176 45 113 176 45 113 176 45 113 176 45 113 176 45 113 176 45 113 176 45 113 176 45 113 176 45 113 176 45 113 176 45 113 176 45 113 176 45 113 176 45 113 176 45 113 176 45 113 176 45 113 176 45 113 176 45 113 176 45 113 176 45 113 176 45 113 176 45 113 176 45 113 176 45 113 176 45 113 176 45 113 176 45 113 176 45 113 176 47 114 176 36 108 174 111 132 148 204 200 192 120 121 120 40 40 40 51 51 51 26 26 26 43 43 43 43 43 44 131 131 128 247 247 242 245 245 240 245 245 239 249 249 244 227 227 223 235 235 230 248 248 243 245 245 240 246 246 241 246 246 241 246 246 241 246 246 241 246 246 241 243 243 238 231 231 226 96 96 95 46 46 46 37 37 37 29 29 28 53 53 53 45 45 46 208 209 205 255 255 255 201 209 214 36 104 165 46 115 178 45 113 176 45 113 176 45 113 176 45 113 176 45 113 176 45 113 176 45 113 176 45 113 176 45 113 176 45 113 176 45 113 176 45 113 176 45 113 176 45 113 176 45 113 176 45 113 176 45 113 176 45 113 176 45 113 176 45 113 175 45 115 178 41 105 163 
41 107 168 45 117 183 44 115 180 44 116 181 44 116 181 44 116 181 44 116 181 44 116 181 44 116 181 44 116 181 44 116 181 44 116 181 44 116 181 44 116 181 44 116 181 44 116 181 44 116 181 44 116 181 44 116 181 44 116 181 44 116 181 44 116 181 44 116 181 44 116 181 44 116 181 44 116 181 44 116 181 44 116 181 44 116 181 44 116 181 44 116 181 44 116 181 44 116 181 44 116 181 44 114 178 47 123 193 17 45 71 0 0 0 20 21 22 57 57 56 22 22 22 34 34 34 24 24 24 47 47 47 55 55 55 88 88 87 94 94 92 92 92 91 94 94 93 85 85 84 89 89 88 93 93 92 92 92 91 92 92 91 92 92 91 92 92 90 92 92 90 92 92 90 92 92 90 77 77 76 56 56 55 38 38 38 23 23 23 32 32 32 28 28 28 52 52 52 69 70 69 92 88 82 77 93 107 43 116 183 44 115 180 44 115 181 44 116 181 44 116 181 44 116 181 44 116 181 44 116 181 44 116 181 44 116 181 44 116 181 44 116 181 44 116 181 44 116 181 44 116 181 44 116 181 44 116 181 44 116 181 44 116 181 44 116 181 44 116 181 44 115 180 45 117 183 41 107 168 
80 114 146 88 125 160 86 123 157 86 123 157 86 123 157 86 123 157 86 123 157 86 123 157 86 123 157 86 123 157 86 123 157 86 123 157 86 123 157 86 123 157 86 123 157 86 123 157 86 123 157 86 123 157 86 123 157 86 123 157 86 123 157 86 123 157 86 123 157 86 123 157 86 123 157 86 123 157 86 123 157 86 123 157 86 123 157 86 123 157 86 123 157 86 123 157 86 123 157 86 123 157 86 123 157 87 124 159 85 119 149 60 77 92 41 43 44 56 56 56 24 24 24 30 31 31 21 21 21 53 53 53 35 36 37 0 0 0 1 1 1 0 0 0 0 0 0 0 0 0 0 0 0 0 0 0 0 0 0 0 0 0 0 0 0 0 0 0 0 0 0 0 0 0 0 0 0 0 0 0 47 48 48 43 43 43 22 22 22 29 29 29 28 28 28 59 59 60 11 13 15 12 15 18 56 81 104 90 129 165 85 122 156 86 123 157 86 123 157 86 123 157 86 123 157 86 123 157 86 123 157 86 123 157 86 123 157 86 123 157 86 123 157 86 123 157 86 123 157 86 123 157 86 123 157 86 123 157 86 123 157 86 123 157 86 123 157 86 123 157 86 123 157 88 125 160 80 114 146 
107 107 107 117 117 117 115 115 115 115 115 115 115 115 115 115 115 115 115 115 115 115 115 115 115 115 115 115 115 115 115 115 115 115 115 115 115 115 115 115 115 115 115 115 115 115 115 115 115 115 115 115 115 115 115 115 115 115 115 115 115 115 115 115 115 115 115 115 115 115 115 115 115 115 115 115 115 115 115 115 115 115 115 115 115 115 115 115 115 115 115 115 115 115 115 115 115 115 115 115 115 115 115 115 115 115 115 115 116 117 118 120 123 126 113 115 117 81 81 81 48 48 48 32 32 32 43 43 43 76 76 76 104 105 106 96 97 97 97 97 97 97 97 97 98 98 99 98 99 99 98 98 99 100 100 100 101 102 102 101 102 102 101 102 102 103 104 105 104 104 105 104 104 105 104 105 106 107 108 109 102 103 104 67 67 67 39 39 39 33 33 33 55 55 54 90 91 91 116 118 120 121 125 128 120 122 124 115 114 114 115 115 115 115 115 115 115 115 115 115 115 115 115 115 115 115 115 115 115 115 115 115 115 115 115 115 115 115 115 115 115 115 115 115 115 115 115 115 115 115 115 115 115 115 115 115 115 115 115 115 115 115 115 115 115 115 115 115 115 115 115 115 115 117 117 117 107 107 107 
62 62 62 68 68 68 67 67 67 67 67 67 67 67 67 67 67 67 67 67 67 67 67 67 67 67 67 67 67 67 67 67 67 67 67 67 67 67 67 67 67 67 67 67 67 67 67 67 67 67 67 67 67 67 67 67 67 67 67 67 67 67 67 67 67 67 67 67 67 67 67 67 67 67 67 67 67 67 67 67 67 67 67 67 67 67 67 67 67 67 67 67 67 67 67 67 67 67 67 67 67 67 67 67 67 67 67 67 67 67 67 66 65 65 69 68 68 68 68 68 60 60 60 60 60 60 60 60 60 66 66 66 71 71 70 72 72 72 72 72 72 72 72 72 72 72 72 72 72 72 72 72 72 72 72 71 71 71 71 71 71 71 71 71 71 71 71 71 71 71 71 71 71 71 71 70 70 70 70 70 70 70 70 64 64 64 59 59 59 59 59 59 61 61 61 69 69 69 68 68 68 67 66 65 67 66 66 67 67 68 67 67 67 67 67 67 67 67 67 67 67 67 67 67 67 67 67 67 67 67 67 67 67 67 67 67 67 67 67 67 67 67 67 67 67 67 67 67 67 67 67 67 67 67 67 67 67 67 67 67 67 67 67 67 67 67 67 67 67 67 67 67 67 68 68 68 62 62 62 
20 20 20 21 21 22 21 21 21 21 21 21 21 21 21 21 21 21 21 21 21 21 21 21 21 21 21 21 21 21 21 21 21 21 21 21 21 21 21 21 21 21 21 21 21 21 21 21 21 21 21 21 21 21 21 21 21 21 21 21 21 21 21 21 21 21 21 21 21 21 21 21 21 21 21 21 21 21 21 21 21 21 21 21 21 21 21 21 21 21 21 21 21 21 21 21 21 21 21 21 21 21 21 21 21 21 21 21 21 21 21 21 21 21 21 21 21 21 21 21 22 22 22 21 21 21 22 22 22 22 22 22 20 20 20 20 20 20 20 20 20 20 20 20 20 20 20 20 20 20 20 20 20 20 20 20 20 20 20 20 20 20 20 20 20 20 20 20 20 20 20 20 20 20 20 20 20 20 20 21 20 21 21 22 22 22 21 21 21 21 21 21 22 22 22 21 21 21 21 21 21 21 21 21 21 21 21 21 21 21 21 21 21 21 21 21 21 21 21 21 21 21 21 21 21 21 21 21 21 21 21 21 21 21 21 21 21 21 21 21 21 21 21 21 21 21 21 21 21 21 21 21 21 21 21 21 21 21 21 21 21 21 21 21 21 21 21 21 21 21 21 21 21 21 21 22 20 20 20 
