P3
# Created by IrfanView
#
93 16
255
29 72 112 31 78 122 31 77 120 31 77 121 31 77 121 31 77 121 31 77 121 31 77 121 31 77 121 31 77 121 31 77 121 31 77 121 31 77 121 31 77 121 31 77 121 31 77 121 31 77 121 31 77 121 31 77 121 31 77 121 31 77 121 31 77 121 31 77 121 31 77 121 31 77 121 31 77 121 31 77 121 31 77 121 31 77 121 31 77 121 31 77 121 31 77 121 31 77 121 31 77 121 31 77 121 31 77 121 31 77 121 31 77 121 31 77 121 31 77 121 31 77 121 31 77 121 31 77 121 31 77 121 31 77 121 31 77 121 31 77 121 31 77 121 31 77 121 31 77 121 31 77 121 31 77 121 31 77 121 31 77 121 31 77 121 31 77 121 35 84 129 38 88 134 35 85 132 33 84 131 34 84 131 34 84 131 34 84 131 34 84 131 33 83 130 32 82 129 32 83 130 33 84 131 34 85 132 36 86 133 32 80 126 31 77 120 32 78 120 31 77 121 31 77 121 31 77 121 31 77 121 31 77 121 31 77 121 31 77 121 31 77 121 31 77 121 31 77 121 31 77 121 31 77 121 31 77 121 31 77 121 31 77 121 31 77 121 31 77 121 31 77 120 31 78 122 29 72 112 
33 81 127 36 89 138 35 87 136 35 88 136 35 88 136 35 88 136 35 88 136 35 88 136 35 88 136 35 88 136 35 88 136 35 88 136 35 88 136 35 88 136 35 88 136 35 88 136 35 88 136 35 88 136 35 88 136 35 88 136 35 88 136 35 88 136 35 88 136 35 88 136 35 88 136 35 88 136 35 88 136 35 88 136 35 88 136 35 88 136 35 88 136 35 88 136 35 88 136 35 88 136 35 88 136 35 88 136 35 88 136 35 88 136 35 88 136 35 88 136 35 88 136 35 88 136 35 88 136 35 88 136 35 88 136 35 88 136 35 88 136 35 88 136 35 88 136 35 88 136 35 88 136 35 88 136 35 88 136 35 87 136 36 88 136 35 88 138 19 60 99 5 39 72 15 46 76 21 50 76 18 45 70 17 41 64 16 40 62 16 39 61 18 41 63 23 46 68 20 44 67 19 45 70 16 45 72 12 46 77 30 73 114 36 90 142 30 85 137 37 88 136 35 87 136 35 87 136 35 88 136 35 88 136 35 88 136 35 88 136 35 88 136 35 88 136 35 88 136 35 88 136 35 88 136 35 88 136 35 88 136 35 88 136 35 88 136 35 88 136 35 87 136 36 89 138 33 81 127 
33 83 129 36 90 141 35 89 139 36 89 139 36 89 139 36 89 139 36 89 139 36 89 139 36 89 139 36 89 139 36 89 139 36 89 139 36 89 139 36 89 139 36 89 139 36 89 139 36 89 139 36 89 139 36 89 139 36 89 139 36 89 139 36 89 139 36 89 139 36 89 139 36 89 139 36 89 139 36 89 139 36 89 139 36 89 139 36 89 139 36 89 139 36 89 139 36 89 139 36 89 139 36 89 139 36 89 139 36 89 139 36 89 139 36 89 139 36 89 139 36 89 139 36 89 139 36 89 139 36 89 139 36 89 139 36 89 139 36 89 139 36 89 139 36 89 139 36 89 139 36 89 139 36 89 139 35 89 139 37 89 138 33 90 143 36 83 128 65 68 69 160 155 141 136 132 121 3 0 0 8 3 0 8 4 0 9 5 1 3 0 0 13 12 11 122 118 113 126 122 117 120 116 111 113 109 104 95 91 87 67 66 64 65 79 92 57 98 137 27 85 138 34 89 139 37 89 138 35 89 139 36 89 139 36 89 139 36 89 139 36 89 139 36 89 139 36 89 139 36 89 139 36 89 139 36 89 139 36 89 139 36 89 139 36 89 139 36 89 139 35 89 139 36 90 141 33 83 129 
34 86 133 37 93 146 37 92 143 37 92 144 37 92 144 37 92 144 37 92 144 37 92 144 37 92 144 37 92 144 37 92 144 37 92 144 37 92 144 37 92 144 37 92 144 37 92 144 37 92 144 37 92 144 37 92 144 37 92 144 37 92 144 37 92 144 37 92 144 37 92 144 37 92 144 37 92 144 37 92 144 37 92 144 37 92 144 37 92 144 37 92 144 37 92 144 37 92 144 37 92 144 37 92 144 37 92 144 37 92 144 37 92 144 37 92 144 37 92 144 37 92 144 37 92 144 37 92 144 37 92 144 37 92 144 37 92 144 37 92 144 37 92 144 37 92 144 37 92 144 37 92 144 36 92 144 40 94 145 35 95 150 43 85 125 128 132 132 237 235 225 255 255 255 83 84 80 11 12 13 24 25 25 21 22 23 23 23 24 17 18 19 5 6 6 137 138 137 166 167 165 160 161 160 163 163 162 166 167 165 158 158 156 99 96 92 76 74 72 93 114 133 42 95 144 34 93 148 41 95 146 40 94 145 39 94 144 38 93 144 37 92 144 37 92 144 37 92 144 37 92 144 37 92 144 37 92 144 37 92 144 37 92 144 37 92 144 37 92 144 37 92 143 37 93 146 34 86 133 
35 88 138 38 97 151 38 95 148 38 95 148 38 95 148 38 95 148 38 95 148 38 95 148 38 95 148 38 95 148 38 95 148 38 95 148 38 95 148 38 95 148 38 95 148 38 95 148 38 95 148 38 95 148 38 95 148 38 95 148 38 95 148 38 95 148 38 95 148 38 95 148 38 95 148 38 95 148 38 95 148 38 95 148 38 95 148 38 95 148 38 95 148 38 95 148 38 95 148 38 95 148 38 95 148 38 95 148 38 95 148 38 95 148 38 95 148 38 95 148 38 95 148 38 95 148 38 95 148 38 95 148 38 95 148 38 95 148 38 95 148 38 95 148 38 95 148 38 95 148 38 95 148 40 96 149 25 87 144 41 76 111 154 152 145 245 243 230 255 255 252 150 150 143 20 20 22 40 40 41 37 37 38 37 37 38 38 38 39 34 34 35 0 0 0 93 93 92 149 149 148 139 139 138 142 142 141 141 141 140 144 144 143 155 156 156 101 101 101 41 37 33 98 104 108 44 85 124 21 82 141 25 86 144 27 88 146 32 92 149 38 97 151 41 98 150 40 96 148 38 95 148 38 95 149 38 95 148 38 95 148 38 95 148 38 95 148 38 95 148 38 95 148 38 97 151 35 88 138 
36 91 142 40 100 155 39 98 153 39 98 153 39 98 153 39 98 153 39 98 153 39 98 153 39 98 153 39 98 153 39 98 153 39 98 153 39 98 153 39 98 153 39 98 153 39 98 153 39 98 153 39 98 153 39 98 153 39 98 153 39 98 153 39 98 153 39 98 153 39 98 153 39 98 153 39 98 153 39 98 153 39 98 153 39 98 153 39 98 153 39 98 153 39 98 153 39 98 153 39 98 153 39 98 153 39 98 153 39 98 153 39 98 153 39 98 153 39 98 153 39 98 153 39 98 153 39 98 153 39 98 153 39 98 153 39 98 153 39 98 153 39 98 153 39 98 153 39 98 153 41 99 153 32 94 152 103 141 171 210 206 191 250 249 237 255 255 245 239 239 224 166 166 158 147 147 141 150 150 144 146 146 140 143 143 137 141 141 135 139 139 133 103 103 98 142 142 136 174 174 168 163 163 157 158 158 153 154 154 149 150 150 145 151 151 146 138 138 134 41 43 41 79 78 72 126 124 117 111 133 149 110 141 166 90 126 155 65 109 148 38 92 142 25 87 145 31 94 153 39 99 154 39 98 153 39 98 153 39 98 153 39 98 153 39 98 153 39 98 153 39 98 153 40 100 155 36 91 142 
37 94 146 41 103 160 40 101 157 40 101 158 40 101 158 40 101 158 40 101 158 40 101 158 40 101 158 40 101 158 40 101 158 40 101 158 40 101 158 40 101 158 40 101 158 40 101 158 40 101 158 40 101 158 40 101 158 40 101 158 40 101 158 40 101 158 40 101 158 40 101 158 40 101 158 40 101 158 40 101 158 40 101 158 40 101 158 40 101 158 40 101 158 40 101 158 40 101 158 40 101 158 40 101 158 40 101 158 40 101 158 40 101 158 40 101 158 40 101 158 40 101 158 40 101 158 40 101 158 40 101 158 40 101 158 40 101 158 40 101 158 40 101 158 40 101 158 40 101 157 43 105 162 27 85 139 135 140 140 255 255 255 247 248 235 247 247 234 246 246 233 213 213 202 238 238 226 237 237 224 237 237 225 237 237 225 236 236 224 240 240 227 225 225 213 215 215 204 208 208 196 229 229 217 235 235 222 234 234 221 232 232 219 241 241 228 178 178 169 136 136 129 190 190 180 241 242 228 246 242 225 244 240 222 241 237 220 231 229 213 205 208 199 148 164 172 77 116 150 39 98 152 40 102 158 40 101 158 40 101 158 40 101 158 40 101 158 40 101 158 40 101 157 41 103 160 37 94 146 
38 97 150 42 106 164 41 104 162 41 104 162 41 104 162 41 104 162 41 104 162 41 104 162 41 104 162 41 104 162 41 104 162 41 104 162 41 104 162 41 104 162 41 104 162 41 104 162 41 104 162 41 104 162 41 104 162 41 104 162 41 104 162 41 104 162 41 104 162 41 104 162 41 104 162 41 104 162 41 104 162 41 104 162 41 104 162 41 104 162 41 104 162 41 104 162 41 104 162 41 104 162 41 104 162 41 104 162 41 104 162 41 104 162 41 104 162 41 104 162 41 104 162 41 104 162 41 104 162 41 104 162 41 104 162 41 104 162 41 104 162 41 104 162 41 104 162 41 103 161 47 111 170 16 74 128 95 98 97 255 255 245 241 241 230 254 254 245 255 255 252 238 238 231 237 237 226 244 244 233 241 241 230 241 241 230 240 240 229 243 243 232 224 224 214 202 202 193 203 203 194 230 230 220 239 239 229 237 237 226 237 237 226 235 235 225 241 241 230 249 249 238 216 216 207 222 222 212 235 236 226 243 244 234 244 245 234 244 244 233 233 233 221 252 249 234 162 155 139 18 55 90 46 114 175 41 103 160 41 104 162 41 104 162 41 104 162 41 104 162 41 104 162 42 106 164 38 97 150 
39 99 155 43 109 169 42 107 166 42 107 167 42 107 167 42 107 167 42 107 167 42 107 167 42 107 167 42 107 167 42 107 167 42 107 167 42 107 167 42 107 167 42 107 167 42 107 167 42 107 167 42 107 167 42 107 167 42 107 167 42 107 167 42 107 167 42 107 167 42 107 167 42 107 167 42 107 167 42 107 167 42 107 167 42 107 167 42 107 167 42 107 167 42 107 167 42 107 167 42 107 167 42 107 167 42 107 167 42 107 167 42 107 167 42 107 167 42 107 167 42 107 167 42 107 167 42 107 167 42 107 167 42 107 167 42 107 167 42 107 167 42 107 167 42 107 167 44 107 166 38 107 170 65 107 144 213 210 198 245 246 237 244 244 235 170 170 163 124 124 119 141 141 136 196 196 188 240 240 230 240 240 231 240 240 230 240 240 230 244 244 234 227 227 218 229 229 220 252 252 242 242 242 232 241 241 232 242 242 232 242 242 232 242 242 232 240 240 230 243 243 233 220 220 212 239 239 230 231 231 222 151 151 145 130 130 126 164 164 157 235 235 226 255 255 249 183 179 168 10 41 70 44 114 178 42 106 165 42 107 167 42 107 167 42 107 167 42 107 167 42 107 166 43 109 169 39 99 155 
40 102 159 44 112 174 43 110 171 44 110 171 44 110 171 44 110 171 44 110 171 44 110 171 44 110 171 44 110 171 44 110 171 44 110 171 44 110 171 44 110 171 44 110 171 44 110 171 44 110 171 44 110 171 44 110 171 44 110 171 44 110 171 44 110 171 44 110 171 44 110 171 44 110 171 44 110 171 44 110 171 44 110 171 44 110 171 44 110 171 44 110 171 44 110 171 44 110 171 44 110 171 44 110 171 44 110 171 44 110 171 44 110 171 44 110 171 44 110 171 44 110 171 44 110 171 44 110 171 44 110 171 44 110 171 44 110 171 44 110 171 44 110 171 44 110 171 47 112 172 29 100 166 126 158 186 255 255 247 244 245 239 116 116 113 34 34 35 45 45 45 41 41 42 59 59 58 183 183 178 233 233 226 231 231 224 231 231 224 234 234 227 220 220 213 214 214 208 233 233 226 230 230 223 231 231 224 231 231 224 231 231 224 231 231 224 230 230 223 233 233 226 214 214 208 212 212 206 68 68 67 35 35 36 43 43 44 35 35 36 84 84 82 228 228 222 240 238 229 155 162 163 41 104 162 44 111 173 44 110 171 44 110 171 44 110 171 44 110 171 43 110 171 44 112 174 40 102 159 
41 105 163 45 115 178 45 113 175 45 113 176 45 113 176 45 113 176 45 113 176 45 113 176 45 113 176 45 113 176 45 113 176 45 113 176 45 113 176 45 113 176 45 113 176 45 113 176 45 113 176 45 113 176 45 113 176 45 113 176 45 113 176 45 113 176 45 113 176 45 113 176 45 113 176 45 113 176 45 113 176 45 113 176 45 113 176 45 113 176 45 113 176 45 113 176 45 113 176 45 113 176 45 113 176 45 113 176 45 113 176 45 113 176 45 113 176 45 113 176 45 113 176 45 113 176 45 113 176 45 113 176 45 113 176 45 113 176 45 113 176 45 113 176 45 113 176 46 114 175 37 111 178 83 119 151 194 189 180 155 157 154 43 43 43 52 52 52 31 31 30 38 38 38 45 45 46 94 94 93 235 235 230 247 247 242 244 244 239 249 249 244 232 232 227 230 230 225 249 249 244 245 245 240 246 246 241 246 246 241 246 246 241 246 246 241 245 245 240 245 245 240 238 238 233 136 136 133 38 38 39 43 43 43 27 27 27 50 50 50 38 38 39 166 166 163 255 255 255 236 235 232 59 115 167 41 112 177 46 114 176 45 113 176 45 113 176 45 113 176 45 113 175 45 115 178 41 105 163 
41 107 168 45 117 183 44 115 180 44 116 181 44 116 181 44 116 181 44 116 181 44 116 181 44 116 181 44 116 181 44 116 181 44 116 181 44 116 181 44 116 181 44 116 181 44 116 181 44 116 181 44 116 181 44 116 181 44 116 181 44 116 181 44 116 181 44 116 181 44 116 181 44 116 181 44 116 181 44 116 181 44 116 181 44 116 181 44 116 181 44 116 181 44 116 181 44 116 181 44 116 181 44 116 181 44 116 181 44 116 181 44 116 181 44 116 181 44 116 181 44 116 181 44 116 181 44 116 181 44 116 181 44 116 181 44 116 181 44 116 181 44 116 181 44 116 181 44 114 178 47 123 193 27 72 113 0 0 0 9 10 11 57 57 57 23 23 23 32 32 32 26 26 26 39 39 39 53 53 53 80 80 79 95 95 94 92 92 91 94 94 93 87 87 85 87 87 86 94 94 92 92 92 91 92 92 91 92 92 91 92 92 90 92 92 90 92 92 90 92 92 90 84 84 83 59 58 58 39 39 39 23 23 23 34 34 34 24 24 24 50 50 50 61 62 61 91 88 85 83 87 90 49 113 173 43 116 183 45 115 180 44 116 181 44 116 181 44 116 181 44 115 180 45 117 183 41 107 168 
80 114 146 88 125 160 86 123 157 86 123 157 86 123 157 86 123 157 86 123 157 86 123 157 86 123 157 86 123 157 86 123 157 86 123 157 86 123 157 86 123 157 86 123 157 86 123 157 86 123 157 86 123 157 86 123 157 86 123 157 86 123 157 86 123 157 86 123 157 86 123 157 86 123 157 86 123 157 86 123 157 86 123 157 86 123 157 86 123 157 86 123 157 86 123 157 86 123 157 86 123 157 86 123 157 86 123 157 86 123 157 86 123 157 86 123 157 86 123 157 86 123 157 86 123 157 86 123 157 86 123 157 86 123 157 86 123 157 86 123 157 86 123 157 86 123 157 86 123 157 86 124 158 86 122 155 69 90 110 40 43 46 57 57 57 25 25 26 28 28 28 23 23 23 42 42 42 49 50 50 0 0 0 0 0 0 0 0 0 0 0 0 0 0 0 0 0 0 0 0 0 0 0 0 0 0 0 0 0 0 0 0 0 0 0 0 0 0 0 1 1 1 0 0 0 35 36 36 47 47 47 21 21 21 30 30 30 22 22 22 58 58 58 23 24 26 7 10 12 43 60 77 88 127 163 86 123 156 86 123 157 86 123 157 86 123 157 86 123 157 86 123 157 88 125 160 80 114 146 
107 107 107 117 117 117 115 115 115 115 115 115 115 115 115 115 115 115 115 115 115 115 115 115 115 115 115 115 115 115 115 115 115 115 115 115 115 115 115 115 115 115 115 115 115 115 115 115 115 115 115 115 115 115 115 115 115 115 115 115 115 115 115 115 115 115 115 115 115 115 115 115 115 115 115 115 115 115 115 115 115 115 115 115 115 115 115 115 115 115 115 115 115 115 115 115 115 115 115 115 115 115 115 115 115 115 115 115 115 115 115 115 115 115 115 115 115 115 115 115 115 115 115 115 115 115 115 115 115 115 115 115 115 115 115 115 115 115 115 115 115 115 115 115 115 115 115 115 115 115 115 115 115 115 116 116 119 122 125 116 119 121 86 86 86 53 53 53 31 31 31 39 39 39 67 67 67 101 102 103 98 99 99 96 96 97 97 97 97 98 98 98 98 99 99 98 98 99 99 99 100 101 102 102 101 102 102 101 102 102 103 104 104 104 105 105 103 104 105 104 105 106 106 106 107 107 109 110 74 74 74 41 41 41 31 32 32 49 49 49 81 81 81 113 115 116 121 124 127 122 125 127 115 115 115 115 115 115 115 115 115 115 115 115 115 115 115 115 115 115 115 115 115 117 117 117 107 107 107 
62 62 62 68 68 68 67 67 67 67 67 67 67 67 67 67 67 67 67 67 67 67 67 67 67 67 67 67 67 67 67 67 67 67 67 67 67 67 67 67 67 67 67 67 67 67 67 67 67 67 67 67 67 67 67 67 67 67 67 67 67 67 67 67 67 67 67 67 67 67 67 67 67 67 67 67 67 67 67 67 67 67 67 67 67 67 67 67 67 67 67 67 67 67 67 67 67 67 67 67 67 67 67 67 67 67 67 67 67 67 67 67 67 67 67 67 67 67 67 67 67 67 67 67 67 67 67 67 67 67 67 67 67 67 67 67 67 67 67 67 67 67 67 67 67 67 67 67 67 67 67 67 67 67 67 67 66 66 65 68 67 67 69 69 69 61 61 61 60 60 60 60 60 60 64 64 64 70 70 70 72 72 72 72 72 72 72 72 72 72 72 72 72 72 72 72 72 72 72 72 72 71 71 71 71 71 71 71 71 71 71 71 71 71 71 71 71 71 71 71 70 70 70 70 70 70 70 70 66 66 66 59 59 59 59 59 59 60 60 60 67 67 67 69 69 69 67 66 66 67 66 65 67 67 67 67 67 67 67 67 67 67 67 67 67 67 67 67 67 67 67 67 67 68 68 68 62 62 62 
20 20 20 21 21 22 21 21 21 21 21 21 21 21 21 21 21 21 21 21 21 21 21 21 21 21 21 21 21 21 21 21 21 21 21 21 21 21 21 21 21 21 21 21 21 21 21 21 21 21 21 21 21 21 21 21 21 21 21 21 21 21 21 21 21 21 21 21 21 21 21 21 21 21 21 21 21 21 21 21 21 21 21 21 21 21 21 21 21 21 21 21 21 21 21 21 21 21 21 21 21 21 21 21 21 21 21 21 21 21 21 21 21 21 21 21 21 21 21 21 21 21 21 21 21 21 21 21 21 21 21 21 21 21 21 21 21 21 21 21 21 21 21 21 21 21 21 21 21 21 21 21 21 21 21 21 21 21 21 21 21 21 21 21 21 22 22 22 21 21 21 21 21 21 22 22 22 20 21 21 20 20 20 20 20 20 20 20 20 20 20 20 20 20 20 20 20 20 20 20 20 20 20 20 20 20 20 20 20 20 20 20 20 20 20 20 20 20 20 20 20 20 20 20 20 20 20 21 21 21 21 22 22 22 21 21 21 22 22 22 21 21 21 21 21 21 21 21 21 21 21 21 21 21 21 21 21 21 21 21 21 21 21 21 21 21 21 21 21 21 21 21 21 21 21 22 20 20 20 
