P3
# Created by IrfanView
80 22
255
127 127 127 127 127 127 127 127 127 143 143 143 255 255 255 
245 245 245 202 202 202 166 166 166 148 148 148 142 142 142 
148 148 148 165 165 165 201 201 201 244 244 244 255 255 255 
255 255 255 255 255 255 255 255 255 255 255 255 255 255 255 
250 250 250 212 212 212 173 173 173 151 151 151 142 142 142 
144 144 144 159 159 159 190 190 190 230 230 230 254 254 254 
197 197 197 127 127 127 127 127 127 127 127 127 201 201 201 
255 255 255 248 248 248 235 235 235 227 227 227 223 223 223 
223 223 223 226 226 226 234 234 234 247 247 247 255 255 255 
201 201 201 127 127 127 127 127 127 127 127 127 197 197 197 
254 254 254 228 228 228 186 186 186 156 156 156 143 143 143 
142 142 142 154 154 154 180 180 180 220 220 220 253 253 253 
255 255 255 255 255 255 255 255 255 255 255 255 255 255 255 
255 255 255 233 233 233 191 191 191 158 158 158 143 143 143 
142 142 142 154 154 154 179 179 179 220 220 220 253 253 253 
255 255 255 143 143 143 127 127 127 127 127 127 127 127 127 
127 127 127 127 127 127 124 124 124 126 126 126 234 234 234 
115 115 115 105 105 105 113 113 113 119 119 119 121 121 121 
119 119 119 113 113 113 106 106 106 112 112 112 204 204 204 
255 255 255 255 255 255 255 255 255 255 255 255 220 220 220 
124 124 124 104 104 104 111 111 111 118 118 118 121 121 121 
120 120 120 115 115 115 106 106 106 104 104 104 172 172 172 
198 198 198 114 114 114 127 127 127 107 107 107 208 208 208 
244 244 244 210 210 210 210 210 210 213 213 213 214 214 214 
214 214 214 213 213 213 211 211 211 209 209 209 241 241 241 
204 204 204 107 107 107 127 127 127 114 114 114 199 199 199 
175 175 175 104 104 104 107 107 107 116 116 116 121 121 121 
121 121 121 117 117 117 109 109 109 103 103 103 145 145 145 
248 248 248 255 255 255 255 255 255 255 255 255 255 255 255 
170 170 170 104 104 104 108 108 108 115 115 115 120 120 120 
121 121 121 117 117 117 109 109 109 103 103 103 147 147 147 
255 255 255 129 129 129 123 123 123 127 127 127 127 127 127 
127 127 127 127 127 127 125 125 125 118 118 118 118 118 118 
117 117 117 125 125 125 126 126 126 127 127 127 127 127 127 
127 127 127 126 126 126 125 125 125 117 117 117 103 103 103 
153 153 153 255 255 255 255 255 255 171 171 171 102 102 102 
115 115 115 124 124 124 126 126 126 127 127 127 127 127 127 
127 127 127 127 127 127 126 126 126 121 121 121 116 116 116 
119 119 119 121 121 121 127 127 127 109 109 109 179 179 179 
224 224 224 215 215 215 216 216 216 217 217 217 217 217 217 
217 217 217 217 217 217 216 216 216 215 215 215 225 225 225 
180 180 180 109 109 109 127 127 127 121 121 121 118 118 118 
116 116 116 121 121 121 126 126 126 127 127 127 127 127 127 
127 127 127 127 127 127 126 126 126 123 123 123 111 111 111 
105 105 105 224 224 224 255 255 255 255 255 255 118 118 118 
107 107 107 121 121 121 126 126 126 126 126 126 127 127 127 
127 127 127 127 127 127 126 126 126 122 122 122 111 111 111 
129 129 129 119 119 119 125 125 125 127 127 127 127 127 127 
127 127 127 127 127 127 127 127 127 126 126 126 126 126 126 
126 126 126 120 120 120 111 111 111 102 102 102 99 99 99 
102 102 102 111 111 111 120 120 120 125 125 125 122 122 122 
106 106 106 161 161 161 179 179 179 104 104 104 121 121 121 
126 126 126 121 121 121 113 113 113 104 104 104 99 99 99 
100 100 100 107 107 107 117 117 117 124 124 124 126 126 126 
126 126 126 126 126 126 127 127 127 111 111 111 183 183 183 
228 228 228 216 216 216 214 214 214 211 211 211 208 208 208 
208 208 208 210 210 210 213 213 213 216 216 216 228 228 228 
183 183 183 111 111 111 127 127 127 126 126 126 126 126 126 
126 126 126 124 124 124 117 117 117 107 107 107 100 100 100 
99 99 99 105 105 105 115 115 115 123 123 123 126 126 126 
117 117 117 102 102 102 224 224 224 116 116 116 113 113 113 
125 125 125 125 125 125 117 117 117 108 108 108 100 100 100 
99 99 99 105 105 105 115 115 115 123 123 123 125 125 125 
125 125 125 125 125 125 126 126 126 127 127 127 127 127 127 
127 127 127 127 127 127 127 127 127 127 127 127 124 124 124 
112 112 112 111 111 111 179 179 179 235 235 235 250 250 250 
233 233 233 181 181 181 113 113 113 112 112 112 124 124 124 
123 123 123 120 120 120 120 120 120 122 122 122 125 125 125 
114 114 114 108 108 108 167 167 167 223 223 223 250 250 250 
244 244 244 203 203 203 133 133 133 107 107 107 120 120 120 
126 126 126 127 127 127 127 127 127 111 111 111 183 183 183 
226 226 226 210 210 210 218 218 218 243 243 243 254 254 254 
254 254 254 245 245 245 221 221 221 210 210 210 226 226 226 
183 183 183 111 111 111 127 127 127 127 127 127 126 126 126 
120 120 120 107 107 107 133 133 133 206 206 206 248 248 248 
247 247 247 215 215 215 149 149 149 106 106 106 118 118 118 
126 126 126 119 119 119 121 121 121 118 118 118 125 125 125 
121 121 121 107 107 107 125 125 125 207 207 207 246 246 246 
249 249 249 217 217 217 145 145 145 105 105 105 119 119 119 
126 126 126 127 127 127 127 127 127 127 127 127 127 127 127 
127 127 127 127 127 127 127 127 127 125 125 125 111 111 111 
138 138 138 255 255 255 255 255 255 255 255 255 255 255 255 
255 255 255 255 255 255 255 255 255 134 134 134 111 111 111 
125 125 125 126 126 126 126 126 126 125 125 125 113 113 113 
127 127 127 254 254 254 255 255 255 255 255 255 255 255 255 
255 255 255 255 255 255 255 255 255 197 197 197 106 106 106 
120 120 120 126 126 126 127 127 127 111 111 111 181 181 181 
222 222 222 237 237 237 255 255 255 255 255 255 255 255 255 
255 255 255 255 255 255 255 255 255 240 240 240 222 222 222 
181 181 181 111 111 111 127 127 127 126 126 126 121 121 121 
106 106 106 192 192 192 255 255 255 255 255 255 255 255 255 
255 255 255 255 255 255 255 255 255 213 213 213 109 109 109 
118 118 118 126 126 126 126 126 126 126 126 126 122 122 122 
106 106 106 178 178 178 255 255 255 255 255 255 255 255 255 
255 255 255 255 255 255 255 255 255 207 207 207 108 108 108 
119 119 119 126 126 126 127 127 127 127 127 127 127 127 127 
127 127 127 127 127 127 126 126 126 118 118 118 123 123 123 
255 255 255 255 255 255 255 255 255 255 255 255 255 255 255 
255 255 255 255 255 255 255 255 255 255 255 255 123 123 123 
118 118 118 126 126 126 126 126 126 119 119 119 114 114 114 
255 255 255 255 255 255 255 255 255 255 255 255 255 255 255 
255 255 255 255 255 255 255 255 255 255 255 255 189 189 189 
109 109 109 125 125 125 127 127 127 111 111 111 177 177 177 
243 243 243 255 255 255 255 255 255 255 255 255 255 255 255 
255 255 255 255 255 255 255 255 255 255 255 255 250 250 250 
177 177 177 110 110 110 127 127 127 126 126 126 110 110 110 
181 181 181 255 255 255 255 255 255 255 255 255 255 255 255 
255 255 255 255 255 255 255 255 255 255 255 255 211 211 211 
109 109 109 124 124 124 127 127 127 126 126 126 111 111 111 
160 160 160 255 255 255 255 255 255 255 255 255 255 255 255 
255 255 255 255 255 255 255 255 255 255 255 255 203 203 203 
108 108 108 124 124 124 127 127 127 127 127 127 127 127 127 
127 127 127 127 127 127 126 126 126 108 108 108 201 201 201 
255 255 255 255 255 255 255 255 255 255 255 255 255 255 255 
255 255 255 255 255 255 255 255 255 255 255 255 204 204 204 
108 108 108 126 126 126 126 126 126 110 110 110 193 193 193 
255 255 255 255 255 255 255 255 255 255 255 255 255 255 255 
255 255 255 255 255 255 255 255 255 255 255 255 255 255 255 
118 118 118 120 120 120 127 127 127 109 109 109 178 178 178 
255 255 255 255 255 255 255 255 255 255 255 255 255 255 255 
255 255 255 255 255 255 255 255 255 255 255 255 255 255 255 
181 181 181 109 109 109 127 127 127 122 122 122 109 109 109 
255 255 255 255 255 255 255 255 255 255 255 255 255 255 255 
255 255 255 255 255 255 255 255 255 255 255 255 255 255 255 
129 129 129 118 118 118 127 127 127 123 123 123 103 103 103 
255 255 255 255 255 255 255 255 255 255 255 255 255 255 255 
255 255 255 255 255 255 255 255 255 255 255 255 255 255 255 
128 128 128 118 118 118 127 127 127 127 127 127 127 127 127 
127 127 127 127 127 127 124 124 124 110 110 110 255 255 255 
255 255 255 255 255 255 255 255 255 255 255 255 255 255 255 
255 255 255 255 255 255 255 255 255 255 255 255 255 255 255 
100 100 100 126 126 126 125 125 125 108 108 108 253 253 253 
255 255 255 255 255 255 255 255 255 255 255 255 255 255 255 
255 255 255 255 255 255 255 255 255 255 255 255 255 255 255 
171 171 171 111 111 111 125 125 125 108 108 108 193 193 193 
255 255 255 255 255 255 255 255 255 255 255 255 255 255 255 
255 255 255 255 255 255 255 255 255 255 255 255 255 255 255 
198 198 198 107 107 107 127 127 127 116 116 116 153 153 153 
255 255 255 255 255 255 255 255 255 255 255 255 255 255 255 
255 255 255 255 255 255 255 255 255 255 255 255 255 255 255 
186 186 186 110 110 110 127 127 127 118 118 118 142 142 142 
255 255 255 255 255 255 255 255 255 255 255 255 255 255 255 
255 255 255 255 255 255 255 255 255 255 255 255 255 255 255 
185 185 185 110 110 110 127 127 127 127 127 127 127 127 127 
127 127 127 127 127 127 123 123 123 113 113 113 255 255 255 
255 255 255 255 255 255 255 255 255 255 255 255 255 255 255 
255 255 255 255 255 255 255 255 255 255 255 255 255 255 255 
96 96 96 125 125 125 124 124 124 108 108 108 255 255 255 
255 255 255 255 255 255 255 255 255 255 255 255 255 255 255 
255 255 255 255 255 255 255 255 255 255 255 255 255 255 255 
207 207 207 118 118 118 133 133 133 108 108 108 195 195 195 
255 255 255 255 255 255 255 255 255 255 255 255 255 255 255 
255 255 255 255 255 255 255 255 255 255 255 255 255 255 255 
206 206 206 106 106 106 127 127 127 110 110 110 184 184 184 
255 255 255 255 255 255 255 255 255 255 255 255 255 255 255 
255 255 255 255 255 255 255 255 255 255 255 255 255 255 255 
216 216 216 104 104 104 126 126 126 113 113 113 174 174 174 
255 255 255 255 255 255 255 255 255 255 255 255 255 255 255 
255 255 255 255 255 255 255 255 255 255 255 255 255 255 255 
220 220 220 105 105 105 127 127 127 127 127 127 127 127 127 
127 127 127 127 127 127 123 123 123 113 113 113 255 255 255 
255 255 255 255 255 255 255 255 255 255 255 255 255 255 255 
255 255 255 255 255 255 255 255 255 255 255 255 255 255 255 
96 96 96 125 125 125 124 124 124 108 108 108 255 255 255 
255 255 255 255 255 255 255 255 255 255 255 255 255 255 255 
255 255 255 255 255 255 255 255 255 255 255 255 255 255 255 
216 216 216 106 106 106 125 125 125 112 112 112 173 173 173 
255 255 255 255 255 255 255 255 255 255 255 255 255 255 255 
255 255 255 255 255 255 255 255 255 255 255 255 255 255 255 
200 200 200 109 109 109 127 127 127 108 108 108 193 193 193 
255 255 255 255 255 255 255 255 255 255 255 255 255 255 255 
255 255 255 255 255 255 255 255 255 255 255 255 255 255 255 
223 223 223 105 105 105 126 126 126 114 114 114 167 167 167 
255 255 255 255 255 255 255 255 255 255 255 255 255 255 255 
255 255 255 255 255 255 255 255 255 255 255 255 255 255 255 
214 214 214 106 106 106 127 127 127 127 127 127 127 127 127 
127 127 127 127 127 127 123 123 123 113 113 113 255 255 255 
255 255 255 255 255 255 255 255 255 255 255 255 255 255 255 
255 255 255 255 255 255 255 255 255 255 255 255 255 255 255 
96 96 96 126 126 126 124 124 124 106 106 106 255 255 255 
255 255 255 255 255 255 255 255 255 255 255 255 255 255 255 
255 255 255 255 255 255 255 255 255 255 255 255 255 255 255 
215 215 215 103 103 103 126 126 126 119 119 119 128 128 128 
255 255 255 255 255 255 255 255 255 255 255 255 255 255 255 
255 255 255 255 255 255 255 255 255 255 255 255 255 255 255 
150 150 150 115 115 115 127 127 127 109 109 109 182 182 182 
255 255 255 255 255 255 255 255 255 255 255 255 255 255 255 
255 255 255 255 255 255 255 255 255 255 255 255 255 255 255 
221 221 221 105 105 105 125 125 125 119 119 119 130 130 130 
255 255 255 255 255 255 255 255 255 255 255 255 255 255 255 
255 255 255 255 255 255 255 255 255 255 255 255 255 255 255 
171 171 171 112 112 112 127 127 127 127 127 127 127 127 127 
127 127 127 127 127 127 123 123 123 112 112 112 252 252 252 
255 255 255 255 255 255 255 255 255 255 255 255 255 255 255 
255 255 255 255 255 255 255 255 255 255 255 255 255 255 255 
100 100 100 126 126 126 124 124 124 108 108 108 251 251 251 
255 255 255 255 255 255 255 255 255 255 255 255 255 255 255 
255 255 255 255 255 255 255 255 255 255 255 255 255 255 255 
229 229 229 107 107 107 123 123 123 124 124 124 107 107 107 
237 237 237 255 255 255 255 255 255 255 255 255 255 255 255 
255 255 255 255 255 255 255 255 255 255 255 255 255 255 255 
109 109 109 122 122 122 127 127 127 111 111 111 171 171 171 
255 255 255 255 255 255 255 255 255 255 255 255 255 255 255 
255 255 255 255 255 255 255 255 255 255 255 255 255 255 255 
228 228 228 111 111 111 122 122 122 124 124 124 103 103 103 
242 242 242 255 255 255 255 255 255 255 255 255 255 255 255 
255 255 255 255 255 255 255 255 255 255 255 255 255 255 255 
119 119 119 120 120 120 127 127 127 127 127 127 127 127 127 
127 127 127 127 127 127 123 123 123 116 116 116 236 236 236 
248 248 248 255 255 255 255 255 255 255 255 255 255 255 255 
255 255 255 255 255 255 255 255 255 251 251 251 238 238 238 
103 103 103 126 126 126 124 124 124 111 111 111 235 235 235 
246 246 246 255 255 255 255 255 255 255 255 255 255 255 255 
255 255 255 255 255 255 255 255 255 255 255 255 225 225 225 
228 228 228 148 148 148 115 115 115 126 126 126 114 114 114 
137 137 137 255 255 255 255 255 255 255 255 255 255 255 255 
255 255 255 255 255 255 255 255 255 255 255 255 151 151 151 
112 112 112 126 126 126 127 127 127 112 112 112 174 174 174 
234 234 234 255 255 255 255 255 255 255 255 255 255 255 255 
255 255 255 255 255 255 255 255 255 255 255 255 230 230 230 
228 228 228 149 149 149 115 115 115 126 126 126 114 114 114 
133 133 133 255 255 255 255 255 255 255 255 255 255 255 255 
255 255 255 255 255 255 255 255 255 255 255 255 174 174 174 
111 111 111 125 125 125 127 127 127 127 127 127 127 127 127 
127 127 127 127 127 127 123 123 123 117 117 117 237 237 237 
213 213 213 245 245 245 255 255 255 255 255 255 255 255 255 
255 255 255 255 255 255 246 246 246 211 211 211 239 239 239 
104 104 104 126 126 126 124 124 124 112 112 112 238 238 238 
212 212 212 242 242 242 255 255 255 255 255 255 255 255 255 
255 255 255 255 255 255 255 255 255 223 223 223 211 211 211 
223 223 223 216 216 216 104 104 104 122 122 122 124 124 124 
110 110 110 137 137 137 255 255 255 255 255 255 255 255 255 
255 255 255 255 255 255 255 255 255 153 153 153 109 109 109 
123 123 123 127 127 127 127 127 127 112 112 112 177 177 177 
223 223 223 221 221 221 255 255 255 255 255 255 255 255 255 
255 255 255 255 255 255 255 255 255 229 229 229 210 210 210 
223 223 223 213 213 213 108 108 108 122 122 122 124 124 124 
110 110 110 135 135 135 255 255 255 255 255 255 255 255 255 
255 255 255 255 255 255 255 255 255 170 170 170 106 106 106 
121 121 121 126 126 126 127 127 127 127 127 127 127 127 127 
127 127 127 127 127 127 123 123 123 117 117 117 240 240 240 
214 214 214 209 209 209 218 218 218 233 233 233 238 238 238 
233 233 233 219 219 219 209 209 209 214 214 214 242 242 242 
104 104 104 126 126 126 124 124 124 112 112 112 241 241 241 
214 214 214 210 210 210 216 216 216 230 230 230 238 238 238 
236 236 236 223 223 223 211 211 211 212 212 212 216 216 216 
217 217 217 228 228 228 165 165 165 107 107 107 124 124 124 
124 124 124 113 113 113 106 106 106 154 154 154 196 196 196 
196 196 196 154 154 154 107 107 107 111 111 111 123 123 123 
126 126 126 127 127 127 127 127 127 112 112 112 178 178 178 
228 228 228 212 212 212 211 211 211 225 225 225 236 236 236 
238 238 238 228 228 228 212 212 212 211 211 211 215 215 215 
218 218 218 229 229 229 160 160 160 108 108 108 124 124 124 
124 124 124 113 113 113 106 106 106 148 148 148 195 195 195 
198 198 198 163 163 163 111 111 111 109 109 109 122 122 122 
126 126 126 127 127 127 127 127 127 127 127 127 127 127 127 
127 127 127 127 127 127 123 123 123 117 117 117 240 240 240 
216 216 216 216 216 216 214 214 214 212 212 212 211 211 211 
212 212 212 214 214 214 216 216 216 216 216 216 243 243 243 
104 104 104 126 126 126 124 124 124 112 112 112 241 241 241 
216 216 216 216 216 216 214 214 214 212 212 212 211 211 211 
212 212 212 213 213 213 215 215 215 216 216 216 215 215 215 
211 211 211 224 224 224 255 255 255 132 132 132 108 108 108 
123 123 123 126 126 126 122 122 122 116 116 116 109 109 109 
109 109 109 115 115 115 122 122 122 126 126 126 126 126 126 
126 126 126 126 126 126 127 127 127 112 112 112 178 178 178 
229 229 229 216 216 216 215 215 215 213 213 213 211 211 211 
211 211 211 213 213 213 215 215 215 216 216 216 216 216 216 
212 212 212 220 220 220 255 255 255 134 134 134 108 108 108 
123 123 123 126 126 126 122 122 122 116 116 116 110 110 110 
109 109 109 114 114 114 121 121 121 126 126 126 124 124 124 
123 123 123 123 123 123 126 126 126 127 127 127 127 127 127 
127 127 127 127 127 127 123 123 123 115 115 115 239 239 239 
212 212 212 215 215 215 216 216 216 217 217 217 217 217 217 
217 217 217 216 216 216 215 215 215 212 212 212 240 240 240 
101 101 101 126 126 126 124 124 124 110 110 110 243 243 243 
211 211 211 215 215 215 216 216 216 217 217 217 217 217 217 
217 217 217 217 217 217 216 216 216 213 213 213 209 209 209 
224 224 224 255 255 255 255 255 255 255 255 255 150 150 150 
100 100 100 116 116 116 124 124 124 127 127 127 127 127 127 
127 127 127 127 127 127 125 125 125 117 117 117 110 110 110 
123 123 123 119 119 119 127 127 127 110 110 110 179 179 179 
223 223 223 213 213 213 216 216 216 217 217 217 217 217 217 
217 217 217 217 217 217 216 216 216 214 214 214 210 210 210 
218 218 218 255 255 255 255 255 255 255 255 255 146 146 146 
100 100 100 116 116 116 125 125 125 127 127 127 127 127 127 
127 127 127 127 127 127 126 126 126 119 119 119 105 105 105 
149 149 149 123 123 123 124 124 124 127 127 127 127 127 127 
127 127 127 114 114 114 110 110 110 109 109 109 255 255 255 
226 226 226 208 208 208 209 209 209 211 211 211 211 211 211 
211 211 211 209 209 209 208 208 208 226 226 226 255 255 255 
88 88 88 109 109 109 107 107 107 101 101 101 255 255 255 
232 232 232 209 209 209 209 209 209 210 210 210 211 211 211 
211 211 211 210 210 210 207 207 207 215 215 215 245 245 245 
255 255 255 255 255 255 255 255 255 255 255 255 255 255 255 
221 221 221 122 122 122 96 96 96 105 105 105 109 109 109 
109 109 109 105 105 105 97 97 97 114 114 114 222 222 222 
218 218 218 101 101 101 114 114 114 97 97 97 199 199 199 
255 255 255 215 215 215 208 208 208 210 210 210 211 211 211 
211 211 211 210 210 210 208 208 208 212 212 212 238 238 238 
255 255 255 255 255 255 255 255 255 255 255 255 255 255 255 
220 220 220 116 116 116 97 97 97 105 105 105 109 109 109 
109 109 109 106 106 106 99 99 99 105 105 105 191 191 191 
255 255 255 118 118 118 110 110 110 114 114 114 127 127 127 
170 170 170 157 157 157 155 155 155 153 153 153 255 255 255 
255 255 255 255 255 255 241 241 241 234 234 234 232 232 232 
234 234 234 241 241 241 255 255 255 255 255 255 255 255 255 
163 163 163 179 179 179 178 178 178 169 169 169 255 255 255 
255 255 255 255 255 255 247 247 247 233 233 233 232 232 232 
232 232 232 238 238 238 251 251 251 255 255 255 255 255 255 
255 255 255 255 255 255 255 255 255 255 255 255 255 255 255 
255 255 255 255 255 255 238 238 238 190 190 190 179 179 179 
179 179 179 189 189 189 232 232 232 255 255 255 255 255 255 
222 222 222 145 145 145 157 157 157 146 146 146 213 213 213 
255 255 255 255 255 255 249 249 249 237 237 237 232 232 232 
232 232 232 235 235 235 248 248 248 255 255 255 255 255 255 
255 255 255 255 255 255 255 255 255 255 255 255 255 255 255 
255 255 255 255 255 255 237 237 237 190 190 190 179 179 179 
179 179 179 187 187 187 224 224 224 255 255 255 255 255 255 
255 255 255 155 155 155 155 155 155 157 157 157 170 170 170 
254 254 254 255 255 255 255 255 255 255 255 255 255 255 255 
255 255 255 255 255 255 255 255 255 255 255 255 255 255 255 
255 255 255 255 255 255 255 255 255 255 255 255 255 255 255 
255 255 255 255 255 255 255 255 255 255 255 255 255 255 255 
255 255 255 255 255 255 255 255 255 255 255 255 255 255 255 
255 255 255 255 255 255 255 255 255 255 255 255 255 255 255 
255 255 255 255 255 255 255 255 255 255 255 255 255 255 255 
255 255 255 255 255 255 255 255 255 255 255 255 255 255 255 
255 255 255 255 255 255 255 255 255 255 255 255 255 255 255 
255 255 255 255 255 255 255 255 255 255 255 255 255 255 255 
255 255 255 255 255 255 255 255 255 255 255 255 255 255 255 
255 255 255 255 255 255 255 255 255 255 255 255 255 255 255 
255 255 255 255 255 255 255 255 255 255 255 255 255 255 255 
255 255 255 255 255 255 255 255 255 255 255 255 255 255 255 
255 255 255 255 255 255 255 255 255 255 255 255 255 255 255 
255 255 255 255 255 255 255 255 255 255 255 255 254 254 254 
255 255 255 255 255 255 255 255 255 255 255 255 255 255 255 
255 255 255 255 255 255 255 255 255 255 255 255 255 255 255 
255 255 255 255 255 255 255 255 255 255 255 255 255 255 255 
255 255 255 255 255 255 255 255 255 255 255 255 255 255 255 
255 255 255 255 255 255 255 255 255 255 255 255 255 255 255 
255 255 255 255 255 255 255 255 255 255 255 255 255 255 255 
255 255 255 255 255 255 255 255 255 255 255 255 255 255 255 
255 255 255 255 255 255 255 255 255 255 255 255 255 255 255 
255 255 255 255 255 255 255 255 255 255 255 255 255 255 255 
255 255 255 255 255 255 255 255 255 255 255 255 255 255 255 
255 255 255 255 255 255 255 255 255 255 255 255 255 255 255 
255 255 255 255 255 255 255 255 255 255 255 255 255 255 255 
255 255 255 255 255 255 255 255 255 255 255 255 255 255 255 
255 255 255 255 255 255 255 255 255 255 255 255 255 255 255 
255 255 255 255 255 255 255 255 255 255 255 255 255 255 255 
255 255 255 255 255 255 255 255 255 255 255 255 255 255 255 
